<svg width="45" height="45" viewBox="0 0 45 45" fill="none" xmlns="http://www.w3.org/2000/svg">
<path d="M32.4937 41.7446C30.6424 41.7446 29.0351 40.4271 28.6721 38.6116L27.7754 34.1282H16.567L15.6703 38.6117C15.3072 40.4271 13.7 41.7446 11.8487 41.7446C11.1312 41.7446 10.5496 42.3263 10.5496 43.0437H33.7929C33.7928 42.3263 33.2113 41.7446 32.4937 41.7446Z" fill="#D0D1E3"/>
<path d="M36.0285 44.3428H8.31424C7.59679 44.3428 7.01514 43.7612 7.01514 43.0437C7.01514 42.3263 7.59679 41.7446 8.31424 41.7446H36.0285C36.746 41.7446 37.3276 42.3263 37.3276 43.0437C37.3276 43.7612 36.746 44.3428 36.0285 44.3428Z" fill="#E7E7F5"/>
<path d="M40.4455 35.6821H3.89732C1.74834 35.6821 0 33.9338 0 31.7848V3.89732C0 1.74834 1.74834 0 3.89732 0H40.4455C42.5945 0 44.3428 1.74834 44.3428 3.89732V31.7848C44.3428 33.9338 42.5945 35.6821 40.4455 35.6821Z" fill="#E7E7F5"/>
<path d="M3.89725 2.59821C3.18092 2.59821 2.59814 3.18098 2.59814 3.89731V31.7848C2.59814 32.5011 3.18092 33.0839 3.89725 33.0839H40.4454C41.1618 33.0839 41.7445 32.5011 41.7445 31.7848V3.89731C41.7445 3.18098 41.1618 2.59821 40.4454 2.59821H3.89725Z" fill="#F2F2FA"/>
<path d="M28.2337 21.6517H16.1087C15.3912 21.6517 14.8096 21.0701 14.8096 20.3526V19.4865C14.8096 15.4274 18.112 12.1249 22.1712 12.1249C26.2304 12.1249 29.5328 15.4274 29.5328 19.4865V20.3526C29.5328 21.0701 28.9511 21.6517 28.2337 21.6517Z" fill="#5B5CEE"/>
<path d="M22.1713 14.7232C19.5448 14.7232 17.408 12.5863 17.408 9.9598C17.408 7.33327 19.5448 5.19641 22.1713 5.19641C24.7979 5.19641 26.9347 7.33327 26.9347 9.9598C26.9347 12.5863 24.7979 14.7232 22.1713 14.7232Z" fill="#FFDDCE"/>
<path d="M37.7606 28.7535H6.58207C5.86461 28.7535 5.28296 28.1719 5.28296 27.4544C5.28296 26.737 5.86461 26.1553 6.58207 26.1553H37.7606C38.4781 26.1553 39.0597 26.737 39.0597 27.4544C39.0597 28.1719 38.4781 28.7535 37.7606 28.7535Z" fill="#9090AB"/>
<path d="M12.6446 30.4857C11.9271 30.4857 11.3455 29.9041 11.3455 29.1866V25.7223C11.3455 25.0049 11.9271 24.4232 12.6446 24.4232C13.362 24.4232 13.9437 25.0049 13.9437 25.7223V29.1866C13.9437 29.9041 13.362 30.4857 12.6446 30.4857Z" fill="#F4F4F6"/>
</svg>
