<svg width="269" height="304" viewBox="0 0 269 304" fill="none" xmlns="http://www.w3.org/2000/svg">
<path d="M167.818 275.107V252.616H101.442V275.107C101.431 282.433 98.9458 289.542 94.3871 295.285L91.481 298.937H177.779L174.873 295.285C170.314 289.542 167.829 282.433 167.818 275.107Z" fill="white" stroke="#141F31" stroke-linecap="round" stroke-linejoin="round"/>
<path d="M97.3599 290.857H171.9C169.224 286.037 167.82 280.617 167.818 275.107V252.616H101.442V275.107C101.441 280.617 100.036 286.037 97.3599 290.857V290.857Z" fill="#141F31"/>
<path d="M258.375 60.046H10.4063C5.21134 60.046 1 64.2483 1 69.4321V250.325C1 255.508 5.21134 259.711 10.4063 259.711H258.375C263.57 259.711 267.782 255.508 267.782 250.325V69.4321C267.782 64.2483 263.57 60.046 258.375 60.046Z" fill="#141F31" stroke="#141F31" stroke-linecap="round" stroke-linejoin="round"/>
<path d="M1.23389 228.675H268.027V250.314C268.027 252.803 267.036 255.19 265.272 256.951C263.507 258.711 261.115 259.7 258.62 259.7H10.6513C8.15657 259.7 5.76404 258.711 4.00002 256.951C2.236 255.19 1.24498 252.803 1.24498 250.314V250.314V228.675H1.23389Z" fill="white" stroke="#141F31" stroke-linecap="round" stroke-linejoin="round"/>
<path d="M254.604 72.476H14.6553V213.533H254.604V72.476Z" fill="white" stroke="#141F31" stroke-linecap="round" stroke-linejoin="round"/>
<path d="M139.555 244.193C139.555 243.221 139.266 242.271 138.725 241.462C138.184 240.654 137.415 240.024 136.515 239.652C135.615 239.28 134.625 239.183 133.669 239.373C132.714 239.562 131.836 240.03 131.148 240.718C130.459 241.405 129.99 242.281 129.8 243.234C129.61 244.187 129.707 245.175 130.08 246.073C130.453 246.971 131.084 247.739 131.894 248.279C132.704 248.819 133.656 249.107 134.63 249.107C135.936 249.107 137.189 248.589 138.113 247.668C139.036 246.746 139.555 245.496 139.555 244.193V244.193Z" fill="#141F31" stroke="#141F31" stroke-linecap="round" stroke-linejoin="round"/>
<path d="M177.79 298.982H91.481V303H177.79V298.982Z" fill="white" stroke="#141F31" stroke-linecap="round" stroke-linejoin="round"/>
<path d="M17.5 83.3218H251.5V106.27H17.5V83.3218Z" fill="white" stroke="#141F31" stroke-linecap="round" stroke-linejoin="round"/>
<path d="M55.3087 94.6458C55.3811 94.8425 55.5684 94.9732 55.7779 94.9732H251.5V207.053H17.5V104.631V94.4732V87.3131H52.6104L55.3087 94.6458Z" fill="#5B5CEE" stroke="#141F31" stroke-linecap="round" stroke-linejoin="round"/>
<path d="M80.0117 150.686H190.58" stroke="#141F31" stroke-width="2" stroke-linecap="round" stroke-linejoin="round"/>
<path d="M80.0117 161.533H190.58" stroke="#141F31" stroke-width="2" stroke-linecap="round" stroke-linejoin="round"/>
<path d="M80.0117 172.38H190.58" stroke="#141F31" stroke-width="2" stroke-linecap="round" stroke-linejoin="round"/>
<path d="M80.0117 183.239H190.58" stroke="#141F31" stroke-width="2" stroke-linecap="round" stroke-linejoin="round"/>
<path d="M184.734 121.764H84.5373C83.506 121.766 82.4845 121.564 81.5311 121.172C80.5777 120.779 79.7112 120.203 78.9809 119.477C78.2506 118.75 77.6709 117.887 77.2749 116.937C76.8789 115.987 76.6743 114.968 76.6729 113.939V113.939C76.6714 112.91 76.8731 111.89 77.2664 110.939C77.6597 109.988 78.237 109.123 78.9652 108.394C79.6934 107.666 80.5584 107.087 81.5106 106.692C82.4629 106.297 83.4838 106.093 84.5151 106.091H184.734C185.768 106.09 186.791 106.292 187.746 106.686C188.7 107.079 189.568 107.657 190.299 108.386C191.029 109.115 191.608 109.981 192.003 110.934C192.398 111.887 192.6 112.908 192.599 113.939V113.939C192.597 114.968 192.393 115.987 191.997 116.937C191.601 117.887 191.021 118.75 190.291 119.477C189.56 120.203 188.694 120.779 187.741 121.172C186.787 121.564 185.766 121.766 184.734 121.764Z" fill="white" stroke="#141F31" stroke-linecap="round" stroke-linejoin="round"/>
<path d="M184.734 121.764H171.046V106.069H184.734C185.767 106.068 186.79 106.269 187.745 106.663C188.7 107.057 189.568 107.635 190.298 108.364C191.029 109.093 191.608 109.959 192.003 110.912C192.397 111.864 192.6 112.886 192.598 113.917V113.917C192.6 114.948 192.397 115.969 192.003 116.921C191.608 117.874 191.029 118.74 190.298 119.469C189.568 120.198 188.7 120.776 187.745 121.17C186.79 121.564 185.767 121.766 184.734 121.764V121.764Z" fill="#141F31" stroke="#141F31" stroke-linecap="round" stroke-linejoin="round"/>
<path d="M181.684 108.061C181.032 107.452 180.214 107.049 179.333 106.904C178.452 106.759 177.547 106.878 176.734 107.245C175.92 107.613 175.234 108.214 174.763 108.971C174.291 109.728 174.055 110.607 174.085 111.498C174.114 112.389 174.408 113.251 174.929 113.975C175.449 114.699 176.173 115.253 177.009 115.567C177.845 115.88 178.756 115.939 179.625 115.736C180.495 115.533 181.285 115.077 181.894 114.426V114.426C182.301 113.997 182.618 113.491 182.828 112.939C183.038 112.387 183.137 111.798 183.118 111.208C183.1 110.618 182.964 110.037 182.72 109.498C182.476 108.96 182.127 108.476 181.695 108.072L181.684 108.061ZM181.24 113.818C180.75 114.336 180.117 114.699 179.421 114.859C178.725 115.02 177.997 114.971 177.329 114.718C176.661 114.466 176.082 114.022 175.667 113.442C175.251 112.862 175.017 112.173 174.994 111.46C174.971 110.748 175.159 110.044 175.536 109.439C175.913 108.833 176.462 108.352 177.112 108.058C177.763 107.763 178.486 107.667 179.191 107.782C179.896 107.896 180.551 108.217 181.074 108.703C181.775 109.36 182.186 110.267 182.218 111.226C182.249 112.185 181.897 113.117 181.24 113.818V113.818Z" fill="white"/>
<path d="M185.078 116.064C184.979 115.967 184.854 115.902 184.718 115.874C184.582 115.847 184.442 115.859 184.313 115.909L182.682 114.381C182.599 114.3 182.488 114.255 182.371 114.255C182.255 114.255 182.144 114.3 182.061 114.381L181.917 114.536C181.837 114.622 181.793 114.735 181.793 114.852C181.793 114.969 181.837 115.081 181.917 115.167L183.525 116.673C183.477 116.81 183.47 116.957 183.503 117.099C183.537 117.24 183.61 117.369 183.714 117.47L186.487 120.182C186.67 120.363 186.917 120.465 187.174 120.465C187.432 120.465 187.679 120.363 187.862 120.182V120.182C188.044 119.999 188.146 119.753 188.146 119.496C188.146 119.238 188.044 118.992 187.862 118.809L185.078 116.064Z" fill="white"/>
<path d="M72.7309 7.81262C72.7296 8.13803 72.6316 8.45573 72.4495 8.72563C72.2673 8.99552 72.0091 9.20552 71.7075 9.3291C71.4058 9.45268 71.0743 9.4843 70.7546 9.41998C70.435 9.35566 70.1416 9.19828 69.9115 8.9677C69.6815 8.73712 69.525 8.44369 69.4619 8.12444C69.3988 7.80519 69.4318 7.47443 69.5569 7.17393C69.682 6.87342 69.8935 6.61664 70.1647 6.43599C70.436 6.25535 70.7547 6.15894 71.0808 6.15894C71.2981 6.15893 71.5132 6.20176 71.7139 6.28495C71.9145 6.36814 72.0967 6.49005 72.2501 6.6437C72.4034 6.79736 72.5248 6.97971 72.6073 7.18031C72.6898 7.3809 72.7318 7.59579 72.7309 7.81262V7.81262Z" fill="#F5F5F5"/>
<path d="M85.0932 7.45892C85.0918 7.78373 84.9942 8.10089 84.8127 8.37048C84.6312 8.64007 84.3738 8.85006 84.0729 8.97404C83.7721 9.09802 83.4413 9.13044 83.122 9.06724C82.8027 9.00403 82.5093 8.84802 82.2787 8.61882C82.0481 8.38962 81.8905 8.09747 81.8259 7.77914C81.7612 7.4608 81.7923 7.13049 81.9153 6.82975C82.0383 6.52902 82.2476 6.27128 82.517 6.08899C82.7864 5.90669 83.1038 5.80797 83.4292 5.80523C83.6477 5.8034 83.8643 5.84487 84.0666 5.92724C84.2688 6.00961 84.4527 6.13124 84.6075 6.28508C84.7623 6.43891 84.8849 6.62189 84.9683 6.82339C85.0517 7.0249 85.0941 7.24091 85.0932 7.45892V7.45892Z" fill="#F5F5F5"/>
<path d="M79.2138 7.45886C79.2125 7.78427 79.1145 8.10197 78.9324 8.37187C78.7502 8.64177 78.492 8.85176 78.1904 8.97534C77.8887 9.09892 77.5572 9.13054 77.2375 9.06622C76.9179 9.0019 76.6245 8.84452 76.3944 8.61395C76.1644 8.38337 76.0079 8.08993 75.9448 7.77068C75.8817 7.45143 75.9147 7.12067 76.0398 6.82017C76.1649 6.51966 76.3764 6.26288 76.6476 6.08224C76.9189 5.90159 77.2376 5.80518 77.5637 5.80518C77.781 5.80517 77.9961 5.848 78.1968 5.93119C78.3974 6.01438 78.5796 6.1363 78.733 6.28995C78.8863 6.4436 79.0077 6.62595 79.0902 6.82655C79.1727 7.02714 79.2147 7.24203 79.2138 7.45886V7.45886Z" fill="#F5F5F5"/>
<path d="M200.928 116.493C201.17 116.684 201.391 116.899 201.587 117.136L203.292 118.97C204.714 120.533 206.662 122.706 208.798 125.127C210.933 127.549 212.854 129.742 214.226 131.354L215.842 133.27C216.05 133.496 216.236 133.741 216.396 134.003C216.144 133.814 215.911 133.598 215.703 133.36L214.004 131.527C212.583 129.963 210.635 127.784 208.499 125.369C206.364 122.955 204.443 120.755 203.071 119.143L201.455 117.226C201.255 117 201.079 116.754 200.928 116.493Z" fill="#E0E0E0"/>
<path d="M58 0.5H210.32C213.358 0.5 215.82 2.96243 215.82 6V207.053H134.16H52.5V6C52.5 2.96243 54.9624 0.5 58 0.5Z" fill="white" stroke="#141F31"/>
<path d="M188.635 96.5814H118.165V108.287H188.635V96.5814Z" fill="#EBEBEB"/>
<mask id="path-24-inside-1" fill="white">
<path d="M125.077 105.244C124.633 105.244 124.199 105.112 123.829 104.866C123.46 104.62 123.172 104.27 123.002 103.86C122.832 103.45 122.788 103 122.874 102.565C122.961 102.13 123.175 101.73 123.489 101.417C123.803 101.103 124.203 100.89 124.639 100.803C125.075 100.717 125.527 100.761 125.937 100.931C126.348 101.101 126.698 101.388 126.945 101.757C127.192 102.125 127.324 102.559 127.324 103.002C127.324 103.597 127.087 104.167 126.666 104.587C126.245 105.008 125.673 105.244 125.077 105.244V105.244ZM125.077 100.933C124.666 100.933 124.264 101.055 123.922 101.283C123.58 101.511 123.313 101.835 123.156 102.215C122.998 102.594 122.957 103.011 123.037 103.414C123.118 103.817 123.316 104.186 123.607 104.477C123.898 104.767 124.268 104.965 124.672 105.045C125.075 105.125 125.493 105.084 125.873 104.927C126.254 104.77 126.578 104.504 126.807 104.162C127.035 103.821 127.157 103.42 127.157 103.009C127.156 102.46 126.936 101.933 126.546 101.546C126.156 101.158 125.628 100.94 125.077 100.94V100.933Z"/>
</mask>
<path d="M125.077 105.244C124.633 105.244 124.199 105.112 123.829 104.866C123.46 104.62 123.172 104.27 123.002 103.86C122.832 103.45 122.788 103 122.874 102.565C122.961 102.13 123.175 101.73 123.489 101.417C123.803 101.103 124.203 100.89 124.639 100.803C125.075 100.717 125.527 100.761 125.937 100.931C126.348 101.101 126.698 101.388 126.945 101.757C127.192 102.125 127.324 102.559 127.324 103.002C127.324 103.597 127.087 104.167 126.666 104.587C126.245 105.008 125.673 105.244 125.077 105.244V105.244ZM125.077 100.933C124.666 100.933 124.264 101.055 123.922 101.283C123.58 101.511 123.313 101.835 123.156 102.215C122.998 102.594 122.957 103.011 123.037 103.414C123.118 103.817 123.316 104.186 123.607 104.477C123.898 104.767 124.268 104.965 124.672 105.045C125.075 105.125 125.493 105.084 125.873 104.927C126.254 104.77 126.578 104.504 126.807 104.162C127.035 103.821 127.157 103.42 127.157 103.009C127.156 102.46 126.936 101.933 126.546 101.546C126.156 101.158 125.628 100.94 125.077 100.94V100.933Z" fill="#141F31"/>
<path d="M125.077 100.933H126.077V99.9332L125.077 99.9332L125.077 100.933ZM127.157 103.009L128.157 103.009L128.157 103.006L127.157 103.009ZM125.077 100.94H124.077V101.94L125.077 101.94L125.077 100.94ZM125.077 104.244C124.83 104.244 124.589 104.171 124.384 104.034L123.275 105.698C123.808 106.054 124.436 106.244 125.077 106.244V104.244ZM124.384 104.034C124.179 103.897 124.02 103.703 123.926 103.477L122.078 104.243C122.324 104.836 122.741 105.342 123.275 105.698L124.384 104.034ZM123.926 103.477C123.832 103.25 123.807 103.001 123.855 102.76L121.894 102.369C121.768 102.999 121.832 103.651 122.078 104.243L123.926 103.477ZM123.855 102.76C123.903 102.52 124.021 102.299 124.195 102.125L122.783 100.709C122.328 101.162 122.019 101.74 121.894 102.369L123.855 102.76ZM124.195 102.125C124.37 101.951 124.592 101.832 124.834 101.784L124.444 99.8225C123.815 99.9474 123.237 100.256 122.783 100.709L124.195 102.125ZM124.834 101.784C125.076 101.736 125.327 101.761 125.555 101.855L126.319 100.007C125.726 99.7616 125.074 99.6975 124.444 99.8225L124.834 101.784ZM125.555 101.855C125.783 101.949 125.978 102.109 126.114 102.313L127.776 101.2C127.419 100.667 126.912 100.252 126.319 100.007L125.555 101.855ZM126.114 102.313C126.251 102.517 126.324 102.757 126.324 103.002H128.324C128.324 102.36 128.133 101.733 127.776 101.2L126.114 102.313ZM126.324 103.002C126.324 103.331 126.193 103.646 125.96 103.879L127.372 105.295C127.981 104.687 128.324 103.863 128.324 103.002H126.324ZM125.96 103.879C125.726 104.113 125.409 104.244 125.077 104.244L125.077 106.244C125.938 106.244 126.763 105.903 127.372 105.295L125.96 103.879ZM125.077 99.9332C124.469 99.9332 123.874 100.113 123.367 100.451L124.477 102.115C124.654 101.997 124.863 101.933 125.077 101.933L125.077 99.9332ZM123.367 100.451C122.861 100.789 122.466 101.269 122.232 101.831L124.079 102.598C124.161 102.402 124.299 102.233 124.477 102.115L123.367 100.451ZM122.232 101.831C121.999 102.394 121.938 103.012 122.057 103.609L124.018 103.218C123.977 103.01 123.998 102.794 124.079 102.598L122.232 101.831ZM122.057 103.609C122.176 104.206 122.469 104.755 122.9 105.185L124.313 103.769C124.162 103.618 124.06 103.427 124.018 103.218L122.057 103.609ZM122.9 105.185C123.331 105.615 123.88 105.907 124.477 106.026L124.866 104.064C124.656 104.022 124.464 103.92 124.313 103.769L122.9 105.185ZM124.477 106.026C125.074 106.144 125.693 106.083 126.255 105.851L125.491 104.003C125.294 104.084 125.076 104.106 124.866 104.064L124.477 106.026ZM126.255 105.851C126.818 105.618 127.299 105.224 127.638 104.719L125.976 103.606C125.858 103.783 125.689 103.921 125.491 104.003L126.255 105.851ZM127.638 104.719C127.977 104.213 128.157 103.618 128.157 103.009H126.157C126.157 103.221 126.094 103.429 125.976 103.606L127.638 104.719ZM128.157 103.006C128.155 102.191 127.829 101.411 127.251 100.837L125.841 102.255C126.043 102.456 126.157 102.728 126.157 103.012L128.157 103.006ZM127.251 100.837C126.674 100.262 125.892 99.9401 125.077 99.9402L125.077 101.94C125.364 101.94 125.638 102.053 125.841 102.255L127.251 100.837ZM126.077 100.94V100.933H124.077V100.94H126.077Z" fill="#141F31" mask="url(#path-24-inside-1)"/>
<path d="M52.5 12.2615H215.82V43.0863H52.5V12.2615Z" fill="#5B5CEE" stroke="#141F31"/>
<path d="M58 0.5H210.251C213.288 0.5 215.751 2.96244 215.751 6V11.7456H52.5V6C52.5 2.96244 54.9624 0.5 58 0.5Z" fill="#141F31" stroke="#141F31"/>
<path d="M188.947 50.9059H118.865V69.3435H188.947V50.9059Z" fill="#EBEBEB"/>
<path d="M128.717 78.2134C128.719 78.9338 128.506 79.6384 128.105 80.238C127.705 80.8376 127.136 81.3051 126.469 81.5814C125.802 81.8578 125.069 81.9304 124.36 81.7902C123.652 81.65 123.002 81.3032 122.492 80.7938C121.981 80.2844 121.634 79.6353 121.493 78.9286C121.353 78.222 121.425 77.4897 121.702 76.8243C121.979 76.159 122.448 75.5907 123.048 75.1913C123.649 74.7919 124.355 74.5794 125.077 74.5808C126.043 74.5808 126.968 74.9635 127.651 75.6448C128.334 76.326 128.717 77.25 128.717 78.2134Z" fill="#E0E0E0"/>
<path d="M188.635 86.6812H174.686V88.5978H188.635V86.6812Z" fill="#5B5CEE"/>
<path d="M188.635 131.284H174.686V133.201H188.635V131.284Z" fill="#5B5CEE"/>
<path d="M188.635 143.675H118.165V185.781H188.635V143.675Z" fill="#EBEBEB"/>
<path d="M118.165 185.781L147.41 166.686L156.368 173.051L174.686 160.805L188.635 171.577V185.781H118.165Z" fill="#141F31"/>
<path d="M158.392 163.137C161.149 163.137 163.384 160.907 163.384 158.156C163.384 155.405 161.149 153.174 158.392 153.174C155.635 153.174 153.4 155.405 153.4 158.156C153.4 160.907 155.635 163.137 158.392 163.137Z" fill="#141F31"/>
<path d="M89.7657 92.5272H82.4233V99.8547H89.7657V92.5272Z" fill="#E0E0E0"/>
<path d="M98.7027 92.5272H91.3604V99.8547H98.7027V92.5272Z" fill="#EBEBEB"/>
<path d="M107.703 92.5272H100.36V99.8547H107.703V92.5272Z" fill="#EBEBEB"/>
<path d="M89.7657 101.279H82.4233V108.606H89.7657V101.279Z" fill="#EBEBEB"/>
<path d="M98.7027 101.279H91.3604V108.606H98.7027V101.279Z" fill="#F5F5F5"/>
<path d="M107.703 101.279H100.36V108.606H107.703V101.279Z" fill="#E0E0E0"/>
<path d="M89.7657 110.038H82.4233V117.365H89.7657V110.038Z" fill="#E0E0E0"/>
<path d="M98.7027 110.038H91.3604V117.365H98.7027V110.038Z" fill="#EBEBEB"/>
<path d="M107.703 110.038H100.36V117.365H107.703V110.038Z" fill="#E0E0E0"/>
<rect x="135.817" y="75.2174" width="39.52" height="0.69192" fill="#141F31"/>
<rect x="122.644" y="125.722" width="33.28" height="0.69192" fill="#141F31"/>
<rect x="122.644" y="120.187" width="39.52" height="0.69192" fill="#141F31"/>
<rect x="122.644" y="114.652" width="39.52" height="0.69192" fill="#141F31"/>
<rect x="131.657" y="102.891" width="39.52" height="0.69192" fill="#141F31"/>
<rect x="135.817" y="80.7528" width="24.96" height="0.69192" fill="#141F31"/>
<rect x="122.644" y="131.257" width="19.4133" height="0.69192" fill="#141F31"/>
<path d="M113.334 44.9253C115.003 34.8201 108.147 25.2797 98.0224 23.6145C87.8979 21.9492 78.3358 28.7891 76.6665 38.8943C74.9973 48.9995 81.8536 58.5399 91.9781 60.2051C102.103 61.8704 111.665 55.0305 113.334 44.9253Z" fill="white" stroke="#141F31" stroke-miterlimit="10"/>
<path d="M108.679 53.6886C106.999 55.6369 104.921 57.204 102.584 58.2848C100.247 59.3656 97.7056 59.935 95.13 59.9548C92.5543 59.9746 90.0041 59.4444 87.6508 58.3997C85.2974 57.355 83.1952 55.82 81.4854 53.8978C82.2133 52.7112 83.3529 51.6501 84.645 51.4333C85.1655 51.3447 85.6808 51.2279 86.1886 51.0834C86.3105 51.053 86.4287 51.0188 86.5468 50.9808C86.8822 50.8781 87.2138 50.764 87.5378 50.6385C87.7017 50.5738 87.8617 50.5092 88.0218 50.4369C88.1819 50.3646 88.3801 50.281 88.5592 50.1973C88.7384 50.1136 88.9099 50.0224 89.0814 49.9311C89.2529 49.8398 89.4244 49.7447 89.5921 49.6459C89.7598 49.547 89.9275 49.4443 90.0914 49.3378C90.2553 49.2313 90.362 49.159 90.4954 49.064C90.5429 49.0349 90.5887 49.0031 90.6326 48.9689C90.7698 48.87 90.9032 48.7673 91.0366 48.6646C91.1929 48.5429 91.3415 48.4212 91.4902 48.2843C91.6388 48.1474 91.7798 48.0257 91.9246 47.904C92.2029 47.6378 92.4735 47.3563 92.7288 47.0597L93.735 46.8886L93.8875 46.8619L97.737 46.204L98.9909 45.9872L99.3149 45.934C99.7379 46.8733 100.63 47.4818 101.602 47.8812L101.727 47.9344C101.964 48.0295 102.204 48.1094 102.444 48.1816C103.717 48.5619 105.07 48.7863 106.175 49.5203C107.578 50.4407 108.321 52.0152 108.679 53.6886Z" fill="#5B5CEE"/>
<path d="M92.809 46.7445C92.1643 47.4863 91.3017 48.0065 90.3438 48.2311C89.3859 48.4557 88.3814 48.3734 87.4731 47.9958C87.3946 48.2609 87.372 48.5394 87.4068 48.8136C87.4415 49.0879 87.5329 49.352 87.6751 49.5893C87.3726 49.4285 87.1181 49.1908 86.9374 48.9003C86.7567 48.6097 86.6562 48.2767 86.646 47.9349C86.4063 48.4576 86.2569 49.0169 86.2039 49.5893C84.4011 49.9354 82.4878 48.8857 81.5922 47.2846C81.1706 46.463 80.9429 45.5562 80.9264 44.6334C80.9099 43.7105 81.105 42.7962 81.4969 41.9601L80.483 43.2874C80.1553 42.485 80.4259 41.5608 80.8642 40.8192C81.3025 40.0776 81.9199 39.4462 82.3659 38.7046C83.5474 36.7194 83.3911 34.2549 83.7646 31.9806C83.8525 31.123 84.1698 30.3047 84.6832 29.6113C85.2358 28.9571 86.1848 28.5654 86.97 28.881C87.111 27.8124 88.4602 27.3141 89.4626 26.9072C91.1205 26.2416 92.8928 25.5875 94.6537 25.8956C97.4779 26.39 99.3607 29.1625 102.063 30.1095C103.462 30.6001 104.99 30.5697 106.419 30.9614C107.849 31.3531 109.297 32.3952 109.388 33.8708L107.864 33.0759C108.97 34.5003 109.616 36.2268 109.716 38.0262C109.816 39.8255 109.366 41.6127 108.424 43.1505L108.138 41.7472C108.298 42.4279 107.734 43.0516 107.185 43.489C105.68 44.687 103.789 45.5731 101.876 45.3526C101.312 45.2879 100.759 45.1282 100.195 45.0369C98.554 44.7908 96.878 45.1215 95.454 45.9725C94.6641 46.4762 93.7464 46.744 92.809 46.7445V46.7445Z" fill="#141F31"/>
<path d="M93.4798 43.5379C92.9348 44.2986 92.0544 46.5805 91.8486 48.4821C91.6428 50.3836 91.8486 53.5022 92.325 53.5022C92.8014 53.5022 93.617 49.4328 93.617 49.4328C93.617 49.4328 93.9563 50.9921 94.7604 51.4675C95.5646 51.9429 97.0015 55.1262 97.0015 55.1262C97.0015 55.1262 98.9072 51.6691 99.174 50.5167C99.4408 49.3644 99.517 48.8243 99.8562 49.2275C100.46 50.177 100.983 51.1757 101.419 52.213C101.758 53.0268 102.029 49.5507 101.552 47.6492C101.076 45.7476 99.9896 44.4659 99.8562 43.9905C99.7228 43.5151 98.972 43.0397 98.972 43.0397C96.3345 40.2824 94.0249 42.7925 93.4798 43.5379Z" fill="white"/>
<path fill-rule="evenodd" clip-rule="evenodd" d="M99.0941 42.8923C98.4202 42.1926 97.7556 41.8143 97.1214 41.6645C96.4817 41.5134 95.8892 41.5986 95.3722 41.7979C94.3471 42.1932 93.6068 43.0411 93.3255 43.4258L93.3245 43.4273C93.0357 43.8303 92.6723 44.6117 92.3566 45.5198C92.0395 46.4321 91.7637 47.4925 91.6588 48.4616C91.5543 49.4264 91.5546 50.6938 91.6407 51.7211C91.6837 52.234 91.7487 52.6954 91.8357 53.0326C91.8788 53.1997 91.9302 53.3479 91.9934 53.4586C92.0489 53.5558 92.1531 53.6924 92.3247 53.6924C92.4237 53.6924 92.4993 53.6404 92.5474 53.5958C92.5976 53.5492 92.6414 53.4891 92.6797 53.4263C92.7569 53.2997 92.8328 53.1276 92.9059 52.9332C93.053 52.542 93.2017 52.0255 93.3338 51.5151C93.4572 51.0388 93.5674 50.563 93.65 50.1907C93.6689 50.2408 93.6891 50.2921 93.7106 50.3443C93.8977 50.7978 94.2031 51.3593 94.663 51.6311C94.738 51.6755 94.8328 51.7598 94.9439 51.8865C95.0532 52.0111 95.1704 52.1675 95.2917 52.3463C95.5343 52.7039 95.7858 53.14 96.0143 53.565C96.2424 53.9894 96.4458 54.3995 96.5923 54.7037C96.6655 54.8557 96.7244 54.9811 96.765 55.0684C96.7852 55.1121 96.8009 55.1462 96.8115 55.1693L96.8235 55.1955L96.8272 55.2038L96.8274 55.2042C96.857 55.2699 96.9214 55.3133 96.9936 55.3162C97.0658 55.319 97.1333 55.281 97.1682 55.2178L97.0012 55.1262C97.1682 55.2178 97.1681 55.2178 97.1682 55.2178L97.1737 55.2076L97.1899 55.1783C97.204 55.1525 97.2247 55.1146 97.2511 55.0661C97.3039 54.9689 97.3796 54.829 97.4713 54.6575C97.6545 54.3145 97.9018 53.845 98.1575 53.3392C98.4131 52.8337 98.6779 52.2904 98.8958 51.8002C99.112 51.3141 99.2881 50.8671 99.3593 50.5595C99.3858 50.4453 99.4101 50.3382 99.4329 50.2378C99.4683 50.0819 99.5001 49.9421 99.5303 49.8171C99.5804 49.6105 99.6226 49.4606 99.6637 49.3615C99.6706 49.345 99.6769 49.331 99.6827 49.3192C99.6887 49.3254 99.6951 49.3325 99.7021 49.3406C100.297 50.2776 100.813 51.2629 101.243 52.2861C101.267 52.3439 101.301 52.4094 101.352 52.4568C101.38 52.4824 101.421 52.51 101.476 52.5203C101.534 52.5314 101.588 52.5195 101.631 52.496C101.706 52.456 101.747 52.3848 101.769 52.3407C101.794 52.2887 101.815 52.2266 101.833 52.1604C101.905 51.8986 101.956 51.4641 101.981 50.9589C102.032 49.9452 101.982 48.5797 101.737 47.603C101.493 46.6293 101.093 45.817 100.741 45.1918C100.617 44.9714 100.497 44.7716 100.393 44.5983C100.351 44.5272 100.311 44.4606 100.274 44.3987C100.143 44.176 100.065 44.0294 100.039 43.9392C99.9562 43.6429 99.6952 43.3734 99.4892 43.1937C99.3813 43.0996 99.2782 43.0215 99.2023 42.967C99.1642 42.9397 99.1327 42.9181 99.1104 42.9032C99.1042 42.8991 99.0988 42.8954 99.0941 42.8923ZM97.0143 54.7032C97.0503 54.6366 97.0907 54.5612 97.135 54.4785C97.3173 54.1372 97.5632 53.6704 97.8172 53.1679C98.0714 52.6652 98.3331 52.1281 98.5475 51.646C98.7636 51.1598 98.9258 50.7425 98.988 50.4739C99.0135 50.3637 99.0375 50.2581 99.0602 50.158C99.0962 49.9995 99.1291 49.8548 99.1599 49.7278C99.2098 49.5216 99.2578 49.3456 99.3115 49.2161C99.3383 49.1514 99.3707 49.088 99.4122 49.0359C99.454 48.9836 99.5168 48.9284 99.6058 48.9104C99.6971 48.8919 99.7784 48.92 99.8401 48.958C99.8998 48.9947 99.9533 49.0475 100.002 49.1052C100.007 49.1116 100.012 49.1184 100.017 49.1255C100.583 50.0156 101.079 50.9485 101.499 51.9157C101.544 51.684 101.58 51.3444 101.601 50.9398C101.651 49.9435 101.599 48.6202 101.367 47.6953C101.135 46.7674 100.753 45.9881 100.409 45.3782C100.288 45.1624 100.172 44.9704 100.069 44.7986C100.026 44.7262 99.9847 44.6574 99.946 44.5919C99.8215 44.3811 99.7138 44.1893 99.6724 44.0418C99.6221 43.8627 99.441 43.6568 99.2383 43.48C99.1418 43.3958 99.0488 43.3253 98.9798 43.2758C98.9454 43.2511 98.9173 43.2319 98.898 43.2189C98.8883 43.2125 98.8809 43.2076 98.8761 43.2045L98.8708 43.201L98.8696 43.2003C98.8696 43.2003 98.8696 43.2003 98.8696 43.2003C98.8696 43.2003 98.8696 43.2003 98.9717 43.0397M97.0143 54.7032C96.9905 54.6528 96.9642 54.5979 96.9359 54.539C96.7878 54.2315 96.5818 53.8161 96.3501 53.3852C96.1189 52.955 95.8604 52.5061 95.6073 52.1331C95.4808 51.9467 95.3539 51.7764 95.2307 51.636C95.1093 51.4976 94.9833 51.3784 94.8572 51.3039C94.5129 51.1004 94.2466 50.6445 94.063 50.1995C93.9737 49.983 93.9084 49.7801 93.8654 49.6312C93.8439 49.5569 93.8281 49.4965 93.8178 49.4549C93.8126 49.4341 93.8088 49.4181 93.8063 49.4075L93.8036 49.3957L93.803 49.393L93.8029 49.3925C93.7837 49.3045 93.7054 49.2419 93.6151 49.2427C93.5249 49.2434 93.4475 49.3072 93.4298 49.3955L93.4275 49.4069L93.4207 49.4405C93.4147 49.4701 93.4057 49.5135 93.3942 49.5689C93.371 49.6796 93.3375 49.8379 93.2957 50.0279C93.212 50.4081 93.0958 50.9143 92.9648 51.4199C92.8335 51.9269 92.6889 52.4277 92.5491 52.7996C92.4787 52.9867 92.4127 53.1325 92.3542 53.2285C92.3438 53.2456 92.3342 53.26 92.3256 53.2721C92.3252 53.2716 92.3249 53.271 92.3245 53.2703C92.2861 53.2031 92.2448 53.0929 92.2048 52.9378C92.1257 52.6309 92.0628 52.1938 92.0205 51.6894C91.9361 50.6819 91.9363 49.4392 92.0377 48.5025C92.1386 47.57 92.4059 46.5387 92.7167 45.6444C93.0288 44.7466 93.3777 44.0072 93.634 43.6493C93.8981 43.2882 94.5849 42.5092 95.5096 42.1527C95.9678 41.976 96.4813 41.9041 97.0336 42.0345C97.5864 42.1651 98.1942 42.5023 98.8338 43.171C98.8445 43.1822 98.8566 43.192 98.8696 43.2003" fill="#141F31"/>
<path d="M92.9346 44.6902C93.4709 45.9131 93.8809 47.1874 94.158 48.4933C94.4972 50.3265 96.6735 54.3274 97.0127 55.1375C97.3519 55.9475 98.3734 52.5627 98.7774 50.258C99.1814 47.9533 98.6859 42.3702 98.6859 42.3702C96.784 44.8727 92.9346 44.6902 92.9346 44.6902Z" fill="white"/>
<path fill-rule="evenodd" clip-rule="evenodd" d="M98.8759 42.3535L98.686 42.3703C98.8759 42.3535 98.8759 42.3535 98.8759 42.3535L98.8773 42.3699L98.8814 42.4175C98.8849 42.4591 98.8901 42.5205 98.8965 42.5993C98.9093 42.757 98.9271 42.9847 98.9472 43.2651C98.9875 43.8257 99.0369 44.5975 99.0737 45.4416C99.1469 47.1226 99.1714 49.1149 98.9652 50.2908C98.7617 51.4518 98.4031 52.8835 98.0515 53.9265C97.877 54.444 97.6991 54.8818 97.5365 55.1417C97.4952 55.2077 97.4515 55.2678 97.4053 55.3164C97.3612 55.3628 97.3021 55.4123 97.2276 55.4361C97.1413 55.4636 97.0489 55.4515 96.9716 55.395C96.905 55.3464 96.8641 55.2756 96.837 55.2108C96.7553 55.0156 96.5595 54.6213 96.3006 54.0998C96.0437 53.5823 95.7285 52.9474 95.4131 52.2802C94.7869 50.9552 94.1468 49.4756 93.9712 48.5304C93.6968 47.2379 93.291 45.9768 92.7601 44.7665C92.7337 44.7062 92.7404 44.6366 92.7777 44.5824C92.8151 44.5282 92.8779 44.4972 92.9437 44.5003C92.9438 44.5003 92.9437 44.5007 92.9347 44.6902C92.9257 44.8802 92.9257 44.8802 92.9258 44.8802L92.9269 44.8802L92.9295 44.8803L92.9388 44.8807C92.9469 44.881 92.9585 44.8814 92.9736 44.8818C93.0037 44.8825 93.0475 44.8833 93.1036 44.8833C93.1392 44.8834 93.1796 44.8831 93.2247 44.8824C93.1869 44.7927 93.1484 44.7032 93.1093 44.614L92.9347 44.6902L92.9437 44.5003M97.1656 55.0104C97.152 55.0286 97.1397 55.0432 97.1288 55.0546C97.1127 55.0716 97.1045 55.0764 97.1045 55.0765C97.1046 55.0765 97.1069 55.0753 97.1114 55.0738C97.1273 55.0688 97.1472 55.0685 97.166 55.0737C97.177 55.0766 97.1875 55.0814 97.1967 55.0881C97.202 55.092 97.2043 55.0947 97.2044 55.0947C97.2045 55.0946 97.1982 55.087 97.1887 55.0642C97.1817 55.0475 97.174 55.0296 97.1656 55.0104Z" fill="#141F31"/>
<path d="M88.952 32.0991C88.6134 32.9148 88.2317 33.7121 87.8086 34.4875C87.4541 35.1759 86.9663 35.8985 87.0463 36.7047C87.1264 37.511 89.3712 42.0292 90.3241 43.0598C91.2769 44.0905 94.5585 46.6614 95.9763 45.6992C99.1131 43.5695 98.831 37.26 98.4956 36.2294C98.1602 35.1987 97.7334 35.4687 97.7334 35.4687C97.558 35.579 97.1045 35.2139 96.9368 35.1454C95.9687 34.7385 94.9091 34.7119 93.9296 34.3126C92.8805 33.9021 91.9374 33.2613 91.1702 32.4376C90.5604 31.753 90.0268 30.9658 89.0854 30.7072C89.3751 30.787 89.1997 31.4526 88.952 32.0991Z" fill="white"/>
<path fill-rule="evenodd" clip-rule="evenodd" d="M88.9018 30.6566C88.9298 30.5554 89.0347 30.496 89.1361 30.5238C89.6479 30.6644 90.0436 30.9479 90.3845 31.2757C90.6138 31.4962 90.8278 31.7472 91.0343 31.9893C91.128 32.0991 91.2201 32.2072 91.3114 32.3097C92.0588 33.1118 92.9774 33.7358 93.9993 34.1355L94.0018 34.1365L94.0018 34.1365C94.4694 34.3272 94.9581 34.4305 95.4654 34.5377L95.4771 34.5401C95.9828 34.647 96.507 34.7585 97.0101 34.9699C97.0693 34.9942 97.1432 35.0391 97.2071 35.0783C97.217 35.0843 97.227 35.0904 97.2369 35.0966C97.2985 35.1343 97.3614 35.1729 97.4244 35.2076C97.4989 35.2486 97.5621 35.2777 97.6107 35.2915C97.6293 35.2967 97.6409 35.2984 97.6472 35.299C97.6474 35.2988 97.6477 35.2987 97.6479 35.2986C97.6554 35.2946 97.6649 35.2898 97.6762 35.2849C97.6989 35.275 97.7297 35.264 97.7674 35.2563C97.8441 35.2407 97.9473 35.2396 98.0617 35.2868C98.2884 35.3803 98.5035 35.6375 98.677 36.1706C98.7698 36.4556 98.8505 37.0662 98.8752 37.8383C98.9001 38.6174 98.8684 39.5803 98.7269 40.5788C98.4457 42.5621 97.7224 44.7438 96.0837 45.8565L96.0836 45.8565C95.6654 46.1403 95.1306 46.15 94.5857 46.0229C94.0377 45.895 93.4462 45.6214 92.8798 45.291C91.7472 44.6305 90.6737 43.7183 90.1842 43.1888C89.9311 42.915 89.6033 42.4239 89.2575 41.8425C88.9091 41.2569 88.5346 40.5665 88.1881 39.8841C87.8415 39.2018 87.5217 38.5254 87.2831 37.9676C87.1639 37.6889 87.0641 37.4379 86.9913 37.2297C86.9202 37.0264 86.8693 36.8489 86.8568 36.7235C86.8124 36.2761 86.9266 35.8601 87.0892 35.4777C87.1997 35.2178 87.3396 34.9594 87.4714 34.7157C87.53 34.6074 87.5871 34.5019 87.6392 34.4006L87.6413 34.3966L87.6414 34.3966C88.0609 33.6278 88.4393 32.8375 88.7751 32.0288C88.8974 31.7091 88.9966 31.3979 89.0319 31.1625C89.0499 31.0426 89.0483 30.9605 89.0366 30.9124C89.0336 30.9002 89.0306 30.8927 89.0285 30.8886C88.9309 30.8582 88.8744 30.7557 88.9018 30.6566ZM89.4259 31.041C89.424 31.0995 89.4177 31.1594 89.4088 31.2188C89.3671 31.4972 89.2551 31.841 89.1301 32.167L89.1283 32.1719L89.1282 32.1719C88.7873 32.9931 88.4031 33.7958 87.9772 34.5765C87.9177 34.6919 87.8567 34.8046 87.7961 34.9164C87.6687 35.1518 87.5435 35.3829 87.4401 35.6262C87.2902 35.9787 87.2005 36.3271 87.2361 36.686C87.2437 36.7622 87.2804 36.9022 87.3511 37.1044C87.4201 37.3016 87.5163 37.544 87.6337 37.8183C87.8682 38.3666 88.1842 39.0353 88.528 39.7122C88.8718 40.389 89.2422 41.0718 89.5852 41.6484C89.9308 42.2293 90.241 42.6894 90.4643 42.9309C90.9276 43.4321 91.9713 44.3207 93.0721 44.9627C93.6224 45.2837 94.1767 45.5368 94.6726 45.6525C95.1715 45.769 95.5786 45.7393 95.8693 45.542C97.3673 44.5249 98.0714 42.487 98.3495 40.5255C98.4876 39.5516 98.5186 38.6107 98.4943 37.8504C98.4697 37.083 98.3895 36.5185 98.3145 36.2881C98.1526 35.7906 97.9867 35.6674 97.916 35.6383C97.8818 35.6242 97.8573 35.6262 97.8435 35.629C97.8365 35.6304 97.8316 35.6322 97.8293 35.6332C97.7154 35.7014 97.588 35.6804 97.5066 35.6573C97.4156 35.6315 97.3221 35.5857 97.2403 35.5406C97.1687 35.5012 97.0973 35.4573 97.0362 35.4198C97.0265 35.4139 97.017 35.4081 97.0079 35.4025C96.9345 35.3576 96.8893 35.3315 96.8648 35.3215L96.8629 35.3207L96.8629 35.3207C96.3982 35.1254 95.9089 35.0202 95.3981 34.9122L95.372 34.9067C94.8751 34.8017 94.3581 34.6924 93.8589 34.4891C92.7837 34.0682 91.8171 33.4113 91.0308 32.5671L91.0279 32.564L91.0279 32.5639C90.9241 32.4474 90.8253 32.3314 90.7281 32.2174C90.5285 31.9832 90.3357 31.757 90.1201 31.5496C89.9077 31.3454 89.6825 31.1698 89.4259 31.041Z" fill="#141F31"/>
<path fill-rule="evenodd" clip-rule="evenodd" d="M91.0661 36.8704C90.8983 36.836 90.7251 36.8367 90.5576 36.8723C90.39 36.9079 90.2316 36.9777 90.0923 37.0774C89.9531 37.177 89.836 37.3043 89.7484 37.4513C89.6946 37.5415 89.5777 37.5712 89.4872 37.5175C89.3968 37.4638 89.3671 37.3471 89.4208 37.2569C89.5353 37.0648 89.6883 36.8984 89.8703 36.7682C90.0522 36.638 90.2592 36.5468 90.4782 36.5003C90.6972 36.4537 90.9234 36.4529 91.1428 36.4978C91.3621 36.5427 91.5697 36.6324 91.7527 36.7613C91.8386 36.8218 91.8592 36.9405 91.7985 37.0263C91.7378 37.1121 91.6189 37.1326 91.5329 37.072C91.3929 36.9734 91.234 36.9048 91.0661 36.8704Z" fill="#141F31"/>
<path fill-rule="evenodd" clip-rule="evenodd" d="M93.6147 35.3526C93.9668 35.0172 94.5601 34.8037 95.511 35.0999C95.6115 35.1312 95.6675 35.2378 95.6362 35.3381C95.6048 35.4383 95.498 35.4943 95.3975 35.463C94.5533 35.2 94.1118 35.4049 93.8779 35.6277C93.7544 35.7453 93.6768 35.8792 93.6301 35.9853C93.6069 36.0381 93.5918 36.0828 93.5827 36.1134C93.5782 36.1286 93.5752 36.1402 93.5734 36.1474L93.5717 36.1548L93.5717 36.1548C93.5717 36.1549 93.5717 36.155 93.5717 36.155C93.5717 36.1549 93.5717 36.1548 93.3847 36.1182M93.3847 36.1182C93.1977 36.0816 93.1977 36.0815 93.1978 36.0813L93.1978 36.0811L93.1979 36.0804L93.1983 36.0786L93.1994 36.0737C93.2002 36.0697 93.2014 36.0644 93.203 36.0579C93.2062 36.0449 93.2108 36.0271 93.2173 36.0053C93.2302 35.9617 93.2506 35.9018 93.2812 35.8323C93.342 35.6942 93.4452 35.514 93.6147 35.3526" fill="#141F31"/>
<path d="M91.7151 38.5938C91.7875 38.9019 91.7341 39.1795 91.5931 39.2138C91.4521 39.248 91.2768 39.0236 91.212 38.7117C91.1472 38.3998 91.1929 38.1259 91.334 38.0917C91.475 38.0575 91.6427 38.2819 91.7151 38.5938Z" fill="#141F31"/>
<path d="M95.3894 37.6773C95.4618 37.9892 95.4085 38.2668 95.2674 38.301C95.1264 38.3353 94.9511 38.1071 94.8863 37.799C94.8215 37.4909 94.8672 37.2094 95.0083 37.179C95.1493 37.1486 95.3132 37.3768 95.3894 37.6773Z" fill="#141F31"/>
<path fill-rule="evenodd" clip-rule="evenodd" d="M93.4 36.8024C93.5053 36.8024 93.5906 36.8875 93.5906 36.9925C93.5906 37.8699 93.8817 38.5929 94.173 39.1889C94.2294 39.3043 94.2878 39.4186 94.3442 39.5291C94.4292 39.6956 94.5098 39.8534 94.5725 39.993C94.6762 40.2241 94.7595 40.4623 94.7327 40.6817C94.7275 40.7259 94.712 40.7682 94.6874 40.8054C94.6628 40.8428 94.6296 40.8738 94.5906 40.8961C94.5516 40.9183 94.508 40.9311 94.4631 40.9333C94.4183 40.9356 94.3736 40.9272 94.3326 40.909C94.3287 40.9073 94.3249 40.9055 94.3212 40.9035C94.1764 40.8274 94.0198 40.7311 93.8703 40.6392L93.8608 40.6333C93.7055 40.5378 93.5582 40.4476 93.4264 40.3791C93.333 40.3306 93.2968 40.2157 93.3454 40.1226C93.3939 40.0294 93.509 39.9932 93.6024 40.0417C93.7488 40.1177 93.9083 40.2158 94.0608 40.3095L94.0638 40.3114C94.1601 40.3706 94.2538 40.4282 94.3429 40.4801C94.324 40.3922 94.2854 40.2838 94.2246 40.1485C94.1645 40.0146 94.0926 39.874 94.0123 39.7169C93.9554 39.6058 93.8944 39.4866 93.8305 39.3557C93.5301 38.7413 93.2095 37.9561 93.2095 36.9925C93.2095 36.8875 93.2948 36.8024 93.4 36.8024Z" fill="#141F31"/>
<path fill-rule="evenodd" clip-rule="evenodd" d="M92.0766 41.6361C92.1589 41.5706 92.2788 41.5841 92.3444 41.6662C92.5916 41.9755 92.9173 42.213 93.2877 42.3541C93.658 42.4952 94.0595 42.5346 94.4503 42.4683C94.5541 42.4507 94.6525 42.5204 94.6701 42.6239C94.6878 42.7275 94.618 42.8257 94.5142 42.8433C94.0562 42.921 93.5858 42.8748 93.1518 42.7095C92.7178 42.5442 92.3361 42.2658 92.0465 41.9034C91.9808 41.8213 91.9944 41.7016 92.0766 41.6361Z" fill="#141F31"/>
<path d="M93.293 45.5576C93.293 45.5576 94.9128 49.2813 96.2544 48.958C97.596 48.6347 98.3849 42.5223 98.3849 42.5223C98.3849 42.5223 96.7918 45.5082 95.4616 45.9722C94.3563 46.3602 93.293 45.5576 93.293 45.5576Z" fill="#141F31"/>
<path fill-rule="evenodd" clip-rule="evenodd" d="M92.0672 47.7655C92.1395 47.8418 92.1361 47.9622 92.0597 48.0344C91.9183 48.1679 91.7674 48.3068 91.6104 48.4273C91.5411 48.4806 91.4706 48.5409 91.3952 48.6062C91.3877 48.6126 91.3802 48.6191 91.3726 48.6257C91.3053 48.684 91.234 48.7457 91.161 48.8044C91.0271 48.9144 90.8863 49.0159 90.7511 49.1134C90.7047 49.1494 90.6564 49.1829 90.6065 49.2139C90.4699 49.3148 90.3342 49.4037 90.1981 49.4904C90.1756 49.5048 90.1512 49.5204 90.1255 49.537C89.9986 49.6185 89.8368 49.7224 89.6887 49.8045C89.6326 49.8356 89.5739 49.8694 89.5138 49.9039C89.402 49.9681 89.2856 50.0351 89.1722 50.0929C89.1187 50.1202 89.0633 50.149 89.0067 50.1785C88.8887 50.2399 88.7659 50.3039 88.6455 50.3614C88.4698 50.4452 88.2856 50.5314 88.096 50.6062C88.0158 50.6379 87.9448 50.6688 87.8732 50.7C87.8665 50.7029 87.8596 50.7059 87.8528 50.7088C87.7754 50.7425 87.6964 50.7765 87.6096 50.8088C87.2819 50.9357 86.9468 51.051 86.6081 51.1547C86.4867 51.1938 86.3622 51.2287 86.2426 51.2596C85.7289 51.4057 85.2076 51.5238 84.6811 51.6134L84.6806 51.6135C83.4661 51.8173 82.3662 52.8256 81.652 53.99C81.597 54.0796 81.4797 54.1077 81.3899 54.0529C81.3002 53.998 81.2719 53.881 81.3269 53.7914C82.0685 52.5824 83.2477 51.4684 84.6171 51.2385C85.1308 51.151 85.6393 51.0357 86.1404 50.8931L86.145 50.8918L86.145 50.8919C86.2606 50.8621 86.3788 50.8289 86.4924 50.7923L86.495 50.7915L86.495 50.7915C86.8263 50.6901 87.1535 50.5775 87.4729 50.4537L87.4754 50.4528L87.4754 50.4528C87.552 50.4243 87.6231 50.3938 87.7006 50.3601C87.7075 50.3571 87.7144 50.3541 87.7214 50.3511C87.7924 50.3202 87.8692 50.2868 87.9558 50.2526C88.1321 50.1829 88.3061 50.1017 88.4811 50.0182C88.5956 49.9636 88.7078 49.9051 88.8223 49.8455C88.8803 49.8152 88.9389 49.7847 88.9987 49.7542C89.1049 49.7 89.2052 49.6424 89.3103 49.5818C89.3723 49.5462 89.436 49.5095 89.5036 49.472C89.6398 49.3966 89.7884 49.3011 89.9156 49.2194C89.9424 49.2022 89.9683 49.1856 89.9929 49.1699C90.129 49.0831 90.2579 48.9985 90.3858 48.9037C90.3903 48.9003 90.395 48.8972 90.3997 48.8943C90.4411 48.8689 90.4811 48.8412 90.5193 48.8114C90.5205 48.8105 90.5217 48.8096 90.5229 48.8087C90.5236 48.8081 90.5244 48.8076 90.5251 48.8071C90.6632 48.7076 90.7954 48.6122 90.9195 48.5101L90.9212 48.5088L90.9212 48.5088C90.9887 48.4546 91.0548 48.3974 91.1232 48.3381C91.1306 48.3317 91.138 48.3253 91.1455 48.3188C91.2205 48.2538 91.2987 48.1867 91.378 48.1259C91.5184 48.0181 91.6571 47.8908 91.7978 47.7581C91.8742 47.6859 91.9948 47.6892 92.0672 47.7655Z" fill="#141F31"/>
<path fill-rule="evenodd" clip-rule="evenodd" d="M101.432 47.8001C101.471 47.7024 101.581 47.6544 101.679 47.6928L101.807 47.7429C102.036 47.8351 102.27 47.9131 102.507 47.9844C102.812 48.0764 103.122 48.1591 103.435 48.2427C103.445 48.2454 103.456 48.2481 103.466 48.2508C103.788 48.3368 104.115 48.4242 104.436 48.5229C105.08 48.7202 105.714 48.9653 106.289 49.347L106.289 49.3475C107.742 50.3221 108.503 51.9522 108.866 53.6495C108.888 53.7523 108.822 53.8533 108.719 53.8753C108.617 53.8972 108.515 53.8317 108.493 53.729C108.14 52.0793 107.414 50.5602 106.077 49.6634C105.547 49.3111 104.952 49.079 104.324 48.8865C104.011 48.7902 103.691 48.7045 103.367 48.6182C103.356 48.6153 103.346 48.6124 103.335 48.6095C103.023 48.5264 102.708 48.4424 102.397 48.3485C102.154 48.2753 101.908 48.1937 101.665 48.0959L101.54 48.0467C101.442 48.0082 101.394 47.8978 101.432 47.8001Z" fill="#141F31"/>
<path d="M97.8478 57.3015C97.8478 57.7237 97.6115 58.0622 97.3219 58.0622C97.0322 58.0622 96.7959 57.7237 96.7959 57.3015C96.7959 56.8793 97.0322 56.5408 97.3219 56.5408C97.6115 56.5408 97.8478 56.8793 97.8478 57.3015Z" fill="#141F31"/>
<path fill-rule="evenodd" clip-rule="evenodd" d="M86.461 53.5839C86.5526 53.5322 86.6689 53.5643 86.7207 53.6557C87.6181 55.2381 88.2832 56.9409 88.6957 58.7119C88.7195 58.8142 88.6557 58.9164 88.5532 58.9402C88.4507 58.9639 88.3483 58.9003 88.3245 58.798C87.9203 57.0624 87.2685 55.3938 86.389 53.8431C86.3372 53.7517 86.3694 53.6356 86.461 53.5839Z" fill="#141F31"/>
<path fill-rule="evenodd" clip-rule="evenodd" d="M88.3157 53.7413C88.4192 53.7225 88.5184 53.791 88.5373 53.8944L89.0404 56.6558C89.0592 56.7591 88.9905 56.8581 88.887 56.8769C88.7834 56.8957 88.6842 56.8271 88.6654 56.7238L88.1623 53.9624C88.1435 53.8591 88.2121 53.76 88.3157 53.7413Z" fill="#141F31"/>
</svg>
