<svg width="318" height="312" viewBox="0 0 318 312" fill="none" xmlns="http://www.w3.org/2000/svg">
<path d="M41.7286 65.5635H275.549C277.251 65.5635 278.884 66.238 280.088 67.4386C281.292 68.6393 281.969 70.2677 281.969 71.9656V234.114H35.3086V71.9756C35.3073 71.134 35.4724 70.3005 35.7944 69.5226C36.1165 68.7447 36.5892 68.0377 37.1854 67.4422C37.7817 66.8466 38.4899 66.3741 39.2695 66.0518C40.049 65.7294 40.8847 65.5635 41.7286 65.5635V65.5635Z" fill="#263238"/>
<path d="M282.479 234.613H34.8086V71.9757C34.8086 70.1446 35.5373 68.3883 36.8348 67.0926C38.1323 65.7968 39.8924 65.0676 41.7286 65.0649H275.549C277.386 65.0676 279.147 65.7965 280.446 67.092C281.745 68.3874 282.476 70.1436 282.479 71.9757V234.613ZM35.8086 233.615H281.479V71.9757C281.476 70.4081 280.85 68.9055 279.739 67.7971C278.627 66.6887 277.121 66.0648 275.549 66.0622H41.7286C40.1576 66.0648 38.6518 66.689 37.5419 67.7977C36.432 68.9064 35.8086 70.409 35.8086 71.9757V233.615Z" fill="#263238"/>
<path d="M311.639 311.399H5.63868C2.25868 311.399 -0.591322 306.562 0.908678 303.541L35.3087 236.896H281.979L316.559 303.311C318.069 306.323 315.069 311.399 311.639 311.399Z" fill="#263238"/>
<path d="M311.639 311.897H5.6387C4.69077 311.837 3.77374 311.538 2.97414 311.027C2.17455 310.515 1.51878 309.809 1.0687 308.975C0.501348 308.159 0.146683 307.215 0.0366984 306.228C-0.0732862 305.24 0.0648718 304.242 0.438699 303.321L34.9787 236.397H282.279L282.419 236.657L316.999 303.082C317.37 304.023 317.501 305.042 317.379 306.047C317.257 307.052 316.885 308.01 316.299 308.836C315.837 309.691 315.169 310.418 314.356 310.953C313.543 311.487 312.609 311.812 311.639 311.897V311.897ZM35.6387 237.395L1.34869 303.79C1.0526 304.557 0.951525 305.386 1.05447 306.202C1.15741 307.018 1.46118 307.796 1.9387 308.467C2.30259 309.15 2.83141 309.732 3.4774 310.16C4.12338 310.588 4.86617 310.85 5.6387 310.92H311.639C312.439 310.834 313.206 310.553 313.87 310.101C314.535 309.648 315.077 309.039 315.449 308.327C315.942 307.645 316.259 306.853 316.374 306.021C316.49 305.188 316.398 304.34 316.109 303.55L281.669 237.395H35.6387Z" fill="#263238"/>
<path d="M311.639 308.616H5.63892C4.86449 308.617 4.10275 308.42 3.42582 308.045C2.74889 307.67 2.17918 307.129 1.77062 306.473C1.36207 305.817 1.12819 305.067 1.09115 304.296C1.0541 303.525 1.2151 302.756 1.55891 302.064L35.3089 234.114H281.979L315.719 302.064C316.063 302.756 316.224 303.525 316.187 304.296C316.15 305.067 315.916 305.817 315.507 306.473C315.099 307.129 314.529 307.67 313.852 308.045C313.175 308.42 312.413 308.617 311.639 308.616V308.616Z" fill="white"/>
<path d="M311.639 309.115H5.63899C4.77621 309.123 3.92589 308.91 3.16914 308.496C2.41238 308.083 1.77444 307.483 1.31616 306.754C0.857881 306.025 0.594546 305.191 0.551277 304.332C0.508008 303.473 0.686246 302.616 1.06899 301.845L34.819 233.895C34.8582 233.809 34.9218 233.737 35.0018 233.687C35.0819 233.638 35.1748 233.613 35.269 233.615H281.979C282.072 233.613 282.163 233.639 282.241 233.689C282.32 233.738 282.382 233.81 282.419 233.895L316.169 301.845C316.55 302.613 316.729 303.466 316.687 304.322C316.646 305.178 316.386 306.009 315.932 306.737C315.479 307.465 314.846 308.065 314.095 308.482C313.344 308.898 312.498 309.116 311.639 309.115V309.115ZM35.639 234.613L2.00899 302.284C1.70257 302.9 1.55889 303.584 1.59156 304.271C1.62423 304.957 1.83217 305.624 2.19569 306.209C2.55921 306.793 3.06627 307.275 3.66884 307.609C4.27141 307.943 4.94954 308.118 5.63899 308.118H311.639C312.328 308.118 313.007 307.943 313.609 307.609C314.212 307.275 314.719 306.793 315.082 306.209C315.446 305.624 315.654 304.957 315.686 304.271C315.719 303.584 315.575 302.9 315.269 302.284L281.669 234.613H35.639Z" fill="#263238"/>
<path d="M267.039 78.906H50.2485V220.761H267.039V78.906Z" fill="white"/>
<path d="M267.529 221.26H49.7485V78.4177H267.529V221.26ZM50.7485 220.263H266.529V79.4149H50.7485V220.263Z" fill="#263238"/>
<path d="M262.199 143.556H55.8789V215.655H262.199V143.556Z" fill="#5B5CEE"/>
<path opacity="0.46" d="M82.2488 186.915V185.12C82.2488 184.856 82.1435 184.602 81.9559 184.415C81.7684 184.228 81.5141 184.123 81.2488 184.123H79.8689C79.659 183.209 79.2973 182.336 78.7988 181.54L79.7988 180.543C79.9732 180.358 80.0703 180.114 80.0703 179.86C80.0703 179.606 79.9732 179.362 79.7988 179.177L78.5089 177.891C78.3229 177.714 78.0758 177.615 77.8188 177.615C77.5619 177.615 77.3148 177.714 77.1288 177.891L76.1288 178.888C75.3284 178.389 74.4495 178.028 73.5289 177.821V176.415C73.5289 176.15 73.4235 175.897 73.236 175.71C73.0484 175.523 72.7941 175.417 72.5289 175.417H70.7088C70.4436 175.417 70.1893 175.523 70.0017 175.71C69.8142 175.897 69.7088 176.15 69.7088 176.415V177.821C68.7919 178.03 67.9165 178.391 67.1189 178.888L66.1189 177.891C65.9334 177.717 65.6884 177.62 65.4339 177.62C65.1793 177.62 64.9343 177.717 64.7488 177.891L63.5089 179.137C63.3345 179.322 63.2374 179.566 63.2374 179.82C63.2374 180.074 63.3345 180.318 63.5089 180.503L64.5089 181.501C64.0103 182.296 63.6487 183.169 63.4388 184.083H62.0688C61.8036 184.083 61.5493 184.188 61.3617 184.375C61.1742 184.562 61.0688 184.816 61.0688 185.081V186.896C61.0688 187.16 61.1742 187.414 61.3617 187.601C61.5493 187.788 61.8036 187.893 62.0688 187.893H63.4789C63.6869 188.811 64.0486 189.687 64.5488 190.486L63.5488 191.483C63.3745 191.668 63.2774 191.912 63.2774 192.166C63.2774 192.42 63.3745 192.664 63.5488 192.849L64.8389 194.135C65.0243 194.309 65.2693 194.406 65.5238 194.406C65.7784 194.406 66.0234 194.309 66.2088 194.135L67.2088 193.138C68.0065 193.635 68.8819 193.996 69.7988 194.205V195.611C69.7988 195.876 69.9042 196.129 70.0917 196.316C70.2793 196.503 70.5336 196.608 70.7988 196.608H72.6189C72.8841 196.608 73.1384 196.503 73.326 196.316C73.5135 196.129 73.6189 195.876 73.6189 195.611V194.205C74.5395 193.998 75.4184 193.637 76.2188 193.138L77.2188 194.135C77.4048 194.312 77.6519 194.411 77.9088 194.411C78.1658 194.411 78.4129 194.312 78.5988 194.135L79.8889 192.849C80.0632 192.664 80.1603 192.42 80.1603 192.166C80.1603 191.912 80.0632 191.668 79.8889 191.483L78.8889 190.486C79.3891 189.687 79.7508 188.811 79.9588 187.893H81.3689C81.6094 187.864 81.8311 187.749 81.993 187.569C82.1548 187.389 82.2457 187.157 82.2488 186.915ZM72.0688 190.107C71.2147 190.193 70.3547 190.013 69.6068 189.593C68.859 189.172 68.2599 188.531 67.8918 187.758C67.5237 186.984 67.4045 186.116 67.5508 185.273C67.697 184.429 68.1013 183.651 68.7084 183.046C69.3155 182.44 70.0955 182.037 70.9415 181.891C71.7875 181.746 72.658 181.864 73.4337 182.231C74.2093 182.599 74.852 183.196 75.2737 183.942C75.6953 184.687 75.8753 185.545 75.7888 186.397C75.6923 187.348 75.2694 188.237 74.5916 188.913C73.9137 189.589 73.0226 190.01 72.0688 190.107V190.107Z" fill="white"/>
<path opacity="0.46" d="M99.4187 199.63V197.815C99.4187 197.55 99.3133 197.297 99.1258 197.11C98.9382 196.923 98.6839 196.818 98.4187 196.818H97.0687C96.8571 195.899 96.492 195.022 95.9887 194.225L96.9887 193.228C97.166 193.042 97.2649 192.796 97.2649 192.539C97.2649 192.283 97.166 192.037 96.9887 191.851L95.6987 190.565C95.5127 190.388 95.2656 190.29 95.0087 190.29C94.7517 190.29 94.5046 190.388 94.3187 190.565L93.3187 191.562C92.5174 191.065 91.6387 190.704 90.7187 190.495V189.109C90.7187 188.845 90.6133 188.591 90.4258 188.404C90.2382 188.217 89.9839 188.112 89.7187 188.112H87.8887C87.6235 188.112 87.3691 188.217 87.1816 188.404C86.994 188.591 86.8887 188.845 86.8887 189.109V190.515C85.9686 190.724 85.0899 191.085 84.2887 191.582L83.2887 190.585C83.1027 190.408 82.8556 190.309 82.5987 190.309C82.3417 190.309 82.0946 190.408 81.9087 190.585L80.6187 191.871C80.4414 192.057 80.3425 192.303 80.3425 192.559C80.3425 192.816 80.4414 193.062 80.6187 193.248L81.6187 194.245C81.1111 195.04 80.7457 195.918 80.5387 196.838H79.1387C78.8735 196.838 78.6191 196.943 78.4316 197.13C78.244 197.317 78.1387 197.57 78.1387 197.835V199.65C78.1387 199.914 78.244 200.168 78.4316 200.355C78.6191 200.542 78.8735 200.647 79.1387 200.647H80.5387C80.7458 201.564 81.1113 202.438 81.6187 203.23L80.6187 204.227C80.4414 204.412 80.3425 204.659 80.3425 204.915C80.3425 205.171 80.4414 205.418 80.6187 205.603L81.9087 206.88C82.0946 207.056 82.3417 207.155 82.5987 207.155C82.8556 207.155 83.1027 207.056 83.2887 206.88L84.2887 205.882C85.0899 206.379 85.9686 206.74 86.8887 206.949V208.355C86.8887 208.62 86.994 208.874 87.1816 209.061C87.3691 209.248 87.6235 209.353 87.8887 209.353H89.7187C89.9839 209.353 90.2382 209.248 90.4258 209.061C90.6133 208.874 90.7187 208.62 90.7187 208.355V206.949C91.6387 206.74 92.5174 206.379 93.3187 205.882L94.3187 206.88C94.5046 207.056 94.7517 207.155 95.0087 207.155C95.2656 207.155 95.5127 207.056 95.6987 206.88L96.9887 205.603C97.166 205.418 97.2649 205.171 97.2649 204.915C97.2649 204.659 97.166 204.412 96.9887 204.227L95.9887 203.23C96.492 202.436 96.8572 201.562 97.0687 200.647H98.4687C98.7286 200.634 98.9733 200.52 99.1507 200.331C99.3281 200.141 99.4242 199.889 99.4187 199.63V199.63ZM89.2387 202.861C88.3819 202.949 87.5188 202.77 86.7679 202.35C86.0171 201.929 85.4153 201.287 85.0452 200.511C84.6751 199.735 84.555 198.865 84.7012 198.018C84.8475 197.172 85.253 196.391 85.862 195.784C86.4711 195.176 87.2538 194.772 88.1025 194.626C88.9513 194.48 89.8246 194.6 90.6023 194.969C91.3801 195.338 92.0242 195.938 92.4461 196.687C92.868 197.436 93.0471 198.297 92.9587 199.151C92.8603 200.101 92.4368 200.989 91.7593 201.665C91.0818 202.34 90.1917 202.763 89.2387 202.861Z" fill="white"/>
<path d="M101.369 150.497H63.9686C63.8545 150.497 63.7452 150.452 63.6645 150.371C63.5839 150.291 63.5386 150.182 63.5386 150.068C63.5385 149.953 63.5835 149.843 63.6639 149.761C63.7443 149.679 63.8536 149.632 63.9686 149.629H101.369C101.485 149.629 101.597 149.675 101.68 149.758C101.762 149.84 101.809 149.952 101.809 150.068C101.806 150.183 101.758 150.292 101.676 150.372C101.594 150.452 101.484 150.497 101.369 150.497V150.497Z" fill="#263238"/>
<path d="M101.369 155.882H63.9686C63.8536 155.879 63.7443 155.832 63.6639 155.75C63.5835 155.668 63.5385 155.558 63.5386 155.443C63.5386 155.329 63.5839 155.22 63.6645 155.14C63.7452 155.059 63.8545 155.014 63.9686 155.014H101.369C101.484 155.014 101.594 155.059 101.676 155.139C101.758 155.219 101.806 155.328 101.809 155.443C101.809 155.559 101.762 155.671 101.68 155.753C101.597 155.836 101.485 155.882 101.369 155.882Z" fill="#263238"/>
<path d="M101.369 161.257H63.9686C63.8545 161.257 63.7452 161.212 63.6645 161.131C63.5839 161.051 63.5386 160.942 63.5386 160.828C63.5385 160.714 63.5835 160.603 63.6639 160.521C63.7443 160.439 63.8536 160.392 63.9686 160.389H101.369C101.485 160.389 101.597 160.436 101.68 160.518C101.762 160.6 101.809 160.712 101.809 160.828C101.806 160.943 101.758 161.052 101.676 161.132C101.594 161.212 101.484 161.257 101.369 161.257V161.257Z" fill="#263238"/>
<path d="M101.369 166.642H63.9686C63.8536 166.639 63.7443 166.592 63.6639 166.51C63.5835 166.428 63.5385 166.318 63.5386 166.203C63.5386 166.089 63.5839 165.98 63.6645 165.9C63.7452 165.819 63.8545 165.774 63.9686 165.774H101.369C101.484 165.774 101.594 165.819 101.676 165.899C101.758 165.979 101.806 166.088 101.809 166.203C101.809 166.319 101.762 166.431 101.68 166.513C101.597 166.596 101.485 166.642 101.369 166.642Z" fill="#263238"/>
<path d="M258.239 85.5977H59.8389C57.6519 85.5977 55.8789 87.3659 55.8789 89.5471V89.9959C55.8789 92.1771 57.6519 93.9453 59.8389 93.9453H258.239C260.426 93.9453 262.199 92.1771 262.199 89.9959V89.5471C262.199 87.3659 260.426 85.5977 258.239 85.5977Z" fill="#5B5CEE"/>
<path d="M258.239 113.121H59.8389C57.6519 113.121 55.8789 114.889 55.8789 117.07V117.519C55.8789 119.7 57.6519 121.469 59.8389 121.469H258.239C260.426 121.469 262.199 119.7 262.199 117.519V117.07C262.199 114.889 260.426 113.121 258.239 113.121Z" fill="#5B5CEE"/>
<path d="M148.349 257.699L148.779 248.614H135.749L134.879 257.699H148.349Z" fill="#263238"/>
<path d="M148.829 258.197H134.329L135.329 248.115H149.329L148.829 258.197ZM135.429 257.2H147.869L148.259 249.112H136.199L135.429 257.2Z" fill="white"/>
<path d="M175.289 257.699L174.849 248.614H161.809L161.819 257.699H175.289Z" fill="#263238"/>
<path d="M175.819 258.197H161.319V248.115H175.319L175.819 258.197ZM162.319 257.2H174.759L174.369 249.112H162.309L162.319 257.2Z" fill="white"/>
<path d="M245.439 267.401H259.379L256.109 257.698H242.639L245.439 267.401Z" fill="#263238"/>
<path d="M260.069 267.89H245.069L241.969 257.189H256.469L260.069 267.89ZM245.819 266.892H258.679L255.749 258.187H243.299L245.819 266.892Z" fill="white"/>
<path d="M134.879 257.699L135.749 248.614H122.709L121.409 257.699H134.879Z" fill="#263238"/>
<path d="M135.339 258.197H120.839L122.279 248.115H136.279L135.339 258.197ZM121.989 257.2H134.429L135.199 249.112H123.199L121.989 257.2Z" fill="white"/>
<path d="M107.939 257.699L109.679 248.614H96.6388L94.4688 257.699H107.939Z" fill="#263238"/>
<path d="M108.359 258.197H93.8389L96.2489 248.115H110.249L108.359 258.197ZM95.1089 257.2H107.529L109.069 249.112H97.0689L95.1089 257.2Z" fill="white"/>
<path d="M229.169 257.699L226.979 248.614H213.949L215.699 257.699H229.169Z" fill="#263238"/>
<path d="M229.799 258.197H215.279L213.339 248.115H227.339L229.799 258.197ZM216.109 257.2H228.529L226.589 249.112H214.589L216.109 257.2Z" fill="white"/>
<path d="M242.639 257.699L240.009 248.614H226.979L229.169 257.699H242.639Z" fill="#263238"/>
<path d="M243.299 258.197H228.769L226.349 248.115H240.349L243.299 258.197ZM229.559 257.2H241.969L239.639 249.112H227.639L229.559 257.2Z" fill="white"/>
<path d="M94.4685 257.699L96.6385 248.614H83.6085L80.9985 257.699H94.4685Z" fill="#263238"/>
<path d="M94.8689 258.197H80.3389L83.2289 248.115H97.2789L94.8689 258.197ZM81.6689 257.2H94.0689L95.9989 249.112H83.9989L81.6689 257.2Z" fill="white"/>
<path d="M188.759 257.699L187.879 248.614H174.849L175.289 257.699H188.759Z" fill="#263238"/>
<path d="M189.309 258.197H174.809L174.319 248.115H188.319L189.309 258.197ZM175.769 257.2H188.209L187.429 249.112H175.369L175.769 257.2Z" fill="white"/>
<path d="M256.109 257.699L253.049 248.614H240.009L242.639 257.699H256.109Z" fill="#263238"/>
<path d="M256.799 258.197H242.259L239.349 248.115H253.409L256.799 258.197ZM243.009 257.2H255.409L252.689 249.112H240.689L243.009 257.2Z" fill="white"/>
<path d="M215.699 257.699L213.949 248.614H200.909L202.229 257.699H215.699Z" fill="#263238"/>
<path d="M216.299 258.197H201.799L200.339 248.115H214.339L216.299 258.197ZM202.659 257.2H215.069L213.509 249.112H201.509L202.659 257.2Z" fill="white"/>
<path d="M202.229 257.699L200.909 248.614H187.879L188.759 257.699H202.229Z" fill="#263238"/>
<path d="M202.809 258.197H188.309L187.309 248.115H201.309L202.809 258.197ZM189.209 257.2H201.649L200.479 249.112H188.429L189.209 257.2Z" fill="white"/>
<path d="M161.819 257.699L161.809 248.614H148.779L148.349 257.699H161.819Z" fill="#263238"/>
<path d="M162.319 258.197H147.829L148.299 248.115H162.299L162.319 258.197ZM148.879 257.2H161.319V249.112H149.259L148.879 257.2Z" fill="white"/>
<path d="M67.5386 257.698H54.0686L50.3486 267.401H64.2786L67.5386 257.698Z" fill="#263238"/>
<path d="M64.6387 267.89H49.6387L53.7387 257.189H68.2487L64.6387 267.89ZM51.0687 266.892H63.9187L66.8387 258.187H54.4087L51.0687 266.892Z" fill="white"/>
<path d="M70.5788 248.614H57.5388L54.0688 257.699H67.5388L70.5788 248.614Z" fill="#263238"/>
<path d="M67.8889 258.197H53.3389L57.1989 248.115H71.2689L67.8889 258.197ZM54.7889 257.2H67.1689L69.8789 249.112H57.8789L54.7889 257.2Z" fill="white"/>
<path d="M80.9986 257.699L83.6086 248.614H70.5786L67.5386 257.699H80.9986Z" fill="#263238"/>
<path d="M81.3789 258.197H66.8389L70.2189 248.115H84.2189L81.3789 258.197ZM68.2289 257.2H80.6289L82.9489 249.112H70.9489L68.2289 257.2Z" fill="white"/>
<path d="M46.3586 277.802L42.0786 288.981H57.0486L60.7986 277.802H46.3586Z" fill="#263238"/>
<path d="M57.4086 289.48H41.3486L46.0686 277.304H61.5386L57.4086 289.48ZM42.7986 288.483H56.6886L60.0686 278.301H46.7086L42.7986 288.483Z" fill="white"/>
<path d="M64.2784 267.401H50.3484L46.3584 277.802H60.7984L64.2784 267.401Z" fill="#263238"/>
<path d="M61.1589 278.301H45.6289L49.9989 266.893H64.9989L61.1589 278.301ZM47.0889 277.304H60.4389L63.5889 267.9H50.6889L47.0889 277.304Z" fill="white"/>
<path d="M60.7988 277.802L57.0488 288.981H72.0188L75.2288 277.802H60.7988Z" fill="#263238"/>
<path d="M72.3984 289.48H56.3984L60.4784 277.304H75.9284L72.3984 289.48ZM57.7384 288.483H71.6384L74.5684 278.301H61.1584L57.7384 288.483Z" fill="white"/>
<path d="M121.408 257.699L122.708 248.614H109.678L107.938 257.699H121.408Z" fill="#263238"/>
<path d="M121.849 258.197H107.339L109.259 248.115H123.259L121.849 258.197ZM108.549 257.2H120.979L122.129 249.112H110.069L108.549 257.2Z" fill="white"/>
<path d="M120.019 267.401L121.409 257.698H107.939L106.089 267.401H120.019Z" fill="#263238"/>
<path d="M120.459 267.89H105.459L107.509 257.189H121.969L120.459 267.89ZM106.689 266.892H119.589L120.839 258.187H108.359L106.689 266.892Z" fill="white"/>
<path d="M106.088 267.401L107.938 257.698H94.4684L92.1484 267.401H106.088Z" fill="#263238"/>
<path d="M106.499 267.89H91.4985L94.0685 257.199H108.539L106.499 267.89ZM92.7885 266.892H105.669L107.339 258.187H94.8685L92.7885 266.892Z" fill="white"/>
<path d="M133.959 267.401L134.879 257.698H121.409L120.019 267.401H133.959Z" fill="#263238"/>
<path d="M134.409 267.89H119.409L120.939 257.189H135.389L134.409 267.89ZM120.599 266.892H133.499L134.329 258.187H121.849L120.599 266.892Z" fill="white"/>
<path d="M80.9988 257.698H67.5388L64.2788 267.401H78.2188L80.9988 257.698Z" fill="#263238"/>
<path d="M78.5889 267.89H63.5889L67.1689 257.189H81.6689L78.5889 267.89ZM64.9789 266.892H77.8389L80.3389 258.187H67.8889L64.9789 266.892Z" fill="white"/>
<path d="M248.448 277.802H262.878L259.378 267.401H245.438L248.448 277.802Z" fill="#263238"/>
<path d="M263.579 278.301H248.069L244.779 266.893H259.779L263.579 278.301ZM248.819 277.304H262.189L259.069 267.89H246.069L248.819 277.304Z" fill="white"/>
<path d="M92.1488 267.401L94.4688 257.698H80.9987L78.2188 267.401H92.1488Z" fill="#263238"/>
<path d="M92.5488 267.89H77.5488L80.6288 257.189H95.0688L92.5488 267.89ZM78.8788 266.892H91.7588L93.8388 258.187H81.3788L78.8788 266.892Z" fill="white"/>
<path d="M64.2788 267.401L60.7988 277.802H75.2288L78.2188 267.401H64.2788Z" fill="#263238"/>
<path d="M75.6088 278.301H60.0688L63.9189 266.893H78.9189L75.6088 278.301ZM61.4888 277.304H74.8488L77.5488 267.9H64.6389L61.4888 277.304Z" fill="white"/>
<path d="M217.569 267.401L215.699 257.698H202.229L203.639 267.401H217.569Z" fill="#263238"/>
<path d="M218.179 267.89H203.179L201.629 257.189H216.069L218.179 267.89ZM204.069 266.892H216.969L215.279 258.187H202.809L204.069 266.892Z" fill="white"/>
<path d="M203.639 267.401L202.229 257.698H188.759L189.699 267.401H203.639Z" fill="#263238"/>
<path d="M204.209 267.89H189.209L188.209 257.189H202.659L204.209 267.89ZM190.149 266.892H203.069L201.809 258.187H189.309L190.149 266.892Z" fill="white"/>
<path d="M245.439 267.401L242.639 257.698H229.169L231.509 267.401H245.439Z" fill="#263238"/>
<path d="M246.069 267.89H231.069L228.489 257.189H242.969L246.069 267.89ZM231.859 266.892H244.739L242.219 258.187H229.799L231.859 266.892Z" fill="white"/>
<path d="M161.829 267.401L161.819 257.698H148.349L147.889 267.401H161.829Z" fill="#263238"/>
<path d="M162.329 267.89H147.329L147.829 257.189H162.279L162.329 267.89ZM148.419 266.892H161.329V258.187H148.829L148.419 266.892Z" fill="white"/>
<path d="M189.699 267.401L188.759 257.698H175.289L175.759 267.401H189.699Z" fill="#263238"/>
<path d="M190.249 267.89H175.249L174.719 257.189H189.169L190.249 267.89ZM176.249 266.892H189.159L188.319 258.187H175.819L176.249 266.892Z" fill="white"/>
<path d="M175.759 267.401L175.289 257.698H161.819L161.829 267.401H175.759Z" fill="#263238"/>
<path d="M176.289 267.89H161.289V257.199H175.769L176.289 267.89ZM162.289 266.892H175.199L174.769 258.187H162.319L162.289 266.892Z" fill="white"/>
<path d="M147.889 267.401L148.349 257.698H134.879L133.959 267.401H147.889Z" fill="#263238"/>
<path d="M148.369 267.89H133.369L134.369 257.189H148.819L148.369 267.89ZM134.509 266.892H147.419L147.829 258.187H135.339L134.509 266.892Z" fill="white"/>
<path d="M189.699 267.401L190.709 277.802H205.139L203.639 267.401H189.699Z" fill="#263238"/>
<path d="M205.718 278.301H190.248L189.148 266.893H204.068L205.718 278.301ZM191.158 277.304H204.568L203.198 267.89H190.248L191.158 277.304Z" fill="white"/>
<path d="M203.639 267.401L205.139 277.802H219.579L217.569 267.401H203.639Z" fill="#263238"/>
<path d="M220.179 278.301H204.709L203.069 266.893H217.989L220.179 278.301ZM205.579 277.304H218.969L217.159 267.89H204.209L205.579 277.304Z" fill="white"/>
<path d="M78.2185 267.401L75.2285 277.802H89.6585L92.1485 267.401H78.2185Z" fill="#263238"/>
<path d="M90.0688 278.301H74.5688L77.8389 266.893H92.7888L90.0688 278.301ZM75.8988 277.304H89.2688L91.5188 267.9H78.5889L75.8988 277.304Z" fill="white"/>
<path d="M217.569 267.401L219.579 277.802H234.009L231.509 267.401H217.569Z" fill="#263238"/>
<path d="M234.649 278.301H219.169L216.969 266.893H231.899L234.649 278.301ZM219.989 277.304H233.379L231.069 267.89H218.179L219.989 277.304Z" fill="white"/>
<path d="M161.829 267.401L161.839 277.802H176.269L175.759 267.401H161.829Z" fill="#263238"/>
<path d="M176.799 278.301H161.339V266.893H176.249L176.799 278.301ZM162.339 277.304H175.749L175.289 267.9H162.289L162.339 277.304Z" fill="white"/>
<path d="M231.509 267.401L234.009 277.802H248.449L245.439 267.401H231.509Z" fill="#263238"/>
<path d="M249.069 278.301H233.619L230.869 266.893H245.819L249.069 278.301ZM234.369 277.304H247.739L245.069 267.89H232.139L234.369 277.304Z" fill="white"/>
<path d="M175.759 267.401L176.269 277.802H190.709L189.699 267.401H175.759Z" fill="#263238"/>
<path d="M191.259 278.301H175.799L175.239 266.893H190.149L191.259 278.301ZM176.749 277.304H190.159L189.249 267.9H176.249L176.749 277.304Z" fill="white"/>
<path d="M106.089 267.401L104.099 277.802H118.539L120.019 267.401H106.089Z" fill="#263238"/>
<path d="M118.969 278.301H103.499L105.669 266.893H120.599L118.969 278.301ZM104.699 277.304H118.069L119.419 267.9H106.499L104.699 277.304Z" fill="white"/>
<path d="M92.1487 267.401L89.6587 277.802H104.099L106.089 267.401H92.1487Z" fill="#263238"/>
<path d="M104.509 278.301H89.0688L91.7589 266.893H106.689L104.509 278.301ZM90.2988 277.304H103.689L105.479 267.9H92.5488L90.2988 277.304Z" fill="white"/>
<path d="M147.889 267.401L147.409 277.802H161.839L161.829 267.401H147.889Z" fill="#263238"/>
<path d="M162.339 278.301H146.879L147.419 266.903H162.329L162.339 278.301ZM147.929 277.304H161.339V267.89H148.339L147.929 277.304Z" fill="white"/>
<path d="M133.959 267.401L132.969 277.802H147.409L147.889 267.401H133.959Z" fill="#263238"/>
<path d="M147.879 278.301H132.419L133.499 266.893H148.419L147.879 278.301ZM133.519 277.304H146.929L147.369 267.9H134.369L133.519 277.304Z" fill="white"/>
<path d="M120.019 267.401L118.539 277.802H132.969L133.959 267.401H120.019Z" fill="#263238"/>
<path d="M133.419 278.301H117.959L119.589 266.893H134.509L133.419 278.301ZM119.109 277.304H132.509L133.409 267.9H120.409L119.109 277.304Z" fill="white"/>
<path d="M231.509 267.401L229.169 257.698H215.699L217.569 267.401H231.509Z" fill="#263238"/>
<path d="M232.139 267.89H217.139L215.069 257.199H229.539L232.139 267.89ZM217.979 266.892H230.869L228.769 258.187H216.299L217.979 266.892Z" fill="white"/>
<path d="M70.5786 248.613L73.6886 239.319H61.0986L57.5386 248.613H70.5786Z" fill="#263238"/>
<path d="M70.9388 249.112H56.8188L60.7589 238.821H74.3889L70.9388 249.112ZM58.2688 248.115H70.2688L73.0488 239.818H61.4489L58.2688 248.115Z" fill="white"/>
<path d="M57.5389 248.614H45.5089L41.6289 257.699H54.0689L57.5389 248.614Z" fill="#263238"/>
<path d="M54.4089 258.197H40.8789L45.1789 248.115H58.2689L54.4089 258.197ZM42.4089 257.2H53.7389L56.8389 249.112H45.8389L42.4089 257.2Z" fill="white"/>
<path d="M61.0988 239.319H49.4788L45.5088 248.613H57.5388L61.0988 239.319Z" fill="#263238"/>
<path d="M57.8888 249.112H44.7588L49.1488 238.821H61.8288L57.8888 249.112ZM46.2688 248.115H57.1988L60.3788 239.818H49.8188L46.2688 248.115Z" fill="white"/>
<path d="M54.0685 257.698H41.6285L37.4785 267.401H50.3485L54.0685 257.698Z" fill="#263238"/>
<path d="M50.6885 267.89H36.6885L41.2585 257.189H54.7485L50.6885 267.89ZM38.2385 266.892H49.9985L53.3385 258.187H41.9585L38.2385 266.892Z" fill="white"/>
<path d="M50.3486 267.401H37.4786L33.0386 277.802H46.3586L50.3486 267.401Z" fill="#263238"/>
<path d="M46.7088 278.301H32.2788L37.1488 266.893H51.0688L46.7088 278.301ZM33.7888 277.304H46.0688L49.6688 267.9H37.8088L33.7888 277.304Z" fill="white"/>
<path d="M46.3588 277.802H33.0388L28.2588 288.981H42.0788L46.3588 277.802Z" fill="#263238"/>
<path d="M42.4185 289.48H27.4985L32.7085 277.304H47.0685L42.4185 289.48ZM29.0185 288.483H41.7285L45.6285 278.301H33.3685L29.0185 288.483Z" fill="white"/>
<path d="M269.579 257.698L273.309 267.401H285.639L281.489 257.698H269.579Z" fill="#263238"/>
<path d="M286.399 267.89H272.969L268.849 257.189H281.849L286.399 267.89ZM273.659 266.892H284.879L281.159 258.187H270.299L273.659 266.892Z" fill="white"/>
<path d="M277.319 277.802H290.089L285.639 267.401H273.309L277.319 277.802Z" fill="#263238"/>
<path d="M290.839 278.301H276.969L272.589 266.893H285.969L290.839 278.301ZM277.659 277.304H289.329L285.329 267.9H274.069L277.659 277.304Z" fill="white"/>
<path d="M281.619 288.981H294.859L290.089 277.802H277.319L281.619 288.981Z" fill="#263238"/>
<path d="M295.619 289.48H281.279L276.589 277.304H290.419L295.619 289.48ZM281.959 288.483H294.069L289.719 278.301H278.069L281.959 288.483Z" fill="white"/>
<path d="M174.849 248.613L174.389 239.319H161.799L161.809 248.613H174.849Z" fill="#263238"/>
<path d="M175.369 249.112H161.309V238.821H174.869L175.369 249.112ZM162.309 248.115H174.309L173.899 239.818H162.299L162.309 248.115Z" fill="white"/>
<path d="M269.579 257.699H281.489L277.609 248.614H266.079L269.579 257.699Z" fill="#263238"/>
<path d="M282.249 258.197H269.249L265.369 248.115H277.959L282.249 258.197ZM269.919 257.2H280.729L277.279 249.112H266.809L269.919 257.2Z" fill="white"/>
<path d="M262.879 277.802H277.319L273.309 267.401H259.379L262.879 277.802Z" fill="#263238"/>
<path d="M278.069 278.301H262.519L258.679 266.893H273.679L278.069 278.301ZM263.259 277.304H276.609L272.969 267.89H260.069L263.259 277.304Z" fill="white"/>
<path d="M83.6086 248.613L86.2786 239.319H73.6886L70.5786 248.613H83.6086Z" fill="#263238"/>
<path d="M83.9889 249.112H69.8789L73.3289 238.821H86.9389L83.9889 249.112ZM71.2689 248.115H83.2689L85.6589 239.818H74.0689L71.2689 248.115Z" fill="white"/>
<path d="M253.049 248.614L256.109 257.699H269.579L266.079 248.614H253.049Z" fill="#263238"/>
<path d="M270.299 258.197H255.749L252.349 248.115H266.419L270.299 258.197ZM256.469 257.2H268.849L265.739 249.112H253.739L256.469 257.2Z" fill="white"/>
<path d="M277.609 248.613L273.639 239.319H262.499L266.079 248.613H277.609Z" fill="#263238"/>
<path d="M278.369 249.112H265.739L261.739 238.821H273.969L278.369 249.112ZM266.419 248.115H276.849L273.309 239.818H263.229L266.419 248.115Z" fill="white"/>
<path d="M266.079 248.613L262.499 239.319H249.919L253.049 248.613H266.079Z" fill="#263238"/>
<path d="M266.809 249.112H252.689L249.219 238.821H262.849L266.809 249.112ZM253.409 248.115H265.349L262.159 239.818H250.609L253.409 248.115Z" fill="white"/>
<path d="M219.579 277.802L221.739 288.981H236.709L234.009 277.802H219.579Z" fill="#263238"/>
<path d="M237.339 289.48H221.339L218.989 277.304H234.429L237.339 289.48ZM222.149 288.483H236.069L233.619 278.301H220.179L222.149 288.483Z" fill="white"/>
<path d="M266.649 288.981H281.619L277.319 277.802H262.879L266.649 288.981Z" fill="#263238"/>
<path d="M282.348 289.48H266.288L262.188 277.304H277.658L282.348 289.48ZM267.008 288.483H280.888L276.968 278.301H263.578L267.008 288.483Z" fill="white"/>
<path d="M253.049 248.613L249.919 239.319H237.329L240.009 248.613H253.049Z" fill="#263238"/>
<path d="M253.739 249.112H239.639L236.639 238.821H250.259L253.739 249.112ZM240.389 248.115H252.389L249.599 239.818H237.989L240.389 248.115Z" fill="white"/>
<path d="M248.449 277.802L251.679 288.981H266.649L262.879 277.802H248.449Z" fill="#263238"/>
<path d="M267.339 289.48H251.339L247.819 277.304H263.279L267.339 289.48ZM252.049 288.483H265.949L262.519 278.301H249.069L252.049 288.483Z" fill="white"/>
<path d="M234.009 277.802L236.709 288.981H251.679L248.449 277.802H234.009Z" fill="#263238"/>
<path d="M252.339 289.48H236.339L233.409 277.304H248.849L252.339 289.48ZM237.099 288.483H251.009L248.069 278.301H234.649L237.099 288.483Z" fill="white"/>
<path d="M259.378 267.401H273.308L269.578 257.698H256.108L259.378 267.401Z" fill="#263238"/>
<path d="M274.069 267.89H259.069L255.459 257.189H269.969L274.069 267.89ZM259.769 266.892H272.619L269.259 258.187H256.799L259.769 266.892Z" fill="white"/>
<path d="M135.749 248.613L136.629 239.319H124.039L122.709 248.613H135.749Z" fill="#263238"/>
<path d="M136.199 249.112H122.129L123.609 238.821H137.179L136.199 249.112ZM123.289 248.115H135.289L136.079 239.818H124.479L123.289 248.115Z" fill="white"/>
<path d="M240.009 248.613L237.329 239.319H224.739L226.979 248.613H240.009Z" fill="#263238"/>
<path d="M240.679 249.112H226.589L224.069 238.821H237.659L240.679 249.112ZM227.369 248.115H239.369L236.969 239.818H225.379L227.369 248.115Z" fill="white"/>
<path d="M122.709 248.613L124.039 239.319H111.449L109.679 248.613H122.709Z" fill="#263238"/>
<path d="M123.149 249.112H109.069L111.069 238.821H124.649L123.149 249.112ZM110.279 248.115H122.279L123.469 239.818H111.869L110.279 248.115Z" fill="white"/>
<path d="M161.809 248.613L161.799 239.319H149.219L148.779 248.613H161.809Z" fill="#263238"/>
<path d="M162.309 249.112H148.259L148.739 238.821H162.299L162.309 249.112ZM149.309 248.115H161.309V239.818H149.689L149.309 248.115Z" fill="white"/>
<path d="M109.679 248.613L111.449 239.319H98.8687L96.6387 248.613H109.679Z" fill="#263238"/>
<path d="M110.069 249.112H96.0088L98.4688 238.821H112.069L110.069 249.112ZM97.2588 248.115H109.259L110.849 239.818H99.2588L97.2588 248.115Z" fill="white"/>
<path d="M96.6384 248.613L98.8684 239.319H86.2784L83.6084 248.613H96.6384Z" fill="#263238"/>
<path d="M97.0687 249.112H82.9487L85.9487 238.821H99.5487L97.0687 249.112ZM84.2987 248.115H96.2987L98.2987 239.818H86.6587L84.2987 248.115Z" fill="white"/>
<path d="M148.779 248.613L149.219 239.319H136.629L135.749 248.613H148.779Z" fill="#263238"/>
<path d="M149.259 249.112H135.199L136.199 238.821H149.769L149.259 249.112ZM136.259 248.115H148.259L148.649 239.818H137.069L136.259 248.115Z" fill="white"/>
<path d="M226.978 248.613L224.738 239.319H212.148L213.948 248.613H226.978Z" fill="#263238"/>
<path d="M227.609 249.112H213.529L211.529 238.821H225.119L227.609 249.112ZM214.359 248.115H226.359L224.359 239.818H212.759L214.359 248.115Z" fill="white"/>
<path d="M213.949 248.613L212.149 239.319H199.569L200.909 248.613H213.949Z" fill="#263238"/>
<path d="M214.549 249.112H200.479L198.989 238.821H212.569L214.549 249.112ZM201.349 248.115H213.349L211.749 239.818H200.149L201.349 248.115Z" fill="white"/>
<path d="M187.879 248.613L186.979 239.319H174.389L174.849 248.613H187.879Z" fill="#263238"/>
<path d="M188.429 249.112H174.369L173.869 238.821H187.429L188.429 249.112ZM175.319 248.115H187.319L186.509 239.818H174.909L175.319 248.115Z" fill="white"/>
<path d="M219.579 277.802H205.139H190.709H176.269H161.839H147.409H132.969H118.539H104.099H89.6586H75.2286L72.0186 288.981H86.9886H101.959H116.939H131.909H146.879H161.849H176.819H191.789H206.759H221.739L219.579 277.802Z" fill="#263238"/>
<path d="M222.339 289.48H71.3389L74.8289 277.304H219.989L222.339 289.48ZM72.6789 288.483H221.129L219.129 278.301H75.6089L72.6789 288.483Z" fill="white"/>
<path d="M200.909 248.613L199.569 239.319H186.979L187.879 248.613H200.909Z" fill="#263238"/>
<path d="M201.489 249.112H187.429L186.429 238.821H199.999L201.489 249.112ZM188.329 248.115H200.329L199.119 239.818H187.519L188.329 248.115Z" fill="white"/>
<path d="M178.189 160.369C192.918 160.369 204.859 145.212 204.859 126.514C204.859 107.816 192.918 92.658 178.189 92.658C163.459 92.658 151.519 107.816 151.519 126.514C151.519 145.212 163.459 160.369 178.189 160.369Z" fill="#263238"/>
<path d="M178.189 160.858C163.189 160.858 151.009 145.451 151.009 126.513C151.009 107.576 163.199 92.1592 178.189 92.1592C193.179 92.1592 205.359 107.566 205.359 126.513C205.359 145.461 193.169 160.858 178.189 160.858ZM178.189 93.1564C163.749 93.1564 152.009 108.115 152.009 126.513C152.009 144.912 163.749 159.861 178.189 159.861C192.629 159.861 204.359 144.902 204.359 126.513C204.359 108.125 192.619 93.1564 178.189 93.1564V93.1564Z" fill="#263238"/>
<path d="M118.069 212.734C115.619 212.734 112.839 210.57 111.359 209.233C109.279 207.349 107.129 204.706 107.129 203.529C107.129 201.844 127.129 141.701 129.439 134.87C129.465 134.791 129.51 134.719 129.572 134.661C129.633 134.604 129.708 134.562 129.789 134.541C129.869 134.521 129.952 134.521 130.032 134.54C130.113 134.559 130.187 134.597 130.249 134.651L137.819 141.542C137.878 141.595 137.923 141.662 137.951 141.737C137.979 141.811 137.989 141.892 137.979 141.971L130.519 207.309C130.51 207.384 130.484 207.457 130.442 207.521C130.4 207.585 130.345 207.639 130.279 207.678C129.969 207.867 122.669 212.295 118.459 212.714L118.069 212.734ZM130.149 135.947C123.849 154.895 108.299 201.764 108.149 203.589C108.149 204.157 109.669 206.381 112.049 208.525C114.429 210.669 116.799 211.906 118.379 211.756C121.989 211.397 128.379 207.718 129.569 206.99L136.979 142.17L130.149 135.947Z" fill="#263238"/>
<path d="M174.119 126.195L129.879 135.02L136.959 221.938H223.239L234.739 131.49L182.079 125.756L174.119 126.195Z" fill="#5B5CEE"/>
<path d="M223.239 222.436H136.959C136.834 222.437 136.713 222.389 136.622 222.304C136.531 222.219 136.476 222.102 136.469 221.978L129.379 135.06C129.369 134.938 129.404 134.817 129.478 134.72C129.552 134.622 129.659 134.555 129.779 134.531L174.069 125.706L182.069 125.257L234.799 131.001C234.931 131.015 235.052 131.08 235.139 131.181C235.18 131.234 235.209 131.295 235.227 131.36C235.244 131.425 235.248 131.493 235.239 131.56L223.739 222.018C223.719 222.136 223.658 222.243 223.567 222.32C223.475 222.396 223.358 222.438 223.239 222.436V222.436ZM137.429 221.439H222.799L234.179 131.938L182.069 126.284L174.219 126.723L130.449 135.459L137.429 221.439Z" fill="#263238"/>
<path opacity="0.3" d="M136.959 221.938H223.239L225.409 204.915L225.249 204.087L204.428 208.615L213.509 170.501L163.549 192.39L151.439 204.466H159.009L136.729 219.086L136.959 221.938Z" fill="black"/>
<path d="M169.419 121.298C169.419 121.298 162.239 125.217 160.419 128.737C158.599 132.258 151.069 158.405 151.069 158.405L163.459 161.057L151.519 166.791L169.589 218.408L198.349 216.643L217.069 162.374L205.559 157.527L215.739 153.11C215.739 153.11 206.009 134.581 200.739 126.643C195.469 118.705 169.419 121.298 169.419 121.298Z" fill="#5B5CEE"/>
<path d="M169.629 218.906C169.526 218.906 169.426 218.875 169.342 218.816C169.258 218.757 169.194 218.674 169.159 218.577L151.069 166.951C151.03 166.836 151.035 166.71 151.083 166.598C151.131 166.486 151.218 166.395 151.329 166.343L161.959 161.237L150.959 158.894C150.891 158.879 150.827 158.851 150.771 158.812C150.714 158.773 150.666 158.722 150.629 158.664C150.594 158.605 150.571 158.539 150.563 158.47C150.554 158.401 150.559 158.332 150.579 158.265C150.889 157.198 158.199 132.048 159.969 128.518C161.739 124.988 168.829 121.029 169.129 120.86C169.187 120.828 169.252 120.811 169.319 120.81C170.389 120.7 195.619 118.267 201.029 126.364C206.299 134.232 216.029 152.701 216.099 152.88C216.128 152.943 216.143 153.011 216.143 153.08C216.143 153.149 216.128 153.217 216.099 153.279C216.078 153.344 216.043 153.404 215.997 153.454C215.95 153.504 215.893 153.543 215.829 153.568L206.719 157.557L217.149 161.955C217.266 162.006 217.359 162.099 217.411 162.215C217.463 162.331 217.469 162.463 217.429 162.583L198.779 216.852C198.746 216.944 198.686 217.024 198.608 217.082C198.53 217.141 198.436 217.175 198.339 217.181L169.579 218.946L169.629 218.906ZM152.169 167.051L169.979 217.909L197.979 216.194L216.369 162.673L205.299 158.006C205.207 157.969 205.129 157.905 205.074 157.823C205.019 157.742 204.989 157.646 204.989 157.547C204.99 157.45 205.018 157.356 205.072 157.274C205.125 157.193 205.2 157.129 205.289 157.089L214.979 152.89C213.419 149.899 204.979 134.063 200.209 126.963C195.289 119.603 171.299 121.677 169.529 121.837C168.709 122.296 162.449 125.826 160.869 129.017C159.289 132.208 152.779 154.406 151.699 158.086L163.569 160.619C163.67 160.641 163.763 160.694 163.833 160.771C163.902 160.848 163.947 160.945 163.959 161.048C163.968 161.151 163.947 161.254 163.897 161.345C163.847 161.435 163.771 161.509 163.679 161.556L152.169 167.051Z" fill="#263238"/>
<path d="M168.299 222.825L167.929 131.938L191.819 129.725L198.829 221.938L168.299 222.825Z" fill="white"/>
<path d="M168.299 223.324C168.169 223.323 168.044 223.273 167.949 223.184C167.855 223.088 167.801 222.96 167.799 222.825L167.429 131.939C167.426 131.814 167.471 131.693 167.555 131.6C167.638 131.507 167.754 131.45 167.879 131.44L191.769 129.276C191.835 129.266 191.902 129.271 191.966 129.29C192.03 129.309 192.089 129.342 192.139 129.386C192.242 129.474 192.307 129.599 192.319 129.735L199.319 221.948C199.323 222.015 199.313 222.082 199.291 222.145C199.269 222.209 199.234 222.267 199.189 222.317C199.144 222.367 199.088 222.408 199.026 222.435C198.964 222.463 198.897 222.477 198.829 222.476L168.309 223.364L168.299 223.324ZM168.429 132.387L168.799 222.307L198.289 221.459L191.359 130.273L168.429 132.387Z" fill="#263238"/>
<path d="M164.389 108.105C164.389 108.105 167.479 125.317 167.929 129.725C168.379 134.132 179.799 165.475 183.219 160.359C186.949 154.785 191.379 137.234 192.219 133.255C193.059 129.276 193.109 112.084 193.109 112.084C193.109 112.084 181.639 120.022 164.389 108.105Z" fill="white"/>
<path d="M182.319 161.426C182.191 161.424 182.063 161.407 181.939 161.377C177.239 160.21 167.859 134.033 167.429 129.775C166.999 125.516 163.929 108.374 163.889 108.195C163.871 108.097 163.882 107.996 163.921 107.905C163.961 107.814 164.027 107.737 164.111 107.684C164.194 107.63 164.292 107.603 164.392 107.605C164.491 107.607 164.588 107.639 164.669 107.696C181.449 119.284 192.749 111.745 192.859 111.685C192.938 111.638 193.027 111.614 193.119 111.614C193.21 111.614 193.3 111.638 193.379 111.685C193.46 111.729 193.527 111.794 193.575 111.873C193.622 111.952 193.648 112.042 193.649 112.134C193.649 112.832 193.649 129.436 192.749 133.414C191.749 137.742 187.419 155.034 183.639 160.688C183.499 160.912 183.305 161.097 183.074 161.226C182.843 161.356 182.583 161.424 182.319 161.426V161.426ZM165.069 109.182C165.769 113.171 168.069 125.915 168.399 129.675C168.829 133.973 178.309 159.452 182.159 160.409C182.339 160.409 182.549 160.409 182.789 160.09C186.439 154.615 190.859 137.154 191.789 133.165C192.539 129.804 192.649 116.492 192.659 112.961C189.779 114.427 179.379 118.546 165.069 109.182Z" fill="#263238"/>
<path d="M192.969 123.522C193.149 117.878 193.149 112.084 193.149 112.084C193.149 112.084 181.639 120.062 164.389 108.095C164.389 108.095 165.659 115.185 166.689 121.428C169.049 124.42 173.539 129.176 179.079 130.064C184.769 130.981 189.369 127.97 192.969 123.522Z" fill="#5B5CEE"/>
<path opacity="0.5" d="M192.969 123.522C193.149 117.878 193.149 112.084 193.149 112.084C193.149 112.084 181.639 120.062 164.389 108.095C164.389 108.095 165.659 115.185 166.689 121.428C169.049 124.42 173.539 129.176 179.079 130.064C184.769 130.981 189.369 127.97 192.969 123.522Z" fill="white"/>
<path d="M202.438 90.903C202.438 90.903 207.298 84.7202 207.298 91.7805C207.298 98.8408 202.438 99.7583 202.438 99.7583V90.903Z" fill="white"/>
<path d="M202.439 100.227C202.321 100.229 202.207 100.186 202.119 100.107C202.061 100.063 202.014 100.006 201.983 99.9396C201.951 99.8737 201.936 99.8013 201.939 99.7284V90.903C201.937 90.7917 201.972 90.6829 202.039 90.5939C202.469 90.0554 204.669 87.4028 206.349 87.9812C207.349 88.3202 207.799 89.5667 207.799 91.7806C207.799 99.17 202.579 100.207 202.529 100.217L202.439 100.227ZM202.939 91.0726V99.0503C204.149 98.5717 206.799 96.9262 206.799 91.7806C206.799 89.4471 206.259 89.0083 206.029 88.9285C205.289 88.6792 203.799 90.0255 202.939 91.0726Z" fill="#263238"/>
<path d="M154.209 76.3443C154.209 76.3443 159.959 102.342 159.959 105.902C159.959 113.391 174.119 121.788 180.309 123.553C186.499 125.318 201.549 111.636 202.439 108.106C203.329 104.576 203.759 73.6917 201.989 67.5189C200.219 61.3461 190.069 57.3672 183.409 57.3672C176.749 57.3672 157.309 60.8974 154.209 76.3443Z" fill="white"/>
<path d="M181.528 124.211C181.072 124.216 180.618 124.155 180.178 124.032C174.178 122.316 159.458 113.84 159.458 105.902C159.458 102.442 153.778 76.7134 153.718 76.4541C153.708 76.3846 153.708 76.3141 153.718 76.2447C156.888 60.4287 176.718 56.8687 183.408 56.8687C190.098 56.8687 200.608 60.8575 202.468 67.3794C204.328 73.9012 203.788 104.765 202.918 108.265C202.268 110.868 194.978 118.058 188.418 121.838C185.638 123.403 183.328 124.211 181.528 124.211ZM154.718 76.3444C155.168 78.3887 160.458 102.422 160.458 105.912C160.458 113.052 174.348 121.339 180.458 123.084C182.108 123.553 184.688 122.815 187.928 120.95C194.428 117.211 201.418 110.14 201.928 107.986C202.758 104.666 203.258 73.8214 201.488 67.6586C199.778 61.6753 189.628 57.8659 183.388 57.8659C176.938 57.8659 157.828 61.2664 154.718 76.3344V76.3444Z" fill="#263238"/>
<path d="M183.409 57.3672C176.779 57.3672 157.309 60.8974 154.209 76.3144C154.209 76.3144 157.649 91.8711 159.209 100.567C159.209 96.578 159.909 88.9393 164.209 85.6085C170.149 81.0014 180.059 80.3332 185.669 77.7005C191.279 75.0679 192.599 68.1571 192.599 68.1571C192.599 68.1571 192.929 80.3332 195.599 83.3049C198.269 86.2767 200.889 88.2911 201.219 93.5065C201.549 98.722 202.539 104.037 199.899 108.325C197.259 112.613 186.359 120.83 181.409 122.476C180.649 122.735 179.909 122.954 179.209 123.164C179.599 123.304 179.979 123.433 180.329 123.533C186.529 125.298 201.569 111.616 202.459 108.086C203.349 104.556 203.779 73.6718 202.009 67.499C200.239 61.3262 190.069 57.3672 183.409 57.3672Z" fill="#5B5CEE"/>
<path d="M174.219 120.939C171.809 118.516 165.219 111.804 162.219 108.344C161.352 107.358 160.576 106.297 159.899 105.173C159.899 105.462 159.899 105.721 159.899 105.901C159.959 111.435 167.679 117.459 174.219 120.939Z" fill="#5B5CEE"/>
<g opacity="0.5">
<path opacity="0.5" d="M183.409 57.3672C176.779 57.3672 157.309 60.8974 154.209 76.3144C154.209 76.3144 157.649 91.8711 159.209 100.567C159.209 96.578 159.909 88.9393 164.209 85.6085C170.149 81.0014 180.059 80.3332 185.669 77.7005C191.279 75.0679 192.599 68.1571 192.599 68.1571C192.599 68.1571 192.929 80.3332 195.599 83.3049C198.269 86.2767 200.889 88.2911 201.219 93.5065C201.549 98.722 202.539 104.037 199.899 108.325C197.259 112.613 186.359 120.83 181.409 122.476C180.649 122.735 179.909 122.954 179.209 123.164C179.599 123.304 179.979 123.433 180.329 123.533C186.529 125.298 201.569 111.616 202.459 108.086C203.349 104.556 203.779 73.6718 202.009 67.499C200.239 61.3262 190.069 57.3672 183.409 57.3672Z" fill="white"/>
<path opacity="0.5" d="M174.219 120.939C171.809 118.516 165.219 111.804 162.219 108.344C161.352 107.358 160.576 106.297 159.899 105.173C159.899 105.462 159.899 105.721 159.899 105.901C159.959 111.435 167.679 117.459 174.219 120.939Z" fill="white"/>
</g>
<path d="M177.119 92.3092C177.119 93.5459 176.569 94.5432 175.879 94.5432C175.189 94.5432 174.629 93.5459 174.629 92.3092C174.629 91.0725 175.189 90.0752 175.879 90.0752C176.569 90.0752 177.119 91.0725 177.119 92.3092Z" fill="#263238"/>
<path d="M191.688 92.3092C191.688 93.5459 191.128 94.5432 190.438 94.5432C189.748 94.5432 189.188 93.5459 189.188 92.3092C189.188 91.0725 189.748 90.0752 190.438 90.0752C191.128 90.0752 191.688 91.0725 191.688 92.3092Z" fill="#263238"/>
<path d="M184.919 101.753C184.818 101.754 184.72 101.724 184.637 101.667C184.555 101.61 184.492 101.528 184.459 101.434C184.409 101.312 184.41 101.176 184.46 101.054C184.511 100.933 184.607 100.836 184.729 100.785C186.729 100.008 189.549 98.4719 189.729 97.5146C189.809 97.1456 189.659 97.016 188.389 96.7368C187.466 96.6114 186.597 96.2315 185.879 95.6398C184.389 94.154 185.609 89.9856 185.759 89.5169C185.797 89.3847 185.887 89.2731 186.008 89.2067C186.068 89.1738 186.134 89.153 186.201 89.1455C186.269 89.138 186.338 89.1439 186.404 89.1629C186.47 89.1819 186.531 89.2136 186.584 89.2562C186.638 89.2988 186.682 89.3514 186.715 89.4112C186.748 89.4709 186.769 89.5365 186.776 89.6043C186.784 89.672 186.778 89.7406 186.759 89.8061C186.279 91.3618 185.819 94.134 186.629 94.9418C187.214 95.3813 187.903 95.6629 188.629 95.7595C189.629 95.9889 191.019 96.298 190.729 97.754C190.369 99.5888 185.989 101.414 185.119 101.743C185.054 101.761 184.985 101.764 184.919 101.753Z" fill="#263238"/>
<path d="M180.489 108.395C179.462 108.454 178.438 108.25 177.513 107.801C176.589 107.352 175.795 106.674 175.209 105.831C175.172 105.777 175.146 105.717 175.133 105.652C175.12 105.588 175.12 105.522 175.133 105.458C175.146 105.394 175.172 105.333 175.209 105.279C175.246 105.225 175.294 105.179 175.349 105.143C175.459 105.071 175.594 105.045 175.723 105.071C175.852 105.098 175.966 105.174 176.039 105.283C178.439 108.883 184.039 106.769 184.039 106.749C184.162 106.7 184.3 106.702 184.422 106.754C184.544 106.807 184.64 106.905 184.689 107.028C184.738 107.151 184.736 107.289 184.684 107.41C184.631 107.532 184.532 107.628 184.409 107.677C183.151 108.13 181.826 108.372 180.489 108.395V108.395Z" fill="#263238"/>
<path d="M171.309 88.8392C171.249 88.8487 171.189 88.8487 171.129 88.8392C171.067 88.816 171.01 88.7808 170.962 88.7355C170.914 88.6902 170.875 88.6359 170.848 88.5755C170.821 88.5152 170.806 88.4502 170.805 88.3842C170.803 88.3181 170.815 88.2525 170.839 88.191C171.357 86.97 172.313 85.9852 173.519 85.4283C174.258 85.1425 175.048 85.0093 175.84 85.0367C176.633 85.0641 177.411 85.2517 178.129 85.5879C178.252 85.6369 178.351 85.7326 178.404 85.8542C178.456 85.9758 178.458 86.1132 178.409 86.2362C178.36 86.3592 178.264 86.4577 178.142 86.5101C178.02 86.5624 177.882 86.5644 177.759 86.5154C177.164 86.2289 176.517 86.0653 175.857 86.0344C175.197 86.0036 174.538 86.1061 173.919 86.3359C172.96 86.7934 172.197 87.579 171.769 88.55C171.731 88.6389 171.666 88.7142 171.584 88.7658C171.502 88.8175 171.406 88.8431 171.309 88.8392V88.8392Z" fill="#263238"/>
<path d="M192.679 87.2035C192.602 87.2025 192.527 87.1851 192.458 87.1524C192.389 87.1197 192.328 87.0724 192.279 87.014C191.279 85.7673 190.369 85.1589 189.469 85.1988C189.034 85.2724 188.62 85.4366 188.253 85.6806C187.886 85.9246 187.574 86.243 187.339 86.615C187.267 86.7256 187.155 86.804 187.026 86.8338C186.897 86.8635 186.762 86.8423 186.649 86.7746C186.592 86.7409 186.542 86.6961 186.503 86.6428C186.464 86.5896 186.436 86.5289 186.421 86.4646C186.406 86.4003 186.405 86.3337 186.416 86.2687C186.428 86.2037 186.453 86.1417 186.489 86.0865C186.807 85.5775 187.233 85.1448 187.738 84.819C188.243 84.4932 188.813 84.2823 189.409 84.2015C190.689 84.1317 191.899 84.8797 193.069 86.4056C193.149 86.5102 193.185 86.6423 193.168 86.7732C193.152 86.904 193.083 87.0229 192.979 87.1037C192.893 87.1691 192.787 87.2042 192.679 87.2035V87.2035Z" fill="#263238"/>
<path d="M204.209 60.8965C199.829 55.9104 195.209 56.2095 192.449 57.2865C188.709 51.004 176.349 46.0179 160.449 52.0711C141.869 59.1314 144.079 78.1085 144.969 81.6387C145.859 85.1689 152.049 94.4331 156.029 94.8718C156.029 94.8718 159.569 91.7804 159.569 88.699C159.569 85.6176 167.979 79.4348 176.379 76.7822C181.669 75.1169 187.479 72.0554 190.839 68.1463C190.777 70.7131 191.439 73.2458 192.749 75.4559C195.409 79.4448 199.389 81.6387 199.389 82.965C199.389 84.2913 201.599 89.1378 203.389 89.1378C205.179 89.1378 205.159 82.0775 205.599 78.9861C206.039 75.8947 210.399 67.9568 204.209 60.8965Z" fill="#263238"/>
<path d="M155.979 95.3705H155.919C151.569 94.8818 145.329 85.3085 144.429 81.7584C144.379 81.539 139.489 59.4904 160.229 51.6124C175.539 45.7886 188.229 49.8473 192.659 56.6783C194.919 55.9204 199.859 55.1824 204.579 60.5674C209.749 66.461 207.789 72.933 206.579 76.8122C206.334 77.5468 206.137 78.2962 205.989 79.0559C205.879 79.8038 205.799 80.811 205.709 81.8681C205.329 86.565 204.949 89.6364 203.279 89.6364C201.079 89.6364 198.799 84.3711 198.799 82.965C198.799 82.5462 197.799 81.6088 196.799 80.7113C195.086 79.2415 193.561 77.5668 192.259 75.7252C191.056 73.8104 190.368 71.6195 190.259 69.3629C187.079 72.5839 182.009 75.4859 176.399 77.251C167.919 79.9235 159.939 85.9567 159.939 88.6891C159.939 91.96 156.379 95.1012 156.229 95.2408C156.159 95.3071 156.073 95.3521 155.979 95.3705ZM174.319 49.8473C169.613 49.9042 164.956 50.8166 160.579 52.5398C140.649 60.1187 145.349 81.2997 145.399 81.5191C146.279 85.0293 152.159 93.6253 155.819 94.3433C156.499 93.7051 159.019 91.1522 159.019 88.6991C159.019 85.2387 167.679 78.9861 176.179 76.3036C182.129 74.4388 187.449 71.2576 190.409 67.8172C190.477 67.7403 190.567 67.6857 190.667 67.6608C190.767 67.6359 190.872 67.6417 190.969 67.6776C191.063 67.7141 191.145 67.7785 191.202 67.8622C191.259 67.9459 191.289 68.045 191.289 68.1463C191.226 70.6177 191.86 73.057 193.119 75.1867C194.378 76.9567 195.853 78.5645 197.509 79.9734C198.909 81.2598 199.839 82.1074 199.839 82.965C199.839 84.2514 201.999 88.6392 203.319 88.6392C204.199 88.6392 204.589 83.8426 204.759 81.7883C204.839 80.7113 204.929 79.6941 205.039 78.9163C205.192 78.1057 205.399 77.3062 205.659 76.523C206.839 72.6139 208.659 66.7003 203.829 61.2256C199.389 56.1697 194.909 56.8777 192.629 57.7553C192.517 57.7969 192.395 57.7978 192.283 57.7576C192.171 57.7173 192.078 57.6388 192.019 57.5359C189.669 53.6068 183.279 49.8473 174.319 49.8473Z" fill="#263238"/>
<path d="M152.259 83.8529H152.169C152.039 83.8287 151.924 83.7543 151.849 83.6459C151.774 83.5376 151.745 83.404 151.769 83.2745C152.059 81.7286 153.149 80.4121 155.109 79.2253C155.223 79.1606 155.357 79.1431 155.484 79.1765C155.611 79.21 155.719 79.2918 155.786 79.4042C155.853 79.5167 155.873 79.6509 155.842 79.7778C155.81 79.9048 155.73 80.0144 155.619 80.083C153.929 81.0804 152.989 82.2073 152.749 83.464C152.725 83.5757 152.664 83.6757 152.574 83.7467C152.485 83.8178 152.373 83.8553 152.259 83.8529V83.8529Z" fill="white"/>
<path d="M158.589 78.6172C158.488 78.6165 158.389 78.5859 158.305 78.529C158.221 78.4722 158.157 78.3918 158.119 78.2981C158.073 78.1751 158.078 78.0391 158.132 77.9196C158.187 77.8002 158.286 77.7068 158.409 77.6599C161.88 76.4325 165.427 75.4332 169.029 74.6682C171.709 74.0499 174.249 73.4516 176.359 72.7835C184.279 70.2705 188.719 63.3896 188.769 63.3298C188.803 63.273 188.848 63.2236 188.901 63.1846C188.954 63.1457 189.015 63.1179 189.08 63.103C189.144 63.0881 189.211 63.0863 189.276 63.0979C189.341 63.1094 189.403 63.1341 189.459 63.1702C189.57 63.2418 189.648 63.3544 189.676 63.4834C189.705 63.6123 189.68 63.7472 189.609 63.8583C186.454 68.4605 181.895 71.926 176.609 73.7408C174.469 74.4189 171.909 75.0172 169.209 75.6455C165.653 76.3831 162.149 77.3491 158.719 78.5374C158.679 78.5697 158.636 78.5965 158.589 78.6172Z" fill="white"/>
<path d="M150.769 69.7227C150.668 69.7234 150.57 69.6919 150.489 69.6329C150.379 69.5598 150.303 69.4464 150.277 69.3176C150.25 69.1887 150.276 69.0547 150.349 68.9447C151.349 67.3989 154.049 67.5086 158.079 67.6682C161.347 67.8507 164.623 67.8307 167.889 67.6083C176.979 66.8803 185.099 61.4248 185.179 61.365C185.289 61.2928 185.423 61.267 185.552 61.2932C185.682 61.3193 185.795 61.3953 185.869 61.5046C185.906 61.558 185.933 61.6184 185.947 61.6822C185.96 61.746 185.961 61.8119 185.949 61.8761C185.937 61.9402 185.912 62.0013 185.876 62.0557C185.84 62.1101 185.793 62.1567 185.739 62.1928C185.399 62.4222 177.319 67.8576 167.969 68.6056C164.663 68.8331 161.347 68.8531 158.039 68.6655C154.479 68.5259 151.909 68.4161 151.179 69.5032C151.134 69.5708 151.073 69.6263 151.001 69.6646C150.93 69.7029 150.85 69.7228 150.769 69.7227V69.7227Z" fill="white"/>
<path d="M204.489 74.9278C204.423 74.9252 204.358 74.9097 204.299 74.8823C204.239 74.8548 204.185 74.8159 204.141 74.7677C204.096 74.7195 204.062 74.6631 204.039 74.6016C204.016 74.54 204.006 74.4746 204.009 74.4091C204.054 73.1763 203.963 71.9422 203.739 70.729C203.724 70.6647 203.723 70.5982 203.735 70.5334C203.746 70.4686 203.771 70.4068 203.808 70.3518C203.844 70.2969 203.891 70.2498 203.947 70.2135C204.002 70.1772 204.064 70.1524 204.129 70.1406C204.194 70.1276 204.261 70.1276 204.326 70.1407C204.391 70.1538 204.452 70.1796 204.507 70.2168C204.562 70.2539 204.609 70.3016 204.646 70.357C204.682 70.4124 204.707 70.4744 204.719 70.5395C204.955 71.8286 205.052 73.1393 205.009 74.4491C205.006 74.5146 204.991 74.5789 204.963 74.6384C204.935 74.6979 204.896 74.7515 204.848 74.7959C204.8 74.8404 204.743 74.8749 204.682 74.8975C204.62 74.9202 204.554 74.9304 204.489 74.9278Z" fill="white"/>
<path d="M203.669 69.1347C203.564 69.1355 203.463 69.103 203.378 69.042C203.293 68.981 203.231 68.8947 203.199 68.7956C202.553 67.0211 201.517 65.4132 200.168 64.0896C198.818 62.766 197.189 61.7603 195.399 61.1461C195.271 61.1089 195.163 61.0234 195.098 60.9079C195.032 60.7924 195.015 60.656 195.049 60.5277C195.067 60.4649 195.098 60.4062 195.139 60.3552C195.18 60.3041 195.231 60.2616 195.288 60.2301C195.346 60.1986 195.409 60.1788 195.474 60.1717C195.54 60.1645 195.606 60.1703 195.669 60.1887C197.62 60.8324 199.398 61.9131 200.866 63.348C202.334 64.7828 203.454 66.5337 204.139 68.4665C204.161 68.5287 204.17 68.5946 204.167 68.6605C204.163 68.7264 204.146 68.7908 204.117 68.8502C204.088 68.9096 204.048 68.9626 203.999 69.0063C203.949 69.05 203.891 69.0835 203.829 69.1048C203.778 69.1244 203.723 69.1345 203.669 69.1347V69.1347Z" fill="white"/>
<path d="M171.509 114.397C170.207 114.448 168.913 114.181 167.739 113.619C163.929 111.625 157.159 102.65 156.879 102.231C156.799 102.125 156.765 101.992 156.784 101.861C156.803 101.731 156.873 101.612 156.979 101.533C157.085 101.454 157.218 101.42 157.35 101.438C157.481 101.457 157.599 101.527 157.679 101.633C157.749 101.723 164.589 110.837 168.209 112.742C171.829 114.647 178.619 111.994 178.689 111.964C178.751 111.94 178.816 111.929 178.882 111.931C178.948 111.933 179.014 111.948 179.074 111.974C179.134 112.001 179.189 112.04 179.234 112.088C179.28 112.135 179.315 112.192 179.339 112.253C179.362 112.315 179.374 112.38 179.372 112.446C179.37 112.512 179.355 112.577 179.328 112.637C179.301 112.697 179.263 112.752 179.215 112.797C179.167 112.842 179.111 112.878 179.049 112.901C176.63 113.793 174.085 114.297 171.509 114.397V114.397Z" fill="#263238"/>
<path d="M181.349 112.513C181.349 113.42 180.229 114.168 178.859 114.168C177.489 114.168 176.369 113.42 176.369 112.513C176.369 111.605 177.479 110.857 178.859 110.857C180.239 110.857 181.349 111.595 181.349 112.513Z" fill="#263238"/>
<path d="M153.379 89.3081C153.379 89.3081 145.169 68.1072 153.379 55.4624C153.379 55.4624 140.689 68.4762 151.889 92.2898L153.379 89.3081Z" fill="white"/>
<path d="M159.069 96.1783C159.819 101.164 158.459 105.472 156.019 105.841C153.579 106.21 151.019 102.471 150.259 97.4946C149.499 92.5185 150.879 88.2005 153.309 87.8315C155.739 87.4625 158.359 91.2021 159.069 96.1783Z" fill="white"/>
<path d="M155.719 106.34C153.109 106.34 150.559 102.62 149.799 97.5543C149.409 95.2927 149.528 92.973 150.149 90.7632C150.779 88.7688 151.889 87.5222 153.269 87.3228C156.009 86.9139 158.799 90.7533 159.599 96.0784C159.984 98.3403 159.864 100.659 159.249 102.87C158.609 104.864 157.509 106.11 156.129 106.31C155.993 106.33 155.856 106.34 155.719 106.34ZM153.719 88.2901C153.629 88.2802 153.538 88.2802 153.449 88.2901C152.449 88.4297 151.649 89.4369 151.139 91.0424C150.567 93.1077 150.461 95.2738 150.829 97.3848C151.519 101.992 153.889 105.632 156.019 105.303C157.019 105.163 157.829 104.156 158.339 102.55C158.906 100.484 159.011 98.3193 158.649 96.2081C157.939 91.8203 155.729 88.3101 153.679 88.3101L153.719 88.2901Z" fill="#263238"/>
<path d="M154.658 105.693C156.82 105.368 157.966 101.074 157.216 96.1019C156.467 91.1295 154.106 87.3613 151.943 87.6856C149.78 88.0098 148.635 92.3037 149.384 97.2762C150.134 102.249 152.495 106.017 154.658 105.693Z" fill="white"/>
<path d="M154.379 106.221C153.239 106.221 152.069 105.353 151.059 103.747C149.912 101.786 149.171 99.6163 148.879 97.3652C148.069 92.03 149.389 87.5724 151.879 87.2035C154.369 86.8345 156.879 90.7137 157.729 96.0389C158.108 98.2771 158.04 100.568 157.529 102.78C156.989 104.775 155.999 106.011 154.739 106.201L154.379 106.221ZM152.179 88.1708H152.009C150.389 88.4101 149.109 92.1597 149.869 97.1458C150.135 99.2518 150.815 101.285 151.869 103.129C152.749 104.515 153.709 105.243 154.539 105.124C155.369 105.004 156.089 104.017 156.539 102.431C157.018 100.353 157.079 98.2006 156.719 96.0987C155.989 91.3818 153.789 88.1708 152.179 88.1708Z" fill="#263238"/>
<path d="M234.739 131.49L246.269 222.387L223.239 221.938L234.739 131.49Z" fill="#5B5CEE"/>
<path d="M246.269 222.885L223.269 222.437C223.199 222.436 223.129 222.42 223.066 222.391C223.002 222.362 222.945 222.32 222.899 222.267C222.854 222.213 222.821 222.151 222.802 222.084C222.784 222.017 222.779 221.947 222.789 221.878L234.279 131.43C234.293 131.308 234.353 131.196 234.445 131.116C234.537 131.035 234.656 130.99 234.779 130.991V130.991C234.9 130.993 235.016 131.038 235.106 131.119C235.197 131.199 235.254 131.31 235.269 131.43L246.799 222.317C246.81 222.388 246.805 222.461 246.785 222.53C246.764 222.599 246.728 222.663 246.679 222.716C246.628 222.774 246.565 222.819 246.494 222.848C246.423 222.878 246.346 222.89 246.269 222.885V222.885ZM223.809 221.449L245.699 221.878L234.699 135.459L223.809 221.449Z" fill="#263238"/>
<path opacity="0.3" d="M241.019 181.062L229.029 188.242L229.229 174.809L223.239 221.938L246.269 222.387L244.379 207.538L234.329 207.867L243.249 198.623L243.179 198.014L230.919 202.203L242.009 188.81L241.019 181.062Z" fill="black"/>
<path d="M152.349 104.685C152.349 104.685 155.749 103.498 156.489 104.804C157.229 106.111 158.089 111.785 158.069 112.593C158.049 113.4 157.769 114.138 156.229 113.59C154.689 113.041 152.229 108.045 152.229 108.045L152.349 104.685Z" fill="white"/>
<path d="M157.138 114.318C156.768 114.308 156.403 114.233 156.058 114.098C154.418 113.49 152.218 109.172 151.798 108.304C151.783 108.229 151.783 108.151 151.798 108.075L151.898 104.724C151.901 104.624 151.933 104.526 151.992 104.444C152.051 104.362 152.133 104.3 152.228 104.266C152.868 104.046 156.068 103.019 156.968 104.615C157.758 106.001 158.648 111.825 158.618 112.662C158.633 112.932 158.584 113.2 158.476 113.448C158.369 113.695 158.205 113.915 157.998 114.088C157.743 114.253 157.442 114.333 157.138 114.318V114.318ZM152.748 107.975C153.678 109.84 155.438 112.802 156.398 113.161C157.088 113.41 157.328 113.3 157.398 113.261C157.468 113.221 157.578 112.971 157.588 112.632C157.588 111.944 156.758 106.33 156.068 105.103C155.738 104.505 154.068 104.734 152.858 105.103L152.748 107.975Z" fill="#263238"/>
<path d="M137.469 122.674C137.469 122.674 140.619 102.481 140.689 100.287C140.759 98.0929 143.689 96.298 145.089 95.7595C146.489 95.221 154.489 95.4802 155.339 95.5102C156.189 95.5401 159.609 95.3606 159.579 96.5074C159.549 97.6542 159.249 98.1428 156.389 98.6015C153.529 99.0603 146.689 99.4193 146.689 99.4193L144.899 102.112L153.389 103.727C153.389 103.727 155.389 104.605 155.029 105.971C154.669 107.337 153.679 113.331 153.659 114.148C153.639 114.966 152.759 115.494 150.729 116.811C149.517 117.592 148.154 118.112 146.729 118.337C146.729 118.337 146.889 122.455 145.729 122.964L142.839 124.25L142.439 147.814L129.389 146.339L137.469 122.674Z" fill="white"/>
<path d="M142.429 148.223H142.369L129.369 146.747C129.294 146.739 129.222 146.714 129.158 146.674C129.094 146.634 129.04 146.581 128.999 146.518C128.967 146.451 128.95 146.378 128.95 146.304C128.95 146.229 128.967 146.156 128.999 146.089L137.079 122.515C137.239 121.518 140.219 102.321 140.279 100.237C140.349 97.7239 143.559 95.7593 145.009 95.2508C146.459 94.7422 152.769 94.8918 155.439 94.9715H155.889C157.549 94.9715 159.219 95.0214 159.889 95.6995C159.984 95.795 160.059 95.9088 160.108 96.0339C160.158 96.159 160.182 96.2929 160.179 96.4275C160.179 98.0031 159.359 98.5516 156.569 99.0103C153.989 99.4291 148.349 99.7482 147.069 99.818L145.839 101.673L153.589 103.149H153.699C153.789 103.149 156.039 104.216 155.619 105.961C155.269 107.427 154.279 113.32 154.259 114.048C154.259 115.046 153.329 115.674 151.369 116.94L151.109 117.11C149.951 117.847 148.666 118.364 147.319 118.636C147.319 119.992 147.219 122.764 146.019 123.303L143.429 124.459L143.029 147.705C143.027 147.774 143.011 147.843 142.982 147.906C142.952 147.97 142.911 148.027 142.859 148.074C142.804 148.131 142.737 148.174 142.662 148.2C142.587 148.226 142.507 148.234 142.429 148.223V148.223ZM130.069 145.87L141.939 147.226L142.329 124.21C142.332 124.116 142.362 124.025 142.415 123.948C142.468 123.87 142.542 123.809 142.629 123.771L145.509 122.485C146.009 122.256 146.279 120.112 146.209 118.326C146.203 118.201 146.245 118.077 146.327 117.981C146.408 117.885 146.523 117.823 146.649 117.808C148.007 117.598 149.305 117.106 150.459 116.362L150.729 116.192C152.439 115.076 153.139 114.607 153.159 114.108C153.159 113.191 154.249 107.128 154.549 105.821C154.749 104.984 153.549 104.306 153.239 104.176L144.809 102.57C144.727 102.554 144.651 102.519 144.587 102.466C144.522 102.414 144.471 102.347 144.439 102.271C144.402 102.199 144.383 102.118 144.383 102.037C144.383 101.955 144.402 101.875 144.439 101.802L146.219 99.11C146.265 99.046 146.325 98.9931 146.394 98.9552C146.463 98.9172 146.54 98.8951 146.619 98.8906C146.679 98.8906 153.459 98.5416 156.259 98.0829C159.059 97.6241 159.009 97.1953 159.029 96.4574C158.939 96.3078 158.399 96.0286 155.809 96.0286H155.269C151.269 95.9089 146.199 95.8989 145.209 96.248C143.859 96.7266 141.209 98.4618 141.139 100.327C141.069 102.521 138.049 121.946 137.919 122.774C137.919 122.774 137.919 122.834 137.919 122.854L130.069 145.87Z" fill="#263238"/>
<path d="M154.349 107.567H154.259L143.959 105.722C143.826 105.698 143.708 105.622 143.631 105.512C143.554 105.402 143.525 105.265 143.549 105.133C143.572 105.001 143.648 104.884 143.759 104.807C143.869 104.73 144.006 104.701 144.139 104.724L154.439 106.579C154.571 106.591 154.694 106.655 154.779 106.757C154.864 106.859 154.906 106.991 154.894 107.123C154.882 107.255 154.818 107.377 154.715 107.462C154.613 107.547 154.481 107.589 154.349 107.577V107.567Z" fill="#263238"/>
<path d="M153.178 112.174H153.068L144.588 110.119C144.456 110.089 144.341 110.007 144.269 109.892C144.196 109.777 144.173 109.638 144.203 109.506C144.234 109.374 144.316 109.259 144.431 109.187C144.547 109.115 144.686 109.092 144.818 109.122L153.308 111.177C153.373 111.191 153.433 111.217 153.486 111.255C153.54 111.294 153.585 111.342 153.618 111.398C153.652 111.454 153.674 111.517 153.683 111.581C153.691 111.646 153.686 111.712 153.668 111.775C153.647 111.889 153.586 111.991 153.497 112.064C153.407 112.137 153.294 112.176 153.178 112.174Z" fill="#263238"/>
<path d="M146.709 118.786C146.625 118.787 146.542 118.767 146.468 118.727C146.395 118.687 146.333 118.628 146.289 118.556C145.929 117.998 145.119 116.631 145.389 115.883C145.432 115.764 145.502 115.657 145.594 115.57C145.686 115.484 145.797 115.42 145.919 115.385C146.709 115.145 148.549 114.677 148.549 114.677L148.799 115.674C148.799 115.674 147.159 116.093 146.329 116.332C146.495 116.945 146.766 117.526 147.129 118.047C147.2 118.159 147.225 118.293 147.197 118.422C147.169 118.551 147.09 118.664 146.979 118.736C146.895 118.774 146.802 118.791 146.709 118.786V118.786Z" fill="#263238"/>
<path d="M130.559 134.132L144.659 139.438C144.659 139.438 134.839 200.906 132.479 205.733C130.119 210.559 124.599 216.164 117.479 216.842C110.359 217.52 105.209 209.861 104.999 201.814C104.789 193.766 130.559 134.132 130.559 134.132Z" fill="#5B5CEE"/>
<path d="M116.569 217.381C114.109 217.357 111.746 216.422 109.939 214.758C106.699 211.886 104.599 206.94 104.469 201.794C104.249 193.767 129.049 136.337 130.099 133.893C130.151 133.776 130.247 133.684 130.367 133.636C130.486 133.587 130.619 133.587 130.739 133.634L144.839 138.929C144.947 138.968 145.038 139.042 145.097 139.141C145.155 139.239 145.177 139.355 145.159 139.468C144.759 141.981 135.299 201.076 132.919 205.903C130.379 211.088 124.619 216.623 117.489 217.301C117.189 217.371 116.879 217.381 116.569 217.381ZM130.829 134.771C128.489 140.216 105.269 194.355 105.469 201.804C105.589 206.641 107.559 211.318 110.609 214.01C111.511 214.855 112.583 215.5 113.753 215.902C114.924 216.304 116.166 216.455 117.399 216.344C124.139 215.705 129.599 210.44 132.029 205.514C134.239 201.016 143.249 145.082 144.109 139.757L130.829 134.771Z" fill="#263238"/>
<path opacity="0.3" d="M118.889 185.599C115.449 187.348 111.858 188.783 108.159 189.887C106.889 193.567 105.919 196.688 105.399 198.922L112.069 198.084C116.821 197.538 121.509 196.536 126.069 195.093C126.069 195.093 115.069 201.884 105.259 203.02H105.029C105.679 210.579 110.639 217.52 117.439 216.872C124.589 216.194 130.099 210.579 132.439 205.763C133.599 203.389 136.559 187.374 139.269 171.688C132.987 177.029 126.155 181.692 118.889 185.599V185.599Z" fill="black"/>
<path d="M145.069 60.647L135.909 48.0022C137.589 47.997 139.198 47.3292 140.386 46.1446C141.574 44.9601 142.243 43.355 142.249 41.6799V7.25573C142.241 5.58136 141.57 3.9778 140.383 2.79382C139.196 1.60984 137.588 0.941217 135.909 0.93335H56.3088C54.6289 0.938609 53.0194 1.60641 51.8315 2.79095C50.6437 3.97549 49.974 5.58055 49.9688 7.25573V41.6799C49.9714 43.3558 50.6402 44.9624 51.8286 46.1475C53.017 47.3326 54.6281 47.9996 56.3088 48.0022H125.139L145.069 60.647Z" fill="#263238"/>
<path d="M76.4187 23.0623C76.4187 22.2969 76.1911 21.5488 75.7648 20.9124C75.3385 20.2761 74.7325 19.7801 74.0235 19.4872C73.3145 19.1943 72.5344 19.1177 71.7817 19.267C71.0291 19.4163 70.3377 19.7848 69.7951 20.326C69.2525 20.8672 68.883 21.5567 68.7332 22.3073C68.5835 23.058 68.6604 23.836 68.954 24.5431C69.2477 25.2502 69.745 25.8546 70.3831 26.2798C71.0212 26.705 71.7713 26.9319 72.5387 26.9319C73.0482 26.9319 73.5528 26.8318 74.0235 26.6374C74.4943 26.4429 74.922 26.1579 75.2823 25.7985C75.6426 25.4392 75.9284 25.0126 76.1234 24.5431C76.3183 24.0736 76.4187 23.5704 76.4187 23.0623Z" fill="#5B5CEE"/>
<path d="M99.3088 23.0623C99.3088 22.2965 99.081 21.5479 98.6542 20.9114C98.2274 20.2748 97.6209 19.7788 96.9113 19.4862C96.2018 19.1936 95.4211 19.1176 94.6682 19.2677C93.9153 19.4178 93.2239 19.7874 92.6817 20.3296C92.1395 20.8717 91.7707 21.5622 91.6222 22.3135C91.4736 23.0648 91.5519 23.8431 91.8471 24.55C92.1423 25.2569 92.6411 25.8606 93.2805 26.2846C93.9199 26.7086 94.671 26.9339 95.4388 26.9319C95.9479 26.9319 96.4519 26.8317 96.9221 26.6372C97.3923 26.4426 97.8194 26.1574 98.1789 25.7979C98.5384 25.4385 98.8232 25.0118 99.0171 24.5424C99.211 24.0729 99.3101 23.57 99.3088 23.0623V23.0623Z" fill="#5B5CEE"/>
<path d="M122.209 23.0623C122.209 22.2969 121.981 21.5488 121.555 20.9124C121.128 20.2761 120.523 19.7801 119.814 19.4872C119.105 19.1943 118.324 19.1177 117.572 19.267C116.819 19.4163 116.128 19.7848 115.585 20.326C115.043 20.8672 114.673 21.5567 114.523 22.3073C114.374 23.058 114.45 23.836 114.744 24.5431C115.038 25.2502 115.535 25.8546 116.173 26.2798C116.811 26.705 117.561 26.9319 118.329 26.9319C118.838 26.9319 119.343 26.8318 119.814 26.6374C120.284 26.4429 120.712 26.1579 121.072 25.7985C121.433 25.4392 121.718 25.0126 121.913 24.5431C122.108 24.0736 122.209 23.5704 122.209 23.0623Z" fill="#5B5CEE"/>
</svg>
