<svg width="309" height="309" viewBox="0 0 309 309" fill="none" xmlns="http://www.w3.org/2000/svg">
<path d="M96.6404 295.656C174.19 327.169 262.87 290.67 295.78 214.273L176.61 165.838L154.4 156.813L6.15039 193.202C18.8804 241.358 50.1104 276.749 96.6404 295.656Z" fill="#5B5CEE"/>
<path d="M179.76 119.577L251.5 34.8131C230.33 17.5811 206.93 6.68144 182.09 2.30363C161.54 -1.30631 139.99 -0.458674 117.9 4.96621C36.5804 24.9107 -13.6596 106.424 4.76037 187.538L119.97 159.256L152.97 151.149L179.76 119.577Z" fill="#5B5CEE"/>
<path opacity="0.3" d="M179.76 119.577L251.5 34.8131C230.33 17.5811 206.93 6.68144 182.09 2.30363C161.54 -1.30631 139.99 -0.458674 117.9 4.96621C36.5804 24.9107 -13.6596 106.424 4.76037 187.538L119.97 159.256L152.97 151.149L179.76 119.577Z" fill="#141F31"/>
<path d="M255.95 38.5823L159.46 152.585L255.85 191.756L298 208.888C321.66 147.898 305.31 81.6523 255.95 38.5823Z" fill="white"/>
<path d="M137.49 33.7957H175.49" stroke="#141F31" stroke-linecap="round" stroke-linejoin="round"/>
<path d="M137.49 40.2476H175.49" stroke="#141F31" stroke-linecap="round" stroke-linejoin="round"/>
<path d="M137.49 46.7H175.49" stroke="#141F31" stroke-linecap="round" stroke-linejoin="round"/>
<path d="M137.49 53.1521H175.49" stroke="#141F31" stroke-linecap="round" stroke-linejoin="round"/>
<path d="M171.45 122.499H209.46" stroke="#141F31" stroke-linecap="round" stroke-linejoin="round"/>
<path d="M171.45 128.951H209.46" stroke="#141F31" stroke-linecap="round" stroke-linejoin="round"/>
<path d="M171.45 135.403H209.46" stroke="#141F31" stroke-linecap="round" stroke-linejoin="round"/>
<path d="M171.45 141.855H209.46" stroke="#141F31" stroke-linecap="round" stroke-linejoin="round"/>
<path d="M49.3403 206.375H87.3503" stroke="#141F31" stroke-linecap="round" stroke-linejoin="round"/>
<path d="M49.3403 212.827H87.3503" stroke="#141F31" stroke-linecap="round" stroke-linejoin="round"/>
<path d="M49.3403 219.269H87.3503" stroke="#141F31" stroke-linecap="round" stroke-linejoin="round"/>
<path d="M49.3403 225.721H87.3503" stroke="#141F31" stroke-linecap="round" stroke-linejoin="round"/>
<path d="M229.67 74.333C229.67 74.333 232.36 56.5924 245.45 49.562C258.54 42.5315 272.65 47.2085 283.06 54.917C293.47 62.6256 294.14 79.359 292.12 89.401C290.1 99.443 278.36 153.712 278.36 153.712L226.36 153.044L229.67 74.333Z" fill="#5B5CEE" stroke="#141F31" stroke-linecap="round" stroke-linejoin="round"/>
<path d="M254.46 52.7937C254.46 52.7937 246.15 57.341 243.73 68.839" stroke="#141F31" stroke-linecap="round" stroke-linejoin="round"/>
<path d="M254.46 73.3259C254.28 74.4978 254.183 75.6809 254.17 76.8665" stroke="#141F31" stroke-linecap="round" stroke-linejoin="round"/>
<path d="M260.9 53.5916C258.512 58.8461 256.588 64.2983 255.15 69.8862" stroke="#141F31" stroke-linecap="round" stroke-linejoin="round"/>
<path d="M270.02 53.5916C270.02 53.5916 271.09 70.7139 268.94 80.6063" stroke="#141F31" stroke-linecap="round" stroke-linejoin="round"/>
<path d="M281.15 77.564C280.983 78.693 280.753 79.8118 280.46 80.915" stroke="#141F31" stroke-linecap="round" stroke-linejoin="round"/>
<path d="M277.53 54.928C280.185 60.6287 281.551 66.8418 281.53 73.1273" stroke="#141F31" stroke-linecap="round" stroke-linejoin="round"/>
<path d="M249.46 132.93C249.46 132.93 212.86 147.33 210.17 151.348C207.48 155.367 191.37 206.266 191.37 206.266L307.15 214.134C307.15 214.134 297.83 162.059 294.46 156.704C291.09 151.348 263.91 136.62 258.2 134.276C252.49 131.933 249.46 132.93 249.46 132.93Z" fill="white" stroke="#141F31" stroke-linecap="round" stroke-linejoin="round"/>
<path d="M276.57 201.289L281.94 169.158" stroke="#141F31" stroke-linecap="round" stroke-linejoin="round"/>
<path d="M277.01 165.409C276.51 158.607 276.999 151.769 278.46 145.106C271.894 141.145 265.125 137.53 258.18 134.276C252.47 131.923 249.45 132.93 249.45 132.93C249.45 132.93 237.32 137.706 226.51 142.523C224.85 148.297 221.31 158.987 215.51 168.451C207.11 182.183 206.44 195.246 209.8 200.601C211.8 203.852 213.01 205.498 213.62 206.295H276.62C276.91 202.147 277.92 179.949 277.01 165.409Z" fill="#141F31" stroke="#141F31" stroke-linecap="round" stroke-linejoin="round"/>
<path d="M245.46 184.835C248.74 184.177 266.13 153.782 271.62 141.157C265.7 137.866 260.4 135.174 258.22 134.276C252.51 131.923 249.49 132.93 249.49 132.93C249.49 132.93 242.92 135.513 235.15 138.803C234.55 144.787 234.15 153.832 235.72 161.391C238.4 174.115 242.09 185.503 245.46 184.835Z" fill="white" stroke="#141F31" stroke-linecap="round" stroke-linejoin="round"/>
<path d="M236.3 157.382L241.14 160.593" stroke="#141F31" stroke-linecap="round" stroke-linejoin="round"/>
<path d="M258.85 163.804L250.8 162.737" stroke="#141F31" stroke-linecap="round" stroke-linejoin="round"/>
<path d="M238.57 147.648C238.57 147.648 238.75 139.292 239.07 135.941C239.45 132.012 239.41 120.544 239.41 120.544L264.93 123.536L262.58 145.634" fill="white"/>
<path d="M239.07 135.941V136.33C241.66 139.85 245.39 143.919 248.78 143.919C252.17 143.919 258.3 140.748 263.44 137.836L264.96 123.556L239.44 120.564C239.44 120.564 239.46 132.012 239.07 135.941Z" fill="#5B5CEE"/>
<path opacity="0.5" d="M239.07 135.941V136.33C241.66 139.85 245.39 143.919 248.78 143.919C252.17 143.919 258.3 140.748 263.44 137.836L264.96 123.556L239.44 120.564C239.44 120.564 239.46 132.012 239.07 135.941Z" fill="white"/>
<path d="M238.57 147.648C238.57 147.648 238.75 139.292 239.07 135.941C239.45 132.012 239.41 120.544 239.41 120.544L264.93 123.536L262.58 145.634" stroke="#141F31" stroke-linecap="round" stroke-linejoin="round"/>
<path d="M236.38 79.3589C236.38 79.3589 235.94 81.8619 235.38 85.5217C234.23 93.32 232.64 106.374 234.01 111.838C236.01 119.876 244.09 136.619 248.12 138.285C252.15 139.95 266.58 130.257 271.62 124.563C276.66 118.869 281.69 92.0834 281.69 92.0834L271.29 92.4125L271.62 86.4292L269.62 92.1233L253.16 89.4408L253.84 83.0785L250.14 89.1117L239.06 86.1201V80.765L236.71 86.1201L236.38 79.3589Z" fill="white"/>
<path d="M271.64 86.3894L269.64 92.0836L253.18 89.401L253.86 83.0388L250.16 89.0719L239.08 86.0803V80.7252L236.73 86.0803L236.39 79.3889C236.39 79.3889 235.95 81.8919 235.39 85.5517C235.25 86.4592 235.11 87.4465 234.97 88.4736C239.04 90.6476 255.7 98.5655 280.66 97.2193C281.32 94.1578 281.66 92.1135 281.66 92.1135L271.26 92.4426L271.64 86.3894Z" fill="#5B5CEE"/>
<path opacity="0.5" d="M271.64 86.3894L269.64 92.0836L253.18 89.401L253.86 83.0388L250.16 89.0719L239.08 86.0803V80.7252L236.73 86.0803L236.39 79.3889C236.39 79.3889 235.95 81.8919 235.39 85.5517C235.25 86.4592 235.11 87.4465 234.97 88.4736C239.04 90.6476 255.7 98.5655 280.66 97.2193C281.32 94.1578 281.66 92.1135 281.66 92.1135L271.26 92.4426L271.64 86.3894Z" fill="white"/>
<path d="M236.38 79.3589C236.38 79.3589 235.94 81.8619 235.38 85.5217C234.23 93.32 232.64 106.374 234.01 111.838C236.01 119.876 244.09 136.619 248.12 138.285C252.15 139.95 266.58 130.257 271.62 124.563C276.66 118.869 281.69 92.0834 281.69 92.0834L271.29 92.4125L271.62 86.4292L269.62 92.1233L253.16 89.4408L253.84 83.0785L250.14 89.1117L239.06 86.1201V80.765L236.71 86.1201L236.38 79.3589Z" stroke="#141F31" stroke-linecap="round" stroke-linejoin="round"/>
<path d="M247.46 97.7679C247.24 99.5332 246.31 100.88 245.39 100.76C244.47 100.64 243.91 99.1143 244.13 97.349C244.35 95.5837 245.28 94.2373 246.2 94.357C247.12 94.4767 247.65 95.9926 247.46 97.7679Z" fill="#141F31"/>
<path d="M266.39 102.555C266.16 104.32 265.24 105.666 264.32 105.547C263.4 105.427 262.83 103.901 263.05 102.136C263.27 100.371 264.21 99.0242 265.13 99.1439C266.05 99.2636 266.61 100.779 266.39 102.555Z" fill="#141F31"/>
<path d="M255.12 96.2417C255.12 96.2417 254.64 101.507 253.2 102.704C251.76 103.9 248.64 105.815 248.64 107.012C248.64 108.208 250.32 110.123 253.64 109.884" stroke="#141F31" stroke-linecap="round" stroke-linejoin="round"/>
<path d="M246.72 115.149C246.72 115.149 251.04 119.697 257.72 116.346" stroke="#141F31" stroke-linecap="round" stroke-linejoin="round"/>
<path d="M241.46 89.3213C241.46 89.3213 246.2 85.9005 252.26 90.1092" stroke="#141F31" stroke-linecap="round" stroke-linejoin="round"/>
<path d="M261.36 93.3701C261.36 93.3701 267.84 89.5404 274.08 95.7637" stroke="#141F31" stroke-linecap="round" stroke-linejoin="round"/>
<path d="M283.39 86.0502C283.39 86.0502 270.97 123.895 266.27 144.318C261.57 164.741 259.22 190.858 259.55 197.171C259.88 203.483 260.22 203.533 264.55 196.173C268.88 188.814 282.39 155.706 285.46 137.617C288.53 119.527 292.84 90.069 292.84 83.0386" fill="#5B5CEE"/>
<path opacity="0.2" d="M271.2 177.196L278.2 130.078L264.76 184.147L271.61 141.157L260.22 183.818C259.744 188.269 259.52 192.744 259.55 197.221C259.89 203.583 260.22 203.583 264.55 196.223C266.74 192.534 271.2 182.362 275.5 170.854L271.2 177.196Z" fill="#141F31"/>
<path d="M283.39 86.0502C283.39 86.0502 270.97 123.895 266.27 144.318C261.57 164.741 259.22 190.858 259.55 197.171C259.88 203.483 260.22 203.533 264.55 196.173C268.88 188.814 282.39 155.706 285.46 137.617C288.53 119.527 292.84 90.069 292.84 83.0386" stroke="#141F31" stroke-linecap="round" stroke-linejoin="round"/>
<path d="M232.36 64.6199C232.36 64.6199 223.96 92.4125 217.58 116.864C211.2 141.316 226.98 199.225 230.34 196.552C233.7 193.88 231.34 110.502 233.34 102.813C235.34 95.1249 238.06 67.9506 238.06 67.9506" fill="#5B5CEE"/>
<path opacity="0.2" d="M229.86 123.656L227.71 167.015L222.88 128.472V166.486L216.83 144.737C219.42 170.146 227.97 198.427 230.34 196.542C231.86 195.336 232.21 177.715 232.34 158.03L229.86 123.656Z" fill="#141F31"/>
<path d="M232.36 64.6199C232.36 64.6199 223.96 92.4125 217.58 116.864C211.2 141.316 226.98 199.225 230.34 196.552C233.7 193.88 231.34 110.502 233.34 102.813C235.34 95.1249 238.06 67.9506 238.06 67.9506" stroke="#141F31" stroke-linecap="round" stroke-linejoin="round"/>
<path d="M59.8203 128.352C59.8203 128.352 67.9503 95.793 60.3403 50.4193L116.57 45.0144C116.57 45.0144 124.57 107.002 133.85 126.298L59.8203 128.352Z" fill="white"/>
<path opacity="0.5" d="M59.8203 128.352C59.8203 128.352 67.9503 95.793 60.3403 50.4193L116.57 45.0144C116.57 45.0144 124.57 107.002 133.85 126.298L59.8203 128.352Z" fill="#141F31"/>
<path d="M59.8203 128.352C59.8203 128.352 67.9503 95.793 60.3403 50.4193L116.57 45.0144C116.57 45.0144 124.57 107.002 133.85 126.298L59.8203 128.352Z" stroke="#141F31" stroke-linecap="round" stroke-linejoin="round"/>
<path d="M68.9204 128.781C68.9204 128.781 73.7804 83.5772 69.2404 63.8721" stroke="#141F31" stroke-linecap="round" stroke-linejoin="round"/>
<path d="M75.7207 65.1184C75.7207 65.1184 80.5807 100.021 78.3107 128.083" stroke="#141F31" stroke-linecap="round" stroke-linejoin="round"/>
<path d="M104.541 72.5479L108.751 127.116" stroke="#141F31" stroke-linecap="round" stroke-linejoin="round"/>
<path d="M108.75 66.7341C108.75 66.7341 113.93 117.752 117.82 127.445" stroke="#141F31" stroke-linecap="round" stroke-linejoin="round"/>
<path d="M112.96 57.9783C112.96 57.9783 122.67 113.514 128.5 126.787" stroke="#141F31" stroke-linecap="round" stroke-linejoin="round"/>
<path d="M64.2105 65.8464C64.2105 65.8464 62.1405 60.1921 58.7905 61.7378C55.4405 63.2835 57.4605 72.5378 60.8505 76.9255C64.2405 81.3133 68.8505 75.9283 68.8505 75.9283L64.2105 65.8464Z" fill="white"/>
<path opacity="0.1" d="M64.2105 65.8464C64.2105 65.8464 62.1405 60.1921 58.7905 61.7378C55.4405 63.2835 57.4605 72.5378 60.8505 76.9255C64.2405 81.3133 68.8505 75.9283 68.8505 75.9283L64.2105 65.8464Z" fill="#141F31"/>
<path d="M60.1005 70.4247C60.1005 70.4247 58.9504 66.1063 60.3904 66.4354C61.8304 66.7645 65.8604 71.0331 65.8604 71.0331C65.8604 71.0331 62.1205 70.4646 63.2705 72.19" stroke="#141F31" stroke-linecap="round" stroke-linejoin="round"/>
<path d="M64.2105 65.8464C64.2105 65.8464 62.1405 60.1921 58.7905 61.7378C55.4405 63.2835 57.4605 72.5378 60.8505 76.9255C64.2405 81.3133 68.8505 75.9283 68.8505 75.9283L64.2105 65.8464Z" stroke="#141F31" stroke-linecap="round" stroke-linejoin="round"/>
<path d="M116.69 61.1394C116.69 61.1394 117.29 55.1561 120.92 55.8142C124.55 56.4724 124.85 65.966 122.69 71.0319C120.53 76.0977 114.69 72.0291 114.69 72.0291L116.69 61.1394Z" fill="white"/>
<path opacity="0.1" d="M116.69 61.1394C116.69 61.1394 117.29 55.1561 120.92 55.8142C124.55 56.4724 124.85 65.966 122.69 71.0319C120.53 76.0977 114.69 72.0291 114.69 72.0291L116.69 61.1394Z" fill="#141F31"/>
<path d="M122.701 64.5308C122.701 64.5308 122.601 60.0628 121.291 60.741C119.981 61.4192 117.291 66.725 117.291 66.725C117.291 66.725 120.731 65.1292 120.111 67.1039" stroke="#141F31" stroke-linecap="round" stroke-linejoin="round"/>
<path d="M116.69 61.1394C116.69 61.1394 117.29 55.1561 120.92 55.8142C124.55 56.4724 124.85 65.966 122.69 71.0319C120.53 76.0977 114.69 72.0291 114.69 72.0291L116.69 61.1394Z" stroke="#141F31" stroke-linecap="round" stroke-linejoin="round"/>
<path d="M145.151 119.577C139.991 114.431 129.671 118.29 122.151 117.523C114.631 116.755 106.681 114.172 105.151 110.063C103.621 105.955 106.461 84.5942 106.461 84.5942L94.0805 86.5887L81.7005 84.5942C81.7005 84.5942 84.5305 105.945 82.9905 110.063C81.4505 114.182 73.4405 116.745 65.9905 117.523C58.5405 118.3 48.1905 114.431 43.0405 119.577C37.8905 124.722 35.8105 187.228 35.8105 187.228H152.371C152.371 187.228 150.311 124.722 145.151 119.577Z" fill="white"/>
<path opacity="0.1" d="M145.151 119.577C139.991 114.431 129.671 118.29 122.151 117.523C114.631 116.755 106.681 114.172 105.151 110.063C103.621 105.955 106.461 84.5942 106.461 84.5942L94.0805 86.5887L81.7005 84.5942C81.7005 84.5942 84.5305 105.945 82.9905 110.063C81.4505 114.182 73.4405 116.745 65.9905 117.523C58.5405 118.3 48.1905 114.431 43.0405 119.577C37.8905 124.722 35.8105 187.228 35.8105 187.228H152.371C152.371 187.228 150.311 124.722 145.151 119.577Z" fill="#141F31"/>
<path d="M106.461 84.5942L94.0807 86.5887L81.7007 84.5942C81.7007 84.5942 83.4207 97.5581 83.4507 105.217C85.7207 106.643 89.7807 107.929 97.0007 107.8C99.6928 107.753 102.335 107.069 104.711 105.805C104.651 98.2063 106.461 84.5942 106.461 84.5942Z" fill="#5B5CEE" stroke="#141F31" stroke-linecap="round" stroke-linejoin="round"/>
<path opacity="0.2" d="M120.99 125.57C120.99 125.57 97.5205 128.662 100.1 129.43C102.68 130.198 120.73 128.662 120.73 128.662C120.73 128.662 128.21 128.662 120.99 125.57Z" fill="#141F31"/>
<path opacity="0.2" d="M66.5706 124.793C66.5706 124.793 89.0106 131.994 87.4606 129.68C85.9106 127.366 66.5706 120.704 64.7706 121.701C62.9706 122.698 66.5706 124.793 66.5706 124.793Z" fill="#141F31"/>
<path d="M145.151 119.577C139.991 114.431 129.671 118.29 122.151 117.523C114.631 116.755 106.681 114.172 105.151 110.063C103.621 105.955 106.461 84.5942 106.461 84.5942L94.0805 86.5887L81.7005 84.5942C81.7005 84.5942 84.5305 105.945 82.9905 110.063C81.4505 114.182 73.4405 116.745 65.9905 117.523C58.5405 118.3 48.1905 114.431 43.0405 119.577C37.8905 124.722 35.8105 187.228 35.8105 187.228H152.371C152.371 187.228 150.311 124.722 145.151 119.577Z" stroke="#141F31" stroke-linecap="round" stroke-linejoin="round"/>
<path d="M136.901 177.964C140.251 166.905 136.381 157.91 132.001 144.527C128.581 134.116 128.921 122.15 129.241 117.353C126.901 117.626 124.541 117.682 122.191 117.523L121.121 117.393C119.571 125.371 114.171 144.408 97.6906 146.841C80.4006 149.394 69.6906 125.71 66.4506 117.463L65.9606 117.523C63.7813 117.681 61.5919 117.638 59.4206 117.393C60.5506 121.8 61.0157 126.351 60.8006 130.895C60.2906 141.187 54.8706 158.937 54.8706 169.219C54.8706 175.651 56.8706 182.781 58.4006 187.228H134.011C134.831 184.626 135.881 181.325 136.901 177.964Z" fill="#5B5CEE" stroke="#141F31" stroke-linecap="round" stroke-linejoin="round"/>
<path d="M68.3906 20.4131L68.2906 20.5028C55.4606 31.1831 56.8606 49.4223 62.7706 63.4333C66.1206 71.3412 69.3206 78.9201 74.0406 86.0802C79.9706 95.0552 89.4906 103.402 99.2906 100.041C109.091 96.6807 118.121 70.713 117.861 51.1774C117.711 39.9487 113.351 27.5732 104.861 19.8347C100.293 15.7611 94.398 13.4792 88.2706 13.4126C81.051 13.4956 74.0616 15.9569 68.3906 20.4131V20.4131Z" fill="white"/>
<path opacity="0.1" d="M68.3906 20.4131L68.2906 20.5028C55.4606 31.1831 56.8606 49.4223 62.7706 63.4333C66.1206 71.3412 69.3206 78.9201 74.0406 86.0802C79.9706 95.0552 89.4906 103.402 99.2906 100.041C109.091 96.6807 118.121 70.713 117.861 51.1774C117.711 39.9487 113.351 27.5732 104.861 19.8347C100.293 15.7611 94.398 13.4792 88.2706 13.4126C81.051 13.4956 74.0616 15.9569 68.3906 20.4131V20.4131Z" fill="#141F31"/>
<path d="M68.3906 20.4131L68.2906 20.5028C55.4606 31.1831 56.8606 49.4223 62.7706 63.4333C66.1206 71.3412 69.3206 78.9201 74.0406 86.0802C79.9706 95.0552 89.4906 103.402 99.2906 100.041C109.091 96.6807 118.121 70.713 117.861 51.1774C117.711 39.9487 113.351 27.5732 104.861 19.8347C100.293 15.7611 94.398 13.4792 88.2706 13.4126C81.051 13.4956 74.0616 15.9569 68.3906 20.4131V20.4131Z" stroke="#141F31" stroke-linecap="round" stroke-linejoin="round"/>
<path d="M87.6806 71.2514C87.6806 71.2514 85.8706 74.3432 86.9106 75.8791C87.2226 76.3113 87.6733 76.6241 88.1881 76.7656C88.7029 76.9071 89.2507 76.8688 89.7406 76.657C91.248 77.1102 92.842 77.1991 94.3906 76.9163C96.7106 76.3977 97.2206 75.3704 97.2206 75.3704C97.2206 75.3704 98.7706 76.3677 99.2906 74.0839C99.8106 71.8 97.2206 69.7056 97.2206 69.7056" stroke="#141F31" stroke-linecap="round" stroke-linejoin="round"/>
<path d="M85.1006 83.906C85.1006 83.906 90.5206 92.3923 96.4506 90.338C102.381 88.2838 103.931 81.363 103.931 81.363C98.0672 84.1272 91.49 85.0154 85.1006 83.906V83.906Z" fill="white"/>
<path opacity="0.2" d="M85.1006 83.906C85.1006 83.906 90.5206 92.3923 96.4506 90.338C102.381 88.2838 103.931 81.363 103.931 81.363C98.0672 84.1272 91.49 85.0154 85.1006 83.906V83.906Z" fill="#141F31"/>
<path d="M85.1006 83.906C85.1006 83.906 90.5206 92.3923 96.4506 90.338C102.381 88.2838 103.931 81.363 103.931 81.363C98.0672 84.1272 91.49 85.0154 85.1006 83.906V83.906Z" stroke="#141F31" stroke-linecap="round" stroke-linejoin="round"/>
<path d="M85.1006 83.9065C85.1006 83.9065 96.4506 86.4796 103.931 81.3334C103.931 81.3334 99.5506 80.0468 97.4806 80.3361C96.1461 80.5803 94.9513 81.3131 94.1306 82.3906C92.6635 81.7153 91.0966 81.2808 89.4906 81.104C87.6806 81.0242 85.1006 83.9065 85.1006 83.9065Z" fill="white"/>
<path opacity="0.2" d="M85.1006 83.9065C85.1006 83.9065 96.4506 86.4796 103.931 81.3334C103.931 81.3334 99.5506 80.0468 97.4806 80.3361C96.1461 80.5803 94.9513 81.3131 94.1306 82.3906C92.6635 81.7153 91.0966 81.2808 89.4906 81.104C87.6806 81.0242 85.1006 83.9065 85.1006 83.9065Z" fill="#141F31"/>
<path d="M85.1006 83.9065C85.1006 83.9065 96.4506 86.4796 103.931 81.3334C103.931 81.3334 99.5506 80.0468 97.4806 80.3361C96.1461 80.5803 94.9513 81.3131 94.1306 82.3906C92.6635 81.7153 91.0966 81.2808 89.4906 81.104C87.6806 81.0242 85.1006 83.9065 85.1006 83.9065Z" stroke="#141F31" stroke-linecap="round" stroke-linejoin="round"/>
<path d="M104.2 62.7756C104.2 64.5508 103.52 66.0069 102.6 66.0269C101.68 66.0468 100.9 64.6206 100.86 62.8454C100.82 61.0701 101.54 59.614 102.46 59.6041C103.38 59.5941 104.16 60.9704 104.2 62.7756Z" fill="#141F31"/>
<path d="M83.5703 64.5804C83.5703 66.3556 82.8803 67.8018 81.9603 67.8217C81.0403 67.8417 80.2603 66.4254 80.2203 64.6502C80.1803 62.8749 80.9103 61.4188 81.8303 61.3989C82.7503 61.3789 83.5303 62.8051 83.5703 64.5804Z" fill="#141F31"/>
<path d="M72.9805 59.6742C72.9805 59.6742 75.5605 54.528 84.0705 55.3059" stroke="#141F31" stroke-linecap="round" stroke-linejoin="round"/>
<path d="M96.4604 55.0466C96.4604 55.0466 103.46 51.9549 108.33 57.879" stroke="#141F31" stroke-linecap="round" stroke-linejoin="round"/>
<path d="M104.82 19.8447C100.253 15.7711 94.3579 13.4892 88.2304 13.4226C81.027 13.5087 74.0532 15.9624 68.3904 20.4032L68.2904 20.4929C55.7504 30.9338 56.8104 48.6445 62.3904 62.4859C63.0504 57.799 65.3904 47.0589 73.4904 40.3775C84.0704 31.6319 94.6404 33.1676 101.87 37.0269C109.24 40.9939 114.9 47.5136 117.78 55.3558C117.85 53.9397 117.88 52.5436 117.86 51.1774C117.71 39.9587 113.35 27.5832 104.82 19.8447Z" fill="white"/>
<path opacity="0.5" d="M104.82 19.8447C100.253 15.7711 94.3579 13.4892 88.2304 13.4226C81.027 13.5087 74.0532 15.9624 68.3904 20.4032L68.2904 20.4929C55.7504 30.9338 56.8104 48.6445 62.3904 62.4859C63.0504 57.799 65.3904 47.0589 73.4904 40.3775C84.0704 31.6319 94.6404 33.1676 101.87 37.0269C109.24 40.9939 114.9 47.5136 117.78 55.3558C117.85 53.9397 117.88 52.5436 117.86 51.1774C117.71 39.9587 113.35 27.5832 104.82 19.8447Z" fill="#141F31"/>
<path d="M104.82 19.8447C100.253 15.7711 94.3579 13.4892 88.2304 13.4226C81.027 13.5087 74.0532 15.9624 68.3904 20.4032L68.2904 20.4929C55.7504 30.9338 56.8104 48.6445 62.3904 62.4859C63.0504 57.799 65.3904 47.0589 73.4904 40.3775C84.0704 31.6319 94.6404 33.1676 101.87 37.0269C109.24 40.9939 114.9 47.5136 117.78 55.3558C117.85 53.9397 117.88 52.5436 117.86 51.1774C117.71 39.9587 113.35 27.5832 104.82 19.8447Z" stroke="#141F31" stroke-linecap="round" stroke-linejoin="round"/>
<path d="M59.5605 33.696C59.5605 33.696 60.3405 43.4699 70.6605 42.4426" stroke="#141F31" stroke-linecap="round" stroke-linejoin="round"/>
<path d="M63.6904 25.7183C63.6904 25.7183 62.9204 39.101 75.8104 38.3231" stroke="#141F31" stroke-linecap="round" stroke-linejoin="round"/>
<path d="M68.3906 20.4138C68.3906 20.4138 74.0106 34.2154 83.8106 34.4647" stroke="#141F31" stroke-linecap="round" stroke-linejoin="round"/>
<path d="M84.0703 14.1506C84.0703 14.1506 92.0703 21.3506 89.2303 33.6962" stroke="#141F31" stroke-linecap="round" stroke-linejoin="round"/>
<path d="M98.2607 15.9458C98.2607 15.9458 108.571 23.9236 100.061 36.2692" stroke="#141F31" stroke-linecap="round" stroke-linejoin="round"/>
<path d="M108.32 41.4144C109.726 39.8 110.792 37.9202 111.456 35.8867C112.119 33.8533 112.365 31.7077 112.18 29.5774" stroke="#141F31" stroke-linecap="round" stroke-linejoin="round"/>
<path d="M110.02 146.731C110.02 146.731 102.88 155.886 100.84 173.157C98.8004 190.429 101.18 260.913 101.18 260.913L192.54 255.648C192.54 255.648 173.87 168.78 166.74 154.22C159.61 139.661 149.42 135.592 145 135.273C140.58 134.954 121.56 135.253 110.02 146.731Z" fill="#141F31" stroke="#141F31" stroke-linecap="round" stroke-linejoin="round"/>
<path d="M110.35 189.322C110.35 189.322 103.04 185.044 103.04 191.137C103.04 197.23 107.98 202.655 110.36 203.333C110.827 203.505 111.325 203.58 111.822 203.552C112.319 203.525 112.806 203.396 113.251 203.173C113.696 202.951 114.091 202.64 114.411 202.259C114.73 201.878 114.968 201.436 115.11 200.96C115.46 199.265 110.35 189.322 110.35 189.322Z" fill="white" stroke="#141F31" stroke-linecap="round" stroke-linejoin="round"/>
<path d="M105.78 194.787C105.78 194.787 104.56 191.137 107.6 191.446C110.64 191.755 111.87 195.994 111.87 195.994C111.87 195.994 108.87 194.787 108.87 196.912C108.857 197.181 108.906 197.451 109.013 197.699C109.12 197.947 109.283 198.167 109.488 198.343C109.693 198.519 109.936 198.646 110.198 198.714C110.46 198.783 110.734 198.79 111 198.737" stroke="#141F31" stroke-linecap="round" stroke-linejoin="round"/>
<path d="M142.39 224.514C142.39 224.514 96.1902 251.27 89.7402 253.643C83.2902 256.017 73.7402 307.832 73.7402 307.832H218.46C218.46 307.832 207.25 248.218 203.86 245.167C200.47 242.115 142.39 224.514 142.39 224.514Z" fill="white" stroke="#141F31" stroke-linecap="round" stroke-linejoin="round"/>
<path d="M194.04 282.223C193.86 283.52 193.74 284.727 193.68 285.814" stroke="#141F31" stroke-linecap="round" stroke-linejoin="round"/>
<path d="M202.85 247.54C202.85 247.54 197.34 264.493 194.85 277.457" stroke="#141F31" stroke-linecap="round" stroke-linejoin="round"/>
<path d="M91.1001 257.024C91.1001 257.024 99.9301 269.898 104.68 290.561" stroke="#141F31" stroke-linecap="round" stroke-linejoin="round"/>
<path d="M124.66 236.381C124.66 236.381 122.22 253.085 124.05 261.89C125.88 270.696 126.46 273.727 126.46 273.727C126.46 273.727 134.68 266.747 139.56 263.406C142.977 261.198 146.677 259.46 150.56 258.24C150.56 258.24 153.56 258.24 158.17 261.89C161.696 264.836 165.051 267.979 168.22 271.304V253.434C168.26 247.342 167.328 241.283 165.46 235.484C162.41 226.369 148.1 224.853 139.88 227.586C131.66 230.318 127.09 230.308 124.66 236.381Z" fill="#5B5CEE"/>
<path d="M134.57 220.785C134.57 220.785 126.42 226.2 124.39 231.625C122.36 237.049 126.39 267.525 126.39 267.525C126.39 267.525 141.68 256.007 144.73 256.007C147.82 255.792 150.889 255.342 153.91 254.66C153.91 254.66 160.02 254.66 164.1 258.041C166.563 260.094 168.835 262.364 170.89 264.822C170.89 264.822 169.89 238.735 166.13 227.925C162.37 217.115 143.75 215.36 134.57 220.785Z" fill="white" stroke="#141F31" stroke-linecap="round" stroke-linejoin="round"/>
<path d="M127.46 208.928C127.46 208.928 130.86 223.836 134.93 236.362C139 248.887 149.93 268.542 151.58 264.483C153.23 260.424 158.37 236.362 158.37 227.895C158.37 219.429 156.37 203.852 156.37 203.852C156.37 203.852 146.46 216.377 127.46 208.928Z" fill="white"/>
<path d="M158.31 225.801C158.08 218.182 156.72 207.083 156.39 204.44H155.81C153.58 206.804 143.98 215.41 127.44 208.948C127.44 208.948 129.49 217.923 132.31 227.815C135.98 230.807 141.61 233.858 148.24 232.412C152.273 231.459 155.838 229.117 158.31 225.801Z" fill="#5B5CEE"/>
<path opacity="0.5" d="M158.31 225.801C158.08 218.182 156.72 207.083 156.39 204.44H155.81C153.58 206.804 143.98 215.41 127.44 208.948C127.44 208.948 129.49 217.923 132.31 227.815C135.98 230.807 141.61 233.858 148.24 232.412C152.273 231.459 155.838 229.117 158.31 225.801Z" fill="white"/>
<path d="M127.46 208.928C127.46 208.928 130.86 223.836 134.93 236.362C139 248.887 149.93 268.542 151.58 264.483C153.23 260.424 158.37 236.362 158.37 227.895C158.37 219.429 156.37 203.852 156.37 203.852C156.37 203.852 146.46 216.377 127.46 208.928Z" stroke="#141F31" stroke-linecap="round" stroke-linejoin="round"/>
<path d="M120.55 137.956C120.55 137.956 109 141.685 104.55 158.957C100.1 176.229 110.66 196.852 119.5 206.375C128.34 215.899 138.86 225.013 148.71 222.331C158.56 219.648 168.71 198.956 166.03 171.522C163.35 144.089 155.5 138.325 144.97 135.283C134.44 132.242 120.55 137.956 120.55 137.956Z" fill="white"/>
<path d="M106.81 184.825C107.023 185.417 107.243 186.005 107.47 186.59C113.59 181.783 130.1 167.144 126.21 151.627C126.21 151.627 147.78 183.977 164.38 198.886C166.473 189.913 167.041 180.653 166.06 171.492C165.91 170.016 165.75 168.61 165.57 167.254L124.27 146.242L106.81 184.825Z" fill="#5B5CEE"/>
<path opacity="0.5" d="M106.81 184.825C107.023 185.417 107.243 186.005 107.47 186.59C113.59 181.783 130.1 167.144 126.21 151.627C126.21 151.627 147.78 183.977 164.38 198.886C166.473 189.913 167.041 180.653 166.06 171.492C165.91 170.016 165.75 168.61 165.57 167.254L124.27 146.242L106.81 184.825Z" fill="white"/>
<path d="M120.55 137.956C120.55 137.956 109 141.685 104.55 158.957C100.1 176.229 110.66 196.852 119.5 206.375C128.34 215.899 138.86 225.013 148.71 222.331C158.56 219.648 168.71 198.956 166.03 171.522C163.35 144.089 155.5 138.325 144.97 135.283C134.44 132.242 120.55 137.956 120.55 137.956Z" stroke="#141F31" stroke-linecap="round" stroke-linejoin="round"/>
<path d="M121.901 188.086C121.631 189.802 128.281 186.959 134.471 188.086C134.461 188.086 126.661 179.958 121.901 188.086Z" fill="#141F31"/>
<path d="M157.31 181.734C158.25 183.19 151.01 183.24 145.79 186.72C145.79 186.75 149.69 176.179 157.31 181.734Z" fill="#141F31"/>
<path d="M144.66 179.639C144.66 179.639 143.66 188.106 145 189.123C146.34 190.14 150.44 191.835 149.76 193.531C149.08 195.226 145.34 196.911 143.64 196.911" stroke="#141F31" stroke-linecap="round" stroke-linejoin="round"/>
<path d="M149.46 202.655C149.46 202.655 147.08 206.046 140.63 205.368" stroke="#141F31" stroke-linecap="round" stroke-linejoin="round"/>
<path d="M132.77 177.585C132.77 177.585 123.94 172.17 117.49 180.976" stroke="#141F31" stroke-linecap="round" stroke-linejoin="round"/>
<path d="M143.98 176.229C143.98 176.229 144.66 171.831 151.11 174.883" stroke="#141F31" stroke-linecap="round" stroke-linejoin="round"/>
<path d="M166.06 171.492C163.34 144.059 155.53 138.295 145 135.253C134.47 132.212 120.55 137.956 120.55 137.956C120.55 137.956 109 141.685 104.55 158.957C102.25 167.932 104.01 177.904 107.47 186.67C112 181.425 124.95 165.329 126.63 150.83C126.63 150.83 151.34 179.031 165.68 191.855C166.617 185.107 166.745 178.271 166.06 171.492V171.492Z" fill="#141F31" stroke="#141F31" stroke-linecap="round" stroke-linejoin="round"/>
<path d="M127.33 146.402C127.33 146.402 154.96 161.111 172.93 190.001" stroke="white" stroke-linecap="round" stroke-linejoin="round"/>
<path d="M166.76 192.943L181.78 207.652" stroke="white" stroke-linecap="round" stroke-linejoin="round"/>
<path d="M123.31 146.133C123.31 146.133 119.31 172.061 102.12 178.762" stroke="white" stroke-linecap="round" stroke-linejoin="round"/>
<path d="M128.46 143.192C128.46 143.192 152.86 140.25 166.54 157.901" stroke="white" stroke-linecap="round" stroke-linejoin="round"/>
</svg>
