<svg width="407" height="393" viewBox="0 0 407 393" fill="none" xmlns="http://www.w3.org/2000/svg">
<path d="M295.82 387.666C346.329 376.705 389.415 343.414 401.88 291.719C409.592 259.704 408.427 217.475 393.679 187.582C379.111 158.038 351.142 138.488 328.473 115.65C298.261 85.2184 274.715 44.265 238.794 20.6197C202.872 -3.02569 156.608 -4.91891 116.442 7.76568C84.2668 17.9293 61.6378 34.8388 43.2038 63.0279C26.0956 89.3836 15.2779 119.321 11.587 150.525C3.38633 218.681 25.6068 293.264 77.5409 339.548C118.664 376.207 179.177 391.811 232.984 392.917C253.999 393.355 275.183 392.12 295.82 387.666Z" fill="#F2F2FA"/>
<path d="M154.774 140.78C154.606 140.775 154.441 140.73 154.294 140.648C154.147 140.567 154.021 140.451 153.927 140.311L124.234 94.5849L94.0616 128.464L63.2519 107.319L33.4485 114.603L3.17689 140.51C3.07445 140.596 2.95578 140.661 2.82793 140.7C2.70009 140.739 2.56569 140.752 2.43274 140.738C2.29979 140.724 2.17101 140.683 2.05406 140.619C1.9371 140.554 1.83438 140.466 1.75199 140.361C1.58008 140.139 1.49884 139.861 1.52475 139.581C1.55065 139.302 1.68174 139.043 1.89149 138.856L32.5318 112.62L63.6405 105.018L93.7427 125.684L124.483 91.197L155.651 139.026C155.805 139.259 155.864 139.542 155.818 139.817C155.772 140.092 155.623 140.34 155.402 140.51C155.231 140.671 155.009 140.767 154.774 140.78Z" fill="#141F31"/>
<path d="M5.06029 139.654C5.0427 140.15 4.8797 140.629 4.59156 141.033C4.30342 141.437 3.90285 141.748 3.43968 141.926C2.97651 142.104 2.47118 142.142 1.98654 142.036C1.50189 141.929 1.05932 141.682 0.713874 141.326C0.368426 140.969 0.135341 140.519 0.0436127 140.032C-0.048116 139.544 0.00555828 139.04 0.19796 138.583C0.390361 138.125 0.712999 137.734 1.12575 137.459C1.53849 137.183 2.02313 137.035 2.51939 137.033C3.20218 137.049 3.85141 137.332 4.32683 137.823C4.80225 138.313 5.06571 138.971 5.06029 139.654Z" fill="white"/>
<path d="M32.9902 110.946C33.5211 110.92 34.0476 111.054 34.5018 111.33C34.9561 111.607 35.3171 112.012 35.5385 112.496C35.7599 112.979 35.8314 113.518 35.7438 114.042C35.6563 114.566 35.4137 115.052 35.0473 115.437C34.6809 115.823 34.2075 116.089 33.6882 116.203C33.1689 116.316 32.6275 116.272 32.1338 116.075C31.64 115.878 31.2166 115.537 30.9182 115.097C30.6197 114.658 30.4598 114.138 30.4592 113.607C30.4499 113.266 30.5081 112.926 30.6304 112.608C30.7527 112.289 30.9368 111.998 31.1719 111.751C31.4071 111.504 31.6888 111.305 32.0008 111.167C32.3128 111.029 32.649 110.954 32.9902 110.946Z" fill="white"/>
<path d="M63.4414 103.503C63.9726 103.475 64.5 103.607 64.9555 103.882C65.411 104.157 65.7736 104.562 65.9965 105.045C66.2194 105.528 66.2924 106.067 66.2061 106.592C66.1197 107.117 65.878 107.604 65.5121 107.99C65.1462 108.376 64.6729 108.643 64.1534 108.758C63.6338 108.872 63.0919 108.828 62.5976 108.632C62.1033 108.435 61.6793 108.095 61.3803 107.655C61.0813 107.215 60.9211 106.695 60.9204 106.163C60.9043 105.477 61.1603 104.812 61.6326 104.314C62.1049 103.815 62.7551 103.524 63.4414 103.503Z" fill="white"/>
<path d="M93.902 124.418C94.433 124.392 94.9595 124.526 95.4137 124.802C95.8679 125.078 96.229 125.484 96.4504 125.968C96.6717 126.451 96.7433 126.989 96.6557 127.514C96.5681 128.038 96.3255 128.524 95.9591 128.909C95.5928 129.294 95.1194 129.561 94.6001 129.674C94.0808 129.788 93.5394 129.743 93.0456 129.547C92.5519 129.35 92.1285 129.009 91.83 128.569C91.5316 128.129 91.3717 127.61 91.3711 127.079C91.3618 126.738 91.42 126.398 91.5423 126.079C91.6646 125.761 91.8486 125.47 92.0838 125.223C92.319 124.975 92.6007 124.777 92.9127 124.639C93.2247 124.501 93.5609 124.426 93.902 124.418Z" fill="white"/>
<path d="M126.874 92.881C126.849 93.3753 126.679 93.8512 126.386 94.2501C126.093 94.6489 125.69 94.9531 125.226 95.1249C124.762 95.2968 124.257 95.3288 123.775 95.217C123.293 95.1052 122.854 94.8545 122.513 94.4959C122.172 94.1373 121.944 93.6866 121.856 93.1995C121.768 92.7124 121.825 92.2103 122.02 91.7553C122.215 91.3004 122.539 90.9125 122.952 90.6397C123.365 90.3669 123.849 90.2212 124.344 90.2205C125.032 90.2388 125.684 90.5291 126.159 91.0278C126.633 91.5265 126.891 92.1929 126.874 92.881Z" fill="white"/>
<path d="M157.335 139.654C157.357 139.999 157.307 140.344 157.19 140.67C157.073 140.995 156.891 141.293 156.654 141.545C156.417 141.797 156.131 141.998 155.814 142.135C155.497 142.272 155.155 142.343 154.809 142.343C154.463 142.343 154.121 142.272 153.804 142.135C153.487 141.998 153.201 141.797 152.964 141.545C152.727 141.293 152.545 140.995 152.428 140.67C152.311 140.344 152.261 139.999 152.283 139.654C152.28 138.98 152.537 138.331 153.001 137.842C153.466 137.354 154.101 137.064 154.774 137.033C155.114 137.037 155.45 137.108 155.763 137.242C156.076 137.375 156.36 137.57 156.597 137.813C156.835 138.056 157.023 138.344 157.149 138.66C157.276 138.976 157.339 139.313 157.335 139.654Z" fill="white"/>
<path d="M306.092 62.5197L309.421 61.0151L308.723 57.0293L305.056 56.7404C304.591 55.5151 303.978 54.3507 303.233 53.2728L305.106 50.0742L302.246 47.2145L299.048 49.1276C297.197 47.8793 295.107 47.0308 292.91 46.6365L291.983 42.9597H287.928L286.981 46.6565C285.735 46.8975 284.521 47.282 283.364 47.8024L280.454 45.3013L277.146 47.5533L278.521 51.1305C277.655 52.0346 276.899 53.038 276.269 54.1198L272.463 53.7411L271.098 57.5375L274.246 59.7895C274.091 60.6744 274.014 61.5714 274.017 62.4699C273.997 62.8449 273.997 63.2208 274.017 63.5958L270.689 65.4691L271.745 69.3552H275.502C276.037 70.5378 276.727 71.6437 277.555 72.6435L275.93 76.0214L279.039 78.6121L282.029 76.4698C283.17 77.1276 284.388 77.6429 285.656 78.0043L286.283 81.6014L290.269 81.9402L291.485 78.5224C292.803 78.404 294.102 78.1228 295.351 77.6854L297.892 80.2562L301.409 78.2633L300.413 74.7659C301.435 73.8864 302.342 72.8821 303.113 71.7766L306.67 72.4242L308.374 68.7574L305.584 66.5054C305.922 65.2038 306.093 63.8644 306.092 62.5197ZM300.114 62.5197C300.114 64.518 299.521 66.4715 298.411 68.1331C297.301 69.7947 295.723 71.0897 293.877 71.8544C292.03 72.6192 289.999 72.8192 288.039 72.4294C286.079 72.0395 284.279 71.0772 282.866 69.6642C281.453 68.2511 280.49 66.4508 280.1 64.4909C279.711 62.5309 279.911 60.4994 280.675 58.6531C281.44 56.8069 282.735 55.2289 284.397 54.1187C286.058 53.0084 288.012 52.4159 290.01 52.4159C292.678 52.4132 295.239 53.4693 297.129 55.3523C299.02 57.2354 300.086 59.7916 300.094 62.4599L300.114 62.5197Z" fill="#141F31"/>
<path opacity="0.1" d="M307.229 62.0015L307.966 61.6627C308.378 61.4815 308.716 61.1662 308.926 60.7682C309.136 60.3702 309.205 59.9128 309.122 59.4706L308.972 58.5738C308.899 58.1303 308.678 57.7246 308.346 57.4225C308.013 57.1204 307.588 56.9397 307.139 56.9098L306.252 56.84C305.901 56.8139 305.562 56.695 305.272 56.4954C304.981 56.2958 304.749 56.0228 304.598 55.7041C304.359 55.1959 304.1 54.7076 303.821 54.2294C303.646 53.9264 303.554 53.5827 303.554 53.2329C303.554 52.8831 303.646 52.5394 303.821 52.2365L304.279 51.4593C304.502 51.0705 304.592 50.6194 304.534 50.175C304.476 49.7306 304.275 49.3173 303.96 48.9981L303.323 48.3604C303.006 48.0375 302.589 47.832 302.14 47.7776C301.69 47.7233 301.236 47.8234 300.852 48.0614L300.064 48.5298C299.761 48.7047 299.418 48.7967 299.068 48.7967C298.718 48.7967 298.374 48.7047 298.072 48.5298C296.8 47.7985 295.436 47.2421 294.016 46.8757C293.668 46.7853 293.351 46.6023 293.098 46.3462C292.845 46.09 292.667 45.7703 292.581 45.4209L292.352 44.4942C292.247 44.0483 291.991 43.6523 291.628 43.3728C291.265 43.0933 290.817 42.9474 290.359 42.9597H289.462C289.006 42.9469 288.559 43.0914 288.196 43.369C287.833 43.6465 287.577 44.0402 287.469 44.4842L287.22 45.4807C287.134 45.8228 286.959 46.1359 286.712 46.388C286.465 46.6401 286.156 46.8221 285.815 46.9155C285.317 47.055 284.819 47.2045 284.351 47.3839C284.016 47.5062 283.654 47.5366 283.304 47.4718C282.953 47.4069 282.627 47.2492 282.358 47.0152L281.561 46.3276C281.226 46.0341 280.803 45.8609 280.359 45.8356C279.915 45.8103 279.475 45.9344 279.109 46.1881L278.402 46.6664C278.02 46.9198 277.738 47.297 277.602 47.7344C277.465 48.1717 277.484 48.6426 277.655 49.0678L278.013 50.0045C278.144 50.3341 278.184 50.6926 278.13 51.0429C278.075 51.3932 277.928 51.7227 277.704 51.9973C277.386 52.3773 277.086 52.7731 276.808 53.1831C276.605 53.4798 276.325 53.7161 275.999 53.867C275.673 54.0178 275.312 54.0776 274.954 54.04L273.958 53.9504C273.509 53.9004 273.057 54.0043 272.675 54.2451C272.293 54.4859 272.004 54.8492 271.855 55.2756L271.536 56.1525C271.382 56.5667 271.369 57.0207 271.501 57.4428C271.633 57.8649 271.901 58.2312 272.264 58.4841L273.181 59.1318C273.469 59.3346 273.698 59.6102 273.845 59.9305C273.992 60.2509 274.052 60.6045 274.018 60.9553C273.961 61.4748 273.935 61.9971 273.938 62.5197C273.926 62.8626 273.828 63.1972 273.654 63.4929C273.48 63.7887 273.235 64.0364 272.941 64.2136L272.005 64.7318C271.6 64.9432 271.28 65.2872 271.099 65.7062C270.918 66.1252 270.886 66.5938 271.008 67.0335L271.238 67.9004C271.351 68.3389 271.609 68.7258 271.972 68.9975C272.334 69.2692 272.778 69.4094 273.23 69.3951H274.227C274.58 69.3919 274.927 69.4825 275.233 69.6576C275.54 69.8326 275.794 70.0859 275.971 70.3915C276.24 70.8698 276.529 71.3281 276.838 71.7765C277.036 72.0662 277.154 72.403 277.18 72.7529C277.206 73.1028 277.14 73.4535 276.987 73.7694L276.578 74.6164C276.378 75.0214 276.321 75.4827 276.416 75.9246C276.512 76.3664 276.756 76.7624 277.107 77.0477L277.794 77.6256C278.136 77.9191 278.568 78.0877 279.019 78.104C279.47 78.1203 279.913 77.9833 280.275 77.7153L280.983 77.2171C281.269 77.0125 281.604 76.8873 281.954 76.854C282.304 76.8208 282.656 76.8807 282.976 77.0277C283.48 77.2669 283.999 77.4861 284.53 77.6854C284.857 77.8079 285.146 78.0142 285.368 78.2835C285.59 78.5528 285.737 78.8757 285.795 79.2199L285.945 80.0868C286.018 80.5303 286.239 80.936 286.572 81.2381C286.905 81.5402 287.33 81.7209 287.778 81.7508L288.695 81.8306C289.141 81.8722 289.589 81.762 289.965 81.5179C290.341 81.2738 290.624 80.91 290.768 80.4854L291.047 79.7082C291.164 79.3726 291.369 79.0746 291.641 78.845C291.913 78.6155 292.241 78.4628 292.591 78.4028C293.155 78.314 293.714 78.1942 294.265 78.0441C294.605 77.9536 294.963 77.9548 295.303 78.0475C295.642 78.1403 295.951 78.3213 296.198 78.5722L296.786 79.1701C297.097 79.4906 297.507 79.6972 297.95 79.7568C298.393 79.8165 298.842 79.7256 299.227 79.4989L300.015 79.0505C300.419 78.839 300.739 78.495 300.92 78.076C301.102 77.6571 301.134 77.1885 301.011 76.7487L300.792 75.9715C300.687 75.6245 300.679 75.2556 300.769 74.9045C300.858 74.5533 301.042 74.2332 301.3 73.9787C301.708 73.5701 302.107 73.1416 302.476 72.6933C302.704 72.421 303 72.2146 303.335 72.0954C303.67 71.9763 304.03 71.9488 304.379 72.0157L305.176 72.1652C305.617 72.2522 306.075 72.1873 306.475 71.981C306.875 71.7748 307.193 71.4393 307.378 71.0292L307.757 70.2121C307.953 69.8028 308.004 69.3387 307.901 68.8965C307.798 68.4544 307.546 68.0608 307.189 67.7808L306.591 67.2926C306.316 67.0757 306.103 66.7902 305.974 66.4648C305.844 66.1394 305.803 65.7857 305.854 65.4392C305.951 64.8455 306.014 64.2466 306.043 63.6456C306.075 63.2906 306.203 62.9507 306.411 62.6616C306.62 62.3724 306.902 62.1444 307.229 62.0015ZM300.074 62.5197C300.074 64.518 299.482 66.4715 298.372 68.1331C297.261 69.7946 295.683 71.0897 293.837 71.8544C291.991 72.6191 289.959 72.8192 287.999 72.4294C286.039 72.0395 284.239 71.0772 282.826 69.6642C281.413 68.2511 280.451 66.4508 280.061 64.4908C279.671 62.5309 279.871 60.4993 280.636 58.6531C281.401 56.8069 282.696 55.2289 284.357 54.1186C286.019 53.0084 287.972 52.4158 289.97 52.4158C292.639 52.4132 295.199 53.4693 297.09 55.3523C298.98 57.2354 300.046 59.7916 300.054 62.4599L300.074 62.5197Z" fill="white"/>
<path d="M351.979 112.76L357.16 110.418L356.054 104.22L350.344 103.762C349.626 101.848 348.661 100.036 347.475 98.3714L350.414 93.3892L345.97 88.975L340.988 91.9643C338.128 89.9931 334.88 88.6547 331.462 88.0384L330.027 82.3288H323.73L322.255 88.0782C320.312 88.4663 318.42 89.0747 316.615 89.8917L312.101 86.0056L306.95 89.5131L309.092 95.0732C307.73 96.484 306.552 98.0608 305.585 99.7664L299.656 99.1685L297.524 105.087L302.426 108.415C302.185 109.804 302.068 111.211 302.077 112.62C302.037 113.201 302.037 113.784 302.077 114.364L296.896 117.274L298.54 123.332H304.389C305.239 125.157 306.306 126.874 307.568 128.444L305.047 133.665L309.879 137.721L314.543 134.223C316.316 135.248 318.211 136.048 320.182 136.605L321.119 142.244L327.397 142.802L329.28 137.481C331.335 137.276 333.359 136.828 335.308 136.146L339.294 140.132L344.754 136.983L343.25 131.553C344.837 130.221 346.25 128.695 347.455 127.009L352.985 128.005L355.645 122.306L351.301 118.798C351.769 116.82 351.996 114.793 351.979 112.76ZM342.662 112.76C342.662 115.87 341.74 118.91 340.012 121.495C338.284 124.081 335.829 126.097 332.955 127.287C330.082 128.477 326.921 128.788 323.871 128.181C320.821 127.575 318.019 126.077 315.82 123.878C313.621 121.679 312.123 118.878 311.517 115.827C310.91 112.777 311.221 109.616 312.411 106.743C313.601 103.87 315.617 101.414 318.203 99.6861C320.788 97.9583 323.828 97.0361 326.938 97.0361C331.091 97.0361 335.076 98.679 338.021 101.606C340.967 104.533 342.636 108.507 342.662 112.66V112.76Z" fill="#141F31"/>
<path opacity="0.1" d="M351.979 112.76L357.16 110.418L356.054 104.22L350.344 103.762C349.626 101.848 348.661 100.036 347.475 98.3714L350.414 93.3892L345.97 88.975L340.988 91.9643C338.128 89.9931 334.88 88.6547 331.462 88.0384L330.027 82.3288H323.73L322.255 88.0782C320.312 88.4663 318.42 89.0747 316.615 89.8917L312.101 86.0056L306.95 89.5131L309.092 95.0732C307.73 96.484 306.552 98.0608 305.585 99.7664L299.656 99.1685L297.524 105.087L302.426 108.415C302.185 109.804 302.068 111.211 302.077 112.62C302.037 113.201 302.037 113.784 302.077 114.364L296.896 117.274L298.54 123.332H304.389C305.239 125.157 306.306 126.874 307.568 128.444L305.047 133.665L309.879 137.721L314.543 134.223C316.316 135.248 318.211 136.048 320.182 136.605L321.119 142.244L327.397 142.802L329.28 137.481C331.335 137.276 333.359 136.828 335.308 136.146L339.294 140.132L344.754 136.983L343.25 131.553C344.837 130.221 346.25 128.695 347.455 127.009L352.985 128.005L355.645 122.306L351.301 118.798C351.769 116.82 351.996 114.793 351.979 112.76ZM342.662 112.76C342.662 115.87 341.74 118.91 340.012 121.495C338.284 124.081 335.829 126.097 332.955 127.287C330.082 128.477 326.921 128.788 323.871 128.181C320.821 127.575 318.019 126.077 315.82 123.878C313.621 121.679 312.123 118.878 311.517 115.827C310.91 112.777 311.221 109.616 312.411 106.743C313.601 103.87 315.617 101.414 318.203 99.6861C320.788 97.9583 323.828 97.0361 326.938 97.0361C331.091 97.0361 335.076 98.679 338.021 101.606C340.967 104.533 342.636 108.507 342.662 112.66V112.76Z" fill="white"/>
<path d="M75.0597 205.199L79.0454 203.405L78.2184 198.682L73.864 198.334C73.3157 196.878 72.5894 195.496 71.7017 194.218L73.9238 190.422L70.5259 187.034L66.7395 189.306C64.5406 187.817 62.0571 186.799 59.4456 186.317L58.3495 181.972H53.457L52.3311 186.346C50.8522 186.636 49.4113 187.094 48.0364 187.712L44.5888 184.722L40.6628 187.393L42.297 191.638C41.2616 192.718 40.3646 193.923 39.6265 195.225L35.1127 194.826L33.4785 199.34L37.1952 201.99C37.0142 203.04 36.9275 204.104 36.9362 205.169C36.9063 205.614 36.9063 206.06 36.9362 206.504L32.9504 208.716L34.2059 213.34H38.66C39.326 214.743 40.1736 216.053 41.181 217.236L39.2579 221.222L42.9447 224.291L46.5019 221.76C47.8533 222.539 49.2958 223.148 50.7966 223.573L51.5439 227.848L56.3268 228.246L57.7716 224.191C59.338 224.049 60.8809 223.715 62.3652 223.195L65.3545 226.234L69.5295 223.862L68.3537 219.737C69.5671 218.712 70.6453 217.537 71.5622 216.239L75.7771 217.017L77.77 212.662L74.4619 209.992C74.8591 208.425 75.0599 206.815 75.0597 205.199ZM67.9552 205.199C67.9552 207.564 67.2539 209.876 65.94 211.842C64.6261 213.808 62.7587 215.341 60.5738 216.246C58.3889 217.151 55.9847 217.388 53.6652 216.926C51.3457 216.465 49.2152 215.326 47.5429 213.654C45.8707 211.982 44.7319 209.851 44.2705 207.532C43.8091 205.212 44.0459 202.808 44.9509 200.623C45.8559 198.438 47.3885 196.571 49.3549 195.257C51.3212 193.943 53.633 193.242 55.9979 193.242C59.1606 193.242 62.1944 194.495 64.4354 196.726C66.6764 198.958 67.942 201.987 67.9552 205.149V205.199Z" fill="#141F31"/>
<path opacity="0.1" d="M76.3848 204.571L77.2617 204.173C77.7468 203.953 78.1451 203.578 78.394 203.108C78.643 202.637 78.7283 202.097 78.6367 201.572L78.4474 200.516C78.3616 199.988 78.1007 199.504 77.7067 199.143C77.3127 198.781 76.8084 198.563 76.2752 198.523L75.2787 198.433C74.8576 198.409 74.4506 198.272 74.1002 198.037C73.7497 197.803 73.4685 197.478 73.2859 197.098C73.0162 196.495 72.71 195.91 72.3692 195.344C72.1564 194.98 72.0443 194.566 72.0443 194.144C72.0443 193.722 72.1564 193.307 72.3692 192.943L72.9172 192.016C73.1846 191.558 73.2924 191.023 73.2239 190.497C73.1554 189.97 72.9144 189.482 72.5386 189.107L71.7813 188.349C71.4035 187.97 70.9095 187.729 70.3784 187.664C69.8474 187.599 69.3098 187.714 68.8517 187.991L67.9251 188.549C67.5607 188.761 67.1463 188.873 66.7244 188.873C66.3024 188.873 65.8881 188.761 65.5237 188.549C64.0181 187.667 62.3987 186.997 60.7109 186.556C60.2987 186.446 59.9238 186.227 59.6257 185.922C59.3276 185.616 59.1173 185.237 59.017 184.822L58.738 183.726C58.6069 183.207 58.3064 182.747 57.8839 182.418C57.4615 182.09 56.9415 181.912 56.4063 181.912H55.3401C54.8067 181.913 54.2885 182.09 53.8666 182.416C53.4447 182.743 53.1429 183.2 53.0085 183.716L52.7095 184.882C52.6099 185.289 52.403 185.661 52.1103 185.961C51.8176 186.261 51.4499 186.476 51.0455 186.586C50.4576 186.745 49.8797 186.924 49.3017 187.144C48.9051 187.283 48.4785 187.315 48.0655 187.236C47.6525 187.158 47.2676 186.971 46.9501 186.695L45.9537 185.888C45.5528 185.544 45.05 185.341 44.5226 185.31C43.9951 185.28 43.4722 185.423 43.0342 185.719L42.2071 186.287C41.7577 186.591 41.4245 187.038 41.2616 187.555C41.0988 188.073 41.1159 188.63 41.3103 189.136L41.7388 190.243C41.8942 190.631 41.942 191.055 41.8771 191.469C41.8123 191.883 41.6371 192.271 41.3701 192.594C41.0014 193.052 40.6427 193.521 40.3139 194.009C40.0699 194.357 39.7367 194.634 39.3493 194.809C38.9619 194.984 38.5345 195.052 38.1118 195.005L36.946 194.886C36.4132 194.832 35.8777 194.958 35.4246 195.243C34.9714 195.528 34.6266 195.957 34.4449 196.46L34.0663 197.457C33.8887 197.95 33.8773 198.487 34.0338 198.988C34.1904 199.488 34.5062 199.923 34.9332 200.227L36.0193 201.004C36.3612 201.242 36.6336 201.567 36.8087 201.945C36.9838 202.324 37.0552 202.741 37.0157 203.156C36.9543 203.775 36.9277 204.398 36.936 205.02C36.9188 205.426 36.7993 205.822 36.5885 206.171C36.3778 206.519 36.0826 206.808 35.7303 207.013L34.6243 207.63C34.1569 207.893 33.7904 208.304 33.5829 208.799C33.3754 209.293 33.3386 209.843 33.4784 210.361L33.7574 211.357C33.8969 211.866 34.1996 212.315 34.619 212.635C35.0384 212.956 35.5513 213.13 36.0791 213.131H37.2349C37.6568 213.127 38.0718 213.237 38.4364 213.449C38.8011 213.662 39.102 213.968 39.3075 214.336C39.6113 214.898 39.9439 215.443 40.3039 215.97C40.5439 216.313 40.6872 216.714 40.7187 217.132C40.7503 217.549 40.669 217.967 40.4833 218.342L40.005 219.338C39.7722 219.821 39.7076 220.368 39.8214 220.891C39.9351 221.415 40.2207 221.885 40.6328 222.228L41.4498 222.906C41.863 223.258 42.3829 223.46 42.9254 223.48C43.4679 223.5 44.0013 223.336 44.4391 223.015L45.2761 222.417C45.6202 222.17 46.0239 222.018 46.4458 221.978C46.8678 221.938 47.2929 222.01 47.6775 222.188C48.2766 222.485 48.8921 222.748 49.5209 222.975C49.911 223.119 50.2559 223.363 50.5203 223.683C50.7847 224.004 50.9591 224.389 51.0256 224.799L51.2049 225.795C51.2923 226.322 51.5537 226.805 51.9475 227.166C52.3412 227.527 52.8445 227.746 53.3771 227.788L54.4633 227.888C54.9917 227.93 55.5191 227.796 55.964 227.508C56.4089 227.22 56.7465 226.793 56.9244 226.293L57.2533 225.367C57.3936 224.968 57.6373 224.614 57.9595 224.341C58.2817 224.068 58.6707 223.886 59.0867 223.812C59.7588 223.709 60.4243 223.566 61.0796 223.384C61.4824 223.281 61.9053 223.285 62.3058 223.397C62.7063 223.509 63.0704 223.725 63.3614 224.022L64.0589 224.729C64.4319 225.104 64.9184 225.346 65.4427 225.416C65.967 225.486 66.4999 225.381 66.9585 225.118L67.8952 224.59C68.3602 224.325 68.7235 223.913 68.9275 223.418C69.1315 222.923 69.1644 222.375 69.0211 221.859L68.772 220.933C68.6541 220.529 68.6474 220.101 68.7526 219.694C68.8578 219.288 69.0711 218.917 69.3699 218.621C69.8606 218.133 70.3262 217.621 70.7649 217.086C71.0371 216.765 71.3901 216.521 71.7877 216.381C72.1852 216.241 72.613 216.209 73.0268 216.289L74.0232 216.459C74.5459 216.555 75.0857 216.475 75.5582 216.232C76.0306 215.988 76.4089 215.595 76.6339 215.114L77.0823 214.117C77.3088 213.63 77.3662 213.081 77.2453 212.557C77.1243 212.034 76.832 211.566 76.4147 211.227L75.6973 210.65C75.3716 210.393 75.1191 210.056 74.9652 209.671C74.8113 209.286 74.7613 208.868 74.8204 208.457C74.941 207.752 75.0176 207.04 75.0496 206.325C75.1143 205.947 75.2696 205.59 75.5021 205.284C75.7346 204.979 76.0374 204.734 76.3848 204.571ZM67.9051 205.199C67.9051 207.564 67.2039 209.876 65.89 211.842C64.5761 213.808 62.7087 215.341 60.5238 216.246C58.3389 217.151 55.9347 217.388 53.6152 216.926C51.2957 216.465 49.1652 215.326 47.4929 213.654C45.8207 211.982 44.6819 209.851 44.2205 207.532C43.7591 205.212 43.9959 202.808 44.9009 200.623C45.8059 198.438 47.3385 196.571 49.3049 195.257C51.2712 193.943 53.583 193.242 55.9479 193.242C59.1106 193.242 62.1444 194.495 64.3854 196.726C66.6264 198.958 67.892 201.987 67.9051 205.149V205.199Z" fill="white"/>
<path d="M356.932 255.993C370.366 250.532 376.829 235.216 371.369 221.782C365.909 208.349 350.592 201.885 337.159 207.346C323.725 212.806 317.262 228.122 322.722 241.556C328.182 254.989 343.499 261.453 356.932 255.993Z" fill="#141F31"/>
<path d="M370.001 233.723C372.013 221.274 363.552 209.551 351.103 207.539C338.654 205.527 326.932 213.988 324.92 226.437C322.908 238.886 331.368 250.609 343.817 252.621C356.266 254.633 367.989 246.172 370.001 233.723Z" fill="white" stroke="#141F31" stroke-width="1.00285" stroke-miterlimit="10"/>
<path d="M332.289 235.829L347.056 231.634V210.978" stroke="#141F31" stroke-width="2" stroke-miterlimit="10"/>
<path d="M65.6333 317.676H343.837" stroke="#141F31" stroke-miterlimit="10"/>
<path d="M200.142 334.137L215.099 368.514L264.472 362.217L235.814 334.137H200.142Z" fill="white" stroke="#141F31" stroke-linecap="round" stroke-linejoin="round"/>
<path d="M253.322 331.158L287.031 356.049L233.921 363.213L211.641 331.756L253.322 331.158Z" fill="white" stroke="#141F31" stroke-linecap="round" stroke-linejoin="round"/>
<path d="M47.1565 346.583L69.7556 325.728H159.684L124.211 349.094L47.1565 346.583Z" fill="white" stroke="#141F31" stroke-linecap="round" stroke-linejoin="round"/>
<path d="M123.294 352.183L42.0048 347.679L31.5124 316.979L21.5879 287.943L105.637 291.361L119.358 338.641L123.294 352.183Z" fill="white" stroke="#141F31" stroke-linecap="round" stroke-linejoin="round"/>
<path d="M123.294 352.183L42.0049 347.679L31.5125 316.979C44.8846 318.513 58.3564 316.431 81.6928 320.217C102.13 323.516 113.3 331.397 119.358 338.641L123.294 352.183Z" fill="#141F31" stroke="#141F31" stroke-miterlimit="10"/>
<path d="M159.684 326.375V329.245L124.021 351.984L103.455 292.337L106.564 290.942L125.536 347.679L159.684 326.375Z" fill="white" stroke="#141F31" stroke-miterlimit="10"/>
<path d="M107.032 290.733L103.455 292.337L22.2656 287.484L26.4407 285.452L106.943 290.444L107.032 290.733Z" fill="white" stroke="#141F31" stroke-miterlimit="10"/>
<path d="M107.032 290.733L106.942 290.444L106.803 289.926L26.4704 284.944H26.3409L21 287.544L21.1096 287.913L103.425 292.825H103.545L107.162 291.201L107.032 290.733ZM103.355 291.829L24.1886 287.106L26.59 285.96L105.597 290.852L103.355 291.829Z" fill="#141F31"/>
<path d="M125.536 347.679L124.021 351.984" stroke="#141F31" stroke-miterlimit="10"/>
<path d="M327.387 308.669H280.953C280.953 308.669 280.953 321.134 287.509 337.446C287.509 340.574 295.013 343.075 304.269 343.075C313.526 343.075 321.019 340.554 321.019 337.446C321.039 337.293 321.039 337.139 321.019 336.987C327.317 320.895 327.387 308.669 327.387 308.669Z" fill="white" stroke="#141F31" stroke-linecap="round" stroke-linejoin="round"/>
<path d="M304.329 315.434C317.207 315.434 327.646 312.405 327.646 308.669C327.646 304.932 317.207 301.903 304.329 301.903C291.452 301.903 281.013 304.932 281.013 308.669C281.013 312.405 291.452 315.434 304.329 315.434Z" fill="white" stroke="#141F31" stroke-linecap="round" stroke-linejoin="round"/>
<path d="M304.329 303.009C315.888 303.009 325.254 305.55 325.254 308.669C325.254 311.787 315.888 314.328 304.329 314.328C292.771 314.328 283.404 311.797 283.404 308.669C283.404 305.54 292.771 303.009 304.329 303.009Z" fill="white" stroke="#141F31" stroke-linecap="round" stroke-linejoin="round"/>
<path d="M285.377 311.06C288.725 312.993 295.939 314.308 304.309 314.308C312.679 314.308 319.913 312.993 323.241 311.06C319.903 309.147 312.669 307.812 304.309 307.812C295.949 307.812 288.725 309.147 285.377 311.06Z" fill="#141F31" stroke="#141F31" stroke-linecap="round" stroke-linejoin="round"/>
<path d="M294.574 311.598C294.574 311.598 288.506 296.462 290.289 292.417C292.073 288.371 297.862 288.889 299.895 292.925C301.928 296.961 302.884 312.106 302.884 312.106C302.884 312.106 296.846 314.129 294.574 311.598Z" fill="#5B5CEE" stroke="#141F31" stroke-linecap="round" stroke-linejoin="round"/>
<path d="M299.885 313.113C299.885 313.113 295.082 286.378 296.338 281.317C297.593 276.255 303.921 274.491 308.455 278.277C312.988 282.064 311.265 301.255 311.265 304.025C311.265 306.795 311.015 312.615 311.015 312.615C307.417 313.774 303.573 313.946 299.885 313.113Z" fill="#5B5CEE" stroke="#141F31" stroke-linecap="round" stroke-linejoin="round"/>
<path d="M309.72 312.614C309.72 312.614 305.974 302.252 308.216 298.216C310.457 294.18 315.021 295.695 315.021 298.973C315.021 302.252 315.28 310.093 314.772 311.847C314.264 313.601 311.494 314.129 309.72 312.614Z" fill="#5B5CEE" stroke="#141F31" stroke-linecap="round" stroke-linejoin="round"/>
<path d="M304.17 312.405C297.852 288.491 303.173 276.534 303.173 276.534C303.173 276.534 310.736 289.667 306.701 312.405" stroke="#141F31" stroke-linecap="round" stroke-linejoin="round"/>
<path d="M293.817 291.909C293.817 291.909 288.007 292.168 297.603 312.106" stroke="#141F31" stroke-linecap="round" stroke-linejoin="round"/>
<path d="M230.394 296.004C235.746 302.434 239.417 310.094 241.075 318.294H161.49C161.49 318.294 163.055 304.245 167.937 296.004C172.82 287.763 230.394 296.004 230.394 296.004Z" fill="#141F31"/>
<path d="M268.766 188.319C265.448 185.589 236.741 173.712 236.741 173.712C235.206 164.525 230.164 160.041 230.164 160.041C230.164 160.041 212.777 154.989 207.246 159.273C203.937 161.813 201.134 164.954 198.986 168.53C175.64 167.046 167.768 174.828 167.768 174.828C167.768 174.828 159.497 209.424 154.425 227.439C151.337 238.385 147.213 249.012 142.11 259.176C142.11 259.176 134.596 270.714 139.848 276.962C145.099 283.21 167.618 283.319 167.618 283.319L163.513 305.899C163.513 305.899 169.691 310.881 194.532 316.67C219.373 322.459 239.591 307.423 239.591 307.423L230.962 285.213C239.929 283.399 253.491 273.495 253.491 273.495C266.953 253.566 271.596 200.456 271.935 196.51C272.274 192.564 272.074 191.05 268.766 188.319ZM234.887 259.176C234.887 259.176 230.692 256.685 230.573 256.625L230.394 249.65L247.203 230.718L234.887 259.176Z" fill="#5B5CEE"/>
<path opacity="0.1" d="M268.766 188.319C265.448 185.589 236.741 173.712 236.741 173.712C235.206 164.525 230.164 160.041 230.164 160.041C230.164 160.041 212.777 154.989 207.246 159.273C203.937 161.813 201.134 164.954 198.986 168.53C175.64 167.046 167.768 174.828 167.768 174.828C167.768 174.828 159.497 209.424 154.425 227.439C151.337 238.385 147.213 249.012 142.11 259.176C142.11 259.176 134.596 270.714 139.848 276.962C145.099 283.21 167.618 283.319 167.618 283.319L163.513 305.899C163.513 305.899 169.691 310.881 194.532 316.67C219.373 322.459 239.591 307.423 239.591 307.423L230.962 285.213C239.929 283.399 253.491 273.495 253.491 273.495C266.953 253.566 271.596 200.456 271.935 196.51C272.274 192.564 272.074 191.05 268.766 188.319ZM234.887 259.176C234.887 259.176 230.692 256.685 230.573 256.625L230.394 249.65L247.203 230.718L234.887 259.176Z" fill="black"/>
<path d="M192.489 267.107C192.489 267.107 187.318 274.401 186.51 279.942C190.168 280.181 193.84 280.051 197.471 279.553C203.111 278.716 205.712 279.344 209.907 269.788L213.793 269.728C213.793 269.728 218.895 277.321 226.597 275.707C226.597 275.707 228.181 277.012 230.902 275.766L222.272 264.806C222.272 264.806 233.712 275.059 237.548 270.097L223.279 260.342C223.279 260.342 230.463 261.577 234.17 263.55C237.877 265.523 239.242 260.949 239.242 260.949L227.404 255.609C227.404 255.609 218.347 256.336 216.184 255.549C214.022 254.762 212.657 253.715 211.063 255.27C209.468 256.824 197.9 266.639 197.9 266.639L192.489 267.107Z" fill="white"/>
<path d="M186.839 280.001C186.839 280.001 202.065 280.001 204.695 278.068C207.326 276.135 209.897 269.788 209.897 269.788L213.783 269.728C213.783 269.728 221.286 277.6 226.587 275.707C226.587 275.707 213.873 262.185 211.641 261.408" stroke="#141F31" stroke-width="0.985658" stroke-linecap="round" stroke-linejoin="round"/>
<path d="M226.119 275.179C226.758 275.756 227.562 276.119 228.418 276.217C229.273 276.315 230.138 276.144 230.892 275.727C230.892 275.727 217.699 259.445 214.79 258.967" stroke="#141F31" stroke-width="0.985658" stroke-linecap="round" stroke-linejoin="round"/>
<path d="M193.406 266.699L197.9 266.629C197.9 266.629 207.675 259.216 209.479 256.804C211.282 254.393 213.395 254.104 214.73 255.14C216.065 256.177 227.405 255.599 227.405 255.599L239.232 260.92C239.232 260.92 237.578 264.666 234.928 263.789C232.277 262.912 226.308 260.302 223.269 260.312" stroke="#141F31" stroke-width="0.985658" stroke-linecap="round" stroke-linejoin="round"/>
<path d="M220.32 258.09C220.32 258.09 227.932 263.899 231.28 266.061C234.628 268.223 237.548 270.047 237.548 270.047C237.548 270.047 234.678 272.09 231.888 270.944C229.098 269.798 219.632 262.843 219.632 262.843" stroke="#141F31" stroke-width="0.985658" stroke-linecap="round" stroke-linejoin="round"/>
<path d="M187.058 281.765C187.058 281.765 187.955 269.878 195.668 265.194L183.82 263.132C183.82 263.132 175.849 272.03 176.128 281.396L187.058 281.765Z" fill="white"/>
<path d="M203.091 181.872C203.091 181.872 201.358 166.079 207.217 159.234C196.986 168.262 190.353 180.676 188.533 194.198C188.533 194.198 198.438 182.739 203.091 181.872Z" fill="white"/>
<path d="M170.03 260.69L163.613 250.975C163.544 250.872 163.44 250.797 163.32 250.763C163.2 250.73 163.073 250.741 162.96 250.794C162.848 250.848 162.758 250.939 162.708 251.053C162.658 251.167 162.65 251.295 162.686 251.414C163.446 253.871 164.528 256.216 165.905 258.389L158.621 252.3C158.493 252.193 158.333 252.129 158.166 252.119C157.999 252.109 157.833 252.153 157.693 252.245C157.553 252.337 157.447 252.471 157.39 252.628C157.332 252.786 157.327 252.957 157.375 253.117C158.063 255.32 159.468 258.568 162.078 260.501L170.03 260.69Z" fill="white" stroke="#141F31" stroke-miterlimit="10"/>
<path d="M230.165 160.031C230.165 160.031 234.918 164.206 235.834 168.999C236.751 173.791 238.276 182.949 238.276 182.949L227.644 204.312C227.644 204.312 221.396 188.987 211.701 185.071C211.731 185.011 228.122 175.147 230.165 160.031Z" fill="white"/>
<path d="M230.165 160.041C230.982 161.187 238.913 159.194 239.979 158.945C246.098 157.49 252.076 154.411 255.494 148.93C260.028 141.666 258.573 134.213 256.63 126.451C255.205 120.761 253.641 115.111 252.046 109.512C250.651 104.529 249.874 99.2483 247.762 94.565C244.713 87.8192 239.79 81.8904 233.004 78.7417C214.451 70.1723 188.494 83.8733 181.778 89.3736C175.062 94.8739 174.554 110.837 190.825 119.934C207.097 129.032 230.125 159.951 230.165 160.041Z" fill="#141F31"/>
<path d="M195.279 99.9358C195.279 99.9358 188.762 105.227 188.553 108.256C188.344 111.285 189.33 114.543 188.952 120.363C188.573 126.182 187.487 136.664 192.589 143.599C192.589 143.599 196.066 151.84 206.589 156.125L207.216 159.273C207.216 159.273 202.962 168.181 202.752 175.635C202.613 180.896 203.898 185.709 212.647 184.951C224.674 177.827 229.746 161.854 229.746 161.854L225.939 143.45L226.936 134.233C226.936 134.233 232.586 134.671 234.28 129.789C234.28 129.789 237.578 113.756 225.65 125.126C210.774 121.24 200.67 111.923 195.279 99.9358Z" fill="white"/>
<path d="M199.524 138.747C200.988 139.485 202.666 139.684 204.262 139.309C205.858 138.934 207.271 138.008 208.253 136.694" stroke="#141F31" stroke-width="0.75" stroke-linecap="round" stroke-linejoin="round"/>
<path d="M198.199 120.861C198.199 120.861 196.475 130.935 197.103 133.346C197.103 133.346 198.627 135.17 202.254 134.701" stroke="#141F31" stroke-linecap="round" stroke-linejoin="round"/>
<path d="M195.279 99.9358C195.279 99.9358 190.008 104.918 188.115 109.153C188.585 112.873 188.865 116.614 188.952 120.363C188.952 125.026 186.84 133.316 191.244 141.387C195.648 149.459 205.134 157.241 210.575 156.962C216.015 156.683 225.75 151.172 227.464 135.748C227.464 135.748 236.89 134.691 236.432 130.466C236.392 130.496 244.653 116.108 195.279 99.9358Z" stroke="#141F31" stroke-linecap="round" stroke-linejoin="round"/>
<path d="M229.746 161.854L225.541 143.809" stroke="#141F31" stroke-linecap="round" stroke-linejoin="round"/>
<path d="M203.091 181.873C203.652 182.543 204.327 183.11 205.084 183.547C207.357 184.852 210.01 185.334 212.597 184.912" stroke="#141F31" stroke-linecap="round" stroke-linejoin="round"/>
<path d="M206.589 156.125C206.778 157.181 207.217 159.273 207.217 159.273L206.878 159.831" stroke="#141F31" stroke-linecap="round" stroke-linejoin="round"/>
<path d="M198.019 121.788C198.279 126.849 195.299 131.114 191.363 131.323C187.427 131.533 184.01 127.587 183.751 122.525C183.491 117.463 186.481 113.198 190.417 112.989C194.353 112.78 197.76 116.726 198.019 121.788Z" stroke="#141F31" stroke-width="0.75" stroke-linecap="round" stroke-linejoin="round"/>
<path d="M208.284 129.557C212.225 129.355 215.209 125.088 214.949 120.026C214.689 114.964 211.284 111.025 207.343 111.227C203.402 111.43 200.419 115.697 200.679 120.759C200.939 125.82 204.344 129.76 208.284 129.557Z" stroke="#141F31" stroke-width="0.75" stroke-linecap="round" stroke-linejoin="round"/>
<path d="M208.581 256.446L182.844 240.572C182.771 240.51 182.72 240.426 182.699 240.333C182.677 240.24 182.686 240.142 182.724 240.054C182.772 239.949 182.86 239.867 182.968 239.825C183.076 239.784 183.196 239.788 183.302 239.835L209.05 255.728C209.097 255.757 209.139 255.794 209.171 255.839C209.204 255.884 209.226 255.935 209.239 255.989C209.251 256.043 209.252 256.099 209.242 256.154C209.231 256.208 209.21 256.26 209.179 256.306C209.143 256.374 209.088 256.43 209.021 256.469C208.954 256.508 208.878 256.527 208.801 256.525C208.721 256.523 208.644 256.495 208.581 256.446Z" fill="#141F31"/>
<path d="M195.05 251.414L181.1 243.243C181 243.185 180.927 243.089 180.897 242.977C180.867 242.865 180.883 242.745 180.941 242.645C181.004 242.55 181.101 242.483 181.212 242.457C181.323 242.431 181.44 242.448 181.538 242.505L195.489 250.676C195.536 250.703 195.578 250.739 195.612 250.783C195.645 250.826 195.67 250.876 195.684 250.929C195.698 250.982 195.701 251.037 195.693 251.091C195.685 251.145 195.666 251.197 195.638 251.244C195.6 251.311 195.544 251.366 195.478 251.404C195.412 251.443 195.336 251.463 195.259 251.463C195.186 251.466 195.114 251.449 195.05 251.414Z" fill="#141F31"/>
<path d="M257.128 210.46C257.026 210.409 256.948 210.32 256.911 210.212C256.874 210.104 256.88 209.986 256.929 209.882C260.595 202.984 264.699 196.328 269.215 189.954C269.279 189.86 269.378 189.795 269.489 189.773C269.601 189.751 269.717 189.773 269.813 189.834C269.902 189.9 269.963 189.998 269.981 190.108C270 190.218 269.975 190.33 269.912 190.422C265.413 196.75 261.329 203.364 257.686 210.221C257.651 210.298 257.595 210.363 257.525 210.409C257.454 210.455 257.372 210.48 257.287 210.48L257.128 210.46Z" fill="#141F31"/>
<path d="M195.628 265.194C195.628 265.194 187.218 271.243 187.019 281.765H176.158C176.079 278.276 176.756 274.812 178.142 271.609C179.529 268.407 181.591 265.542 184.189 263.211L195.628 265.194Z" stroke="#141F31" stroke-linecap="round" stroke-linejoin="round"/>
<path d="M234.888 258.379L251.438 221.271" stroke="#141F31" stroke-linecap="round" stroke-linejoin="round"/>
<path d="M176.158 281.765C176.158 281.765 157.385 286.219 144.202 280.061C131.019 273.903 141.133 260.69 141.133 260.69C153.439 242.585 167.738 174.838 167.738 174.838C167.738 174.838 171.086 167.514 197.751 168.51" stroke="#141F31" stroke-linecap="round" stroke-linejoin="round"/>
<path d="M184.189 263.211C184.189 263.211 161.121 258.15 151.675 261.757" stroke="#141F31" stroke-linecap="round" stroke-linejoin="round"/>
<path d="M161.61 260.292C161.61 260.292 158.073 255.997 157.026 252.819C156.973 252.659 156.974 252.486 157.03 252.326C157.085 252.167 157.191 252.03 157.331 251.937C157.472 251.844 157.639 251.8 157.808 251.812C157.976 251.823 158.135 251.89 158.262 252.002L165.905 258.379C164.637 256.114 163.487 253.786 162.457 251.404C162.388 251.253 162.378 251.082 162.429 250.925C162.481 250.767 162.59 250.635 162.735 250.554C162.879 250.474 163.049 250.451 163.21 250.49C163.371 250.529 163.511 250.628 163.603 250.766L170.717 260.94" stroke="#141F31" stroke-linecap="round" stroke-linejoin="round"/>
<path d="M236.741 173.702L267.232 187.423C268.759 188.107 270.037 189.245 270.893 190.682C271.749 192.12 272.141 193.786 272.015 195.454C270.799 211.347 266.794 250.796 253.142 274.102C253.142 274.102 217.46 302.999 176.158 281.765" stroke="#141F31" stroke-linecap="round" stroke-linejoin="round"/>
<path d="M247.951 229.074L230.384 249.65L230.573 256.625" stroke="#141F31" stroke-linecap="round" stroke-linejoin="round"/>
<path d="M197.312 218.8C197.312 218.8 201.248 204.79 206.798 196.749" stroke="#141F31" stroke-linecap="round" stroke-linejoin="round"/>
<path d="M167.598 283.319L163.493 305.899C163.493 305.899 205.343 331.148 239.601 307.423L231.131 285.571" stroke="#141F31" stroke-linecap="round" stroke-linejoin="round"/>
<path d="M170.139 193.929L168.475 215.941C168.475 215.941 158.073 232.88 170.139 245.913L170.727 260.94" stroke="#141F31" stroke-linecap="round" stroke-linejoin="round"/>
<path d="M213.095 184.862C213.095 184.862 227.205 175.326 230.164 160.021C230.164 160.021 235.147 164.604 236.143 170.254C237.139 175.904 238.275 182.869 238.275 182.869L227.215 205.089C227.215 205.089 220.888 188.718 215.108 187.273" stroke="#141F31" stroke-linecap="round" stroke-linejoin="round"/>
<path d="M207.216 159.273C207.216 159.273 201.298 165.73 203.091 181.912C203.091 181.912 191.782 188.718 188.274 195.334C188.274 195.334 194.711 165.87 207.216 159.273Z" stroke="#141F31" stroke-linecap="round" stroke-linejoin="round"/>
<path d="M197.87 120.393H200.67" stroke="#141F31" stroke-width="0.75" stroke-linecap="round" stroke-linejoin="round"/>
<path d="M188.534 125.654C188.534 125.654 183.133 138.109 185.544 149.1C187.956 160.091 207.257 159.273 207.257 159.273L206.629 156.125C206.629 156.125 186.272 146.409 188.534 125.654Z" fill="#141F31"/>
<path d="M199.614 88.9451C199.614 88.9451 209.469 115.361 233.493 118.171" stroke="#141F31" stroke-width="0.75" stroke-linecap="round" stroke-linejoin="round"/>
<path d="M206.589 85.059C206.589 85.059 223.09 109.073 245.221 109.92" stroke="#141F31" stroke-width="0.75" stroke-linecap="round" stroke-linejoin="round"/>
<path d="M205.004 122.156C205.004 122.156 206.997 119.755 211.73 121.16" stroke="#141F31" stroke-linecap="round" stroke-linejoin="round"/>
<path d="M196.056 123.372C195.243 122.682 194.269 122.208 193.223 121.996C192.178 121.783 191.096 121.839 190.078 122.156" stroke="#141F31" stroke-linecap="round" stroke-linejoin="round"/>
<path d="M209.518 124.986C210.289 124.986 210.913 123.911 210.913 122.585C210.913 121.258 210.289 120.183 209.518 120.183C208.748 120.183 208.123 121.258 208.123 122.585C208.123 123.911 208.748 124.986 209.518 124.986Z" fill="#141F31"/>
<path d="M195.807 124.338C195.807 125.434 195.289 126.331 194.651 126.331C194.014 126.331 193.505 125.454 193.505 124.338C193.505 123.222 194.024 122.346 194.651 122.346C195.279 122.346 195.807 123.252 195.807 124.338Z" fill="#141F31"/>
<path d="M202.254 116.267C202.254 116.267 205.174 112.351 210.913 114.274" stroke="#141F31" stroke-linecap="round" stroke-linejoin="round"/>
<path d="M194.631 116.267C194.631 116.267 191.443 113.358 188.872 115.709" stroke="#141F31" stroke-linecap="round" stroke-linejoin="round"/>
</svg>
