<svg width="373" height="311" viewBox="0 0 373 311" fill="none" xmlns="http://www.w3.org/2000/svg">
<path d="M203.902 286.138V266.8H146.952V286.138C146.943 292.437 144.811 298.55 140.899 303.487L138.406 306.628H212.448L209.955 303.487C206.043 298.55 203.911 292.437 203.902 286.138Z" fill="white" stroke="#2E353A" stroke-linecap="round" stroke-linejoin="round"/>
<path d="M143.45 299.681H207.404C205.108 295.536 203.903 290.876 203.902 286.138V266.8H146.952V286.138C146.951 290.876 145.746 295.536 143.45 299.681Z" fill="#5B5CEE"/>
<path d="M281.798 101.223H69.0462C64.5891 101.223 60.9758 104.836 60.9758 109.294V264.829C60.9758 269.287 64.5891 272.9 69.0462 272.9H281.798C286.255 272.9 289.868 269.287 289.868 264.829V109.294C289.868 104.836 286.255 101.223 281.798 101.223Z" fill="#2E353A" stroke="#2E353A" stroke-linecap="round" stroke-linejoin="round"/>
<path d="M60.9758 246.214H289.878V264.82C289.878 266.96 289.028 269.013 287.514 270.527C286.001 272.04 283.948 272.89 281.808 272.89H69.0557C66.9153 272.89 64.8626 272.04 63.3491 270.527C61.8356 269.013 60.9853 266.96 60.9853 264.82V246.214H60.9758Z" fill="white" stroke="#2E353A" stroke-linecap="round" stroke-linejoin="round"/>
<path d="M278.363 111.911H72.4915V233.195H278.363V111.911Z" fill="white" stroke="#2E353A" stroke-linecap="round" stroke-linejoin="round"/>
<path d="M179.652 259.557C179.652 258.721 179.405 257.904 178.94 257.209C178.476 256.515 177.816 255.973 177.044 255.653C176.272 255.333 175.422 255.25 174.603 255.413C173.783 255.576 173.03 255.978 172.439 256.569C171.848 257.16 171.446 257.913 171.283 258.733C171.12 259.552 171.203 260.402 171.523 261.174C171.843 261.946 172.384 262.606 173.079 263.07C173.774 263.535 174.591 263.783 175.427 263.783C176.548 263.783 177.622 263.337 178.415 262.545C179.207 261.753 179.652 260.678 179.652 259.557Z" fill="#2E353A" stroke="#2E353A" stroke-linecap="round" stroke-linejoin="round"/>
<path d="M212.458 306.666H138.406V310.121H212.458V306.666Z" fill="white" stroke="#2E353A" stroke-linecap="round" stroke-linejoin="round"/>
<path d="M276.43 120.457H74.1091V131.087H276.43V120.457Z" fill="white" stroke="#2E353A" stroke-linecap="round" stroke-linejoin="round"/>
<path d="M107.495 131.087L105.068 124.521H74.1091V131.087V139.795V228.027H276.43V131.087H107.495Z" fill="#5B5CEE" stroke="#2E353A" stroke-linecap="round" stroke-linejoin="round"/>
<path d="M128.565 179.158H223.431" stroke="#2E353A" stroke-width="2" stroke-linecap="round" stroke-linejoin="round"/>
<path d="M128.565 188.484H223.431" stroke="#2E353A" stroke-width="2" stroke-linecap="round" stroke-linejoin="round"/>
<path d="M128.565 197.811H223.431" stroke="#2E353A" stroke-width="2" stroke-linecap="round" stroke-linejoin="round"/>
<path d="M128.565 207.147H223.431" stroke="#2E353A" stroke-width="2" stroke-linecap="round" stroke-linejoin="round"/>
<path d="M218.415 154.29H132.448C131.563 154.291 130.687 154.118 129.869 153.781C129.051 153.443 128.307 152.948 127.681 152.323C127.054 151.698 126.557 150.956 126.217 150.139C125.877 149.322 125.702 148.446 125.701 147.561C125.699 146.677 125.872 145.8 126.21 144.982C126.547 144.164 127.043 143.421 127.667 142.794C128.292 142.168 129.034 141.67 129.851 141.331C130.668 140.991 131.544 140.815 132.429 140.814H218.415C219.301 140.813 220.179 140.986 220.999 141.325C221.818 141.664 222.562 142.161 223.189 142.787C223.816 143.414 224.313 144.159 224.651 144.978C224.99 145.797 225.164 146.675 225.163 147.561C225.161 148.446 224.986 149.322 224.646 150.139C224.306 150.956 223.809 151.698 223.182 152.323C222.556 152.948 221.812 153.443 220.994 153.781C220.176 154.118 219.3 154.291 218.415 154.29Z" fill="white" stroke="#2E353A" stroke-linecap="round" stroke-linejoin="round"/>
<path d="M218.415 154.29H206.671V140.795H218.415C219.302 140.794 220.18 140.967 220.999 141.306C221.818 141.645 222.562 142.142 223.189 142.768C223.816 143.395 224.313 144.14 224.652 144.959C224.99 145.778 225.164 146.656 225.163 147.542C225.164 148.429 224.99 149.307 224.652 150.126C224.313 150.945 223.816 151.69 223.189 152.316C222.562 152.943 221.818 153.44 220.999 153.779C220.18 154.118 219.302 154.291 218.415 154.29Z" fill="#2E353A" stroke="#2E353A" stroke-linecap="round" stroke-linejoin="round"/>
<path d="M215.798 142.508C215.239 141.984 214.537 141.638 213.781 141.513C213.025 141.388 212.249 141.49 211.551 141.806C210.853 142.123 210.264 142.639 209.86 143.29C209.455 143.94 209.253 144.697 209.278 145.462C209.304 146.228 209.555 146.969 210.002 147.592C210.449 148.215 211.07 148.691 211.787 148.96C212.504 149.23 213.285 149.281 214.032 149.106C214.778 148.932 215.455 148.54 215.979 147.98C216.327 147.611 216.6 147.176 216.78 146.701C216.96 146.227 217.045 145.721 217.029 145.213C217.013 144.705 216.897 144.206 216.687 143.743C216.477 143.281 216.178 142.864 215.807 142.517L215.798 142.508ZM215.417 147.457C214.997 147.903 214.454 148.214 213.857 148.352C213.259 148.49 212.635 148.448 212.061 148.231C211.488 148.014 210.992 147.633 210.635 147.134C210.279 146.636 210.078 146.043 210.058 145.43C210.038 144.817 210.2 144.213 210.524 143.692C210.847 143.171 211.317 142.758 211.875 142.505C212.434 142.251 213.054 142.168 213.659 142.267C214.264 142.366 214.826 142.642 215.274 143.06C215.876 143.624 216.229 144.404 216.256 145.229C216.283 146.053 215.981 146.855 215.417 147.457Z" fill="white"/>
<path d="M218.71 149.389C218.625 149.306 218.518 149.249 218.401 149.226C218.285 149.202 218.164 149.212 218.053 149.256L216.654 147.942C216.583 147.872 216.488 147.833 216.388 147.833C216.288 147.833 216.193 147.872 216.121 147.942L215.998 148.075C215.93 148.149 215.892 148.246 215.892 148.347C215.892 148.447 215.93 148.544 215.998 148.618L217.378 149.912C217.337 150.03 217.33 150.157 217.359 150.278C217.388 150.4 217.45 150.51 217.539 150.597L219.919 152.929C220.076 153.085 220.288 153.172 220.509 153.172C220.73 153.172 220.942 153.085 221.099 152.929C221.255 152.772 221.342 152.56 221.342 152.339C221.342 152.118 221.255 151.906 221.099 151.749L218.71 149.389Z" fill="white"/>
<path d="M243.283 194.994C243.561 195.683 243.975 196.31 244.499 196.836C245.024 197.363 245.649 197.778 246.338 198.058C247.413 198.496 248.85 198.401 250.506 199.334C254.247 201.437 263.583 199.562 270.349 200.285C277.116 201.009 286.233 193.519 286.233 193.519L313.08 194.994V168.346C313.08 168.346 285.062 169.517 278.991 167.176C272.919 164.835 266.152 159.943 263.116 160.171C260.08 160.4 235.098 163.207 235.098 163.207L243.273 194.994H243.283Z" fill="white" stroke="#2E353A" stroke-linecap="round" stroke-linejoin="round"/>
<path d="M236.336 87.5473C230.792 88.1609 225.555 90.4045 221.287 93.9945C217.019 97.5844 213.911 102.359 212.357 107.716C210.802 113.072 210.871 118.769 212.554 124.086C214.238 129.403 217.46 134.101 221.813 137.587C226.167 141.073 231.457 143.19 237.013 143.669C242.57 144.149 248.144 142.97 253.03 140.282C257.917 137.593 261.896 133.516 264.466 128.566C267.035 123.616 268.079 118.016 267.466 112.472C267.061 108.791 265.934 105.225 264.15 101.979C262.365 98.7335 259.959 95.8713 257.068 93.5564C254.176 91.2415 250.857 89.5192 247.3 88.4881C243.742 87.457 240.017 87.1373 236.336 87.5473ZM241.932 138.063C237.485 138.557 232.991 137.722 229.02 135.662C225.048 133.602 221.776 130.411 219.618 126.492C217.46 122.573 216.512 118.101 216.895 113.644C217.278 109.186 218.974 104.942 221.769 101.448C224.564 97.9544 228.332 95.3679 232.597 94.0158C236.862 92.6637 241.432 92.6066 245.73 93.8518C250.027 95.097 253.859 97.5885 256.74 101.011C259.621 104.434 261.423 108.635 261.917 113.081C262.245 116.034 261.989 119.022 261.162 121.876C260.335 124.729 258.954 127.392 257.098 129.712C255.243 132.031 252.948 133.963 250.346 135.396C247.743 136.829 244.884 137.735 241.932 138.063Z" fill="white" stroke="#2E353A" stroke-linecap="round" stroke-linejoin="round"/>
<path d="M236.183 85.9388C230.64 86.5525 225.403 88.7961 221.135 92.386C216.867 95.9759 213.759 100.751 212.204 106.107C210.65 111.463 210.719 117.16 212.402 122.477C214.085 127.794 217.307 132.493 221.661 135.979C226.015 139.465 231.304 141.581 236.861 142.061C242.417 142.54 247.991 141.362 252.878 138.673C257.764 135.985 261.744 131.908 264.313 126.958C266.883 122.008 267.927 116.407 267.313 110.864C266.488 103.432 262.745 96.631 256.908 91.9572C251.07 87.2834 243.616 85.1186 236.183 85.9388ZM241.779 136.455C237.332 136.949 232.839 136.113 228.867 134.054C224.895 131.994 221.623 128.803 219.465 124.883C217.307 120.964 216.36 116.493 216.743 112.035C217.126 107.577 218.822 103.333 221.617 99.8397C224.412 96.3459 228.18 93.7595 232.445 92.4073C236.71 91.0552 241.28 90.9981 245.577 92.2433C249.875 93.4885 253.706 95.9801 256.588 99.4029C259.469 102.826 261.271 107.026 261.765 111.473C262.093 114.426 261.836 117.414 261.009 120.267C260.183 123.121 258.802 125.783 256.946 128.103C255.09 130.423 252.796 132.355 250.193 133.788C247.591 135.221 244.732 136.127 241.779 136.455Z" fill="white" stroke="#2E353A" stroke-linecap="round" stroke-linejoin="round"/>
<path d="M243.317 142.517L241.984 142.665C240.479 142.832 239.394 144.187 239.561 145.691L241.725 165.234C241.892 166.738 243.247 167.823 244.751 167.656L246.085 167.509C247.59 167.342 248.674 165.987 248.508 164.483L246.343 144.94C246.177 143.435 244.822 142.351 243.317 142.517Z" fill="#5B5CEE" stroke="#2E353A" stroke-linecap="round" stroke-linejoin="round"/>
<path d="M242.883 158.829L245.738 158.525C246.966 158.393 248.196 158.751 249.162 159.521C250.128 160.291 250.751 161.41 250.897 162.636L255.17 201.285C255.343 202.865 254.883 204.449 253.888 205.689C252.894 206.929 251.449 207.724 249.869 207.899H249.678C248.896 207.986 248.104 207.918 247.348 207.699C246.591 207.479 245.886 207.113 245.272 206.621C244.657 206.128 244.146 205.519 243.767 204.829C243.388 204.139 243.149 203.381 243.064 202.598L238.791 163.959C238.722 163.347 238.775 162.728 238.946 162.136C239.117 161.545 239.403 160.993 239.787 160.512C240.172 160.031 240.647 159.63 241.187 159.334C241.726 159.037 242.319 158.849 242.931 158.782L242.883 158.829Z" fill="#2E353A" stroke="#2E353A" stroke-linecap="round" stroke-linejoin="round"/>
<path d="M247.033 191.035C247.033 191.035 240.266 191.282 239.315 192.453C238.363 193.623 238.534 197.697 240.371 198.163C245.053 199.391 255.008 198.677 255.398 197.839C255.788 197.002 256.588 192.129 254.532 191.606C252.05 191.225 249.543 191.035 247.033 191.035Z" fill="white" stroke="#2E353A" stroke-linecap="round" stroke-linejoin="round"/>
<path d="M245.082 181.594C245.082 181.594 237.211 181.299 235.983 182.717C234.756 184.135 234.518 189.436 236.593 190.235C241.884 192.263 253.79 191.473 254.332 190.426C254.875 189.379 256.055 183.945 253.723 183.069C251.391 182.194 245.082 181.594 245.082 181.594Z" fill="white" stroke="#2E353A" stroke-linecap="round" stroke-linejoin="round"/>
<path d="M243.949 170.935C243.949 170.935 235.536 170.611 234.223 172.134C232.909 173.657 232.653 179.31 234.87 180.167C240.58 182.336 252.952 182.336 253.533 181.213C254.113 180.09 255.674 173.448 253.181 172.505C250.687 171.563 243.949 170.935 243.949 170.935Z" fill="white" stroke="#2E353A" stroke-linecap="round" stroke-linejoin="round"/>
<path d="M239.096 160.961C239.096 160.961 230.683 160.647 229.369 162.16C228.056 163.673 227.742 169.507 230.016 170.193C232.291 170.878 248.099 172.362 248.679 171.249C249.26 170.135 250.821 163.474 248.327 162.531C245.834 161.589 239.096 160.961 239.096 160.961Z" fill="white" stroke="#2E353A" stroke-linecap="round" stroke-linejoin="round"/>
<path d="M266.647 188.951C265.137 188.535 263.706 187.873 262.412 186.99C255.646 182.317 255.874 171.582 255.874 171.582L254.247 171.116C252.902 170.604 251.642 169.895 250.506 169.012C251.051 171.23 251.37 173.497 251.458 175.779C251.434 177.033 250.944 178.233 250.084 179.146C249.223 180.059 248.055 180.619 246.804 180.718C244.701 180.956 243.768 181.185 243.064 178.387C242.36 175.589 238.867 164.378 238.629 162.741C238.42 161.256 240.913 158.61 244.882 157.982C250.982 158.477 256.997 160.181 263.145 160.181C265.284 160.382 267.334 161.136 269.093 162.37" fill="white"/>
<path d="M266.647 188.951C265.137 188.535 263.706 187.873 262.412 186.99C255.646 182.317 255.874 171.582 255.874 171.582L254.247 171.116C252.902 170.604 251.642 169.895 250.506 169.012C251.051 171.23 251.37 173.497 251.458 175.779C251.434 177.033 250.944 178.233 250.084 179.146C249.223 180.059 248.055 180.619 246.804 180.718C244.701 180.956 243.768 181.185 243.064 178.387C242.36 175.589 238.867 164.378 238.629 162.741C238.42 161.256 240.913 158.61 244.882 157.982C250.982 158.477 256.997 160.181 263.145 160.181C265.284 160.382 267.334 161.136 269.093 162.37" stroke="#2E353A" stroke-linecap="round" stroke-linejoin="round"/>
<path d="M273.08 189.541C272.339 189.579 271.595 189.579 270.854 189.541H273.08Z" fill="white"/>
<path d="M273.08 189.541C272.339 189.579 271.595 189.579 270.854 189.541" stroke="#2E353A" stroke-linecap="round" stroke-linejoin="round"/>
<path d="M278.058 188.617C276.442 189.129 274.771 189.448 273.081 189.569L278.058 188.617Z" fill="white"/>
<path d="M278.058 188.617C276.442 189.129 274.771 189.448 273.081 189.569" stroke="#2E353A" stroke-linecap="round" stroke-linejoin="round"/>
<path d="M286.461 185.591H294.865" stroke="#2E353A" stroke-linecap="round" stroke-linejoin="round"/>
<path d="M287.166 187.923H290.668" stroke="#2E353A" stroke-linecap="round" stroke-linejoin="round"/>
<path d="M255.874 171.582C255.874 171.582 260.518 171.582 263.564 168.813" stroke="#2E353A" stroke-linecap="round" stroke-linejoin="round"/>
<path d="M250.402 168.708C250.268 167.44 250.003 166.19 249.612 164.977" stroke="#2E353A" stroke-linecap="round" stroke-linejoin="round"/>
<path d="M242.998 177.159C242.998 177.159 242.112 174.704 243.188 173.819C244.263 172.934 247.118 171.658 247.613 172.639C248.108 173.619 249.184 178.139 248.889 179.024L248.594 179.91" stroke="#2E353A" stroke-width="0.5" stroke-linecap="round" stroke-linejoin="round"/>
<path d="M372 206.938H291.534V167.385H372" fill="#5B5CEE"/>
<path d="M372 206.938H291.534V167.385H372" stroke="#2E353A" stroke-linecap="round" stroke-linejoin="round"/>
<path d="M297.434 204.292C298.433 204.292 299.243 203.482 299.243 202.484C299.243 201.485 298.433 200.675 297.434 200.675C296.436 200.675 295.626 201.485 295.626 202.484C295.626 203.482 296.436 204.292 297.434 204.292Z" fill="white" stroke="#2E353A" stroke-linecap="round" stroke-linejoin="round"/>
<path d="M169.555 129.717C170.245 129.439 170.871 129.025 171.397 128.501C171.924 127.976 172.339 127.351 172.62 126.662C173.057 125.587 172.953 124.159 173.895 122.494C175.989 118.763 174.123 109.427 174.847 102.651C175.57 95.8747 168.07 86.7764 168.07 86.7764L169.527 59.9291H142.879C142.879 59.9291 144.04 87.947 141.708 94.0093C139.377 100.072 134.476 106.857 134.704 109.893C134.932 112.929 137.759 137.892 137.759 137.892L169.508 129.717H169.555Z" fill="white" stroke="#2E353A" stroke-linecap="round" stroke-linejoin="round"/>
<path d="M62.1752 136.645C62.7846 142.189 65.0245 147.428 68.6114 151.699C72.1984 155.97 76.9712 159.081 82.3265 160.64C87.6818 162.198 93.3789 162.133 98.6973 160.453C104.016 158.774 108.717 155.555 112.206 151.203C115.694 146.852 117.815 141.563 118.298 136.007C118.781 130.451 117.606 124.876 114.92 119.987C112.235 115.099 108.161 111.117 103.212 108.544C98.2634 105.971 92.663 104.924 87.1191 105.534H87.0525C79.6315 106.369 72.8446 110.113 68.1808 115.946C63.5169 121.778 61.3571 129.222 62.1752 136.645ZM112.615 131.04C113.111 135.488 112.276 139.984 110.217 143.958C108.158 147.932 104.966 151.206 101.046 153.367C97.1263 155.527 92.6537 156.477 88.194 156.095C83.7344 155.714 79.488 154.018 75.9918 151.223C72.4956 148.429 69.9067 144.66 68.5524 140.394C67.1981 136.128 67.1392 131.556 68.3832 127.256C69.6272 122.957 72.1183 119.122 75.5413 116.238C78.9643 113.355 83.1657 111.55 87.614 111.054C93.5792 110.391 99.5635 112.124 104.252 115.872C108.94 119.619 111.948 125.075 112.615 131.04Z" fill="white" stroke="#2E353A" stroke-linecap="round" stroke-linejoin="round"/>
<path d="M60.5286 136.817C61.1438 142.357 63.3879 147.591 66.9771 151.856C70.5664 156.121 75.3397 159.227 80.6936 160.779C86.0474 162.332 91.7415 162.263 97.0559 160.58C102.37 158.897 107.066 155.676 110.551 151.324C114.035 146.973 116.151 141.686 116.63 136.132C117.11 130.578 115.933 125.007 113.246 120.122C110.56 115.238 106.486 111.259 101.539 108.69C96.5922 106.12 90.9944 105.075 85.4536 105.687C81.7725 106.093 78.2075 107.22 74.9624 109.005C71.7172 110.79 68.8555 113.196 66.5408 116.087C64.2261 118.978 62.5037 122.297 61.4721 125.854C60.4405 129.41 60.1199 133.136 60.5286 136.817ZM111.045 131.23C111.539 135.677 110.703 140.17 108.643 144.142C106.584 148.114 103.392 151.386 99.4731 153.544C95.5539 155.702 91.0827 156.65 86.6249 156.267C82.1672 155.884 77.9232 154.188 74.4294 151.393C70.9357 148.598 68.3493 144.829 66.9971 140.565C65.645 136.3 65.5879 131.729 66.8331 127.432C68.0783 123.135 70.5699 119.303 73.9927 116.422C77.4155 113.54 81.6159 111.739 86.0627 111.245C89.0153 110.916 92.0036 111.173 94.8571 112C97.7105 112.827 100.373 114.207 102.693 116.063C105.013 117.919 106.944 120.214 108.377 122.816C109.81 125.418 110.717 128.278 111.045 131.23Z" fill="white" stroke="#2E353A" stroke-linecap="round" stroke-linejoin="round"/>
<path d="M139.079 124.507L119.536 126.672C118.032 126.838 116.947 128.193 117.114 129.697L117.261 131.031C117.428 132.536 118.783 133.62 120.287 133.454L139.83 131.289C141.335 131.123 142.419 129.768 142.252 128.263L142.105 126.93C141.938 125.425 140.583 124.34 139.079 124.507Z" fill="#5B5CEE" stroke="#2E353A" stroke-linecap="round" stroke-linejoin="round"/>
<path d="M133.419 130.126L133.105 127.271C132.969 126.034 133.33 124.794 134.108 123.823C134.886 122.852 136.018 122.23 137.255 122.094L175.893 117.821C176.679 117.729 177.475 117.794 178.236 118.011C178.997 118.229 179.707 118.594 180.326 119.087C180.945 119.579 181.461 120.189 181.843 120.882C182.226 121.574 182.468 122.335 182.555 123.122V123.312C182.647 124.098 182.582 124.894 182.365 125.655C182.147 126.415 181.782 127.126 181.289 127.745C180.797 128.364 180.187 128.879 179.494 129.262C178.802 129.644 178.041 129.886 177.254 129.974L138.615 134.247C137.381 134.386 136.141 134.031 135.167 133.259C134.193 132.487 133.565 131.36 133.419 130.126Z" fill="#2E353A" stroke="#2E353A" stroke-linecap="round" stroke-linejoin="round"/>
<path d="M165.615 125.977C165.615 125.977 165.872 132.734 167.033 133.685C168.194 134.637 172.286 134.466 172.743 132.629C173.98 127.956 173.257 117.992 172.42 117.611C171.582 117.231 166.709 116.412 166.196 118.477C165.812 120.959 165.618 123.466 165.615 125.977Z" fill="white" stroke="#2E353A" stroke-linecap="round" stroke-linejoin="round"/>
<path d="M156.184 127.918C156.184 127.918 155.879 135.789 157.297 137.017C158.715 138.244 164.016 138.492 164.816 136.407C166.852 131.116 166.053 119.21 165.006 118.677C163.959 118.144 158.525 116.955 157.649 119.286C156.774 121.618 156.184 127.918 156.184 127.918Z" fill="white" stroke="#2E353A" stroke-linecap="round" stroke-linejoin="round"/>
<path d="M145.525 129.07C145.525 129.07 145.201 137.483 146.714 138.796C148.227 140.11 153.9 140.366 154.756 138.14C156.926 132.486 156.926 120.057 155.803 119.486C154.68 118.915 148.028 117.345 147.095 119.838C146.162 122.332 145.525 129.07 145.525 129.07Z" fill="white" stroke="#2E353A" stroke-linecap="round" stroke-linejoin="round"/>
<path d="M135.551 133.914C135.551 133.914 135.227 142.327 136.75 143.64C138.273 144.954 144.097 145.268 144.782 142.984C145.468 140.7 146.952 124.901 145.829 124.321C144.706 123.74 138.063 122.189 137.121 124.682C136.179 127.176 135.551 133.914 135.551 133.914Z" fill="white" stroke="#2E353A" stroke-linecap="round" stroke-linejoin="round"/>
<path d="M164.121 99.9003C164.509 103.649 163.609 107.418 161.57 110.588C156.907 117.364 146.162 117.126 146.162 117.126L145.696 118.763C145.188 120.106 144.479 121.364 143.593 122.494C145.813 121.949 148.084 121.63 150.369 121.542C151.618 121.578 152.811 122.076 153.716 122.938C154.62 123.801 155.174 124.968 155.27 126.215C155.508 128.318 155.736 129.251 152.938 129.945C150.14 130.64 138.929 134.152 137.292 134.39C135.808 134.599 133.162 132.106 132.534 128.137C133.038 122.037 134.742 116.012 134.742 109.874C134.941 107.732 135.696 105.678 136.931 103.916" fill="white"/>
<path d="M164.121 99.9003C164.509 103.649 163.609 107.418 161.57 110.588C156.907 117.364 146.162 117.126 146.162 117.126L145.696 118.763C145.188 120.106 144.479 121.364 143.593 122.494C145.813 121.949 148.084 121.63 150.369 121.542C151.618 121.578 152.811 122.076 153.716 122.938C154.62 123.801 155.174 124.968 155.27 126.215C155.508 128.318 155.736 129.251 152.938 129.945C150.14 130.64 138.929 134.152 137.292 134.39C135.808 134.599 133.162 132.106 132.534 128.137C133.038 122.037 134.742 116.012 134.742 109.874C134.941 107.732 135.696 105.678 136.931 103.916" stroke="#2E353A" stroke-linecap="round" stroke-linejoin="round"/>
<path d="M163.207 94.9514C163.489 95.8417 163.705 96.7514 163.854 97.6733L163.207 94.9514Z" fill="white"/>
<path d="M163.207 94.9514C163.489 95.8417 163.705 96.7514 163.854 97.6733" stroke="#2E353A" stroke-linecap="round" stroke-linejoin="round"/>
<path d="M160.171 86.5385V78.135" stroke="#2E353A" stroke-linecap="round" stroke-linejoin="round"/>
<path d="M162.503 85.8437V82.3414" stroke="#2E353A" stroke-linecap="round" stroke-linejoin="round"/>
<path d="M146.162 117.126C146.162 117.126 146.162 112.482 143.393 109.436" stroke="#2E353A" stroke-linecap="round" stroke-linejoin="round"/>
<path d="M143.298 122.608C142.031 122.738 140.78 123 139.567 123.388" stroke="#2E353A" stroke-linecap="round" stroke-linejoin="round"/>
<path d="M151.749 129.974C151.749 129.974 149.293 130.859 148.408 129.774C147.523 128.689 146.248 125.844 147.228 125.358C148.209 124.873 152.729 123.788 153.614 124.083L154.499 124.368" stroke="#2E353A" stroke-width="0.5" stroke-linecap="round" stroke-linejoin="round"/>
<path d="M181.527 1V81.466H141.965V1" fill="#5B5CEE"/>
<path d="M181.527 1V81.466H141.965V1" stroke="#2E353A" stroke-linecap="round" stroke-linejoin="round"/>
<path d="M177.064 77.3735C178.062 77.3735 178.872 76.564 178.872 75.5653C178.872 74.5666 178.062 73.7571 177.064 73.7571C176.065 73.7571 175.256 74.5666 175.256 75.5653C175.256 76.564 176.065 77.3735 177.064 77.3735Z" fill="white" stroke="#2E353A" stroke-linecap="round" stroke-linejoin="round"/>
<path d="M129.745 273.033C129.469 273.723 129.056 274.35 128.531 274.877C128.006 275.404 127.38 275.819 126.69 276.097C125.615 276.545 124.188 276.44 122.522 277.373C118.791 279.476 109.455 277.611 102.679 278.324C95.9031 279.038 86.8049 271.558 86.8049 271.558L59.929 273.033V246.385C59.929 246.385 87.9469 247.556 94.0187 245.224C100.091 242.893 106.857 237.982 109.893 238.22C112.929 238.458 137.911 241.256 137.911 241.256L129.745 273.033Z" fill="white" stroke="#2E353A" stroke-linecap="round" stroke-linejoin="round"/>
<path d="M136.645 165.644C142.189 166.257 147.426 168.501 151.694 172.091C155.962 175.681 159.07 180.456 160.624 185.812C162.179 191.168 162.11 196.865 160.427 202.182C158.744 207.499 155.521 212.198 151.168 215.683C146.814 219.169 141.525 221.286 135.968 221.765C130.411 222.245 124.837 221.066 119.951 218.378C115.064 215.69 111.085 211.613 108.515 206.663C105.946 201.713 104.902 196.112 105.515 190.568C106.338 183.138 110.079 176.338 115.916 171.666C121.752 166.993 129.205 164.83 136.636 165.653L136.645 165.644ZM131.049 216.16C135.498 216.655 139.993 215.821 143.968 213.762C147.942 211.702 151.216 208.511 153.376 204.591C155.537 200.671 156.486 196.198 156.105 191.739C155.723 187.279 154.028 183.032 151.233 179.536C148.438 176.04 144.67 173.451 140.403 172.097C136.137 170.743 131.565 170.684 127.266 171.928C122.966 173.172 119.132 175.663 116.248 179.086C113.364 182.509 111.56 186.71 111.064 191.159C110.401 197.124 112.134 203.108 115.881 207.796C119.629 212.484 125.085 215.492 131.049 216.16Z" fill="white" stroke="#2E353A" stroke-linecap="round" stroke-linejoin="round"/>
<path d="M136.817 164.035C142.357 164.651 147.591 166.895 151.857 170.485C156.122 174.075 159.227 178.849 160.779 184.203C162.331 189.557 162.261 195.252 160.577 200.566C158.894 205.881 155.672 210.577 151.319 214.06C146.967 217.544 141.679 219.659 136.125 220.137C130.571 220.616 124.999 219.437 120.115 216.749C115.231 214.062 111.253 209.986 108.685 205.038C106.117 200.09 105.073 194.492 105.687 188.951C106.094 185.27 107.222 181.706 109.007 178.462C110.793 175.218 113.199 172.358 116.09 170.044C118.981 167.73 122.299 166.009 125.856 164.978C129.412 163.947 133.136 163.626 136.817 164.035ZM131.221 214.551C135.669 215.047 140.164 214.212 144.139 212.153C148.113 210.094 151.387 206.902 153.547 202.982C155.708 199.062 156.657 194.59 156.276 190.13C155.894 185.67 154.199 181.424 151.404 177.928C148.609 174.432 144.841 171.843 140.574 170.488C136.308 169.134 131.736 169.075 127.437 170.319C123.137 171.563 119.303 174.054 116.419 177.477C113.535 180.9 111.731 185.102 111.235 189.55C110.575 195.513 112.309 201.493 116.057 206.178C119.804 210.862 125.259 213.867 131.221 214.532V214.551Z" fill="white" stroke="#2E353A" stroke-linecap="round" stroke-linejoin="round"/>
<path d="M126.65 223.037L124.486 242.58C124.319 244.084 125.404 245.439 126.909 245.606L128.242 245.753C129.747 245.92 131.102 244.835 131.268 243.331L133.433 223.788C133.599 222.284 132.515 220.929 131.01 220.762L129.676 220.615C128.172 220.448 126.817 221.532 126.65 223.037Z" fill="#5B5CEE" stroke="#2E353A" stroke-linecap="round" stroke-linejoin="round"/>
<path d="M123.341 286.033H123.15C122.364 285.947 121.602 285.706 120.909 285.323C120.216 284.941 119.605 284.426 119.112 283.806C118.619 283.187 118.254 282.476 118.037 281.715C117.821 280.954 117.757 280.157 117.849 279.371L122.122 240.732C122.189 240.119 122.375 239.526 122.672 238.985C122.968 238.445 123.368 237.968 123.849 237.582C124.33 237.197 124.883 236.91 125.475 236.739C126.067 236.567 126.687 236.514 127.3 236.583L130.155 236.897C131.392 237.033 132.523 237.655 133.302 238.626C134.08 239.597 134.44 240.837 134.304 242.074L130.031 280.761C129.942 281.546 129.7 282.307 129.317 282.999C128.934 283.691 128.418 284.3 127.799 284.793C127.181 285.285 126.471 285.65 125.711 285.868C124.95 286.086 124.155 286.152 123.369 286.062L123.341 286.033Z" fill="#2E353A" stroke="#2E353A" stroke-linecap="round" stroke-linejoin="round"/>
<path d="M125.939 269.121C125.939 269.121 132.696 269.378 133.648 270.539C134.599 271.701 134.428 275.783 132.591 276.25C127.918 277.487 117.954 276.764 117.573 275.926C117.193 275.089 116.374 270.216 118.439 269.692C120.921 269.312 123.428 269.121 125.939 269.121Z" fill="white" stroke="#2E353A" stroke-linecap="round" stroke-linejoin="round"/>
<path d="M127.918 259.709C127.918 259.709 135.789 259.405 137.016 260.823C138.244 262.241 138.492 267.542 136.407 268.341C131.116 270.368 119.21 269.578 118.677 268.531C118.144 267.484 116.955 262.05 119.286 261.175C121.618 260.299 127.918 259.709 127.918 259.709Z" fill="white" stroke="#2E353A" stroke-linecap="round" stroke-linejoin="round"/>
<path d="M129.07 249.022C129.07 249.022 137.483 248.708 138.796 250.221C140.11 251.734 140.367 257.406 138.149 258.253C132.439 260.433 120.067 260.423 119.486 259.309C118.906 258.196 117.345 251.534 119.838 250.592C122.332 249.65 129.07 249.022 129.07 249.022Z" fill="white" stroke="#2E353A" stroke-linecap="round" stroke-linejoin="round"/>
<path d="M133.914 239.057C133.914 239.057 142.327 238.734 143.64 240.247C144.954 241.76 145.268 247.604 142.984 248.289C140.7 248.974 124.901 250.449 124.321 249.336C123.74 248.222 122.189 241.56 124.683 240.628C127.176 239.695 133.914 239.057 133.914 239.057Z" fill="white" stroke="#2E353A" stroke-linecap="round" stroke-linejoin="round"/>
<path d="M101.195 267.675C104.514 267.805 107.791 266.897 110.569 265.077C117.345 260.404 117.107 249.669 117.107 249.669L118.744 249.202C120.087 248.695 121.345 247.986 122.475 247.099C121.93 249.317 121.611 251.584 121.523 253.866C121.559 255.117 122.056 256.31 122.919 257.216C123.781 258.123 124.948 258.678 126.196 258.777C128.299 259.005 129.232 259.243 129.936 256.435C130.64 253.628 134.133 242.426 134.371 240.799C134.609 239.172 132.087 236.659 128.118 236.041C122.018 236.545 115.993 238.248 109.855 238.248C107.714 238.448 105.662 239.199 103.897 240.428" fill="white"/>
<path d="M101.195 267.675C104.514 267.805 107.791 266.897 110.569 265.077C117.345 260.404 117.107 249.669 117.107 249.669L118.744 249.202C120.087 248.695 121.345 247.986 122.475 247.099C121.93 249.317 121.611 251.584 121.523 253.866C121.559 255.117 122.056 256.31 122.919 257.216C123.781 258.123 124.948 258.678 126.196 258.777C128.299 259.005 129.232 259.243 129.936 256.435C130.64 253.628 134.133 242.426 134.371 240.799C134.609 239.172 132.087 236.659 128.118 236.041C122.018 236.545 115.993 238.248 109.855 238.248C107.714 238.448 105.662 239.199 103.897 240.428" stroke="#2E353A" stroke-linecap="round" stroke-linejoin="round"/>
<path d="M94.9514 266.714C96.282 267.122 97.6495 267.4 99.0342 267.542L94.9514 266.714Z" fill="white"/>
<path d="M94.9514 266.714C96.282 267.122 97.6495 267.4 99.0342 267.542" stroke="#2E353A" stroke-linecap="round" stroke-linejoin="round"/>
<path d="M86.5385 263.678H78.135" stroke="#2E353A" stroke-linecap="round" stroke-linejoin="round"/>
<path d="M85.8438 266.009H82.3416" stroke="#2E353A" stroke-linecap="round" stroke-linejoin="round"/>
<path d="M117.126 249.669C117.126 249.669 112.482 249.669 109.436 246.899" stroke="#2E353A" stroke-linecap="round" stroke-linejoin="round"/>
<path d="M122.608 246.795C122.739 245.527 123 244.277 123.388 243.064" stroke="#2E353A" stroke-linecap="round" stroke-linejoin="round"/>
<path d="M129.974 255.246C129.974 255.246 130.859 252.79 129.774 251.905C128.689 251.02 125.844 249.745 125.358 250.725C124.873 251.705 123.788 256.236 124.083 257.111L124.378 257.996" stroke="#2E353A" stroke-width="0.5" stroke-linecap="round" stroke-linejoin="round"/>
<path d="M1 285.034H81.466V245.472H1" fill="#5B5CEE"/>
<path d="M1 285.034H81.466V245.472H1" stroke="#2E353A" stroke-linecap="round" stroke-linejoin="round"/>
<path d="M73.7573 280.57C73.7573 280.928 73.8634 281.278 74.0621 281.575C74.2608 281.872 74.5432 282.104 74.8736 282.241C75.204 282.378 75.5676 282.414 75.9183 282.344C76.2691 282.274 76.5913 282.102 76.8442 281.849C77.097 281.596 77.2693 281.274 77.339 280.923C77.4088 280.572 77.373 280.209 77.2361 279.878C77.0993 279.548 76.8675 279.266 76.5701 279.067C76.2728 278.868 75.9232 278.762 75.5656 278.762C75.086 278.762 74.6261 278.953 74.2869 279.292C73.9478 279.631 73.7573 280.091 73.7573 280.57Z" fill="white" stroke="#2E353A" stroke-linecap="round" stroke-linejoin="round"/>
</svg>
