<svg width="69" height="33" viewBox="0 0 69 33" fill="none" xmlns="http://www.w3.org/2000/svg">
<path d="M56.8236 16.2353C52.5746 16.2353 48.8276 18.4234 46.6484 21.7316L48.706 32.4706H66.9707C68.0915 32.4706 69.0001 31.5619 69.0001 30.4412V28.4118C69.0001 21.6977 63.5377 16.2353 56.8236 16.2353Z" fill="#E7E7F5"/>
<path d="M56.8235 20.2941C52.3474 20.2941 48.7058 16.6526 48.7058 12.1765C48.7058 7.70041 52.3474 4.05884 56.8235 4.05884C61.2995 4.05884 64.9411 7.70041 64.9411 12.1765C64.9411 16.6526 61.2995 20.2941 56.8235 20.2941Z" fill="#FFDDCE"/>
<path d="M12.1765 16.2353C5.46237 16.2353 0 21.6977 0 28.4118V30.4412C0 31.5619 0.908635 32.4706 2.02941 32.4706H20.2941L22.3775 21.771C20.2023 18.4409 16.4423 16.2353 12.1765 16.2353Z" fill="#D0D1E3"/>
<path d="M12.1765 20.2941C7.70041 20.2941 4.05884 16.6526 4.05884 12.1765C4.05884 7.70041 7.70041 4.05884 12.1765 4.05884C16.6526 4.05884 20.2941 7.70041 20.2941 12.1765C20.2941 16.6526 16.6526 20.2941 12.1765 20.2941Z" fill="#FFDDCE"/>
<path d="M48.706 32.4706H20.2942V29.2445C20.2942 21.4054 26.5783 14.9275 34.4171 14.8826C42.2883 14.8374 48.706 21.2275 48.706 29.0882V32.4706Z" fill="#5B5CEE"/>
<path d="M34.4999 18.9412C29.2777 18.9412 25.0293 14.6927 25.0293 9.47059C25.0293 4.24851 29.2777 0 34.4999 0C39.7221 0 43.9705 4.24851 43.9705 9.47059C43.9705 14.6927 39.7221 18.9412 34.4999 18.9412Z" fill="#FFDDCE"/>
</svg>
