<svg width="267" height="326" viewBox="0 0 267 326" fill="none" xmlns="http://www.w3.org/2000/svg">
<path d="M46.5016 323.903C72.1837 323.903 93.0031 319.395 93.0031 313.834C93.0031 308.273 72.1837 303.765 46.5016 303.765C20.8195 303.765 0 308.273 0 313.834C0 319.395 20.8195 323.903 46.5016 323.903Z" fill="#F2F2FA"/>
<path d="M215.227 323.903C240.91 323.903 261.729 319.395 261.729 313.834C261.729 308.273 240.91 303.765 215.227 303.765C189.545 303.765 168.726 308.273 168.726 313.834C168.726 319.395 189.545 323.903 215.227 323.903Z" fill="#F2F2FA"/>
<path d="M137.179 129.999C139.053 131.172 140.654 132.731 141.876 134.574C143.271 137.11 149.12 138.761 149.12 138.761H151.28L152.166 148.918C149.939 148.991 147.719 149.206 145.52 149.561C144.223 149.847 142.903 150.014 141.576 150.059C141.576 150.059 134.72 141.43 133.579 139.78C132.438 138.129 132.316 134.707 132.826 134.064C133.335 133.422 137.179 129.999 137.179 129.999Z" fill="white" stroke="#263238" stroke-width="0.75" stroke-linecap="round" stroke-linejoin="round"/>
<path d="M128.04 147.268C128.04 147.268 124.229 148.542 125.88 149.561C126.729 149.938 127.674 150.043 128.584 149.86C129.495 149.678 130.327 149.217 130.964 148.542C131.596 147.523 129.591 146.758 128.04 147.268Z" fill="white" stroke="#263238" stroke-width="0.75" stroke-linecap="round" stroke-linejoin="round"/>
<path d="M123.853 135.593C123.853 135.593 135.151 131.527 135.661 131.904C136.17 132.281 137.057 135.715 137.057 135.715C137.057 135.715 144.921 140.411 145.564 142.195C146.073 144.963 146.073 147.801 145.564 150.569C145.176 151.211 143.027 151.965 142.241 152.219C141.448 152.416 140.619 152.416 139.826 152.219C139.449 152.098 133.346 147.789 133.346 147.789C133.346 147.789 127.132 148.42 125.736 148.42C124.34 148.42 122.933 148.298 122.933 148.298L123.853 135.593Z" fill="white" stroke="#263238" stroke-width="0.75" stroke-linecap="round" stroke-linejoin="round"/>
<path d="M137.943 140.378C137.943 140.378 142.13 142.671 143.027 143.934C143.924 145.197 144.799 150.669 144.799 150.669" stroke="#263238" stroke-width="0.75" stroke-linecap="round" stroke-linejoin="round"/>
<path d="M136.171 142.704C136.171 142.704 141.122 145.363 141.621 146.636C142.095 148.262 142.465 149.916 142.728 151.588" stroke="#263238" stroke-width="0.75" stroke-linecap="round" stroke-linejoin="round"/>
<path d="M138.707 132.414C138.707 132.414 133.246 138.506 131.973 139.148C130.699 139.791 130.455 139.016 129.757 138.506C129.059 137.996 133.822 131.151 133.701 130.641C134.366 130.15 135.177 129.895 136.003 129.917C136.83 129.939 137.626 130.237 138.264 130.763" fill="white"/>
<path d="M138.707 132.414C138.707 132.414 133.246 138.506 131.973 139.148C130.699 139.791 130.455 139.016 129.757 138.506C129.059 137.996 133.822 131.151 133.701 130.641C134.366 130.15 135.177 129.895 136.003 129.917C136.83 129.939 137.626 130.237 138.264 130.763" stroke="#263238" stroke-width="0.75" stroke-linecap="round" stroke-linejoin="round"/>
<path d="M130.699 145.916L130.499 146.603C130.098 147.818 129.863 149.081 129.801 150.358C130.056 150.868 131.585 151.377 132.094 150.613C132.604 149.849 133.612 146.049 133.357 145.54C133.102 145.03 132.105 142.826 130.699 145.916Z" fill="white" stroke="#263238" stroke-width="0.75" stroke-linecap="round" stroke-linejoin="round"/>
<path d="M135.528 145.363C135.129 145.861 133.313 151.333 133.756 152.009C134.199 152.685 136.038 152.906 136.547 152.142C137.057 151.378 138.829 146.603 138.319 145.496C137.81 144.388 137.345 143.203 135.528 145.363Z" fill="white" stroke="#263238" stroke-width="0.75" stroke-linecap="round" stroke-linejoin="round"/>
<path d="M138.707 146.504L138.519 146.947C137.965 148.265 136.381 152.241 136.802 152.984C137.223 153.726 139.715 154.091 140.225 152.862C140.734 151.632 142.518 146.891 141.333 145.75C141.147 145.529 140.901 145.367 140.624 145.282C140.348 145.198 140.053 145.196 139.776 145.275C139.498 145.355 139.249 145.513 139.06 145.731C138.87 145.949 138.748 146.217 138.707 146.504Z" fill="white" stroke="#263238" stroke-width="0.75" stroke-linecap="round" stroke-linejoin="round"/>
<path d="M51.3201 39.7318C51.3201 39.7318 51.9848 43.8192 51.2204 45.4475C50.4561 47.0759 49.3152 50.4876 49.3152 50.4876L66.1745 65.4417C66.1745 65.4417 71.3143 58.9616 72.2669 57.6877C73.2195 56.4139 74.4823 54.7301 74.4823 54.7301C74.4823 54.7301 66.1967 49.4907 64.5129 45.6802C62.8292 41.8696 63.66 37.0179 60.0821 36.2536C56.5042 35.4893 52.3725 37.4499 51.3201 39.7318Z" fill="white" stroke="#263238" stroke-width="0.75" stroke-linecap="round" stroke-linejoin="round"/>
<path d="M83.4104 14.498C83.4104 14.498 90.4555 14.3983 89.0265 7.64133C87.5976 0.884312 71.126 -0.555705 68.0798 2.59019C65.0336 5.73607 65.5099 7.02102 65.5099 7.02102C65.5099 7.02102 51.3201 6.64439 47.6979 14.354C44.0757 22.0637 45.7041 32.0774 48.0856 37.3057C50.4672 42.5341 54.466 43.1101 56.5596 42.4455C58.6532 41.7809 60.1707 40.5402 60.1707 38.635C60.1707 36.7297 61.5111 32.166 63.1283 33.3069C64.7456 34.4479 66.4514 34.8245 69.3204 32.0663C72.1894 29.3081 76.2657 25.8742 74.7482 23.116C73.2306 20.3578 70.6496 20.2581 72.0786 19.0175C73.5075 17.7769 81.6049 16.8021 82.3581 15.9713C82.7776 15.5331 83.132 15.037 83.4104 14.498Z" fill="#263238" stroke="#263238" stroke-width="0.75" stroke-linecap="round" stroke-linejoin="round"/>
<path d="M83.0668 10.4438C83.0668 10.4438 84.0637 12.4488 74.5818 14.9411C65.0998 17.4335 49.1045 17.932 48.6282 23.9246" stroke="white" stroke-width="0.75" stroke-linecap="round" stroke-linejoin="round"/>
<path d="M64.6238 21.9307C64.6238 21.9307 53.1479 25.4199 50.6445 29.4188C48.1411 33.4176 51.6525 36.8958 51.6525 36.8958" stroke="white" stroke-width="0.75" stroke-linecap="round" stroke-linejoin="round"/>
<path d="M83.4106 14.498C83.4106 14.498 86.0802 23.5369 86.0802 25.3536C86.0802 27.1702 84.1749 28.9647 85.0278 30.9697C85.8808 32.9746 88.7386 36.8737 88.7386 38.1144C88.7386 39.355 84.5515 40.5846 84.5515 40.5846C84.5515 40.5846 81.029 53.8771 80.2647 55.5386C79.5004 57.2002 76.9416 57.4439 73.8843 56.6463C70.827 55.8488 62.7518 51.5952 60.5918 48.2721C58.4318 44.9489 60.0158 39.3107 60.0158 39.3107C60.0158 39.3107 55.585 37.3168 54.6877 33.1297C53.7905 28.9425 57.0693 26.1733 59.9272 27.1259C60.7304 27.3636 61.4752 27.7661 62.1142 28.3077C62.7531 28.8494 63.2721 29.5183 63.638 30.2718C63.638 30.2718 63.926 31.313 64.7457 31.0361C65.5654 30.7592 66.363 29.0312 67.1273 28.9315C67.8916 28.8318 73.3194 26.9376 72.6658 24.844C72.0123 22.7505 65.2331 22.6286 65.7094 20.2692C66.1857 17.9098 83.4106 14.498 83.4106 14.498Z" fill="white" stroke="#263238" stroke-width="0.75" stroke-linecap="round" stroke-linejoin="round"/>
<path d="M74.9367 38.6794L72.1785 40.5847" stroke="#263238" stroke-width="0.75" stroke-linecap="round" stroke-linejoin="round"/>
<path d="M73.8843 39.9199C73.8843 39.9199 74.7483 42.2018 78.3151 42.9661L73.8843 39.9199Z" fill="white"/>
<path d="M73.8843 39.9199C73.8843 39.9199 74.7483 42.2018 78.3151 42.9661" stroke="#263238" stroke-width="0.75" stroke-linecap="round" stroke-linejoin="round"/>
<path d="M73.9839 40.5845C73.9839 40.5845 72.3667 45.0153 74.3606 46.0122C76.3544 47.0092 77.2185 42.8774 77.2185 42.8774L73.9839 40.5845Z" fill="black"/>
<path d="M84.7397 31.6897C84.6289 34.0049 84.0419 35.8547 83.4326 35.8215C82.8234 35.7883 82.4357 33.8941 82.5575 31.579C82.6794 29.2639 83.2554 27.4251 83.8646 27.4472C84.4739 27.4694 84.8616 29.3746 84.7397 31.6897Z" fill="white" stroke="#263238" stroke-width="0.75" stroke-linecap="round" stroke-linejoin="round"/>
<path d="M82.5576 29.3523H63.1284" stroke="#263238" stroke-width="0.75" stroke-linecap="round" stroke-linejoin="round"/>
<path d="M81.217 26.7824C81.3622 26.263 81.6272 25.785 81.9908 25.3867C82.3545 24.9884 82.8065 24.6811 83.3106 24.4895C84.9389 24.0131 85.2159 24.8771 85.2159 24.8771" fill="white"/>
<path d="M81.217 26.7824C81.3622 26.263 81.6272 25.785 81.9908 25.3867C82.3545 24.9884 82.8065 24.6811 83.3106 24.4895C84.9389 24.0131 85.2159 24.8771 85.2159 24.8771" stroke="#263238" stroke-width="0.75" stroke-linecap="round" stroke-linejoin="round"/>
<path d="M15.1644 188.153L74.2052 186.381C74.2052 186.381 77.8828 227.255 76.9967 228.153C76.1105 229.05 17.5792 231.476 17.5792 231.476C17.5792 231.476 13.0487 231.797 12.4062 229.77C11.7638 227.743 15.1644 188.153 15.1644 188.153Z" fill="white" stroke="#263238" stroke-width="0.75" stroke-linecap="round" stroke-linejoin="round"/>
<path d="M15.1647 188.153C15.1647 188.153 9.6262 228.651 10.5899 229.803C11.5536 230.955 16.1284 231.786 17.5795 231.454C18.9088 231.21 15.1647 188.153 15.1647 188.153Z" fill="white" stroke="#263238" stroke-width="0.75" stroke-linecap="round" stroke-linejoin="round"/>
<path d="M32.5555 299.124C29.3099 301.106 27.7369 304.452 28.5013 307.121C29.2656 309.791 29.5093 310.046 31.5475 310.444C33.5856 310.843 42.7132 309.425 52.5939 307.775C62.4747 306.124 63.9036 305.748 64.7787 304.352C65.6538 302.956 67.1935 301.561 57.4124 299.921C47.6314 298.282 46.7452 296.487 46.7452 296.487C46.7452 296.487 37.7617 295.945 32.5555 299.124Z" fill="#5B5CEE" stroke="#263238" stroke-width="0.75" stroke-linecap="round" stroke-linejoin="round"/>
<path d="M64.5128 301.76C63.8482 303.122 61.7657 305.571 55.2191 306.357C48.296 307.188 35.7678 308.439 29.1548 309.004C29.6089 309.946 30.1628 310.112 31.5474 310.422C33.5745 310.799 42.7131 309.403 52.5939 307.753C62.4746 306.102 63.9036 305.726 64.7787 304.33C65.3436 303.488 66.1079 302.646 64.5128 301.76Z" fill="#263238" stroke="#263238" stroke-width="0.75" stroke-linecap="round" stroke-linejoin="round"/>
<path d="M50.0794 302.546C50.0794 302.546 60.2371 307.376 65.831 308.517C71.4249 309.658 72.8096 309.791 72.1782 311.563C71.5468 313.335 71.4138 313.856 62.9066 315.883C54.3995 317.91 45.1279 315.628 41.0627 314.864C36.9974 314.1 35.7346 315.252 33.9622 314.487C32.1899 313.723 32.6884 309.913 32.6884 309.913L50.0794 302.546Z" fill="#5B5CEE" stroke="#263238" stroke-width="0.75" stroke-linecap="round" stroke-linejoin="round"/>
<path d="M62.9066 315.883C70.0513 314.177 71.2809 313.546 71.868 312.327C64.114 315.651 53.8345 314.277 45.9919 313.38C40.9407 312.793 36.1222 312.272 32.6994 311.995C32.6815 312.487 32.7914 312.975 33.0186 313.412C33.2457 313.849 33.5823 314.22 33.9954 314.487C35.7678 315.252 37.0416 314.111 41.0958 314.864C45.15 315.617 54.3994 317.91 62.9066 315.883Z" fill="#263238" stroke="#263238" stroke-width="0.75" stroke-linecap="round" stroke-linejoin="round"/>
<path d="M38.6588 209.233C38.6588 209.233 36.8754 223.7 33.3197 229.925C29.7639 236.15 24.9454 240.459 24.1811 249.476C23.4168 258.493 25.9534 295.313 26.2082 298.492C26.463 301.671 25.1005 302.679 26.463 304.707C27.3166 305.95 28.249 307.138 29.2544 308.262L33.4526 304.585C33.4526 304.585 36.4988 294.804 35.7345 276.139C34.9702 257.474 35.1031 244.912 38.404 232.462C41.705 220.011 42.3364 216.721 40.8078 211.892C39.2791 207.062 38.6588 209.233 38.6588 209.233Z" fill="#263238" stroke="#263238" stroke-width="0.75" stroke-linecap="round" stroke-linejoin="round"/>
<path d="M30.6612 179.236C30.6612 179.236 34.8483 187.134 35.801 189.206C36.7536 191.277 38.9358 215.303 37.2299 223.301C35.524 231.299 28.8778 244.89 29.4759 256.82C30.0741 268.75 30.5836 300.375 30.5836 300.752C30.2017 302.638 30.2017 304.582 30.5836 306.468C31.215 309.891 33.1203 310.899 33.1203 310.899C36.3529 309.394 39.7063 308.164 43.1451 307.221C49.3704 305.438 51.1427 302.901 51.1427 302.901C50.5995 301.256 49.9634 299.644 49.2375 298.071C48.3513 296.299 46.8337 293.508 47.0885 292.61C47.3433 291.713 48.9938 262.525 52.2947 252.877C55.5957 243.229 57.4899 233.071 60.2924 224.176C63.0949 215.281 69.7743 191.454 69.7743 185.362V177.874L30.1627 177.11L30.6612 179.236Z" fill="#263238" stroke="#263238" stroke-width="0.75" stroke-linecap="round" stroke-linejoin="round"/>
<path d="M33.9289 236.128C32.8212 239.529 31.5916 243.339 30.6611 246.363C28.4457 253.563 30.6611 293.995 30.6611 293.995C30.9034 296.942 30.9737 299.901 30.8716 302.856C30.6611 306.523 30.8716 307.974 31.7799 308.96" stroke="white" stroke-width="0.75" stroke-linecap="round" stroke-linejoin="round"/>
<path d="M36.754 227.532C36.754 227.532 35.9343 229.981 34.8376 233.337" stroke="white" stroke-width="0.75" stroke-linecap="round" stroke-linejoin="round"/>
<path d="M48.086 47.0645C48.086 47.0645 52.5168 48.582 59.163 54.3975C65.8093 60.213 72.5885 65.7293 71.1595 67.69C69.7306 69.6506 67.061 76.5516 67.061 76.5516C67.061 76.5516 64.5908 72.4531 57.2578 66.5823C49.9248 60.7114 44.2976 55.4387 44.2976 55.4387C44.2976 55.4387 47.3216 48.3051 48.086 47.0645Z" fill="white" stroke="#263238" stroke-width="0.75" stroke-linecap="round" stroke-linejoin="round"/>
<path d="M42.1818 56.3916C42.1818 56.3916 27.9921 66.4828 25.5662 76.1974C23.1403 85.912 22.1323 90.6752 22.3317 109.24C22.5311 127.806 23.6609 139.525 23.6609 140.378C23.6609 141.231 19.928 175.714 19.928 176.09C19.928 176.467 26.5742 182.571 45.1616 182.947C57.7762 183.028 70.375 182.042 82.8236 180.001L74.7263 113.151C74.7263 113.151 71.5804 84.6714 68.3459 79.3433C65.1114 74.0152 42.1818 56.3916 42.1818 56.3916Z" fill="#5B5CEE" stroke="#263238" stroke-width="0.75" stroke-linecap="round" stroke-linejoin="round"/>
<path d="M50.3677 149.051C50.3677 149.051 62.1758 151.433 70.3064 148.475" stroke="#263238" stroke-width="0.75" stroke-linecap="round" stroke-linejoin="round"/>
<path d="M50.3677 152.563C50.3677 152.563 62.1758 154.944 70.3064 151.998" stroke="#263238" stroke-width="0.75" stroke-linecap="round" stroke-linejoin="round"/>
<path d="M121.815 133.688L124.739 135.083L122.956 148.287L120.042 147.778L121.815 133.688Z" fill="white" stroke="#263238" stroke-width="0.75" stroke-linecap="round" stroke-linejoin="round"/>
<path d="M54.7763 73.7605C53.1144 74.2852 51.6255 75.2498 50.4673 76.5519C48.562 78.7673 38.2825 91.5281 39.0357 97.122C39.789 102.716 53.159 123.142 57.5898 129.5C63.0449 137.558 70.9018 143.69 80.0431 147.024C91.2198 151.09 120.297 149.062 120.297 149.062L121.837 133.3C121.837 133.3 105.975 128.226 95.0525 124.926C88.978 123.129 83.0371 120.908 77.2738 118.279C77.2738 118.279 74.7371 112.054 72.9537 111.046C71.1703 110.038 70.9266 109.395 70.9266 109.395C70.9266 109.395 67.5038 90.7306 65.7204 84.6271C63.937 78.5236 61.5333 77.0172 61.5333 77.0172" fill="#5B5CEE"/>
<path d="M54.7763 73.7605C53.1144 74.2852 51.6255 75.2498 50.4673 76.5519C48.562 78.7673 38.2825 91.5281 39.0357 97.1221C39.789 102.716 53.159 123.142 57.5898 129.5C63.0449 137.558 70.9018 143.69 80.0431 147.024C91.2198 151.09 120.297 149.062 120.297 149.062L121.837 133.3C121.837 133.3 105.975 128.226 95.0525 124.926C88.978 123.129 83.0371 120.908 77.2738 118.279C77.2738 118.279 74.7371 112.054 72.9537 111.046C71.1703 110.038 70.9266 109.395 70.9266 109.395C70.9266 109.395 67.5038 90.7306 65.7204 84.6271C63.937 78.5236 61.5333 77.0172 61.5333 77.0172" stroke="#263238" stroke-width="0.75" stroke-linecap="round" stroke-linejoin="round"/>
<path d="M203.209 296.177C198.68 298.792 193.972 301.083 189.119 303.034C182.639 305.449 181.11 306.357 182.384 307.73C183.658 309.104 194.702 310.145 200.916 308.838C207.13 307.531 209.556 306.689 212.348 306.811C215.139 306.933 218.994 307.697 220.345 305.792C221.697 303.887 222.251 303.51 221.232 300.331C220.213 297.152 203.209 296.177 203.209 296.177Z" fill="#5B5CEE" stroke="#263238" stroke-width="0.75" stroke-linecap="round" stroke-linejoin="round"/>
<path d="M200.916 308.871C207.141 307.608 209.556 306.722 212.348 306.844C215.139 306.966 218.994 307.73 220.345 305.825C221.342 304.463 221.885 303.876 221.741 302.502C217.222 302.125 208.504 303.554 198.114 305.825C192.855 307.106 187.402 307.384 182.041 306.645C181.98 306.843 181.981 307.054 182.042 307.252C182.103 307.449 182.222 307.624 182.384 307.753C183.658 309.126 194.702 310.145 200.916 308.871Z" fill="#263238" stroke="#263238" stroke-width="0.75" stroke-linecap="round" stroke-linejoin="round"/>
<path d="M227.202 304.562C224.659 307.313 221.947 309.903 219.083 312.316C214.884 315.739 207.651 320.447 208.415 322.474C209.18 324.501 214.375 326.407 225.297 323.582C232.287 321.671 238.899 318.581 244.848 314.443C246.068 314.217 247.157 313.536 247.894 312.538C248.791 311.009 247.772 308.606 247.772 308.606L227.202 304.562Z" fill="#5B5CEE" stroke="#263238" stroke-width="0.75" stroke-linecap="round" stroke-linejoin="round"/>
<path d="M225.297 323.604C232.286 321.693 238.899 318.603 244.848 314.465C246.068 314.239 247.157 313.558 247.894 312.56C248.378 311.389 248.378 310.075 247.894 308.905C232.098 320.857 217.321 323.305 209.501 323.659C211.561 325.077 216.634 325.819 225.297 323.604Z" fill="#263238" stroke="#263238" stroke-width="0.75" stroke-linecap="round" stroke-linejoin="round"/>
<path d="M208.238 156.639C208.238 156.639 201.514 157.536 196.684 155.753C191.855 153.969 187.291 152.585 187.291 152.585C187.291 152.585 184.621 187.245 187.546 201.213C190.47 215.181 198.213 232.229 198.335 236.128C198.49 240.819 199.042 245.488 199.985 250.085C200.871 253.641 205.192 281.101 205.446 284.114C205.616 285.634 205.616 287.169 205.446 288.689C205.446 288.689 202.4 289.708 202.4 290.594V297.063C204.912 298.384 207.551 299.449 210.276 300.242C214.973 301.638 221.575 302.779 221.575 302.779C222.141 300.22 222.563 297.631 222.837 295.025C222.837 293.253 221.73 288.556 221.73 286.008C221.73 283.46 222.372 252.998 222.372 252.998C222.372 252.998 228.586 279.03 228.586 287.659C228.586 296.288 228.464 299.09 228.464 299.09C228.464 299.09 225.673 298.204 225.673 300.109C225.673 302.015 225.54 306.578 225.54 306.578C225.54 306.578 235.443 309.115 240.14 310.511C242.94 311.356 245.9 311.53 248.78 311.02C248.78 311.02 251.316 301.372 251.062 298.204C250.807 295.036 247.639 292.355 247.639 290.583C247.639 288.811 249.289 271.287 246.875 256.045C244.46 240.803 238.113 233.824 237.858 226.336C237.603 218.848 238.966 191.931 239.132 187.566C239.298 183.202 243.695 174.107 244.338 170.042C244.98 165.977 244.46 153.925 244.46 153.925C244.46 153.925 215.992 158.035 208.238 156.639Z" fill="#263238" stroke="#263238" stroke-width="0.75" stroke-linecap="round" stroke-linejoin="round"/>
<path d="M196.097 174.041L202.954 178.483" stroke="white" stroke-width="0.75" stroke-linecap="round" stroke-linejoin="round"/>
<path d="M220.844 249.111C221.796 251.581 222.383 253.01 222.383 253.01" stroke="white" stroke-width="0.75" stroke-linecap="round" stroke-linejoin="round"/>
<path d="M200.673 177.342C200.673 177.342 205.236 204.126 210.697 220.886C213.5 229.482 216.502 237.723 218.761 243.694" stroke="white" stroke-width="0.75" stroke-linecap="round" stroke-linejoin="round"/>
<path d="M149.12 136.988C149.241 137.365 149.873 151.211 149.873 151.211L186.316 147.888L185.563 129.988L149.12 136.988Z" fill="#263238" stroke="#263238" stroke-width="0.75" stroke-linecap="round" stroke-linejoin="round"/>
<path d="M220.6 64.4669C220.6 64.4669 212.347 67.3802 210.697 69.4184C209.047 71.4565 199.265 105.851 196.053 116.009C192.841 126.166 191.866 156.894 191.866 156.894C193.642 157.551 195.468 158.062 197.327 158.423C199.156 158.731 201.011 158.858 202.865 158.799C202.865 158.799 213.533 122.865 218.739 110.559C223.945 98.252 232.696 80.5951 236.008 73.7384C239.32 66.8817 242.222 65.6078 241.846 62.3069C241.469 59.0059 239.94 57.732 238.035 57.4773C236.13 57.2225 220.6 64.4669 220.6 64.4669Z" fill="white" stroke="#263238" stroke-width="0.75" stroke-linecap="round" stroke-linejoin="round"/>
<path d="M221.63 63.4586C221.63 63.4586 213.378 66.3719 211.727 68.4101C210.077 70.4482 200.307 104.843 197.161 115C194.015 125.158 192.941 155.886 192.941 155.886C194.716 156.543 196.543 157.054 198.402 157.414C200.232 157.717 202.086 157.843 203.94 157.791C203.94 157.791 214.607 121.857 219.814 109.539C225.02 97.2215 233.782 79.6311 237.083 72.719C240.384 65.8069 243.297 64.5995 242.92 61.2986C242.544 57.9976 241.015 56.7237 239.11 56.469C237.205 56.2142 221.63 63.4586 221.63 63.4586Z" fill="#5B5CEE" stroke="#263238" stroke-width="0.75" stroke-linecap="round" stroke-linejoin="round"/>
<path d="M232.785 67.6348C227.61 76.4874 223.071 85.6973 219.204 95.1946C213.998 108.653 209.811 120.672 204.472 138.617C201.263 149.697 200.188 161.286 201.304 172.767C201.304 172.767 203.84 177.087 218.828 177.597C233.815 178.107 252.602 173.277 252.602 173.277C252.602 173.277 250.054 158.035 249.799 149.029C249.544 140.024 256.789 108.398 259.835 100.146C262.881 91.8936 269.483 83.6412 263.158 75.6435C256.833 67.6459 241.702 58.6292 241.702 58.6292C241.702 58.6292 234.435 64.8434 232.785 67.6348Z" fill="#263238" stroke="#263238" stroke-width="0.75" stroke-linecap="round" stroke-linejoin="round"/>
<path d="M215.649 67.5131C215.649 67.5131 211.716 72.4645 208.16 83.021C204.605 93.5774 198.003 121.625 194.957 133.555C191.91 145.485 190.382 172.025 190.382 172.025C190.382 172.025 188.731 171.903 185.308 171.903C183.053 171.836 180.841 171.273 178.828 170.253C178.828 170.253 181.243 144.222 183.403 132.037C185.563 119.852 191.91 98.1301 193.051 89.6229C194.192 81.1157 194.569 78.9668 196.098 77.8147C197.626 76.6627 209.556 69.4405 211.971 67.79C214.386 66.1395 215.649 67.5131 215.649 67.5131Z" fill="#263238" stroke="#263238" stroke-width="0.75" stroke-linecap="round" stroke-linejoin="round"/>
<path d="M245.612 61.4207C245.612 61.4207 238.379 75.7655 236.474 78.435C235.369 79.9588 234.391 81.5704 233.549 83.2536L227.202 85.6684L229.739 89.7337C229.739 89.7337 216.923 112.685 213.622 120.329C210.321 127.972 206.975 136.202 206.975 136.202" stroke="white" stroke-width="0.75" stroke-linecap="round" stroke-linejoin="round"/>
<path d="M193.45 126.055C193.218 128.592 193.173 129.6 193.173 129.6" stroke="white" stroke-width="0.75" stroke-linecap="round" stroke-linejoin="round"/>
<path d="M209.18 71.9548L202.068 82.8768L203.719 85.4135L199.775 90.2431C199.775 90.2431 195.588 107.634 194.447 117.027C194.226 118.855 194.037 120.45 193.893 121.835" stroke="white" stroke-width="0.75" stroke-linecap="round" stroke-linejoin="round"/>
<path d="M210.575 67.2583L209.179 73.9821L216.413 69.1636L210.575 67.2583Z" fill="white" stroke="#263238" stroke-width="0.75" stroke-linecap="round" stroke-linejoin="round"/>
<path d="M216.668 61.9302C216.535 62.3068 210.575 67.2583 210.575 67.2583L217.299 70.0497L218.695 64.5887L216.668 61.9302Z" fill="white" stroke="#263238" stroke-width="0.75" stroke-linecap="round" stroke-linejoin="round"/>
<path d="M214.253 11.2634C211.387 13.0487 209.128 15.659 207.773 18.7515C205.491 23.9577 203.718 26.1177 204.228 27.7682C204.593 28.8847 204.846 30.0351 204.981 31.2021C204.981 31.5787 199.653 36.6631 199.52 38.1807C199.387 39.6982 202.954 42.5007 202.954 42.5007C202.954 42.5007 203.331 51.2627 203.331 52.027C203.331 52.7913 203.586 56.7237 207.274 57.7317C209.783 58.3102 212.395 58.2683 214.884 57.6099L217.299 70.0494C217.299 70.0494 234.191 59.637 235.964 58.7508C237.736 57.8646 239.896 56.7237 240.029 55.328C240.162 53.9323 239.01 46.1783 239.01 46.1783C239.01 46.1783 248.027 37.9259 247.872 28.2778C247.717 18.6296 242.577 12.5372 233.172 9.66827C223.768 6.79931 214.253 11.2634 214.253 11.2634Z" fill="white" stroke="#263238" stroke-width="0.75" stroke-linecap="round" stroke-linejoin="round"/>
<path d="M247.894 28.2778C247.772 18.6296 242.566 12.5372 233.173 9.61288C223.779 6.68853 214.253 11.2634 214.253 11.2634C213.511 11.7082 212.813 12.2238 212.17 12.8031C215.272 12.2492 220.379 11.8615 224.034 14.1877C229.573 17.7435 226.061 21.2992 224.156 23.2045C222.251 25.1097 221.874 25.863 223.27 27.6353C224.665 29.4076 227.335 29.4076 226.692 31.0581C226.05 32.7086 224.156 35.0015 225.684 35.6329C227.213 36.2643 228.598 34.8686 229.24 32.9634C229.883 31.0581 233.04 31.0581 234.314 35.0015C234.775 36.4844 234.766 38.0737 234.288 39.5513C233.81 41.0289 232.886 42.3223 231.644 43.254C230.621 44.0117 229.357 44.3701 228.088 44.262C230.269 45.3695 232.57 46.2243 234.945 46.8097C236.323 46.9249 237.711 46.8164 239.054 46.4885C239.054 46.2891 239.054 46.1672 239.054 46.1672C239.054 46.1672 248.027 37.9259 247.894 28.2778Z" fill="#263238" stroke="#263238" stroke-width="0.75" stroke-linecap="round" stroke-linejoin="round"/>
<path d="M210.952 33.2294C210.952 34.2152 210.642 35.0128 210.254 35.0128C209.867 35.0128 209.556 34.2152 209.556 33.2294C209.556 32.2435 209.867 31.457 210.254 31.457C210.642 31.457 210.952 32.2546 210.952 33.2294Z" fill="black"/>
<path d="M207.651 27.9012C207.651 27.9012 208.16 26.1178 210.974 26.2507C213.788 26.3837 213.898 28.4108 213.898 28.4108" fill="white"/>
<path d="M207.651 27.9012C207.651 27.9012 208.16 26.1178 210.974 26.2507C213.788 26.3837 213.898 28.4108 213.898 28.4108" stroke="#263238" stroke-width="0.75" stroke-linecap="round" stroke-linejoin="round"/>
<path d="M202.954 42.5009C203.73 42.7812 204.562 42.8701 205.38 42.7602C206.198 42.6503 206.977 42.3448 207.651 41.8695C209.678 40.2191 208.028 38.8123 208.028 38.8123" fill="white"/>
<path d="M202.954 42.5009C203.73 42.7812 204.562 42.8701 205.38 42.7602C206.198 42.6503 206.977 42.3448 207.651 41.8695C209.678 40.2191 208.028 38.8123 208.028 38.8123" stroke="#263238" stroke-width="0.75" stroke-linecap="round" stroke-linejoin="round"/>
<path d="M203.464 44.528C203.464 44.528 210.188 41.2049 213.234 41.1052C216.28 41.0055 219.459 46.2228 218.207 50.6536C216.956 55.0844 215.549 57.2999 211.229 59.039C206.909 60.7781 202.843 60.4347 202.09 57.5103C201.337 54.586 204.749 50.4099 206.399 49.6456C208.05 48.8813 209.324 48.7594 209.069 50.1551C208.814 51.5508 208.05 52.5589 211.229 51.9275C214.408 51.2961 216.18 50.4099 216.302 46.976C216.424 43.5421 215.194 42.2793 211.871 42.7889C208.548 43.2984 203.619 45.9569 203.619 45.9569L203.464 44.528Z" fill="#263238" stroke="#263238" stroke-width="0.75" stroke-linecap="round" stroke-linejoin="round"/>
<path d="M206.122 47.1978C206.122 47.1978 211.461 46.943 213.367 44.783L206.122 47.1978Z" fill="white"/>
<path d="M206.122 47.1978C206.122 47.1978 211.461 46.943 213.367 44.783" stroke="#263238" stroke-width="0.75" stroke-linecap="round" stroke-linejoin="round"/>
<path d="M227.59 44.1514C227.598 45.1938 227.373 46.2248 226.932 47.1695C226.492 48.1142 225.846 48.9487 225.042 49.6124" fill="white"/>
<path d="M227.59 44.1514C227.598 45.1938 227.373 46.2248 226.932 47.1695C226.492 48.1142 225.846 48.9487 225.042 49.6124" stroke="#263238" stroke-width="0.75" stroke-linecap="round" stroke-linejoin="round"/>
<path d="M217.299 70.0496L220.988 78.5568C220.988 78.5568 234.945 68.1443 238.379 64.079C241.812 60.0137 244.471 57.9866 242.566 55.2173C240.66 52.4481 237.869 54.7078 237.359 54.9626C236.85 55.2174 217.299 70.0496 217.299 70.0496Z" fill="white" stroke="#263238" stroke-width="0.75" stroke-linecap="round" stroke-linejoin="round"/>
<path d="M189.407 145.086C187.826 139.942 186.557 134.708 185.607 129.412C184.843 124.549 184.5 119.598 184.5 119.598C178.367 119.039 172.371 117.451 166.765 114.901C158.391 110.847 156.608 109.362 156.608 109.362C156.608 109.362 167.906 146.183 170.199 153.925C172.492 161.668 172.991 163.319 172.991 163.319C176.614 165.114 180.452 166.439 184.411 167.262C187.555 167.849 190.74 168.186 193.937 168.27L189.407 145.086Z" fill="white" stroke="#263238" stroke-width="0.75" stroke-linecap="round" stroke-linejoin="round"/>
<path d="M202.068 145.086C199.382 144.587 196.775 143.734 194.314 142.549C192.467 141.478 190.452 140.729 188.354 140.334H187.845L189.362 145.03C187.489 145.445 185.576 145.66 183.658 145.673C180.611 145.673 174.253 144.654 174.009 145.03C173.774 145.941 173.688 146.884 173.755 147.822C173.755 148.719 178.318 154.18 180.988 156.085C183.658 157.991 186.061 159.253 188.476 159.253C190.891 159.253 203.84 157.481 203.84 157.481L202.068 145.086Z" fill="white" stroke="#263238" stroke-width="0.75" stroke-linecap="round" stroke-linejoin="round"/>
<path d="M239.01 95.5711C239.01 95.5711 239.642 109.794 240.029 120.074C240.417 130.353 241.049 131.25 241.049 131.25C241.049 131.25 212.603 141.918 208.283 142.804C203.962 143.69 200.673 144.709 200.673 144.709L202.578 158.544C211.886 159.33 221.26 158.471 230.271 156.008C244.117 151.942 265.44 147.877 265.828 145.983C266.216 144.089 265.828 138.362 265.828 137.121C265.828 135.881 265.44 108.553 265.44 96.3686C265.44 84.1838 266.326 81.3813 264.809 78.8447C263.291 76.308 255.537 75.0342 251.095 77.5708" fill="#263238"/>
<path d="M239.01 95.5711C239.01 95.5711 239.642 109.794 240.029 120.074C240.417 130.353 241.049 131.25 241.049 131.25C241.049 131.25 212.603 141.918 208.283 142.804C203.962 143.69 200.673 144.709 200.673 144.709L202.578 158.544C211.886 159.33 221.26 158.471 230.271 156.008C244.117 151.942 265.44 147.877 265.828 145.983C266.216 144.089 265.828 138.362 265.828 137.121C265.828 135.881 265.44 108.553 265.44 96.3686C265.44 84.1838 266.326 81.3813 264.809 78.8447C263.291 76.308 255.537 75.0342 251.095 77.5708" stroke="#263238" stroke-width="0.75" stroke-linecap="round" stroke-linejoin="round"/>
<path d="M217.531 139.414L241.048 131.251L238.966 99.9136" stroke="white" stroke-width="0.75" stroke-linecap="round" stroke-linejoin="round"/>
<path d="M210.93 141.707L214.33 140.533" stroke="white" stroke-width="0.75" stroke-linecap="round" stroke-linejoin="round"/>
<path d="M247.118 84.1175C247.118 84.1175 255.98 73.0404 264.786 78.8115" stroke="white" stroke-width="0.75" stroke-linecap="round" stroke-linejoin="round"/>
<path d="M174.254 146.36C174.254 146.36 180.102 150.292 184.035 150.934" stroke="#263238" stroke-width="0.75" stroke-linecap="round" stroke-linejoin="round"/>
<path d="M175.272 150.17C176.996 151.687 178.972 152.89 181.11 153.726L183.78 154.479" stroke="#263238" stroke-width="0.75" stroke-linecap="round" stroke-linejoin="round"/>
<path d="M181.653 156.517C183.165 157.071 184.745 157.414 186.35 157.536" stroke="#263238" stroke-width="0.75" stroke-linecap="round" stroke-linejoin="round"/>
<path d="M73.829 108.974C73.829 108.974 72.0788 91.0849 70.0185 78.4792C68.9108 71.5117 64.6904 65.5744 60.2817 60.2574C56.6374 55.8266 51.1321 51.7724 48.0969 47.0646C47.0446 45.4474 41.5282 57.1447 41.5172 57.1558C40.4095 59.6482 53.5358 67.5461 55.3081 69.3406C57.6343 71.6668 59.739 74.4139 61.8547 76.9173C62.8184 78.025 65.355 82.2454 66.8061 82.5999L69.1545 83.187L67.3932 88.4707L73.829 108.974Z" fill="#5B5CEE" stroke="#263238" stroke-width="0.75" stroke-linecap="round" stroke-linejoin="round"/>
</svg>
