<svg xmlns="http://www.w3.org/2000/svg">
<symbol id="sm-email" viewBox="0 0 28 20"><path d="M25.084 0H2.74l11.172 9.46L25.21.028A.759.759 0 0 0 25.083 0z"/><path d="M14.588 12.411a.971.971 0 0 1-1.23 0L.374 1.716v16.741c0 .537.435.972.971.972h25.258a.971.971 0 0 0 .971-.972V1.86L14.588 12.41z"/></symbol>
<symbol id="sm-linkedin" viewBox="0 0 26 25"><path d="M25.369 24.542h.006V15.54c0-4.403-.948-7.794-6.095-7.794-2.475 0-4.136 1.358-4.814 2.645h-.071V8.157h-4.88V24.54h5.081v-8.113c0-2.136.405-4.202 3.05-4.202 2.607 0 2.646 2.438 2.646 4.34v7.976h5.077zM1.238 8.157h5.089v16.385H1.238V8.157zM3.78 0A2.948 2.948 0 0 0 .833 2.947c0 1.627 1.32 2.975 2.947 2.975s2.948-1.348 2.948-2.975A2.95 2.95 0 0 0 3.78 0z"/></symbol>
<symbol id="sm-telegram" viewBox="0 0 25 23"><path d="M.433 10.984l5.655 2.11 2.19 7.04c.14.45.69.617 1.056.318l3.152-2.57a.94.94 0 0 1 1.147-.032l5.685 4.128a.666.666 0 0 0 1.044-.403l4.165-20.033a.667.667 0 0 0-.893-.758L.427 9.737a.667.667 0 0 0 .006 1.247zm7.491.987l11.052-6.807c.199-.122.403.147.232.305l-9.12 8.478a1.89 1.89 0 0 0-.586 1.132L9.19 17.38c-.041.307-.473.338-.558.04l-1.195-4.198c-.137-.48.063-.99.486-1.252z"/></symbol>
</svg>