<svg width="26" height="25" viewBox="0 0 26 25" fill="none" xmlns="http://www.w3.org/2000/svg">
<path d="M25.3689 24.5421V24.5411H25.375V15.5405C25.375 11.1374 24.4271 7.74561 19.2796 7.74561C16.805 7.74561 15.1444 9.10356 14.4664 10.391H14.3948V8.15667H9.51416V24.5411H14.5963V16.4281C14.5963 14.292 15.0012 12.2264 17.6465 12.2264C20.253 12.2264 20.2919 14.6642 20.2919 16.5651V24.5421H25.3689Z"/>
<path d="M1.23828 8.15723H6.32652V24.5416H1.23828V8.15723Z"/>
<path d="M3.7805 0C2.15362 0 0.833496 1.32012 0.833496 2.947C0.833496 4.57389 2.15362 5.92162 3.7805 5.92162C5.40739 5.92162 6.72751 4.57389 6.72751 2.947C6.72648 1.32012 5.40636 0 3.7805 0V0Z"/>
</svg>
