<svg width="25" height="23" viewBox="0 0 25 23" fill="none" xmlns="http://www.w3.org/2000/svg">
<path d="M0.433473 10.9838L6.08829 13.0944L8.27706 20.1334C8.41711 20.5843 8.96839 20.7509 9.3343 20.4517L12.4864 17.8821C12.8168 17.6129 13.2874 17.5995 13.6327 17.8501L19.318 21.9777C19.7094 22.2622 20.264 22.0478 20.3621 21.5748L24.5269 1.54156C24.634 1.02488 24.1264 0.593852 23.6344 0.78413L0.426847 9.7369C-0.145867 9.95777 -0.140877 10.7686 0.433473 10.9838ZM7.92432 11.9709L18.9759 5.16419C19.1746 5.04222 19.3789 5.31079 19.2084 5.469L10.0876 13.9472C9.76696 14.2456 9.56016 14.645 9.50159 15.0785L9.19089 17.381C9.14975 17.6884 8.7179 17.7189 8.63307 17.4214L7.43815 13.2228C7.30129 12.7439 7.50073 12.2323 7.92432 11.9709Z"/>
</svg>
