<svg width="45" height="44" viewBox="0 0 45 44" fill="none" xmlns="http://www.w3.org/2000/svg">
<path d="M10.3932 42.7044V36.234H3.8974C1.74829 36.234 0 34.4924 0 32.3518V9.05849C0 6.91783 1.74838 5.17627 3.8974 5.17627H40.2735C42.4226 5.17627 44.1709 6.91783 44.1709 9.05849V32.3518C44.1709 34.4924 42.4225 36.234 40.2735 36.234H23.7781L12.413 43.7811C11.5508 44.3535 10.3932 43.7362 10.3932 42.7044Z" fill="#F2F2FA"/>
<path d="M21.1665 20.3261C20.5461 19.713 18.5645 18.1171 16.8886 18.1171H15.1564C9.66438 18.1171 5.19629 13.6664 5.19629 8.19585V1.29413C5.19629 0.57946 5.77793 6.10352e-05 6.49545 6.10352e-05H16.8887C18.9975 6.10352e-05 20.9692 1.27464 22.0852 2.16099C23.2013 1.27472 25.1731 6.10352e-05 27.2819 6.10352e-05H37.675C38.3925 6.10352e-05 38.9742 0.57946 38.9742 1.29413V8.19585C38.9742 13.6664 34.5061 18.1171 29.014 18.1171H27.282C25.6003 18.1171 23.5793 19.753 23.0039 20.3262C22.4967 20.8311 21.6741 20.8319 21.1665 20.3261Z" fill="#5B5CEE"/>
<path d="M15.5896 11.7329C12.6757 11.7329 10.3931 9.05851 10.3931 9.05851C10.3931 9.05851 12.6757 6.38409 15.5896 6.38409C18.5035 6.38409 20.7862 9.05851 20.7862 9.05851C20.7862 9.05851 18.5035 11.7329 15.5896 11.7329Z" fill="#E1E4F9"/>
<path d="M28.5813 11.7329C25.6674 11.7329 23.3848 9.05851 23.3848 9.05851C23.3848 9.05851 25.6674 6.38409 28.5813 6.38409C31.4952 6.38409 33.7779 9.05851 33.7779 9.05851C33.7779 9.05851 31.4953 11.7329 28.5813 11.7329Z" fill="#D6DAF6"/>
<path d="M16.889 25.8814H9.09408C8.37656 25.8814 7.79492 25.302 7.79492 24.5873C7.79492 23.8727 8.37656 23.2933 9.09408 23.2933H16.889C17.6065 23.2933 18.1881 23.8727 18.1881 24.5873C18.1881 25.302 17.6064 25.8814 16.889 25.8814Z" fill="#9090AB"/>
<path d="M24.6841 25.8814H22.0858C21.3683 25.8814 20.7866 25.302 20.7866 24.5873C20.7866 23.8727 21.3683 23.2933 22.0858 23.2933H24.6841C25.4016 23.2933 25.9833 23.8727 25.9833 24.5873C25.9833 25.302 25.4015 25.8814 24.6841 25.8814Z" fill="#9090AB"/>
<path d="M35.0768 25.8814H29.8802C29.1627 25.8814 28.5811 25.302 28.5811 24.5873C28.5811 23.8727 29.1627 23.2933 29.8802 23.2933H35.0768C35.7943 23.2933 36.3759 23.8727 36.3759 24.5873C36.3759 25.302 35.7943 25.8814 35.0768 25.8814Z" fill="#9090AB"/>
<path d="M14.2906 31.0577H9.09408C8.37656 31.0577 7.79492 30.4783 7.79492 29.7636C7.79492 29.0489 8.37656 28.4695 9.09408 28.4695H14.2906C15.0082 28.4695 15.5898 29.0489 15.5898 29.7636C15.5898 30.4783 15.0082 31.0577 14.2906 31.0577Z" fill="#9090AB"/>
<path d="M27.282 31.0577H19.4872C18.7696 31.0577 18.188 30.4783 18.188 29.7636C18.188 29.0489 18.7696 28.4695 19.4872 28.4695H27.282C27.9996 28.4695 28.5812 29.0489 28.5812 29.7636C28.5812 30.4783 27.9996 31.0577 27.282 31.0577Z" fill="#9090AB"/>
</svg>
