<svg width="44" height="44" viewBox="0 0 44 44" fill="none" xmlns="http://www.w3.org/2000/svg">
<path d="M22 44C34.1503 44 44 34.1503 44 22C44 9.84974 34.1503 0 22 0C9.84974 0 0 9.84974 0 22C0 34.1503 9.84974 44 22 44Z" fill="#FFE278"/>
<path d="M44 22C44 9.8692 34.1308 0 22 0V44C34.1308 44 44 34.1308 44 22Z" fill="#FFE278"/>
<path d="M22.0003 39.1111C31.4505 39.1111 39.1114 31.4502 39.1114 22C39.1114 12.5498 31.4505 4.88892 22.0003 4.88892C12.5501 4.88892 4.88916 12.5498 4.88916 22C4.88916 31.4502 12.5501 39.1111 22.0003 39.1111Z" fill="#FFB454"/>
<path d="M39.1111 22C39.1111 12.565 31.4351 4.88892 22 4.88892V39.1111C31.4351 39.1111 39.1111 31.4351 39.1111 22Z" fill="#FFB454"/>
<path d="M24.5105 20.354C24.1811 20.2376 23.8453 20.1165 23.5093 19.9912V14.105C24.1782 14.3146 24.5209 14.6512 24.5615 14.6931C25.1537 15.3635 26.1776 15.4317 26.8533 14.8427C27.5318 14.2515 27.6027 13.2222 27.0113 12.5436C26.4322 11.8787 25.2238 11.0426 23.5093 10.7708V9.77782C23.5093 8.87794 22.7795 8.14819 21.8796 8.14819C20.9797 8.14819 20.25 8.87794 20.25 9.77782V10.9551C20.1152 10.9895 19.9795 11.0261 19.8414 11.0677C17.8135 11.6785 16.299 13.4108 15.8885 15.5886C15.5125 17.5833 16.1578 19.5118 17.5725 20.6212C18.263 21.1629 19.1094 21.6593 20.25 22.1775V29.7559C19.3791 29.6529 18.7507 29.3854 17.7466 28.7283C16.9932 28.2355 15.9835 28.4469 15.4907 29.1999C14.998 29.9531 15.2091 30.963 15.9623 31.4558C17.6379 32.5521 18.8102 32.9197 20.2502 33.0308V34.2223C20.2502 35.1222 20.9799 35.8519 21.8798 35.8519C22.7797 35.8519 23.5094 35.1222 23.5094 34.2223V32.8793C26.4121 32.1833 28.2745 29.7222 28.6823 27.295C29.2094 24.1608 27.5718 21.4362 24.5105 20.354ZM19.5841 18.0567C19.1376 17.7065 18.9442 16.9744 19.0917 16.1922C19.2085 15.572 19.5717 14.8455 20.2502 14.4272V18.5102C20.0065 18.3627 19.7816 18.2116 19.5841 18.0567ZM25.4682 26.7548C25.2947 27.787 24.6291 28.8753 23.5093 29.4339V23.4595C25.6992 24.2836 25.5639 26.1853 25.4682 26.7548Z" fill="#FFE278"/>
<path d="M24.5104 20.3539C24.1811 20.2376 23.8452 20.1165 23.5092 19.9912V14.1049C24.1782 14.3145 24.5209 14.6512 24.5615 14.6931C25.1537 15.3635 26.1776 15.4316 26.8532 14.8427C27.5318 14.2514 27.6027 13.2222 27.0113 12.5436C26.4321 11.8787 25.2237 11.0425 23.5092 10.7707V9.77777C23.5092 8.91847 22.8435 8.2161 22 8.15417V35.8457C22.8435 35.7837 23.5092 35.0814 23.5092 34.2221V32.8791C26.4119 32.1831 28.2742 29.722 28.6821 27.2948C29.2093 24.1607 27.5717 21.4361 24.5104 20.3539ZM25.4682 26.7548C25.2946 27.787 24.6291 28.8752 23.5092 29.4339V23.4595C25.6991 24.2836 25.5638 26.1852 25.4682 26.7548Z" fill="#FFE278"/>
</svg>
