<svg width="429" height="428" viewBox="0 0 429 428" fill="none" xmlns="http://www.w3.org/2000/svg">
<path d="M134.461 34.5709C134.461 34.5709 61.4878 71.7461 25.0927 129.031C-11.3024 186.315 -8.4228 260.01 35.8022 314.714C80.0272 369.417 164.557 362.233 235.335 396.885C306.112 431.536 384.199 424.4 417.667 350.984C451.134 277.568 400.668 250.129 392 165.166C383.332 80.202 306.738 -44.2097 134.461 34.5709Z" fill="#F2F2FA"/>
<path d="M333.319 291.417V288.191C333.319 271.577 354.353 270.855 354.353 259.028C354.353 253.895 350.173 250.543 343.952 250.543C337.143 250.543 332.838 254.251 332.838 259.51V260.829C332.838 262.139 332.125 262.755 330.805 262.755L318.025 262.274C316.831 262.274 315.993 261.677 315.993 260.849V259.529C315.993 245.083 327.464 235.153 344.318 235.153C360.806 235.153 371.438 244.476 371.438 258.45C371.438 278.29 350.048 278.415 350.048 289.269V291.417C350.08 291.692 350.05 291.97 349.96 292.231C349.869 292.493 349.72 292.73 349.525 292.926C349.329 293.121 349.092 293.27 348.83 293.361C348.569 293.451 348.291 293.482 348.016 293.449H335.351C335.077 293.482 334.798 293.451 334.537 293.361C334.275 293.27 334.038 293.121 333.842 292.926C333.647 292.73 333.498 292.493 333.407 292.231C333.317 291.97 333.287 291.692 333.319 291.417ZM332.24 310.679C332.24 305.42 336.902 301.115 342.517 301.115C347.9 301.115 352.677 305.42 352.677 310.679C352.677 315.937 347.862 320.242 342.401 320.242C336.94 320.242 332.24 315.918 332.24 310.659V310.679Z" fill="#141F31"/>
<path d="M80.7977 154.562V151.76C80.7977 137.313 99.0963 136.707 99.0963 126.431C99.0963 121.962 95.4655 119.063 90.0722 119.063C84.1492 119.063 80.4413 122.28 80.4413 126.845V127.991C80.4413 129.127 79.8249 129.647 78.6789 129.647L67.5745 129.233C66.5343 129.233 65.812 128.713 65.812 127.991V126.845C65.812 114.325 75.7703 105.657 90.4093 105.657C104.73 105.657 113.976 113.756 113.976 125.882C113.976 143.111 95.3884 143.217 95.3884 152.665V154.533C95.4162 154.772 95.3897 155.013 95.311 155.239C95.2322 155.466 95.1032 155.672 94.9337 155.841C94.7642 156.011 94.5584 156.14 94.332 156.218C94.1055 156.297 93.8641 156.324 93.626 156.296H82.5601C82.3246 156.323 82.0861 156.297 81.862 156.22C81.6379 156.143 81.4338 156.016 81.2649 155.85C81.0959 155.684 80.9662 155.482 80.8854 155.259C80.8045 155.036 80.7746 154.798 80.7977 154.562ZM79.8346 171.272C79.8346 166.707 83.8795 162.97 88.7528 162.97C93.4237 162.97 97.5843 166.707 97.5843 171.272C97.5843 175.837 93.4237 179.574 88.6565 179.574C86.3918 179.631 84.1964 178.79 82.5491 177.235C80.9019 175.68 79.9365 173.536 79.8635 171.272H79.8346Z" fill="#5B5CEE"/>
<path d="M313.249 44.0479V42.6322C313.249 35.3416 322.475 35.0238 322.475 29.8328C322.475 27.5791 320.635 26.1056 317.91 26.1056C314.924 26.1056 313.037 27.7332 313.037 30.0446V30.6225C313.037 31.2003 312.719 31.4604 312.141 31.4604L306.536 31.2485C306.006 31.2485 305.64 30.9885 305.64 30.6225V30.0446C305.64 23.6979 310.677 19.3447 318.074 19.3447C325.306 19.3447 329.977 23.4379 329.977 29.5727C329.977 38.2405 320.587 38.3272 320.587 43.056V44.019C320.601 44.1397 320.588 44.2619 320.548 44.3765C320.508 44.4911 320.442 44.5951 320.356 44.6805C320.269 44.7659 320.165 44.8305 320.049 44.8694C319.934 44.9084 319.812 44.9205 319.692 44.9051H314.135C314.017 44.92 313.898 44.9084 313.786 44.871C313.673 44.8337 313.571 44.7716 313.486 44.6893C313.401 44.607 313.335 44.5066 313.294 44.3956C313.253 44.2846 313.237 44.1658 313.249 44.0479ZM312.777 52.4942C312.715 51.5937 312.925 50.6954 313.381 49.9161C313.836 49.1369 314.516 48.5127 315.331 48.1248C316.146 47.737 317.059 47.6033 317.951 47.7412C318.843 47.8792 319.673 48.2823 320.333 48.8983C320.993 49.5142 321.452 50.3144 321.651 51.1949C321.85 52.0753 321.779 52.9953 321.448 53.835C321.117 54.6748 320.541 55.3956 319.795 55.9036C319.049 56.4117 318.167 56.6835 317.265 56.6836C316.695 56.7042 316.126 56.6121 315.592 56.4125C315.057 56.213 314.568 55.9099 314.151 55.5207C313.734 55.1315 313.398 54.6638 313.162 54.1444C312.926 53.6251 312.795 53.0643 312.777 52.4942Z" fill="#5B5CEE"/>
<path d="M42.7845 238.823V237.041C42.7845 227.853 54.4186 227.458 54.4186 220.909C54.4186 218.068 52.1072 216.219 48.64 216.219C44.8744 216.219 42.4955 218.271 42.4955 221.179V221.901C42.4955 222.633 42.1007 222.961 41.3687 222.961L34.2997 222.701C33.6351 222.701 33.1729 222.364 33.1729 221.901V221.179C33.1729 213.185 39.5196 207.696 48.8423 207.696C57.9627 207.696 63.8376 212.848 63.8376 220.582C63.8376 231.551 52.0109 231.619 52.0109 237.638V238.823C52.0295 238.975 52.0133 239.13 51.9633 239.275C51.9132 239.42 51.8308 239.552 51.7222 239.661C51.6136 239.77 51.4817 239.852 51.3364 239.902C51.1912 239.952 51.0365 239.968 50.884 239.95H43.892C43.7411 239.965 43.5886 239.947 43.4458 239.895C43.303 239.844 43.1736 239.761 43.0673 239.653C42.9609 239.544 42.8802 239.414 42.8313 239.27C42.7823 239.126 42.7663 238.973 42.7845 238.823V238.823ZM42.1874 249.465C42.1119 248.33 42.3799 247.199 42.9563 246.219C43.5327 245.239 44.3908 244.455 45.419 243.969C46.4472 243.483 47.5978 243.318 48.721 243.496C49.8443 243.673 50.8881 244.184 51.7166 244.963C52.5451 245.742 53.12 246.752 53.3663 247.863C53.6127 248.973 53.5191 250.131 53.0978 251.188C52.6764 252.244 51.9469 253.149 51.0041 253.785C50.0613 254.42 48.9489 254.758 47.8118 254.752C46.3624 254.799 44.9537 254.268 43.8954 253.277C42.8372 252.285 42.2158 250.914 42.1681 249.465H42.1874Z" stroke="#141F31" stroke-miterlimit="10"/>
<path d="M131.388 72.5745V71.3514C131.388 65.0335 139.392 64.7542 139.392 60.2566C139.392 58.3304 137.803 57.0302 135.433 57.0302C132.843 57.0302 131.205 58.4364 131.205 60.4396V60.9404C131.205 61.4412 130.936 61.6627 130.435 61.6627L125.62 61.4797C125.167 61.4797 124.849 61.2582 124.849 60.9404V60.4396C124.849 54.9403 129.212 51.165 135.616 51.165C142.021 51.165 145.835 54.7092 145.835 60.0254C145.835 67.5761 137.697 67.6242 137.697 71.7559V72.5745C137.709 72.6786 137.698 72.7843 137.663 72.8834C137.629 72.9825 137.573 73.0725 137.498 73.1467C137.424 73.2209 137.334 73.2773 137.235 73.3116C137.136 73.3459 137.03 73.3573 136.926 73.345H132.111C132.01 73.3498 131.91 73.3327 131.817 73.295C131.724 73.2573 131.64 73.1999 131.572 73.1266C131.503 73.0533 131.451 72.966 131.419 72.8707C131.388 72.7753 131.377 72.6743 131.388 72.5745ZM130.984 79.894C130.942 79.1244 131.131 78.3598 131.528 77.6991C131.924 77.0383 132.51 76.5118 133.209 76.1874C133.909 75.8631 134.689 75.7559 135.45 75.8798C136.21 76.0036 136.916 76.3528 137.476 76.8821C138.037 77.4115 138.425 78.0967 138.592 78.8492C138.758 79.6016 138.695 80.3868 138.411 81.1031C138.127 81.8195 137.634 82.4341 136.997 82.8675C136.36 83.3009 135.607 83.5333 134.836 83.5344C133.842 83.5682 132.874 83.2058 132.146 82.5269C131.419 81.8479 130.99 80.9079 130.955 79.9132L130.984 79.894Z" fill="#141F31"/>
<path d="M273.926 336.606V335.383C273.926 329.065 281.929 328.795 281.929 324.288C281.929 322.362 280.34 321.062 277.971 321.062C275.38 321.062 273.743 322.468 273.743 324.471V324.972C273.743 325.472 273.473 325.704 272.972 325.704L268.157 325.521C267.704 325.521 267.386 325.289 267.386 324.972V324.471C267.386 318.972 271.749 315.196 278.154 315.196C284.558 315.196 288.478 318.74 288.478 324.066C288.478 331.607 280.34 331.655 280.34 335.787V336.606C280.352 336.71 280.34 336.816 280.306 336.916C280.272 337.015 280.216 337.106 280.142 337.181C280.068 337.255 279.978 337.313 279.879 337.348C279.78 337.384 279.674 337.397 279.569 337.386H274.754C274.645 337.407 274.532 337.401 274.426 337.37C274.319 337.339 274.222 337.283 274.141 337.207C274.06 337.131 273.999 337.037 273.961 336.932C273.924 336.828 273.912 336.716 273.926 336.606V336.606ZM273.521 343.925C273.479 343.156 273.668 342.391 274.065 341.73C274.462 341.07 275.047 340.543 275.747 340.219C276.446 339.894 277.226 339.787 277.987 339.911C278.747 340.035 279.453 340.384 280.014 340.913C280.574 341.443 280.962 342.128 281.129 342.88C281.296 343.633 281.233 344.418 280.948 345.134C280.664 345.851 280.171 346.465 279.534 346.899C278.897 347.332 278.144 347.565 277.373 347.566C276.382 347.589 275.422 347.219 274.702 346.537C273.982 345.855 273.561 344.916 273.531 343.925H273.521Z" stroke="#141F31" stroke-miterlimit="10"/>
<path d="M236.221 358.525C236.154 358.322 236.086 358.12 236.009 357.918C235.932 357.716 235.874 357.504 235.797 357.302C235.72 357.099 235.662 356.897 235.585 356.695C235.508 356.493 235.451 356.281 235.373 356.078C235.296 355.876 235.239 355.674 235.162 355.472C235.085 355.269 235.027 355.058 234.95 354.855L234.738 354.249C234.67 354.037 234.593 353.834 234.526 353.632L234.314 353.025C234.247 352.814 234.17 352.611 234.102 352.409L233.89 351.802C233.823 351.59 233.746 351.388 233.678 351.186L233.476 350.541C233.409 350.329 233.332 350.126 233.264 349.924L233.043 349.318C232.975 349.106 232.908 348.903 232.831 348.701C232.754 348.499 232.696 348.297 232.619 348.094C232.542 347.892 232.484 347.68 232.407 347.478C232.33 347.276 232.272 347.074 232.195 346.871C229.056 337.317 219.348 330.306 208.667 330.306C198.314 330.306 189.309 336.335 185.553 344.83C185.457 345.022 185.37 345.224 185.283 345.417L185.023 346.014C184.927 346.207 184.84 346.399 184.754 346.602C184.667 346.804 184.571 346.996 184.484 347.189L184.224 347.777C184.128 347.979 184.041 348.171 183.954 348.374C183.868 348.576 183.771 348.759 183.685 348.961C183.598 349.163 183.502 349.346 183.415 349.549L183.155 350.136C183.059 350.329 182.972 350.531 182.885 350.724C182.799 350.916 182.702 351.118 182.616 351.311L182.355 351.908C182.259 352.101 182.172 352.293 182.086 352.496C181.999 352.698 181.903 352.891 181.816 353.083L181.556 353.671C181.46 353.873 181.373 354.066 181.286 354.268C181.2 354.47 181.103 354.653 181.017 354.855L180.757 355.443C180.66 355.635 180.574 355.838 180.487 356.03C180.4 356.223 180.304 356.425 180.217 356.627C178.565 360.146 177.716 363.989 177.733 367.876C177.733 383.382 191.12 396.056 207.675 396.056C223.874 396.056 237.964 383.382 237.964 367.876C237.961 364.92 237.443 361.987 236.433 359.208C236.365 358.929 236.298 358.727 236.221 358.525Z" fill="#141F31"/>
<path d="M213.309 145.21C163.643 145.21 129.829 174.44 129.829 217.066V220.919C129.838 221.555 130.011 222.179 130.331 222.729C130.652 223.279 131.109 223.737 131.658 224.058C131.866 224.258 132.092 224.439 132.333 224.598C132.541 224.801 132.771 224.981 133.016 225.137C133.225 225.34 133.454 225.521 133.7 225.676C133.907 225.882 134.136 226.062 134.384 226.216C134.589 226.419 134.815 226.599 135.058 226.755C135.267 226.961 135.496 227.145 135.742 227.304C135.953 227.504 136.182 227.685 136.426 227.843C136.635 228.046 136.864 228.226 137.11 228.383C137.315 228.585 137.541 228.766 137.784 228.922C138.01 229.14 138.259 229.334 138.525 229.5C138.722 229.679 138.931 229.843 139.151 229.991C139.362 230.191 139.591 230.372 139.835 230.53C140.043 230.73 140.269 230.911 140.509 231.07C140.72 231.27 140.949 231.45 141.193 231.609C141.402 231.811 141.631 231.992 141.877 232.148C142.083 232.351 142.309 232.531 142.551 232.688C142.76 232.89 142.989 233.071 143.235 233.227C143.441 233.429 143.666 233.61 143.909 233.766C144.12 233.966 144.349 234.147 144.593 234.306C144.799 234.508 145.024 234.689 145.267 234.845C146.38 235.824 147.832 236.329 149.312 236.251L180.285 237.407C183.473 237.407 185.206 235.962 185.206 232.774V229.596C185.206 216.855 195.627 207.888 212.173 207.888C227.226 207.888 237.357 215.988 237.357 228.441C237.358 229.86 237.222 231.275 236.953 232.668C221.409 253.047 180.949 262.033 180.949 301.587V311.102C180.949 314.955 183.058 317.083 186.94 317.083H224.23C228.083 317.083 230.221 314.974 230.221 311.102V304.756C230.221 272.704 293.274 272.348 293.274 213.879C293.274 172.678 261.916 145.21 213.309 145.21Z" fill="#141F31"/>
<path d="M180.901 311.122V301.606C180.901 252.643 242.895 250.563 242.895 215.66C242.895 200.511 230.568 190.62 212.25 190.62C192.169 190.62 179.505 201.542 179.505 217.038V220.89C179.505 224.742 177.386 226.534 173.514 226.534L135.819 225.118C132.304 225.118 129.838 223.355 129.838 220.89V217.038C129.838 174.411 163.652 145.182 213.319 145.182C261.926 145.182 293.255 172.649 293.255 213.869C293.255 272.338 230.202 272.695 230.202 304.746V311.093C230.202 314.945 228.083 317.074 224.211 317.074H186.892C183.01 317.102 180.901 314.993 180.901 311.122ZM177.733 367.876C177.733 352.38 191.466 339.697 208.022 339.697C223.874 339.697 237.964 352.38 237.964 367.876C237.964 383.373 223.845 396.008 207.675 396.008C191.1 396.008 177.733 383.334 177.733 367.876Z" fill="#5B5CEE" stroke="#5B5CEE" stroke-miterlimit="10"/>
<path d="M206.134 427.587C235.181 427.587 258.729 422.323 258.729 415.828C258.729 409.334 235.181 404.069 206.134 404.069C177.087 404.069 153.54 409.334 153.54 415.828C153.54 422.323 177.087 427.587 206.134 427.587Z" fill="#141F31"/>
<path d="M165.935 149.111L163.922 153.503C163.922 153.503 152.23 154.764 152.23 155.641C152.23 156.517 152.355 162.556 152.991 162.806C153.474 162.994 154.01 162.994 154.493 162.806L171.713 158.405L173.351 150.613L165.935 149.111Z" fill="white" stroke="#141F31" stroke-linecap="round" stroke-linejoin="round"/>
<path d="M162.66 156.96C160.522 158.712 158.215 160.248 155.774 161.545C152.991 162.797 152.885 164.694 153.771 164.694C154.657 164.694 162.516 161.4 162.516 161.4C162.516 161.4 169.652 159.532 170.683 158.963C171.713 158.395 171.829 155.236 171.829 155.236" fill="white"/>
<path d="M162.66 156.96C160.522 158.712 158.215 160.248 155.774 161.545C152.991 162.797 152.885 164.694 153.771 164.694C154.657 164.694 162.516 161.4 162.516 161.4C162.516 161.4 169.652 159.532 170.683 158.963C171.713 158.395 171.829 155.236 171.829 155.236" stroke="#141F31" stroke-linecap="round" stroke-linejoin="round"/>
<path d="M176.221 64.7251L169.036 119.794L164.038 149.612L175.132 152.231L183.405 116.963L187.325 94.7638L176.221 64.7251Z" fill="#141F31" stroke="#141F31" stroke-linecap="round" stroke-linejoin="round"/>
<path d="M234.198 24.8534L229.816 24.16L220.84 20.7603L220.513 31.4216L234.429 32.7025L234.198 24.8534Z" fill="white" stroke="#141F31" stroke-linecap="round" stroke-linejoin="round"/>
<path d="M182.972 220.138C179.706 223.946 176.654 227.933 173.832 232.081C170.124 237.744 171.434 243.83 176.009 245.362C180.583 246.893 186.448 242.742 187.98 239.477C189.511 236.212 189.068 234.479 191.456 231.214C193.845 227.949 195.81 224.684 194.943 220.331C194.076 215.978 185.322 217.095 182.972 220.138Z" fill="#7D7D7D" stroke="#141F31" stroke-linecap="round" stroke-linejoin="round"/>
<path d="M187.537 240.296C187.229 239.641 186.872 238.948 186.448 238.206C182.952 232.052 176.818 232.543 172.965 233.689C170.432 238.861 171.877 244.004 176.028 245.391C180.179 246.778 185.533 243.388 187.537 240.296Z" fill="white" stroke="#141F31" stroke-linecap="round" stroke-linejoin="round"/>
<path d="M186.448 238.206C185.148 240.133 183.405 245.391 176.654 243.214C174.771 242.731 173.087 241.67 171.838 240.181C171.984 241.355 172.456 242.466 173.199 243.386C173.943 244.307 174.93 245.001 176.047 245.391C180.612 246.913 186.487 242.771 188.018 239.507C189.55 236.242 189.107 234.508 191.495 231.243C193.883 227.978 195.848 224.714 194.981 220.36C194.981 225.58 193.055 226.447 190.628 229.279C188.201 232.11 187.758 236.242 186.448 238.206Z" fill="white" stroke="#141F31" stroke-linecap="round" stroke-linejoin="round"/>
<path d="M247.2 220.138C250.466 223.946 253.518 227.933 256.34 232.081C260.048 237.744 258.738 243.83 254.163 245.362C249.589 246.893 243.724 242.742 242.192 239.477C240.661 236.212 241.104 234.479 238.715 231.214C236.327 227.949 234.362 224.684 235.229 220.331C236.096 215.978 244.812 217.095 247.2 220.138Z" fill="#7D7D7D" stroke="#141F31" stroke-linecap="round" stroke-linejoin="round"/>
<path d="M242.645 240.296C242.943 239.641 243.299 238.948 243.723 238.206C247.219 232.052 253.354 232.543 257.206 233.689C259.739 238.861 258.295 244.004 254.144 245.391C249.993 246.778 244.638 243.388 242.645 240.296Z" fill="white" stroke="#141F31" stroke-linecap="round" stroke-linejoin="round"/>
<path d="M243.724 238.206C245.024 240.133 246.767 245.391 253.518 243.214C255.401 242.731 257.085 241.67 258.334 240.181C258.188 241.355 257.716 242.466 256.972 243.386C256.229 244.307 255.242 245.001 254.125 245.391C249.56 246.913 243.685 242.771 242.154 239.507C240.622 236.242 241.065 234.508 238.677 231.243C236.288 227.978 234.324 224.714 235.191 220.36C235.191 225.58 237.117 226.447 239.544 229.279C241.971 232.11 242.414 236.242 243.724 238.206Z" fill="white" stroke="#141F31" stroke-linecap="round" stroke-linejoin="round"/>
<path d="M257.409 145.047C257.409 141.127 250.667 136.774 250.667 136.774C240.506 126.44 222.169 127.807 215.399 128.732C208.657 127.769 190.301 126.44 180.14 136.774C180.14 136.774 173.398 141.127 173.398 145.047C173.398 148.966 181.893 219.705 181.893 219.705C181.893 219.705 181.671 223.404 187.768 223.837C193.864 224.27 196.436 220.794 196.436 220.794L198.834 160.938C198.834 160.938 208.628 153.965 210.391 153.753C211.026 153.666 211.855 153.531 212.779 153.416V153.531C214.504 153.172 216.284 153.172 218.009 153.531V153.416C218.972 153.531 219.752 153.666 220.397 153.753C222.14 153.965 231.954 160.938 231.954 160.938L234.352 220.794C234.352 220.794 236.962 224.27 243.02 223.837C249.078 223.404 248.895 219.705 248.895 219.705C248.895 219.705 257.409 148.966 257.409 145.047Z" fill="#141F31" stroke="#141F31" stroke-linecap="round" stroke-linejoin="round"/>
<path d="M231.945 160.938C231.945 160.938 230.635 146.568 236.953 141.127" stroke="#707070" stroke-linecap="round" stroke-linejoin="round"/>
<path d="M198.862 160.938C198.862 160.938 199.517 148.967 198.208 144.613C196.898 140.26 194.721 138.517 194.721 138.517" stroke="#707070" stroke-linecap="round" stroke-linejoin="round"/>
<path d="M206.914 132.42C206.914 132.42 213.877 140.472 215.187 147.223" stroke="#707070" stroke-linecap="round" stroke-linejoin="round"/>
<path d="M222.15 132.883C222.15 132.883 218.23 137.236 217.797 140.501" stroke="#707070" stroke-linecap="round" stroke-linejoin="round"/>
<path d="M212.356 48.189C212.356 48.189 206.047 47.3126 203.871 49.4892C201.694 51.6658 194.288 59.6883 194.288 59.6883L198.208 128.905C198.208 128.905 207.136 132.392 214.754 132.392C222.372 132.392 231.078 129.56 233.052 128.039C235.027 126.517 233.274 52.2918 233.274 52.2918C233.274 52.2918 217.104 47.5341 212.356 48.189Z" fill="#5B5CEE" stroke="#141F31" stroke-linecap="round" stroke-linejoin="round"/>
<path d="M223.893 49.7108C227.207 49.2076 230.549 48.9149 233.9 48.8343C238.253 48.8343 242.567 49.0559 242.567 49.0559L253.45 38.6063L231.55 33.5983L233.293 23.5918C233.293 23.5918 249.396 22.5035 257.447 24.0252C265.499 25.5469 278.125 29.4666 278.78 29.4666C279.434 29.4666 280.301 31.8647 279.646 33.5983C278.991 35.3319 258.516 57.9837 252.401 63.8585C248.4 67.7791 244.622 71.9204 241.084 76.2631L238.291 124.803C238.291 124.803 245.476 128.722 246.786 130.023C248.096 131.323 249.617 136.552 249.617 136.552C249.617 136.552 236.336 131.111 232.85 130.678C229.364 130.244 227.197 130.023 226.542 128.751C225.887 127.48 220.445 69.3289 220.445 69.3289L220.667 50.8279C220.667 50.8279 220.628 49.7108 223.893 49.7108Z" fill="#141F31" stroke="#141F31" stroke-linecap="round" stroke-linejoin="round"/>
<path d="M236.953 79.5278L225.193 81.0495L226.282 85.4027L232.166 86.9243L237.819 84.3144L236.953 79.5278Z" stroke="#141F31" stroke-linecap="round" stroke-linejoin="round"/>
<path d="M243.694 53.4087L241.084 76.2628L247.836 56.8951" stroke="#141F31" stroke-linecap="round" stroke-linejoin="round"/>
<path d="M253.489 38.6063C253.489 38.6063 258.931 39.6946 267.204 36.4297" stroke="#141F31" stroke-linecap="round" stroke-linejoin="round"/>
<path d="M259.152 40.128C262.727 40.2275 266.302 39.9369 269.813 39.2612" stroke="#141F31" stroke-linecap="round" stroke-linejoin="round"/>
<path d="M204.959 47.9673L206.047 63.8582C207.039 65.1631 208.324 66.2168 209.798 66.9344C211.271 67.652 212.893 68.0136 214.532 67.9899C219.974 67.778 220.628 63.8582 220.628 63.8582V50.7988L204.959 47.9673Z" fill="white" stroke="#141F31" stroke-linecap="round" stroke-linejoin="round"/>
<path d="M220.841 56.2407L220.407 69.3194L224.982 62.1348C224.982 62.1348 229.99 68.443 231.29 68.2311C232.59 68.0193 230.423 65.3997 229.99 63.0112C229.557 60.6227 225.849 52.1187 225.415 49.7302C224.982 47.3418 220.841 46.8987 220.6 47.987C220.479 48.927 220.479 49.8786 220.6 50.8185L220.841 56.2407Z" fill="#141F31" stroke="#141F31" stroke-linecap="round" stroke-linejoin="round"/>
<path d="M205.826 67.99C205.826 67.99 206.692 128.934 204.516 129.628C202.339 130.321 193.633 130.504 188.143 133.114C182.654 135.724 180.092 136.812 180.092 136.812C180.092 136.812 182.702 130.504 185.755 127.673C187.784 125.849 190.052 124.31 192.497 123.098L186.843 93.9356C186.843 93.9356 176.394 66.2854 176.172 64.7637C175.951 63.242 195.983 51.9257 200.115 49.961C204.246 47.9963 205.344 49.7491 205.344 49.7491L205.826 67.99Z" fill="#141F31" stroke="#141F31" stroke-linecap="round" stroke-linejoin="round"/>
<path d="M200.384 46.8792C200.384 46.8792 195.164 63.425 194.721 65.6016C194.278 67.7782 194.721 67.7782 196.253 66.2469C197.784 64.7156 201.694 61.027 201.694 61.027L205.826 67.9901L205.604 55.1521V47.746C205.604 47.746 205.392 44.7026 200.384 46.8792Z" fill="#141F31" stroke="#141F31" stroke-linecap="round" stroke-linejoin="round"/>
<path d="M190.157 82.5811H202.995L202.783 87.801L197.12 89.7561L189.935 87.801L190.157 82.5811Z" stroke="#141F31" stroke-linecap="round" stroke-linejoin="round"/>
<path d="M225.415 25.335C225.415 25.335 228.458 38.6064 229.113 40.7444C229.768 42.8825 225.636 51.4155 224.298 53.3705C223.788 54.2184 223.087 54.9353 222.251 55.4638C221.415 55.9922 220.467 56.3176 219.482 56.4139C217.961 56.4139 209.688 53.592 207.723 52.2822C205.758 50.9724 203.813 49.4508 203.813 49.4508C202.887 49.8729 201.858 50.0157 200.852 49.8618C199.846 49.7078 198.907 49.2637 198.15 48.584C195.54 46.1859 192.054 43.3544 192.92 41.3993C193.343 40.44 194.049 39.6335 194.945 39.0892C195.841 38.5448 196.882 38.2889 197.928 38.356C200.326 38.356 199.46 38.1345 199.46 38.1345C199.46 38.1345 195.106 31.8262 195.106 26.8182C195.106 21.8101 204.458 18.1504 209.9 18.1504C213.662 18.3072 217.358 19.1936 220.782 20.7604L225.415 25.335Z" fill="white" stroke="#141F31" stroke-linecap="round" stroke-linejoin="round"/>
<path d="M217.797 30.3335L221.717 37.7396L217.797 40.3496L216.054 38.173" stroke="#141F31" stroke-linecap="round" stroke-linejoin="round"/>
<path d="M224.982 37.0845C224.982 37.0845 225.193 38.8277 222.583 41.6591" stroke="#141F31" stroke-linecap="round" stroke-linejoin="round"/>
<path d="M213.665 33.0586C213.665 34.0795 213.222 34.9077 212.702 34.9077C212.182 34.9077 211.739 34.0795 211.739 33.0586C211.739 32.0377 212.182 31.2095 212.702 31.2095C213.222 31.2095 213.665 32.0377 213.665 33.0586Z" fill="#141F31"/>
<path d="M220.513 31.4219C221.056 31.4219 221.495 30.594 221.495 29.5728C221.495 28.5515 221.056 27.7236 220.513 27.7236C219.971 27.7236 219.531 28.5515 219.531 29.5728C219.531 30.594 219.971 31.4219 220.513 31.4219Z" fill="#141F31"/>
<path d="M201.906 14.0089C201.906 14.0089 188.211 19.017 187.758 25.3348C187.306 31.6527 199.951 40.3494 200.606 41.4376C201.261 42.5259 203.216 40.1278 203.216 40.1278C202.781 39.5431 202.477 38.8711 202.326 38.1579C202.174 37.4448 202.179 36.7073 202.34 35.9962C202.994 33.8196 205.826 31.1808 205.826 30.1214C205.826 29.062 202.561 30.9881 202.561 27.7233C202.561 24.4584 210.613 22.5033 215.399 22.7152C220.186 22.9271 224.327 30.9881 227.813 27.0684C231.3 23.1486 226.282 22.0699 226.282 22.0699C226.282 22.0699 233.024 21.1935 233.024 17.7168C233.024 14.24 229.537 11.8323 228.016 11.8323C226.494 11.8323 222.362 14.4519 222.362 11.6204C222.362 8.78896 226.494 7.47916 222.574 2.95265C218.654 -1.57386 213.656 2.95265 213.656 4.69584C213.656 6.43903 212.346 9.69427 211.479 9.69427C210.613 9.69427 207.993 5.78413 204.95 7.96071C204.035 8.68827 203.288 9.60594 202.763 10.6502C202.238 11.6945 201.945 12.8405 201.906 14.0089Z" fill="#141F31" stroke="#141F31" stroke-linecap="round" stroke-linejoin="round"/>
<path d="M207.569 30.7763L214.532 28.1567" stroke="#141F31" stroke-linecap="round" stroke-linejoin="round"/>
<path d="M215.62 25.1131C215.487 24.4298 215.596 23.7215 215.928 23.1099" stroke="#141F31" stroke-linecap="round" stroke-linejoin="round"/>
<path d="M215.929 23.0907C216.42 22.1276 217.527 20.8853 219.974 19.874" stroke="white" stroke-linecap="round" stroke-linejoin="round"/>
</svg>
