<svg width="397" height="260" viewBox="0 0 397 260" fill="none" xmlns="http://www.w3.org/2000/svg">
<path d="M301.267 148.521H312.207C316.844 148.588 321.339 146.92 324.805 143.846H288.724C292.177 146.906 296.648 148.572 301.267 148.521V148.521Z" fill="#F0F0F0"/>
<path d="M241.289 148.521H252.239C256.867 148.579 261.349 146.912 264.809 143.846H228.729C232.185 146.912 236.664 148.579 241.289 148.521V148.521Z" fill="#F0F0F0"/>
<path d="M181.855 148.521H192.795C197.423 148.579 201.905 146.912 205.365 143.846H169.285C172.744 146.914 177.227 148.581 181.855 148.521V148.521Z" fill="#F0F0F0"/>
<path d="M118.627 43.748C118.628 40.157 117.92 36.601 116.542 33.2831C115.165 29.9651 113.146 26.9502 110.6 24.4106C108.054 21.871 105.032 19.8564 101.705 18.4819C98.3782 17.1075 94.8126 16.4 91.2116 16.4H65.2425C57.9692 16.4 50.9937 19.2813 45.8507 24.4101C40.7077 29.5388 37.8184 36.4948 37.8184 43.748H118.627V43.748Z" fill="#FAFAFA"/>
<path d="M118.636 60.5809H82.9883V164.435H118.636V60.5809Z" fill="#F5F5F5"/>
<path d="M73.466 60.5809H37.8184V164.435H73.466V60.5809Z" fill="#F5F5F5"/>
<path d="M50.7845 112.045H36.1423C35.5415 112.045 34.9653 111.807 34.5405 111.383C34.1156 110.959 33.877 110.385 33.877 109.786C33.8794 109.187 34.1188 108.614 34.5432 108.191C34.9675 107.767 35.5423 107.529 36.1423 107.526H50.7845C51.3846 107.529 51.9594 107.767 52.3837 108.191C52.808 108.614 53.0475 109.187 53.0499 109.786C53.0499 110.385 52.8112 110.959 52.3864 111.383C51.9615 111.807 51.3853 112.045 50.7845 112.045V112.045Z" fill="#E0E0E0"/>
<path d="M201.599 114L336.058 114V107.278L201.599 107.278V114Z" fill="#E6E6E6"/>
<path d="M198.072 114L325.606 114V107.278L198.072 107.278V114Z" fill="#F5F5F5"/>
<path d="M228.654 110.355C226.371 86.7719 224.778 48.5141 226.012 35.7126C226.037 35.4944 226.107 35.2839 226.218 35.0942C226.329 34.9045 226.478 34.7399 226.656 34.6106C226.894 34.4367 227.176 34.333 227.47 34.3112C227.764 34.2894 228.059 34.3504 228.32 34.4873C228.581 34.6241 228.798 34.8313 228.947 35.0853C229.095 35.3393 229.17 35.6298 229.161 35.9238C228.949 42.2695 228.701 58.1199 230.082 85.4587C230.754 99.0683 231.721 108.417 231.058 110.355H228.654Z" fill="#E6E6E6"/>
<path d="M220.146 56.0077C213.644 48.808 200.374 43.6929 186.856 43.7204C181.542 43.7204 203.008 52.0865 211.931 61.3157C218.866 68.4787 226.666 80.5364 229.345 87.2311C227.596 73.1347 226.675 63.1983 220.146 56.0077Z" fill="#E6E6E6"/>
<path d="M233.029 58.2026C238.425 50.709 250.876 44.9418 264.339 44.2898C269.625 44.0327 249.494 53.4731 241.98 63.0789C236.15 70.5633 230.165 82.97 228.516 89.7657C228.139 75.6509 227.595 65.6962 233.029 58.2026Z" fill="#E6E6E6"/>
<path d="M219.86 29.7346C214.335 23.6368 203.118 19.3023 191.662 19.3298C187.169 19.3298 205.338 26.4194 212.898 34.2252C218.773 40.2954 225.395 50.5072 227.632 56.1734C226.187 44.2534 225.358 35.8231 219.86 29.7346Z" fill="#E6E6E6"/>
<path d="M230.763 38.7431C235.368 32.3974 245.875 27.5119 257.294 26.9609C261.77 26.7497 244.724 34.7116 238.361 42.8756C233.425 49.2121 228.351 59.7178 226.96 65.4758C226.675 53.5191 226.196 45.0888 230.763 38.7431Z" fill="#E6E6E6"/>
<path d="M229.566 136.068C226.137 136.069 222.838 134.761 220.344 132.413C217.851 130.065 216.353 126.855 216.158 123.441L214.97 102.944H244.172L242.984 123.441C242.788 126.857 241.289 130.068 238.794 132.416C236.299 134.765 232.997 136.071 229.566 136.068V136.068Z" fill="#E6E6E6"/>
<path d="M246.059 107.601H213.082L212.134 99.0684H246.999L246.059 107.601Z" fill="#E6E6E6"/>
<path d="M0.411621 6.58317C0.416478 5.05512 1.02734 3.59104 2.11085 2.51054C3.19435 1.43004 4.66251 0.820883 6.19482 0.81604H264.247C265.779 0.820883 267.247 1.43004 268.331 2.51054C269.414 3.59104 270.025 5.05512 270.03 6.58317V25.1427H0.411621V6.58317Z" fill="#141F31"/>
<path d="M47.1649 17.8426C46.1996 17.8426 45.256 17.5572 44.4533 17.0223C43.6507 16.4875 43.0251 15.7274 42.6557 14.838C42.2863 13.9487 42.1896 12.97 42.378 12.0259C42.5663 11.0818 43.0311 10.2145 43.7137 9.53384C44.3963 8.85315 45.2659 8.3896 46.2127 8.2018C47.1595 8.014 48.1408 8.11038 49.0327 8.47877C49.9245 8.84715 50.6868 9.47099 51.2231 10.2714C51.7594 11.0718 52.0456 12.0128 52.0456 12.9754C52.0456 14.2663 51.5314 15.5043 50.6161 16.417C49.7008 17.3298 48.4593 17.8426 47.1649 17.8426V17.8426ZM47.1649 9.12763C46.4018 9.12763 45.6557 9.3533 45.0212 9.7761C44.3867 10.1989 43.8921 10.7999 43.6001 11.5029C43.308 12.206 43.2316 12.9797 43.3805 13.7261C43.5294 14.4725 43.8969 15.1581 44.4365 15.6963C44.9761 16.2344 45.6637 16.6008 46.4121 16.7493C47.1606 16.8978 47.9364 16.8216 48.6415 16.5304C49.3466 16.2391 49.9492 15.7459 50.3732 15.1132C50.7971 14.4804 51.0234 13.7365 51.0234 12.9754C51.021 11.9557 50.6137 10.9784 49.8906 10.2573C49.1675 9.53622 48.1875 9.13006 47.1649 9.12763Z" fill="#F0F0F0"/>
<path d="M31.6664 17.8426C30.7015 17.8408 29.7588 17.5538 28.9574 17.0179C28.156 16.482 27.5318 15.7212 27.1638 14.8317C26.7958 13.9421 26.7005 12.9638 26.8898 12.0203C27.0792 11.0768 27.5448 10.2104 28.2277 9.5306C28.9107 8.85083 29.7803 8.38819 30.7268 8.20113C31.6734 8.01407 32.6542 8.111 33.5455 8.47965C34.4368 8.8483 35.1986 9.47214 35.7345 10.2723C36.2703 11.0725 36.5564 12.0132 36.5564 12.9754C36.5564 13.6154 36.4298 14.249 36.184 14.8401C35.9381 15.4313 35.5778 15.9682 35.1236 16.4203C34.6694 16.8724 34.1303 17.2307 33.537 17.4747C32.9438 17.7188 32.3082 17.8438 31.6664 17.8426V17.8426ZM31.6664 9.12762C30.9037 9.12944 30.1586 9.35665 29.5253 9.78056C28.8919 10.2045 28.3988 10.806 28.1082 11.5093C27.8176 12.2125 27.7425 12.9859 27.8924 13.7317C28.0423 14.4775 28.4105 15.1623 28.9505 15.6995C29.4905 16.2367 30.178 16.6022 30.9263 16.75C31.6745 16.8977 32.4498 16.821 33.1544 16.5295C33.8589 16.238 34.461 15.7448 34.8845 15.1122C35.3081 14.4796 35.5342 13.7361 35.5342 12.9754C35.5317 11.9541 35.1232 10.9754 34.3981 10.2541C33.673 9.53272 32.6906 9.12762 31.6664 9.12762Z" fill="#F0F0F0"/>
<path d="M16.1772 17.8426C15.2123 17.8408 14.2695 17.5538 13.4681 17.0179C12.6667 16.482 12.0425 15.7212 11.6745 14.8317C11.3065 13.9421 11.2112 12.9638 11.4006 12.0203C11.5899 11.0768 12.0555 10.2104 12.7384 9.5306C13.4214 8.85083 14.2911 8.38819 15.2376 8.20113C16.1841 8.01407 17.165 8.111 18.0563 8.47965C18.9476 8.8483 19.7093 9.47214 20.2452 10.2723C20.7811 11.0725 21.0671 12.0132 21.0671 12.9754C21.0671 13.6154 20.9406 14.249 20.6947 14.8401C20.4489 15.4313 20.0885 15.9682 19.6343 16.4203C19.1801 16.8724 18.641 17.2307 18.0478 17.4747C17.4546 17.7188 16.8189 17.8438 16.1772 17.8426V17.8426ZM16.1772 9.12762C15.414 9.12762 14.668 9.35329 14.0335 9.77609C13.399 10.1989 12.9044 10.7998 12.6124 11.5029C12.3203 12.206 12.2439 12.9797 12.3928 13.7261C12.5417 14.4725 12.9092 15.1581 13.4488 15.6962C13.9884 16.2344 14.6759 16.6008 15.4244 16.7493C16.1729 16.8978 16.9487 16.8216 17.6538 16.5304C18.3588 16.2391 18.9614 15.7459 19.3854 15.1132C19.8094 14.4804 20.0357 13.7365 20.0357 12.9754C20.0333 11.9557 19.626 10.9784 18.9029 10.2573C18.1798 9.53622 17.1998 9.13005 16.1772 9.12762Z" fill="#F0F0F0"/>
<path d="M264.247 202.225H6.19482C4.66251 202.22 3.19435 201.611 2.11085 200.53C1.02734 199.45 0.416478 197.986 0.411621 196.458V25.1427H270.03V196.458C270.025 197.986 269.414 199.45 268.331 200.53C267.247 201.611 265.779 202.22 264.247 202.225Z" fill="#5B5CEE"/>
<path d="M268.391 30.0742H2.05078V181.902H268.391V30.0742Z" fill="white"/>
<path d="M120.063 43.0869H18.6082C16.6705 43.0869 15.0996 44.6534 15.0996 46.5858V60.0944C15.0996 62.0268 16.6705 63.5933 18.6082 63.5933H120.063C122 63.5933 123.571 62.0268 123.571 60.0944V46.5858C123.571 44.6534 122 43.0869 120.063 43.0869Z" fill="#5B5CEE"/>
<path d="M251.833 44.0052C252.52 44.0052 253.178 44.2771 253.663 44.7611C254.148 45.245 254.421 45.9014 254.421 46.5858V60.0944C254.421 60.7788 254.148 61.4352 253.663 61.9191C253.178 62.4031 252.52 62.675 251.833 62.675H150.379C149.692 62.675 149.034 62.4031 148.549 61.9191C148.064 61.4352 147.791 60.7788 147.791 60.0944V46.5858C147.791 45.9014 148.064 45.245 148.549 44.7611C149.034 44.2771 149.692 44.0052 150.379 44.0052H251.833ZM251.833 43.0869H150.379C149.449 43.0893 148.558 43.4587 147.9 44.1144C147.243 44.77 146.873 45.6586 146.87 46.5858V60.0944C146.87 61.0224 147.24 61.9123 147.898 62.5685C148.556 63.2247 149.448 63.5933 150.379 63.5933H251.833C252.764 63.5933 253.656 63.2247 254.314 62.5685C254.972 61.9123 255.342 61.0224 255.342 60.0944V46.5858C255.339 45.6586 254.969 44.77 254.312 44.1144C253.654 43.4587 252.763 43.0893 251.833 43.0869V43.0869Z" fill="#5B5CEE"/>
<path d="M33.1307 72.7766C36.5147 72.7766 39.8228 73.7773 42.6366 75.6522C45.4503 77.527 47.6434 80.1919 48.9384 83.3096C50.2334 86.4274 50.5723 89.8582 49.9121 93.168C49.2519 96.4778 47.6223 99.5181 45.2294 101.904C42.8365 104.291 39.7877 105.916 36.4687 106.574C33.1496 107.232 29.7094 106.894 26.5829 105.603C23.4564 104.312 20.7842 102.125 18.9041 99.3187C17.024 96.5128 16.0205 93.2139 16.0205 89.8392C16.0254 85.3154 17.8296 80.9783 21.0373 77.7795C24.2451 74.5807 28.5943 72.7815 33.1307 72.7766V72.7766ZM33.1307 71.8583C29.5645 71.8583 26.0783 72.9128 23.1132 74.8886C20.148 76.8644 17.8369 79.6726 16.4722 82.9582C15.1074 86.2438 14.7503 89.8592 15.4461 93.3471C16.1418 96.8351 17.8591 100.039 20.3808 102.554C22.9025 105.068 26.1153 106.781 29.613 107.475C33.1107 108.168 36.7361 107.812 40.0308 106.451C43.3256 105.091 46.1417 102.786 48.1229 99.8289C50.1042 96.872 51.1617 93.3955 51.1617 89.8392C51.1617 85.0704 49.262 80.4969 45.8805 77.1248C42.4991 73.7527 37.9128 71.8583 33.1307 71.8583V71.8583Z" fill="#5B5CEE"/>
<path opacity="0.4" d="M46.1801 96.9105C44.9026 99.2592 43.0129 101.22 40.7104 102.587C38.408 103.954 35.7783 104.675 33.0988 104.675C30.4194 104.675 27.7897 103.954 25.4872 102.587C23.1848 101.22 21.2951 99.2592 20.0176 96.9105C23.8893 94.3295 28.4417 92.9518 33.0988 92.9518C37.7559 92.9518 42.3084 94.3295 46.1801 96.9105Z" fill="#5B5CEE"/>
<path opacity="0.4" d="M33.1309 91.3728C36.7928 91.3728 39.7613 88.4125 39.7613 84.7608C39.7613 81.1091 36.7928 78.1488 33.1309 78.1488C29.469 78.1488 26.5005 81.1091 26.5005 84.7608C26.5005 88.4125 29.469 91.3728 33.1309 91.3728Z" fill="#5B5CEE"/>
<path opacity="0.4" d="M246.069 99.0867H70.5654C68.1059 99.0867 65.7472 98.1124 64.0081 96.3782C62.269 94.6439 61.292 92.2918 61.292 89.8391C61.292 88.6252 61.5319 87.4231 61.9981 86.3016C62.4642 85.1802 63.1474 84.1613 64.0087 83.3033C64.8699 82.4453 65.8922 81.765 67.0173 81.3013C68.1423 80.8376 69.348 80.5995 70.5654 80.6007H246.069C247.286 80.5995 248.492 80.8376 249.617 81.3013C250.742 81.765 251.764 82.4453 252.625 83.3033C253.487 84.1613 254.17 85.1802 254.636 86.3016C255.102 87.4231 255.342 88.6252 255.342 89.8391V89.8391C255.342 92.2918 254.365 94.6439 252.626 96.3782C250.887 98.1124 248.528 99.0867 246.069 99.0867Z" fill="#5B5CEE"/>
<path d="M33.1307 121.806C36.5147 121.806 39.8228 122.807 42.6366 124.682C45.4503 126.557 47.6434 129.222 48.9384 132.339C50.2334 135.457 50.5723 138.888 49.9121 142.198C49.2519 145.508 47.6223 148.548 45.2294 150.934C42.8365 153.32 39.7877 154.945 36.4687 155.604C33.1496 156.262 29.7094 155.924 26.5829 154.633C23.4564 153.341 20.7842 151.154 18.9041 148.349C17.024 145.543 16.0205 142.244 16.0205 138.869C16.023 134.344 17.8264 130.006 21.0347 126.807C24.2429 123.607 28.5935 121.809 33.1307 121.806V121.806ZM33.1307 120.888C29.5645 120.888 26.0783 121.943 23.1132 123.918C20.148 125.894 17.8369 128.702 16.4722 131.988C15.1074 135.274 14.7503 138.889 15.4461 142.377C16.1418 145.865 17.8591 149.069 20.3808 151.583C22.9025 154.098 26.1153 155.811 29.613 156.504C33.1107 157.198 36.7361 156.842 40.0308 155.481C43.3256 154.12 46.1417 151.816 48.1229 148.859C50.1042 145.902 51.1617 142.425 51.1617 138.869C51.1617 134.1 49.262 129.527 45.8805 126.155C42.4991 122.782 37.9128 120.888 33.1307 120.888V120.888Z" fill="#5B5CEE"/>
<path opacity="0.4" d="M46.1801 145.885C44.9026 148.234 43.0129 150.195 40.7104 151.562C38.408 152.928 35.7783 153.65 33.0988 153.65C30.4194 153.65 27.7897 152.928 25.4872 151.562C23.1848 150.195 21.2951 148.234 20.0176 145.885C23.8915 143.31 28.4431 141.936 33.0988 141.936C37.7546 141.936 42.3062 143.31 46.1801 145.885V145.885Z" fill="#5B5CEE"/>
<path opacity="0.4" d="M33.1309 140.357C36.7928 140.357 39.7613 137.396 39.7613 133.745C39.7613 130.093 36.7928 127.133 33.1309 127.133C29.469 127.133 26.5005 130.093 26.5005 133.745C26.5005 137.396 29.469 140.357 33.1309 140.357Z" fill="#5B5CEE"/>
<path opacity="0.4" d="M70.5654 129.575H246.069C248.528 129.575 250.887 130.55 252.626 132.284C254.365 134.018 255.342 136.37 255.342 138.823C255.342 141.276 254.365 143.628 252.626 145.362C250.887 147.096 248.528 148.071 246.069 148.071H70.5654C68.1059 148.071 65.7472 147.096 64.0081 145.362C62.269 143.628 61.292 141.276 61.292 138.823C61.292 136.373 62.268 134.023 64.0054 132.29C65.7428 130.558 68.0991 129.585 70.5562 129.585L70.5654 129.575Z" fill="#5B5CEE"/>
<path opacity="0.1" d="M202.842 147.795C202.841 153.413 203.393 159.017 204.49 164.527C199.34 167.577 195.072 171.908 192.104 177.096C189.135 182.284 187.568 188.152 187.555 194.125C187.536 196.852 187.846 199.571 188.476 202.225H264.247C265.779 202.22 267.247 201.611 268.331 200.53C269.414 199.45 270.025 197.986 270.03 196.458V64.2178C250.977 68.4672 233.942 79.0591 221.73 94.25C209.518 109.441 202.856 128.326 202.842 147.795V147.795Z" fill="#141F31"/>
<path d="M342.829 205.427C372.747 175.592 372.747 127.221 342.829 97.3864C312.912 67.5519 264.406 67.5519 234.488 97.3864C204.57 127.221 204.57 175.592 234.488 205.427C264.406 235.261 312.912 235.261 342.829 205.427Z" fill="#5B5CEE"/>
<path d="M338.4 200.559C365.675 173.36 365.675 129.263 338.4 102.064C311.126 74.8655 266.906 74.8655 239.631 102.064C212.357 129.263 212.357 173.36 239.631 200.559C266.906 227.758 311.126 227.758 338.4 200.559Z" fill="white"/>
<path d="M247.012 194.451C249.249 180.709 239.891 167.76 226.11 165.529C212.329 163.299 199.345 172.631 197.108 186.373C194.871 200.115 204.229 213.064 218.009 215.294C231.79 217.525 244.775 208.193 247.012 194.451Z" fill="#141F31"/>
<path d="M235.939 188.037H224.409V176.539C224.409 175.913 224.16 175.313 223.716 174.87C223.272 174.428 222.67 174.179 222.043 174.179C221.415 174.179 220.813 174.428 220.369 174.87C219.925 175.313 219.676 175.913 219.676 176.539V188.037H208.146C207.519 188.037 206.917 188.285 206.473 188.728C206.029 189.171 205.78 189.771 205.78 190.397C205.78 191.023 206.029 191.623 206.473 192.066C206.917 192.508 207.519 192.757 208.146 192.757H219.676V204.254C219.676 204.564 219.737 204.871 219.856 205.158C219.975 205.444 220.149 205.704 220.369 205.923C220.589 206.142 220.85 206.316 221.137 206.435C221.424 206.554 221.732 206.615 222.043 206.615C222.354 206.615 222.661 206.554 222.948 206.435C223.236 206.316 223.496 206.142 223.716 205.923C223.936 205.704 224.11 205.444 224.229 205.158C224.348 204.871 224.409 204.564 224.409 204.254V192.757H235.939C236.567 192.757 237.169 192.508 237.612 192.066C238.056 191.623 238.306 191.023 238.306 190.397C238.306 189.771 238.056 189.171 237.612 188.728C237.169 188.285 236.567 188.037 235.939 188.037V188.037Z" fill="white"/>
<mask id="mask0" mask-type="alpha" maskUnits="userSpaceOnUse" x="219" y="81" width="141" height="141">
<path d="M338.914 200.674C366.188 173.475 366.188 129.378 338.914 102.179C311.639 74.9804 267.419 74.9804 240.144 102.179C212.87 129.378 212.87 173.475 240.144 200.674C267.419 227.872 311.639 227.872 338.914 200.674Z" fill="white"/>
</mask>
<g mask="url(#mask0)">
<path d="M274.445 166.603C274.445 166.603 277.641 174.711 276.766 180.506C275.891 186.301 272.695 189.497 265.715 192.968C258.735 196.439 247.703 201.371 246.533 204.851C245.363 208.332 246.533 224.604 246.533 224.604H331.964C331.964 224.604 329.929 207.753 325.573 201.949C321.217 196.145 303.785 191.526 298.867 188.33C293.95 185.134 295.966 166.887 295.966 166.887C295.966 166.887 282.871 170.937 274.445 166.603Z" fill="white" stroke="#141F31" stroke-linecap="round" stroke-linejoin="round"/>
<path d="M264.408 193.647C262.824 194.419 261.083 195.263 259.343 196.127C262.373 205.31 259.573 216.982 256.985 224.595H317.488C316.533 222.577 315.885 220.43 315.563 218.222C314.578 211.325 315.232 200.911 315.692 195.539C313.648 194.621 311.502 193.748 309.421 192.922C306.391 200.076 298.812 213.97 286.095 212.253C273.488 210.572 266.94 199.405 264.408 193.647Z" fill="#141F31" stroke="#141F31" stroke-linecap="round" stroke-linejoin="round"/>
<path d="M259.914 171.24C259.914 171.24 261.645 175.584 268.091 176.447C274.537 177.31 271.351 167.98 290.395 167.328C303.803 166.869 290.469 177.889 293.379 178.476C296.289 179.064 303.509 178.183 307.616 168.623C311.723 159.063 312.552 134.718 304.126 126.894C295.699 119.07 270.973 119.354 267.225 126.315C263.477 133.276 266.056 145.435 262.621 152.102C259.186 158.769 257.584 167.76 259.914 171.24Z" fill="#141F31" stroke="#141F31" stroke-linecap="round" stroke-linejoin="round"/>
<path d="M268.091 148.897C268.091 148.897 265.77 142.809 264.896 147.161C264.021 151.514 264.896 155.849 266.931 157.594C268.966 159.339 270.126 159.036 270.126 159.036L268.091 148.897Z" fill="white" stroke="#141F31" stroke-linecap="round" stroke-linejoin="round"/>
<path d="M277.235 117.886C277.235 117.886 272.327 119.107 269.049 128.089C265.77 137.07 268.33 160.671 270.375 163.123C272.419 165.575 279.225 175.759 285.772 176.163C289.944 176.42 300.405 166.861 302.044 161.966C303.683 157.071 304.254 135.031 303.02 129.723C301.786 124.415 291.565 112.165 277.235 117.886Z" fill="white" stroke="#141F31" stroke-linecap="round" stroke-linejoin="round"/>
<path d="M280.229 146.895C280.229 147.161 280.149 147.42 280.001 147.641C279.853 147.862 279.643 148.034 279.396 148.135C279.15 148.236 278.879 148.262 278.618 148.21C278.357 148.157 278.118 148.029 277.93 147.84C277.742 147.652 277.615 147.412 277.564 147.151C277.513 146.89 277.541 146.621 277.645 146.376C277.748 146.131 277.921 145.922 278.144 145.776C278.366 145.63 278.627 145.553 278.893 145.554C279.069 145.554 279.244 145.589 279.406 145.657C279.569 145.724 279.717 145.823 279.841 145.948C279.965 146.072 280.063 146.22 280.13 146.383C280.196 146.545 280.23 146.72 280.229 146.895V146.895Z" fill="#141F31"/>
<path d="M293.59 146.895C293.59 147.16 293.512 147.42 293.364 147.64C293.216 147.861 293.006 148.033 292.76 148.134C292.515 148.236 292.244 148.262 291.984 148.21C291.723 148.159 291.483 148.031 291.295 147.843C291.107 147.656 290.979 147.417 290.927 147.157C290.875 146.897 290.902 146.627 291.004 146.382C291.105 146.137 291.278 145.928 291.499 145.78C291.72 145.633 291.98 145.554 292.246 145.554C292.423 145.553 292.598 145.587 292.762 145.654C292.925 145.721 293.074 145.82 293.199 145.944C293.324 146.069 293.423 146.217 293.491 146.381C293.558 146.544 293.592 146.719 293.59 146.895V146.895Z" fill="#141F31"/>
<path d="M280.56 160.661C280.56 160.661 284.915 163.104 291.159 160.661" stroke="#141F31" stroke-linecap="round" stroke-linejoin="round"/>
<path d="M288.443 151.725C288.443 151.725 290.349 154.159 288.443 155.519C287.61 156.087 286.634 156.412 285.626 156.459C284.618 156.507 283.616 156.273 282.733 155.785C281.103 154.977 283.01 151.45 283.01 151.45" stroke="#141F31" stroke-linecap="round" stroke-linejoin="round"/>
<path d="M281.232 140.752C280.409 139.864 279.342 139.238 278.165 138.952C276.987 138.666 275.751 138.733 274.611 139.144C270.476 140.522 270.273 143.948 270.273 143.948C270.273 143.948 272.787 140.752 275.034 140.715C277.281 140.678 280.477 143.195 281.232 140.752Z" fill="#141F31"/>
<path d="M288.719 141.055C289.489 140.125 290.519 139.442 291.677 139.094C292.836 138.746 294.072 138.748 295.229 139.098C299.438 140.247 299.834 143.691 299.834 143.691C299.834 143.691 297.136 140.641 294.898 140.724C292.66 140.807 289.603 143.461 288.719 141.055Z" fill="#141F31"/>
<path d="M281.416 125.168C281.416 125.168 274.151 123.184 271.241 127.776C268.331 132.368 269.795 141.395 265.43 149.504C261.065 157.613 263.689 170.074 264.269 171.819C264.85 173.564 260.494 175.878 258.173 167.182C255.853 158.485 262.529 150.082 263.109 141.101C263.689 132.12 261.645 122.266 270.66 117.05C279.676 111.834 281.416 115.02 281.416 115.02V125.168Z" fill="#141F31" stroke="#141F31" stroke-linecap="round" stroke-linejoin="round"/>
<path d="M317.156 138.795C315.416 133.579 315.701 124.01 308.73 116.186C304.356 111.282 295.994 108.435 289.133 108.27C288.028 108.042 286.896 107.977 285.772 108.077C274.721 108.995 267.759 114.744 269.795 119.097C271.83 123.45 281.416 125.186 281.416 125.186L282.871 125.764C282.822 125.273 282.804 124.779 282.816 124.286C284.382 123.56 287.052 123.083 289.842 126.049C294.7 131.471 297.388 138.485 297.394 145.756C297.108 156.776 302.624 160.826 302.624 165.464C302.624 170.101 294.493 175.896 292.743 177.347C290.809 178.954 300.11 179.744 300.69 179.707C310.056 179.128 316.281 173.031 320.186 164.894C324.781 155.325 320.158 147.767 317.156 138.795Z" fill="#141F31" stroke="#141F31" stroke-linecap="round" stroke-linejoin="round"/>
<path d="M306.603 173.435C306.17 174.142 305.611 174.765 304.954 175.272" stroke="white" stroke-linecap="round" stroke-linejoin="round"/>
<path d="M281.416 124.002C281.416 124.002 274.445 120.237 280.256 117.344C286.067 114.451 296.832 123.423 299.429 131.826C302.026 140.229 300.009 149.798 303.794 156.456C305.58 159.624 307.901 164.877 307.726 169.312" stroke="white" stroke-linecap="round" stroke-linejoin="round"/>
<path d="M276.232 118.85C276.011 118.051 276.453 116.903 278.506 115.314C283.737 111.255 293.333 113.285 298.269 118.501C303.205 123.717 304.954 130.09 305.534 137.62C306.115 145.151 307.275 149.816 311.373 154.408C315.471 158.999 317.764 163.967 313.694 169.762" stroke="white" stroke-linecap="round" stroke-linejoin="round"/>
<path d="M275.891 124.003C275.891 124.003 267.759 120.531 272.41 116.178" stroke="white" stroke-linecap="round" stroke-linejoin="round"/>
<path d="M265.706 170.616C266.336 171.538 267.128 172.337 268.045 172.976" stroke="white" stroke-linecap="round" stroke-linejoin="round"/>
<path d="M263.984 152.984C263.984 152.984 261.939 161.644 264.37 168.044" stroke="white" stroke-linecap="round" stroke-linejoin="round"/>
<path d="M306.179 121.347C308.468 125.171 309.924 129.432 310.452 133.855C311.612 144.287 308.417 147.767 313.362 153.268C315.521 155.55 316.76 158.545 316.843 161.68" stroke="white" stroke-linecap="round" stroke-linejoin="round"/>
<path d="M302.625 116.472C302.625 116.472 303.048 116.903 303.693 117.721" stroke="white" stroke-linecap="round" stroke-linejoin="round"/>
</g>
</svg>
