<svg width="365" height="320" viewBox="0 0 365 320" fill="none" xmlns="http://www.w3.org/2000/svg">
<path d="M189.318 300.841L77.4956 96.8442L0.233887 122.974L25.293 171.667L23.7063 168.946L19.0118 170.504C18.5444 170.66 18.1164 170.916 17.7571 171.253C17.3978 171.59 17.1157 172.001 16.9302 172.457C16.7447 172.913 16.6601 173.404 16.6823 173.896C16.7045 174.388 16.833 174.87 17.0589 175.308L29.4147 199.317C30.2023 200.852 31.4585 202.097 33.0013 202.871C34.5442 203.645 36.2936 203.909 37.9962 203.623L41.4232 203.051L101.606 320L189.318 300.841Z" fill="#141F31"/>
<path d="M261.557 8.76437C260.355 9.4206 258.941 9.5738 257.627 9.19039C256.312 8.80698 255.203 7.91825 254.543 6.71905L251.679 1.49316L77.4956 96.8445L189.318 300.842L363.511 205.5L302.633 94.4426C301.977 93.243 301.824 91.8322 302.208 90.5199C302.591 89.2077 303.481 88.1012 304.68 87.4435C305.275 87.1178 305.8 86.6781 306.225 86.1496C306.65 85.621 306.967 85.014 307.157 84.3631C307.347 83.7122 307.407 83.0303 307.333 82.3563C307.259 81.6823 307.053 81.0294 306.727 80.435L268.561 10.8097C267.903 9.61113 266.795 8.72257 265.482 8.33909C264.169 7.95561 262.757 8.10856 261.557 8.76437V8.76437Z" fill="#5B5CEE" stroke="#141F31" stroke-linecap="round" stroke-linejoin="round"/>
<path d="M270.222 16.2914L128.756 66.6846L196.301 256.027L337.767 205.634L270.222 16.2914Z" fill="white" stroke="#141F31" stroke-linecap="round" stroke-linejoin="round"/>
<path d="M270.23 16.2983L128.764 66.6914L153.647 136.446L295.113 86.0524L270.23 16.2983Z" fill="white" stroke="#141F31" stroke-linecap="round" stroke-linejoin="round"/>
<path d="M259.279 87.961C269.843 81.2595 272.969 67.2699 266.263 56.7141C259.557 46.1584 245.557 43.0339 234.994 49.7353C224.43 56.4368 221.304 70.4265 228.01 80.9822C234.716 91.5379 248.716 94.6625 259.279 87.961Z" fill="#141F31" stroke="#141F31" stroke-linecap="round" stroke-linejoin="round"/>
<path d="M254.74 90.2018C257.881 89.0865 260.736 87.291 263.101 84.944C265.465 82.5969 267.282 79.7564 268.42 76.6258C264.486 67.8253 254.871 63.2374 246.215 66.3054C237.558 69.3733 233.023 79.0276 235.549 88.3254C238.412 90.032 241.617 91.0853 244.934 91.4096C248.252 91.734 251.6 91.3216 254.74 90.2018Z" fill="white" stroke="#141F31" stroke-linecap="round" stroke-linejoin="round"/>
<path d="M253.223 73.2427C257.975 69.0469 258.424 61.7956 254.225 57.0464C250.027 52.2972 242.77 51.8486 238.017 56.0444C233.265 60.2402 232.816 67.4916 237.015 72.2408C241.214 76.9899 248.47 77.4385 253.223 73.2427Z" fill="white" stroke="#141F31" stroke-linecap="round" stroke-linejoin="round"/>
<path d="M199.568 69.4512L150.06 87.0872L152.087 92.7702L201.595 75.1343L199.568 69.4512Z" fill="white" stroke="#141F31" stroke-linecap="round" stroke-linejoin="round"/>
<path d="M204.444 83.1048L154.936 100.741L156.963 106.424L206.472 88.7879L204.444 83.1048Z" fill="white" stroke="#141F31" stroke-linecap="round" stroke-linejoin="round"/>
<path d="M208.492 94.4681L158.983 112.104L159.999 114.95L209.507 97.314L208.492 94.4681Z" fill="#141F31"/>
<path d="M210.927 101.296L161.419 118.932L162.434 121.778L211.943 104.142L210.927 101.296Z" fill="#141F31"/>
<path d="M223.301 135.984L173.793 153.62L174.808 156.466L224.317 138.83L223.301 135.984Z" fill="#141F31"/>
<path d="M225.528 142.245L176.02 159.881L177.035 162.727L226.543 145.091L225.528 142.245Z" fill="#141F31"/>
<path d="M227.764 148.497L178.255 166.133L179.271 168.979L228.779 151.343L227.764 148.497Z" fill="#141F31"/>
<path d="M290.449 112.06L240.94 129.696L241.956 132.542L291.464 114.906L290.449 112.06Z" fill="#141F31"/>
<path d="M292.685 118.322L243.177 135.958L244.192 138.804L293.7 121.168L292.685 118.322Z" fill="#141F31"/>
<path d="M294.912 124.577L245.404 142.213L246.419 145.059L295.927 127.423L294.912 124.577Z" fill="#141F31"/>
<path d="M170.615 148.362L290.127 105.804" stroke="#141F31" stroke-linecap="round" stroke-linejoin="round"/>
<path d="M234.864 168.397L185.356 186.033L186.371 188.879L235.88 171.243L234.864 168.397Z" fill="#141F31"/>
<path d="M237.091 174.661L187.583 192.297L188.598 195.143L238.107 177.507L237.091 174.661Z" fill="#141F31"/>
<path d="M239.328 180.913L189.819 198.549L190.835 201.395L240.343 183.759L239.328 180.913Z" fill="#141F31"/>
<path d="M302.013 144.477L252.504 162.113L253.52 164.958L303.028 147.323L302.013 144.477Z" fill="#141F31"/>
<path d="M304.249 150.738L254.74 168.374L255.755 171.22L305.264 153.584L304.249 150.738Z" fill="#141F31"/>
<path d="M306.476 156.993L256.968 174.629L257.983 177.475L307.491 159.839L306.476 156.993Z" fill="#141F31"/>
<path d="M182.173 180.778L301.685 138.22" stroke="#141F31" stroke-linecap="round" stroke-linejoin="round"/>
<path d="M310.936 169.493L193.703 211.254L203.845 239.685L321.078 197.923L310.936 169.493Z" fill="#141F31" stroke="#141F31" stroke-linecap="round" stroke-linejoin="round"/>
<path d="M251.704 28.0098L113.674 87.1558L192.951 271.901L330.981 212.755L251.704 28.0098Z" fill="white" stroke="#141F31" stroke-linecap="round" stroke-linejoin="round"/>
<path d="M251.711 28.013L113.681 87.1589L142.886 155.219L280.917 96.0733L251.711 28.013Z" fill="white" stroke="#141F31" stroke-linecap="round" stroke-linejoin="round"/>
<path d="M251.107 94.0136C257.785 83.4404 254.622 69.4589 244.041 62.7851C233.46 56.1113 219.469 59.2725 212.79 69.8457C206.111 80.4189 209.275 94.4004 219.856 101.074C230.436 107.748 244.428 104.587 251.107 94.0136Z" fill="#141F31" stroke="#141F31" stroke-linecap="round" stroke-linejoin="round"/>
<path d="M240.882 102.746C243.946 101.435 246.683 99.4632 248.895 96.9718C251.107 94.4804 252.741 91.531 253.679 88.3348C249.21 79.8064 239.323 75.8189 230.883 79.4404C222.442 83.062 218.517 92.9602 221.616 102.08C224.58 103.602 227.844 104.45 231.174 104.566C234.505 104.681 237.82 104.059 240.882 102.746V102.746Z" fill="white" stroke="#141F31" stroke-linecap="round" stroke-linejoin="round"/>
<path d="M238.006 86.1754C242.643 81.8527 242.895 74.5919 238.57 69.9579C234.244 65.324 226.978 65.0717 222.34 69.3944C217.703 73.7172 217.451 80.978 221.776 85.6119C226.102 90.2459 233.368 90.4982 238.006 86.1754Z" fill="white" stroke="#141F31" stroke-linecap="round" stroke-linejoin="round"/>
<path d="M184.517 85.4937L136.21 106.193L138.59 111.738L186.896 91.0387L184.517 85.4937Z" fill="white" stroke="#141F31" stroke-linecap="round" stroke-linejoin="round"/>
<path d="M190.234 98.8086L141.928 119.508L144.307 125.053L192.614 104.354L190.234 98.8086Z" fill="white" stroke="#141F31" stroke-linecap="round" stroke-linejoin="round"/>
<path d="M194.998 109.9L146.692 130.6L147.883 133.376L196.19 112.677L194.998 109.9Z" fill="#141F31"/>
<path d="M197.854 116.559L149.548 137.258L150.739 140.035L199.046 119.336L197.854 116.559Z" fill="#141F31"/>
<path d="M212.382 150.405L164.076 171.104L165.267 173.881L213.574 153.181L212.382 150.405Z" fill="#141F31"/>
<path d="M215.001 156.507L166.694 177.206L167.886 179.983L216.192 159.283L215.001 156.507Z" fill="#141F31"/>
<path d="M217.612 162.621L169.306 183.32L170.497 186.097L218.804 165.398L217.612 162.621Z" fill="#141F31"/>
<path d="M277.893 122.343L229.587 143.042L230.778 145.819L279.085 125.119L277.893 122.343Z" fill="#141F31"/>
<path d="M280.509 128.436L232.202 149.135L233.394 151.912L281.7 131.213L280.509 128.436Z" fill="#141F31"/>
<path d="M283.137 134.547L234.831 155.246L236.023 158.023L284.329 137.324L283.137 134.547Z" fill="#141F31"/>
<path d="M160.569 166.057L277.18 116.096" stroke="#141F31" stroke-linecap="round" stroke-linejoin="round"/>
<path d="M225.949 182.038L177.643 202.737L178.834 205.514L227.14 184.814L225.949 182.038Z" fill="#141F31"/>
<path d="M228.574 188.131L180.268 208.83L181.459 211.607L229.766 190.908L228.574 188.131Z" fill="#141F31"/>
<path d="M231.193 194.242L182.887 214.941L184.078 217.718L232.385 197.019L231.193 194.242Z" fill="#141F31"/>
<path d="M291.474 153.963L243.168 174.663L244.36 177.439L292.666 156.74L291.474 153.963Z" fill="#141F31"/>
<path d="M294.09 160.056L245.783 180.756L246.975 183.532L295.281 162.833L294.09 160.056Z" fill="#141F31"/>
<path d="M296.7 166.171L248.394 186.871L249.586 189.647L297.892 168.948L296.7 166.171Z" fill="#141F31"/>
<path d="M174.136 197.684L290.747 147.724" stroke="#141F31" stroke-linecap="round" stroke-linejoin="round"/>
<path d="M301.943 178.369L187.556 227.383L199.46 255.123L313.847 206.108L301.943 178.369Z" fill="#141F31" stroke="#141F31" stroke-linecap="round" stroke-linejoin="round"/>
<path d="M220.14 26.788L94.1699 108.504L203.699 277.107L329.67 195.391L220.14 26.788Z" fill="white" stroke="#141F31" stroke-linecap="round" stroke-linejoin="round"/>
<path d="M220.145 26.796L94.1748 108.512L134.526 170.626L260.496 88.9097L220.145 26.796Z" fill="white" stroke="#141F31" stroke-linecap="round" stroke-linejoin="round"/>
<path d="M213.461 105.602C225.811 103.596 234.196 91.966 232.189 79.6246C230.182 67.2831 218.543 58.9042 206.193 60.9097C193.842 62.9152 185.458 74.5457 187.464 86.8871C189.471 99.2286 201.11 107.607 213.461 105.602Z" fill="#141F31" stroke="#141F31" stroke-linecap="round" stroke-linejoin="round"/>
<path d="M222.179 102.183C224.977 100.371 227.339 97.9644 229.097 95.134C230.855 92.3037 231.965 89.1201 232.348 85.811C226.489 78.1551 216.067 75.9222 208.368 80.9135C200.669 85.9048 198.472 96.3378 203.082 104.801C206.262 105.799 209.623 106.082 212.924 105.629C216.226 105.177 219.387 104 222.179 102.183V102.183Z" fill="#5B5CEE" stroke="#141F31" stroke-linecap="round" stroke-linejoin="round"/>
<path d="M214.826 88.1855C219.654 84.0757 220.233 76.8336 216.12 72.0098C212.008 67.1859 204.76 66.6071 199.933 70.7168C195.106 74.8266 194.526 82.0687 198.639 86.8925C202.752 91.7164 209.999 92.2952 214.826 88.1855Z" fill="white" stroke="#141F31" stroke-linecap="round" stroke-linejoin="round"/>
<path d="M163.694 94.8399L119.609 123.438L122.897 128.498L166.982 99.9L163.694 94.8399Z" fill="white" stroke="#141F31" stroke-linecap="round" stroke-linejoin="round"/>
<path d="M171.586 106.993L127.501 135.59L130.788 140.65L174.873 112.053L171.586 106.993Z" fill="white" stroke="#141F31" stroke-linecap="round" stroke-linejoin="round"/>
<path d="M177.376 118.366L133.227 146.728L134.859 149.265L179.009 120.904L177.376 118.366Z" fill="#141F31"/>
<path d="M182.118 123.189L138.033 151.787L139.679 154.321L183.764 125.723L182.118 123.189Z" fill="#141F31"/>
<path d="M202.189 154.076L158.104 182.674L159.751 185.208L203.836 156.61L202.189 154.076Z" fill="#141F31"/>
<path d="M205.808 159.655L161.723 188.253L163.369 190.787L207.454 162.189L205.808 159.655Z" fill="#141F31"/>
<path d="M209.425 165.234L165.34 193.831L166.986 196.365L211.071 167.768L209.425 165.234Z" fill="#141F31"/>
<path d="M261.985 115.285L217.9 143.882L219.547 146.416L263.632 117.819L261.985 115.285Z" fill="#141F31"/>
<path d="M265.611 120.858L221.526 149.456L223.172 151.99L267.257 123.392L265.611 120.858Z" fill="#141F31"/>
<path d="M269.229 126.437L225.145 155.034L226.791 157.568L270.876 128.971L269.229 126.437Z" fill="#141F31"/>
<path d="M153.809 178.254L260.223 109.21" stroke="#141F31" stroke-linecap="round" stroke-linejoin="round"/>
<path d="M220.943 182.95L176.858 211.548L178.504 214.082L222.589 185.484L220.943 182.95Z" fill="#141F31"/>
<path d="M224.556 188.521L180.471 217.119L182.117 219.653L226.202 191.055L224.556 188.521Z" fill="#141F31"/>
<path d="M228.182 194.086L184.097 222.683L185.743 225.217L229.828 196.619L228.182 194.086Z" fill="#141F31"/>
<path d="M280.739 144.159L236.654 172.756L238.3 175.29L282.385 146.693L280.739 144.159Z" fill="#141F31"/>
<path d="M284.36 149.724L240.275 178.322L241.921 180.856L286.006 152.258L284.36 149.724Z" fill="#141F31"/>
<path d="M287.969 155.303L243.884 183.901L245.53 186.435L289.615 157.837L287.969 155.303Z" fill="#141F31"/>
<path d="M172.559 207.114L278.973 138.079" stroke="#141F31" stroke-linecap="round" stroke-linejoin="round"/>
<path d="M295.222 166.44L190.83 234.159L207.276 259.475L311.668 191.756L295.222 166.44Z" fill="#141F31" stroke="#141F31" stroke-linecap="round" stroke-linejoin="round"/>
<path d="M77.4954 96.8444L10.7212 45.186L50.4552 119.671C51.3941 121.473 48.906 121.81 46.371 120.215C43.8078 118.611 41.2822 118.968 42.2868 120.788L62.8956 158.223C63.2231 158.756 63.654 159.219 64.1631 159.583L74.228 167.164C74.7516 167.533 75.1901 168.01 75.5143 168.562L117.211 247.701L189.327 300.842L77.4954 96.8444Z" fill="#5B5CEE" stroke="#141F31" stroke-linecap="round" stroke-linejoin="round"/>
<path opacity="0.25" d="M77.4954 96.8444L10.7212 45.186L50.4552 119.671C51.3941 121.473 48.906 121.81 46.371 120.215C43.8078 118.611 41.2822 118.968 42.2868 120.788L62.8956 158.223C63.2231 158.756 63.654 159.219 64.1631 159.583L74.228 167.164C74.7516 167.533 75.1901 168.01 75.5143 168.562L117.211 247.701L189.327 300.842L77.4954 96.8444Z" fill="#141F31" stroke="#141F31" stroke-linecap="round" stroke-linejoin="round"/>
</svg>
