<svg width="66" height="40" viewBox="0 0 66 40" fill="none" xmlns="http://www.w3.org/2000/svg">
<path d="M31.8977 37.5758L29.2251 34.4463C28.6152 33.7322 28.6152 32.6805 29.2251 31.9664L31.9849 28.7347L29.2251 25.5033C28.6151 24.7892 28.6151 23.7376 29.2251 23.0235L31.9847 19.7922L29.2251 16.5612C28.6151 15.8469 28.6151 14.7951 29.2251 14.081L31.9846 10.8503L29.2252 7.61975C28.6151 6.90565 28.6151 5.85372 29.2252 5.13949L31.8974 2.01132L29.8862 0H1.90936C0.854885 0 0 0.854885 0 1.90936V37.6781C0 38.7325 0.854885 39.5874 1.90936 39.5874H29.8862L31.8977 37.5758Z" fill="#46E8A2"/>
<path d="M63.2636 0H35.2868L35.8461 0.559315C36.5508 1.26387 36.5949 2.39179 35.9478 3.14968L33.1884 6.37981L35.9478 9.6102C36.5579 10.3243 36.5579 11.3761 35.9478 12.0903L33.1882 15.3212L35.9479 18.5522C36.5579 19.2665 36.5579 20.3181 35.9479 21.0323L33.1882 24.2635L35.9479 27.4948C36.5579 28.2089 36.5579 29.2606 35.9479 29.9747L33.188 33.2065L35.9479 36.4382C36.5949 37.1959 36.5506 38.3238 35.8461 39.0284L35.2869 39.5877H63.2636C64.3181 39.5877 65.173 38.7328 65.173 37.6783V1.90962C65.173 0.854884 64.3181 0 63.2636 0Z" fill="#46E8A2"/>
<path d="M1.90936 0H11.4562V1.90936C11.4562 7.18684 7.18684 11.4562 1.90936 11.4562H0V1.90936C0 0.855394 0.855394 0 1.90936 0Z" fill="#00C98B"/>
<path d="M11.4562 37.678V39.5874H1.90936C0.855394 39.5874 0 38.732 0 37.678V28.1312H1.90936C7.18684 28.1312 11.4562 32.4006 11.4562 37.678Z" fill="#00C98B"/>
<path d="M65.173 1.90936V11.4562H63.2636C57.9861 11.4562 53.7168 7.18684 53.7168 1.90936V0H63.2636C64.3176 0 65.173 0.855394 65.173 1.90936Z" fill="#00C98B"/>
<path d="M63.2636 28.1312H65.173V37.678C65.173 38.732 64.3176 39.5874 63.2636 39.5874H53.7168V37.678C53.7168 32.4006 57.9861 28.1312 63.2636 28.1312Z" fill="#00C98B"/>
<path d="M15.275 17.8843H11.4562C10.4018 17.8843 9.54688 18.7392 9.54688 19.7937C9.54688 20.8482 10.4018 21.7031 11.4562 21.7031H15.275C16.3294 21.7031 17.1843 20.8482 17.1843 19.7937C17.1843 18.7392 16.3294 17.8843 15.275 17.8843Z" fill="#00C98B"/>
<path d="M53.7166 17.8843H49.8979C48.8434 17.8843 47.9885 18.7392 47.9885 19.7937C47.9885 20.8482 48.8434 21.7031 49.8979 21.7031H53.7166C54.7711 21.7031 55.626 20.8482 55.626 19.7937C55.626 18.7392 54.7711 17.8843 53.7166 17.8843Z" fill="#00C98B"/>
<path d="M33.826 7.1264L35.9475 9.6101C36.5576 10.3242 36.5576 11.376 35.9475 12.0902L33.188 15.3211L35.9477 18.5521C36.5576 19.2664 36.5576 20.3181 35.9477 21.0322L33.188 24.2634L35.9477 27.4947C36.5576 28.2088 36.5576 29.2605 35.9477 29.9746L34.4263 31.7561C40.4019 30.8645 45.0003 25.6988 45.0003 19.4787C45.0004 13.0519 40.0912 7.75038 33.826 7.1264Z" fill="#00C98B"/>
<path d="M31.9849 28.7347L29.2252 25.5033C28.6152 24.7892 28.6152 23.7376 29.2252 23.0234L31.9848 19.7922L29.2252 16.5612C28.6152 15.8469 28.6152 14.7951 29.2252 14.081L31.9847 10.8503C31.0474 9.75161 29.2603 7.66595 29.1662 7.54401C23.979 9.0328 20.1724 13.8194 20.1724 19.4788C20.1724 25.2943 24.1922 30.1878 29.599 31.5285L31.9849 28.7347Z" fill="#00C98B"/>
</svg>
