<svg width="433" height="394" viewBox="0 0 433 394" fill="none" xmlns="http://www.w3.org/2000/svg">
<path d="M110.382 43.878C110.382 43.878 54.2129 89.9278 33.34 146.818C12.4672 203.709 28.5351 267.612 76.8296 307.364C125.124 347.115 196.808 325.136 264.322 342.374C331.836 359.612 397.988 338.917 413.347 268.453C428.707 197.99 380.076 183.321 356.914 110.55C333.753 37.779 244.657 -56.9628 110.382 43.878Z" fill="#F2F2FA"/>
<path d="M17.1759 353.769H421.165" stroke="#141F31" stroke-miterlimit="10"/>
<path d="M0 353.769H6.32335" stroke="#141F31" stroke-miterlimit="10"/>
<path d="M72.9195 192.195C72.9195 192.926 72.7028 193.641 72.2967 194.249C71.8905 194.857 71.3133 195.33 70.638 195.61C69.9626 195.89 69.2195 195.963 68.5025 195.82C67.7856 195.678 67.127 195.326 66.6101 194.809C66.0932 194.292 65.7412 193.633 65.5986 192.917C65.456 192.2 65.5292 191.456 65.8089 190.781C66.0887 190.106 66.5624 189.528 67.1702 189.122C67.778 188.716 68.4926 188.499 69.2236 188.499C70.2038 188.499 71.1439 188.889 71.837 189.582C72.5301 190.275 72.9195 191.215 72.9195 192.195V192.195Z" stroke="#141F31" stroke-miterlimit="10"/>
<path d="M63.5767 195.891C65.6179 195.891 67.2727 194.237 67.2727 192.195C67.2727 190.154 65.6179 188.499 63.5767 188.499C61.5355 188.499 59.8807 190.154 59.8807 192.195C59.8807 194.237 61.5355 195.891 63.5767 195.891Z" stroke="#141F31" stroke-miterlimit="10"/>
<path d="M202.053 323.133C202.053 323.133 210.21 358.191 206.661 363.946C202.014 371.485 152.594 376.024 152.594 376.024H261.571C261.571 376.024 275.228 372.19 271.12 361.21C267.944 352.72 252.699 323.133 252.699 323.133H202.053Z" fill="white" stroke="#141F31" stroke-linecap="round" stroke-linejoin="round"/>
<path d="M199.661 323.133C199.661 323.133 208.367 358.485 204.269 363.946C200.171 369.406 152.594 373.592 152.594 373.592H262.081C262.081 373.592 271.287 369.877 268.728 361.21C266.169 352.544 250.317 323.133 250.317 323.133H199.661Z" fill="white" stroke="#141F31" stroke-linecap="round" stroke-linejoin="round"/>
<path d="M250.317 323.133H199.661C199.661 323.133 204.818 344.074 205.318 356.211H266.836C261.856 344.544 250.317 323.133 250.317 323.133Z" fill="#141F31" stroke="#141F31" stroke-linecap="round" stroke-linejoin="round"/>
<path d="M261.561 373.769H152.594V376.024H261.561V373.769Z" fill="white" stroke="#141F31" stroke-linecap="round" stroke-linejoin="round"/>
<path d="M384.784 79.9829H72.6157C68.0243 79.9829 64.3022 83.705 64.3022 88.2964V318.261C64.3022 322.852 68.0243 326.574 72.6157 326.574H384.784C389.375 326.574 393.097 322.852 393.097 318.261V88.2964C393.097 83.705 389.375 79.9829 384.784 79.9829Z" fill="white" stroke="#141F31" stroke-linecap="round" stroke-linejoin="round"/>
<path d="M377.039 79.9829H64.8709C60.2795 79.9829 56.5574 83.705 56.5574 88.2964V318.261C56.5574 322.852 60.2795 326.574 64.8709 326.574H377.039C381.63 326.574 385.352 322.852 385.352 318.261V88.2964C385.352 83.705 381.63 79.9829 377.039 79.9829Z" fill="#141F31" stroke="#141F31" stroke-linecap="round" stroke-linejoin="round"/>
<path d="M56.5574 288.252H385.352V318.261C385.352 320.465 384.476 322.58 382.917 324.139C381.358 325.698 379.244 326.574 377.039 326.574H64.8709C62.666 326.574 60.5514 325.698 58.9923 324.139C57.4333 322.58 56.5574 320.465 56.5574 318.261V288.252Z" fill="white" stroke="#141F31" stroke-linecap="round" stroke-linejoin="round"/>
<path d="M368.813 95.3256H73.0961V269.546H368.813V95.3256Z" fill="white" stroke="#141F31" stroke-linecap="round" stroke-linejoin="round"/>
<path d="M338.951 195.627H87.9191V206.646H338.951V195.627Z" fill="#5B5CEE"/>
<path d="M338.951 216.45H87.9191V227.469H338.951V216.45Z" fill="#5B5CEE"/>
<path d="M231.102 136.393H275.267" stroke="#141F31" stroke-miterlimit="10"/>
<path d="M231.102 142.854H275.267" stroke="#141F31" stroke-miterlimit="10"/>
<path d="M231.102 149.314H275.267" stroke="#141F31" stroke-miterlimit="10"/>
<path d="M87.8995 251.9H132.065" stroke="#141F31" stroke-miterlimit="10"/>
<path d="M87.8995 257.919H132.065" stroke="#141F31" stroke-miterlimit="10"/>
<path d="M193.759 155.883H87.8995V167.569H193.759V155.883Z" fill="#5B5CEE"/>
<path d="M338.579 144.187H282.727V150.03H338.579V144.187Z" fill="#5B5CEE"/>
<path d="M338.579 129.256H282.727V150.04H338.579V129.256Z" stroke="#141F31" stroke-miterlimit="10"/>
<path d="M338.579 135.099H282.727V144.187H338.579V135.099Z" stroke="#141F31" stroke-miterlimit="10"/>
<path d="M291.227 129.433V149.785" stroke="#141F31" stroke-miterlimit="10"/>
<path d="M338.951 175.421H87.9191V245.831H338.951V175.421Z" stroke="#141F31" stroke-miterlimit="10"/>
<path d="M338.951 175.421H87.9191V186.441H338.951V175.421Z" fill="#5B5CEE" stroke="#141F31" stroke-miterlimit="10"/>
<path d="M265.14 175.686V245.714" stroke="#141F31" stroke-miterlimit="10"/>
<path d="M292.423 175.686V245.714" stroke="#141F31" stroke-miterlimit="10"/>
<path d="M368.813 95.3256H73.0961V103.374H368.813V95.3256Z" fill="#5B5CEE" stroke="#141F31" stroke-linecap="round" stroke-linejoin="round"/>
<path d="M227.053 307.418C227.055 306.217 226.7 305.042 226.034 304.043C225.368 303.043 224.42 302.264 223.311 301.803C222.202 301.343 220.981 301.222 219.803 301.456C218.625 301.689 217.542 302.268 216.693 303.117C215.844 303.966 215.266 305.048 215.032 306.226C214.798 307.405 214.919 308.626 215.38 309.735C215.84 310.844 216.619 311.792 217.619 312.458C218.618 313.124 219.793 313.478 220.994 313.476C222.6 313.474 224.14 312.835 225.275 311.699C226.411 310.563 227.05 309.024 227.053 307.418Z" fill="#141F31" stroke="#141F31" stroke-linecap="round" stroke-linejoin="round"/>
<path d="M331.167 209.695C331.167 209.695 326.971 211.264 325.667 217.165C324.363 223.067 321.599 240.89 320.157 249.282C318.716 257.674 310.981 284.928 310.981 284.928L315.05 287.683C315.05 287.683 325.01 273.134 327.795 266.321C330.579 259.507 333.294 254.782 333.677 249.537C334.059 244.292 333.422 215.46 333.422 213.264C333.422 211.067 332.353 209.43 331.167 209.695Z" fill="#5B5CEE" stroke="#141F31" stroke-linecap="round" stroke-linejoin="round"/>
<path d="M334.971 380.837C334.971 380.837 324.618 387.523 323.432 389.876C322.246 392.229 324.481 392.896 330.294 392.111C336.108 391.327 340.098 388.308 342.872 386.729C345.647 385.151 346.941 385.033 346.019 381.494C345.098 377.955 334.971 380.837 334.971 380.837Z" fill="white" stroke="#141F31" stroke-linecap="round" stroke-linejoin="round"/>
<path d="M375.47 381.886C375.47 381.886 386.881 389.612 386.254 391.317C385.626 393.023 382.185 393.808 376.156 391.847C370.127 389.886 368.813 388.308 366.352 386.21C363.892 384.112 364.784 381.494 364.784 379.651C364.784 377.808 375.47 381.886 375.47 381.886Z" fill="white" stroke="#141F31" stroke-linecap="round" stroke-linejoin="round"/>
<path d="M329.598 262.145C329.598 262.145 327.236 282.85 326.971 299.398C326.706 315.947 334.314 378.916 334.314 379.573V381.533C336.261 382.416 338.348 382.947 340.48 383.102C342.709 383.157 344.939 383.069 347.157 382.837C347.157 382.837 347.157 371.171 347.421 362.132C347.686 353.093 349.127 311.839 349.127 311.839L349.519 294.016L352.137 295.722L364.46 383.102L375.47 381.925C375.47 381.925 376.783 323.77 376.519 307.78C376.254 291.791 373.126 263.566 373.126 263.566L329.598 262.145Z" fill="#141F31" stroke="#141F31" stroke-linecap="round" stroke-linejoin="round"/>
<path d="M350.176 203.538C350.176 203.538 332.745 208.911 331.167 209.695C329.589 210.479 328.549 214.675 328.549 219.92C328.549 225.165 330.51 251.115 330.255 254.233C330 257.351 328.422 261.311 329.726 263.537C331.03 265.762 348.353 267.203 357.647 266.811C366.94 266.419 372.195 267.34 373.509 264.713C374.823 262.086 375.607 229.724 376.911 222.244C378.215 214.763 379.146 210.842 376.519 208.744C373.891 206.646 360.009 204.156 356.598 203.372L350.176 203.538Z" fill="#5B5CEE" stroke="#141F31" stroke-linecap="round" stroke-linejoin="round"/>
<path d="M349.598 200.234C349.598 200.234 346.706 201.215 345.745 203.381C344.784 205.548 341.902 216.332 342.951 216.852C344 217.371 352.137 213.44 353.362 213.705C354.588 213.969 359.568 220.44 361.058 219.587C362.548 218.734 366.048 209.528 364.734 204.803C363.421 200.078 350.902 199.009 349.598 200.234Z" fill="white" stroke="#141F31" stroke-linecap="round" stroke-linejoin="round"/>
<path d="M348.01 197.264C348.01 197.264 347.921 202.068 347.921 204.519C347.921 206.97 350.029 215.714 351.843 215.371C353.657 215.028 361.294 206.45 362.519 204.166C363.744 201.881 363.999 197.176 363.999 197.176C363.999 197.176 358.578 201.019 354.47 199.793C352.24 199.161 350.076 198.314 348.01 197.264Z" fill="white" stroke="#141F31" stroke-linecap="round" stroke-linejoin="round"/>
<path d="M354.5 199.793C352.263 199.163 350.092 198.315 348.019 197.264C348.019 197.264 348.019 199.156 347.961 201.185C348.559 202.47 349.127 203.548 349.529 204.313C350.051 205.516 351.018 206.47 352.228 206.976C353.438 207.483 354.796 207.501 356.019 207.028C358.865 205.773 361.397 203.901 363.431 201.548C363.737 200.114 363.937 198.659 364.029 197.195C364.029 197.195 358.598 201.019 354.5 199.793Z" fill="#141F31" stroke="#141F31" stroke-linecap="round" stroke-linejoin="round"/>
<path d="M345.951 183.186C345.951 183.186 345.461 179.696 343.814 181.117C342.167 182.539 342.461 186.107 343.245 187.823C344.029 189.539 344.882 189.323 345.098 189.245C345.314 189.166 345.951 183.186 345.951 183.186Z" fill="url(#paint0_linear)" stroke="#141F31" stroke-linecap="round" stroke-linejoin="round"/>
<path d="M368.774 186.539C368.989 186.186 371.627 177.343 371.774 172.559C371.921 167.775 364.999 163.294 360.078 162.363C355.156 161.432 347.882 162.647 346.353 165.432C344.823 168.216 344.637 179.157 344.637 180.98C344.637 182.804 346.068 183.117 346.421 182.686C346.774 182.255 347.853 171.49 348.49 170.706C349.127 169.922 360.539 170.284 362.323 170.774C364.107 171.265 365.107 173.137 364.754 175.843C364.401 178.549 364.823 178.412 365.539 179.98C366.254 181.549 366.244 182.117 366.244 184.255C366.244 186.392 367.244 188.96 368.774 186.539Z" fill="#141F31" stroke="#141F31" stroke-linecap="round" stroke-linejoin="round"/>
<path d="M347.529 170.353C346.316 175.59 345.458 180.902 344.961 186.254C344.598 192.597 348.098 199.156 349.519 201.872C350.941 204.587 353.519 205.509 356.009 204.577C359.423 203.062 362.392 200.7 364.637 197.715C367.274 194.293 368.636 186.088 368.636 186.088C368.636 186.088 367.558 186.656 367.489 185.735C367.421 184.813 368.136 181.598 367.421 179.529C366.705 177.461 365.137 176.961 366.068 174.961C366.663 173.841 367.095 172.643 367.352 171.402C367.352 171.039 363.784 168.902 357.294 168.333C350.804 167.765 347.882 168.569 347.529 170.353Z" fill="white" stroke="#141F31" stroke-linecap="round" stroke-linejoin="round"/>
<path d="M348.235 176.196C348.235 176.196 350.147 174.539 352.804 176.451" stroke="#141F31" stroke-linecap="round" stroke-linejoin="round"/>
<path d="M357.882 176.951C357.882 176.951 362.45 175.117 364.284 178.362" stroke="#141F31" stroke-linecap="round" stroke-linejoin="round"/>
<path d="M367.921 187.107C367.921 187.107 369.342 183.902 371.411 183.755C373.479 183.607 373.195 187.676 371.274 190.323C369.352 192.97 366.568 194.029 366.49 192.097" fill="url(#paint1_linear)"/>
<path d="M367.921 187.107C367.921 187.107 369.342 183.902 371.411 183.755C373.479 183.607 373.195 187.676 371.274 190.323C369.352 192.97 366.568 194.029 366.49 192.097" stroke="#141F31" stroke-linecap="round" stroke-linejoin="round"/>
<path d="M353.941 181.333C353.941 181.333 351.588 188.107 352.088 189.039C352.588 189.97 354.509 190.999 356.862 189.892" stroke="#141F31" stroke-linecap="round" stroke-linejoin="round"/>
<path d="M354.872 193.097C355.901 193.45 357.002 193.537 358.073 193.35C359.144 193.164 360.151 192.709 360.999 192.029" stroke="#141F31" stroke-linecap="round" stroke-linejoin="round"/>
<path d="M351.559 181.578C351.559 182.353 351.284 182.97 350.951 182.97C350.617 182.97 350.343 182.353 350.343 181.578C350.343 180.804 350.617 180.196 350.951 180.196C351.284 180.196 351.559 180.774 351.559 181.578Z" fill="#141F31"/>
<path d="M359.901 183.902C360.237 183.902 360.509 183.278 360.509 182.509C360.509 181.741 360.237 181.117 359.901 181.117C359.566 181.117 359.294 181.741 359.294 182.509C359.294 183.278 359.566 183.902 359.901 183.902Z" fill="#141F31"/>
<path d="M354.009 181.157C354.009 181.967 353.769 182.759 353.319 183.433C352.868 184.107 352.228 184.632 351.48 184.943C350.731 185.253 349.907 185.334 349.112 185.176C348.317 185.018 347.587 184.627 347.014 184.054C346.441 183.481 346.05 182.751 345.892 181.956C345.734 181.161 345.815 180.337 346.125 179.588C346.436 178.84 346.961 178.2 347.635 177.749C348.309 177.299 349.101 177.059 349.911 177.059C350.998 177.059 352.041 177.49 352.809 178.259C353.578 179.027 354.009 180.07 354.009 181.157V181.157Z" stroke="#141F31" stroke-linecap="round" stroke-linejoin="round"/>
<path d="M364.647 182.039C364.645 182.892 364.39 183.725 363.915 184.433C363.44 185.141 362.765 185.692 361.977 186.017C361.188 186.342 360.321 186.426 359.485 186.259C358.649 186.091 357.882 185.679 357.279 185.076C356.677 184.472 356.267 183.703 356.101 182.867C355.936 182.031 356.022 181.164 356.349 180.376C356.675 179.588 357.228 178.915 357.937 178.442C358.647 177.968 359.48 177.715 360.333 177.715C360.9 177.715 361.462 177.827 361.986 178.045C362.51 178.262 362.986 178.581 363.387 178.982C363.787 179.384 364.105 179.861 364.321 180.385C364.537 180.91 364.648 181.472 364.647 182.039V182.039Z" stroke="#141F31" stroke-linecap="round" stroke-linejoin="round"/>
<path d="M354.009 180.402C354.331 180.238 354.697 180.185 355.051 180.25C355.406 180.316 355.729 180.496 355.97 180.764" stroke="#141F31" stroke-linecap="round" stroke-linejoin="round"/>
<path d="M364.568 182.47L369.705 184.617" stroke="#141F31" stroke-linecap="round" stroke-linejoin="round"/>
<path d="M312.03 281.918L317.54 284.144" stroke="#141F31" stroke-linecap="round" stroke-linejoin="round"/>
<path d="M306.952 298.702C306.952 298.702 307.726 303.232 308.256 303.477C308.785 303.722 308.971 301.271 308.795 299.722L308.618 298.173C308.618 298.173 309.452 302.222 310.285 302.585C311.118 302.947 310.648 301.153 310.403 300.251L310.167 299.359C310.167 299.359 312.256 301.565 312.432 301.026C312.608 300.487 311.177 297.81 311.118 297.634C310.797 296.607 310.551 295.559 310.383 294.497C310.324 293.663 309.138 290.32 307.942 292.408C306.746 294.497 306.952 298.702 306.952 298.702Z" fill="url(#paint2_linear)" stroke="#141F31" stroke-linecap="round" stroke-linejoin="round"/>
<path d="M310.981 284.928C310.981 284.928 307.06 291.222 306.001 293.32C304.942 295.418 304.168 303.281 305.089 303.81C306.011 304.339 306.256 302.418 306.472 301.094C306.848 299.521 307.407 297.998 308.138 296.555C308.138 296.555 307.579 301.575 308.364 301.457C309.148 301.339 309.805 296.742 310.324 295.575C310.844 294.408 314.001 292.693 315.05 287.732L310.981 284.928Z" fill="white" stroke="#141F31" stroke-linecap="round" stroke-linejoin="round"/>
<path d="M308.138 296.555C308.138 296.555 308.138 295.889 308.618 293.399L308.138 296.555Z" fill="white"/>
<path d="M308.138 296.555C308.138 296.555 308.138 295.889 308.618 293.399" stroke="#141F31" stroke-linecap="round" stroke-linejoin="round"/>
<path d="M375.999 208.519C378.971 210.762 381.242 213.806 382.548 217.293C385.038 223.459 393.557 250.331 393.822 250.851C394.087 251.37 393.822 256.615 389.626 258.321C385.43 260.027 383.469 256.36 380.979 252.164C378.489 247.968 372.725 229.351 372.725 229.351" fill="#5B5CEE"/>
<path d="M375.999 208.519C378.971 210.762 381.242 213.806 382.548 217.293C385.038 223.459 393.557 250.331 393.822 250.851C394.087 251.37 393.822 256.615 389.626 258.321C385.43 260.027 383.469 256.36 380.979 252.164C378.489 247.968 372.725 229.351 372.725 229.351" stroke="#141F31" stroke-linecap="round" stroke-linejoin="round"/>
<path d="M386.744 243.253L407.096 233.253L410.635 237.322C410.635 237.322 395.675 255.566 392.381 257.664C389.087 259.762 385.038 259.243 383.469 255.704" fill="#5B5CEE"/>
<path d="M386.744 243.253L407.096 233.253L410.635 237.322C410.635 237.322 395.675 255.566 392.381 257.664C389.087 259.762 385.038 259.243 383.469 255.704" stroke="#141F31" stroke-linecap="round" stroke-linejoin="round"/>
<path d="M404.871 234.694L408.665 239.282" stroke="#141F31" stroke-linecap="round" stroke-linejoin="round"/>
<path d="M407.096 233.253C407.096 233.253 411.557 226.312 412.861 225.783C414.165 225.253 417.841 224.479 419.939 222.9C422.037 221.322 423.213 221.724 422.037 223.43C420.861 225.136 419.547 225.391 418.37 225.92C417.772 226.164 417.2 226.469 416.665 226.832C416.665 226.832 419.939 226.969 422.037 227.096C423.311 227.172 424.589 227.083 425.841 226.832C425.841 226.832 431.213 224.479 429.899 227.361C428.586 230.243 428.723 232.077 423.478 233.645C420.07 234.616 416.542 235.105 412.998 235.096L410.635 237.322L407.096 233.253Z" fill="white" stroke="#141F31" stroke-linecap="round" stroke-linejoin="round"/>
<path d="M427.674 231.685C428.505 231.385 429.257 230.898 429.87 230.263C430.484 229.627 430.943 228.859 431.213 228.018C432.135 225.126 431.605 224.998 430.429 226.057C429.278 227.241 428.346 228.618 427.674 230.126C427.047 231.42 427.674 231.685 427.674 231.685Z" fill="url(#paint3_linear)" stroke="#141F31" stroke-linecap="round" stroke-linejoin="round"/>
<path d="M426.498 231.812C426.498 231.812 428.066 232.861 429.252 229.714C430.439 226.567 430.292 224.077 429.252 224.606C428.213 225.136 427.939 225.263 426.625 228.018C425.311 230.773 424.135 231.939 424.919 232.204C425.195 232.262 425.48 232.257 425.754 232.189C426.027 232.122 426.281 231.992 426.498 231.812Z" fill="url(#paint4_linear)" stroke="#141F31" stroke-linecap="round" stroke-linejoin="round"/>
<path d="M411.42 232.998C411.42 232.998 413.38 229.714 415.616 229.714C418.342 229.916 421.055 230.266 423.743 230.763C423.743 230.763 428.066 224.479 428.988 225.391C429.909 226.302 427.547 230.636 426.498 231.812C425.449 232.988 425.311 233.126 424.4 233.39" fill="white"/>
<path d="M411.42 232.998C411.42 232.998 413.38 229.714 415.616 229.714C418.342 229.916 421.055 230.266 423.743 230.763C423.743 230.763 428.066 224.479 428.988 225.391C429.909 226.302 427.547 230.636 426.498 231.812C425.449 232.988 425.311 233.126 424.4 233.39" stroke="#141F31" stroke-linecap="round" stroke-linejoin="round"/>
<path d="M349.52 293.977L343.49 291.095" stroke="#9090AB" stroke-linecap="round" stroke-linejoin="round"/>
<defs>
<linearGradient id="paint0_linear" x1="345.951" y1="180.777" x2="346.194" y2="189.194" gradientUnits="userSpaceOnUse">
<stop stop-color="#F6F9FE"/>
<stop offset="1" stop-color="#F5F8FD"/>
</linearGradient>
<linearGradient id="paint1_linear" x1="372.843" y1="183.751" x2="372.996" y2="192.978" gradientUnits="userSpaceOnUse">
<stop stop-color="#F6F9FE"/>
<stop offset="1" stop-color="#F5F8FD"/>
</linearGradient>
<linearGradient id="paint2_linear" x1="312.447" y1="291.733" x2="312.728" y2="303.354" gradientUnits="userSpaceOnUse">
<stop stop-color="#F6F9FE"/>
<stop offset="1" stop-color="#F5F8FD"/>
</linearGradient>
<linearGradient id="paint3_linear" x1="431.682" y1="225.449" x2="431.784" y2="231.612" gradientUnits="userSpaceOnUse">
<stop stop-color="#F6F9FE"/>
<stop offset="1" stop-color="#F5F8FD"/>
</linearGradient>
<linearGradient id="paint4_linear" x1="430.088" y1="224.535" x2="430.211" y2="232.155" gradientUnits="userSpaceOnUse">
<stop stop-color="#F6F9FE"/>
<stop offset="1" stop-color="#F5F8FD"/>
</linearGradient>
</defs>
</svg>
