<svg width="175" height="70" viewBox="0 0 175 70" fill="none" xmlns="http://www.w3.org/2000/svg">
<path d="M110.334 11.1082C110.519 11.231 110.728 11.3121 110.947 11.3461C111.167 11.38 111.391 11.366 111.604 11.305C112.173 11.1992 112.713 10.9784 113.194 10.6562C113.674 10.334 114.083 9.91716 114.397 9.43118C115.035 8.44582 115.258 7.49697 115.068 6.58465C114.945 6.09089 114.633 5.6651 114.199 5.39876C113.766 5.13242 113.245 5.04679 112.749 5.16026C112.2 5.26951 111.685 5.50722 111.246 5.85391C110.807 6.20061 110.456 6.64643 110.222 7.15485C109.679 8.2401 109.503 9.22397 109.692 10.1065C109.769 10.5104 109.999 10.8691 110.334 11.1082Z" fill="white"/>
<path d="M85.1868 35.835C85.4119 36.8875 85.8531 37.6574 86.5105 38.1449C86.8459 38.3863 87.2306 38.5503 87.6371 38.6249C88.0435 38.6996 88.4614 38.683 88.8606 38.5765C90.256 38.2783 91.7586 37.2631 93.3686 35.5309C95.1144 33.6098 96.631 31.4921 97.8877 29.2207C98.7932 29.7488 99.869 29.9028 100.886 29.65C101.912 29.4128 102.864 28.9301 103.661 28.2435C103.453 29.8088 103.438 31.1303 103.661 32.1813C103.863 33.1204 104.243 33.8225 104.804 34.2809C105.077 34.5087 105.4 34.668 105.747 34.7458C106.094 34.8236 106.454 34.8175 106.798 34.7282C108.801 34.2959 111.111 31.9987 113.73 27.8366C113.73 27.85 113.73 27.8656 113.73 27.8768C114.067 29.4421 114.819 30.584 115.987 31.3025C117.154 32.021 118.606 32.1932 120.342 31.819C122.85 31.2824 125.16 29.8103 127.274 27.4028C128.079 26.4792 128.835 25.5141 129.539 24.5115C129.512 25.1461 129.559 25.7816 129.678 26.4055C129.815 27.2187 130.22 27.9627 130.83 28.5186C131.407 29.0194 132.121 29.1812 132.972 29.0038C135.014 28.5774 137.147 26.032 139.369 21.3676C139.296 22.204 139.336 23.0465 139.49 23.872C139.727 25.0049 140.203 25.83 140.917 26.3473C141.631 26.8646 142.498 27.0137 143.519 26.7945C145.477 26.3876 147.594 24.6591 149.872 21.6091C152.154 18.5546 153.979 15.1836 155.288 11.6026C156.618 7.98164 157.073 5.16492 156.654 3.15245C156.405 1.95987 155.819 1.09823 154.894 0.567536C154.034 0.0495711 153.008 -0.122259 152.025 0.0867783C151.401 0.216471 151.124 0.45126 151.196 0.791144C151.267 0.973097 151.392 1.12909 151.554 1.23836C151.75 1.38955 151.889 1.60337 151.947 1.84434C152.245 3.29183 152.051 5.58903 151.364 8.73594C150.715 11.7525 149.76 14.6948 148.513 17.517C147.301 20.2272 146.199 21.6851 145.208 21.8908C144.725 21.9914 144.432 21.7857 144.313 21.2759C144.112 20.3129 144.336 18.5725 144.984 16.0546C145.558 13.7246 146.375 11.4612 147.421 9.30167C147.481 9.17404 147.498 9.03034 147.468 8.89247C147.374 8.44525 146.988 7.99804 146.312 7.60225C145.637 7.20646 145.042 7.04547 144.523 7.15503C144.005 7.2646 143.316 8.16127 142.502 9.83833C141.613 11.7068 140.898 13.6529 140.364 15.6521C139.497 17.6084 138.493 19.5011 137.359 21.3161C136.335 22.938 135.61 23.7922 135.186 23.8787C134.902 23.9368 134.72 23.7691 134.635 23.3711C134.454 22.4662 134.735 20.7131 135.481 18.1118C136.14 15.7346 137.034 13.429 138.151 11.2292C138.185 11.1676 138.207 11.0996 138.215 11.0293C138.224 10.959 138.217 10.8879 138.198 10.82C138.11 10.3951 137.712 9.97548 137.003 9.56106C136.295 9.14664 135.672 8.99757 135.134 9.11384C134.594 9.22565 133.825 10.3623 132.826 12.5239C131.864 14.6514 131.083 16.8566 130.492 19.1158C129.384 21.1163 128.021 22.9639 126.436 24.6121C124.724 26.3518 123.057 27.3953 121.434 27.7426C119.925 28.0676 119.021 27.5317 118.721 26.1349C118.586 25.4353 118.552 24.7199 118.621 24.0106C119.328 24.1334 120.054 24.1143 120.754 23.9547C122.833 23.5075 124.666 22.2575 126.25 20.2048C127.835 18.1521 128.431 16.2283 128.039 14.4335C127.935 13.8836 127.715 13.3621 127.394 12.9035C127.074 12.4448 126.659 12.0593 126.179 11.7725C125.184 11.1658 124.032 11.0033 122.722 11.2851C120.933 11.6697 119.25 12.8503 117.675 14.827C116.105 16.8009 114.938 19.0632 114.238 21.4861C114.018 22.2465 113.847 23.0203 113.726 23.8027C112.968 25.0728 112.232 26.2042 111.523 27.1568C110.44 28.6266 109.641 29.416 109.128 29.5248C108.842 29.5852 108.657 29.4175 108.572 29.0172C108.376 28.1064 108.646 26.3436 109.381 23.7289C110.03 21.3364 110.916 19.0143 112.024 16.797C112.067 16.737 112.096 16.669 112.112 16.5971C112.127 16.5252 112.128 16.451 112.114 16.3789C112.039 16.036 111.619 15.6417 110.855 15.196C110.088 14.7488 109.433 14.5855 108.894 14.6996C108.408 14.8039 107.672 15.922 106.687 18.0537C105.81 19.9955 105.097 22.0067 104.553 24.0665C103.693 25.4082 102.581 26.2422 101.199 26.5396C100.488 26.6887 99.892 26.6224 99.4105 26.3406C101.356 22.2307 102.146 19.3238 101.781 17.6199C101.556 16.5675 101.015 16.1329 100.16 16.3163C98.967 16.5712 97.8199 17.7481 96.7182 19.847C95.6166 21.946 95.2901 24.033 95.7388 26.1081C95.7774 26.3091 95.835 26.5061 95.911 26.6962C95.1075 28.3427 94.1586 29.9141 93.0757 31.3919C92.1231 32.6531 91.3516 33.3507 90.7524 33.4782C90.3812 33.5587 90.1509 33.382 90.0592 32.9572C89.8445 31.9599 90.0398 30.1971 90.645 27.6689C91.184 25.3351 91.9642 23.0637 92.9728 20.8913C93.0066 20.8368 93.0288 20.7759 93.038 20.7124C93.0473 20.6489 93.0433 20.5842 93.0265 20.5223C92.9281 20.0751 92.5077 19.6279 91.7653 19.2299C91.0229 18.8319 90.3678 18.6798 89.7976 18.8028C89.2848 18.9116 88.5908 20.014 87.7158 22.11C86.9123 24.0847 86.2744 26.1229 85.8084 28.2033C84.8391 30.0356 83.7004 31.7731 82.4073 33.3932C81.1685 34.9108 80.1787 35.7493 79.4378 35.9088C79.0398 35.9938 78.8005 35.8529 78.7223 35.4817C78.5389 34.6275 78.8944 33.0243 79.7889 30.6719C80.7239 28.2297 81.7928 25.8409 82.9909 23.5164C83.0887 23.3957 83.136 23.2419 83.1229 23.0871C83.0453 22.7174 82.7733 22.2844 82.3067 21.788C81.8401 21.2915 81.4376 21.0799 81.0992 21.1529C80.2301 21.8163 78.9831 22.3224 77.3582 22.6712C76.7861 22.7956 76.2053 22.8756 75.6208 22.9105C75.9339 21.5912 76.0203 20.6043 75.8802 19.9499C75.7103 19.1539 75.2094 18.8319 74.3843 19.0197C73.302 19.2522 72.3554 19.9767 71.5444 21.1932C70.7335 22.4096 70.4599 23.6335 70.7238 24.8648C70.7822 25.2188 70.9173 25.5558 71.1197 25.8521C71.3221 26.1484 71.5869 26.3968 71.8955 26.5799C71.3388 28.2259 70.6478 29.8234 69.8294 31.3561C68.6244 33.697 67.0838 35.8492 65.2566 37.7446C63.5467 39.4843 61.8793 40.5278 60.2544 40.8752C58.7458 41.1986 57.8417 40.6635 57.5421 39.2696C57.407 38.5693 57.3732 37.8531 57.4415 37.1431C58.1492 37.2655 58.874 37.2473 59.5747 37.0895C61.6542 36.6423 63.4863 35.3923 65.071 33.3396C66.6556 31.2868 67.2556 29.3631 66.871 27.5682C66.7656 27.0179 66.5447 26.4962 66.2229 26.0375C65.901 25.5788 65.4856 25.1936 65.0039 24.9073C64.0081 24.3021 62.8558 24.1396 61.5469 24.4198C59.758 24.8044 58.0758 25.9851 56.5001 27.9618C54.9284 29.9358 53.7592 32.199 53.0587 34.6231C52.8487 35.3411 52.6837 36.0714 52.5646 36.81C51.7255 38.1058 50.7817 39.3308 49.7426 40.4727C48.1595 42.1959 46.9416 43.15 46.0889 43.3348C45.4896 43.4645 45.1139 43.1716 44.9708 42.4605C44.5624 40.5539 45.4956 36.6445 47.7704 30.7323C50.1943 30.0928 51.6194 29.6523 52.0458 29.4108C52.4633 29.1638 52.7968 28.7968 53.0028 28.3576C53.2667 27.8522 53.3621 27.4288 53.2891 27.0875C53.2287 26.8035 53.0408 26.6962 52.7278 26.7632L49.0114 27.5593C50.122 24.9669 51.0306 23.1631 51.7372 22.148C51.7828 22.0975 51.8155 22.0368 51.8327 21.9711C51.8498 21.9053 51.8508 21.8363 51.8356 21.7701C51.7484 21.372 51.3437 20.9807 50.6214 20.6006C49.8992 20.2205 49.2395 20.093 48.6402 20.2205C48.357 20.2831 47.7607 21.1417 46.8514 22.7964C45.8316 24.6666 44.9178 26.5927 44.1144 28.5655L40.5367 29.337C40.4226 29.3593 40.3131 29.5606 40.2415 29.9362C40.1599 30.3045 40.1599 30.6861 40.2415 31.0543C40.4428 31.9934 41.0994 32.3438 42.2115 32.1052L42.8085 31.9778C42.8112 31.9943 42.8103 32.0112 42.8061 32.0273C42.8019 32.0435 42.7943 32.0586 42.7839 32.0717C42.0237 34 41.1608 35.8862 40.199 37.7223C39.1974 39.5887 38.1002 41.4024 36.912 43.156C35.9013 44.6243 35.2111 45.3987 34.8414 45.4792C34.5552 45.5396 34.3696 45.3719 34.2846 44.9717C34.0774 44.0027 34.2369 42.4195 34.7631 40.2222C35.2735 38.0705 36.015 35.9803 36.9746 33.988C37.0659 33.8982 37.1295 33.7842 37.158 33.6594C37.1866 33.5346 37.1788 33.4042 37.1356 33.2837C36.997 32.6285 36.4961 32.0337 35.6374 31.506C35.221 31.2443 34.7565 31.0681 34.2712 30.9879C33.786 30.9077 33.2896 30.9249 32.811 31.0386C31.9017 31.2354 30.4214 32.9087 28.3702 36.0586C26.3526 39.1591 24.5166 42.374 22.8716 45.6872C23.699 41.6384 24.8685 38.1397 26.38 35.191C26.4291 35.1341 26.4629 35.0658 26.4786 34.9923C26.4942 34.9188 26.4911 34.8426 26.4695 34.7706C26.3785 34.3428 25.9895 33.9194 25.3022 33.5006C24.6158 33.0846 23.9897 32.9348 23.4195 33.0533C22.9067 33.1637 22.1799 34.3562 21.2393 36.6311C21.1744 36.7854 21.1185 36.9486 21.0559 37.1029C20.4969 38.3774 19.001 41.7293 17.9634 43.5316C16.5619 46.0579 14.8201 48.3798 12.7869 50.4322C12.845 50.2801 12.9054 50.1392 12.9591 49.985C13.6612 47.9665 14.3566 45.717 15.0453 43.2365C15.7341 40.7559 16.3348 38.4222 16.8476 36.2353C17.3604 34.0409 17.918 31.9919 18.5202 30.0883C19.1225 28.1846 19.6994 26.8475 20.2509 26.0768C21.3541 25.5133 21.8646 25.0459 21.7827 24.6747C21.7156 24.3617 21.3899 24.0225 20.8055 23.6573C20.5485 23.482 20.259 23.3599 19.954 23.2985C19.6491 23.237 19.3349 23.2374 19.03 23.2995C18.2608 23.465 17.4126 24.3021 16.4854 25.8107C11.0592 27.0375 7.01184 28.652 4.34345 30.654C1.67506 32.6561 0.583851 34.7826 1.06983 37.0336C1.16933 37.5575 1.38064 38.0539 1.68934 38.4887C1.99805 38.9236 2.39689 39.2868 2.85869 39.5536C3.81574 40.1246 4.64979 40.3325 5.36087 40.1775C5.87517 40.0672 6.04362 39.8078 5.86622 39.3993C5.61719 38.2946 5.72041 37.1397 6.16139 36.0966C6.65794 34.9574 7.40103 33.9424 8.33709 33.1249C9.29233 32.2511 10.3168 31.4562 11.4005 30.7479C12.5773 29.9989 13.7965 29.3187 15.052 28.7109C14.3514 30.291 13.4547 32.6151 12.362 35.683C11.2693 38.7509 10.325 41.3738 9.52893 43.5517C8.78885 45.6355 7.86624 47.6498 6.77184 49.5713C5.72833 51.4064 4.73477 52.4245 3.79114 52.6258C3.4391 52.7149 3.06642 52.6686 2.74689 52.4961C2.53949 52.3483 2.28784 52.2757 2.03358 52.2904C1.43729 52.42 1.23604 52.9418 1.42984 53.8556C1.66239 54.9379 2.31458 55.93 3.38641 56.8318C3.88597 57.2674 4.48315 57.576 5.12735 57.7318C5.77156 57.8874 6.4438 57.8856 7.08712 57.7263C8.14255 57.5027 9.1309 56.7625 10.0633 55.5662V55.6087L10.8505 54.9379L11.0919 54.7366C14.1345 52.1935 16.5599 49.5184 18.3682 46.7113C18.1446 48.1558 18.111 49.3097 18.281 50.1079C18.509 51.1947 18.9212 51.9937 19.5175 52.505C20.1168 53.0171 20.7183 53.2071 21.3064 53.0797C21.5852 53.0297 21.8395 52.8883 22.029 52.6777C22.2185 52.4672 22.3324 52.1995 22.3529 51.9169C22.7255 50.465 24.097 47.6602 26.4672 43.5026C28.8375 39.3449 30.844 36.2718 32.4868 34.2832C31.399 36.6032 30.5422 39.0246 29.9287 41.5124C29.1953 44.3359 28.9992 46.5459 29.3406 48.1424C29.5374 49.0547 29.9317 49.7442 30.5235 50.2108C30.7977 50.4382 31.1211 50.5986 31.4681 50.6794C31.8151 50.7601 32.1761 50.7589 32.5226 50.6759C33.5422 50.4568 34.6483 49.6644 35.8409 48.2989C36.9942 47.0005 38.0242 45.5977 38.9178 44.1085C39.403 43.2924 39.9329 42.3554 40.4964 41.3201C40.2728 43.0576 40.2482 44.4775 40.4718 45.5195C40.9414 47.7109 42.1876 48.5896 44.2106 48.1558C45.834 47.807 47.6675 46.4601 49.7113 44.1152C50.6988 42.9719 51.6258 41.7777 52.4885 40.5375C52.5131 40.6896 52.5176 40.8506 52.5489 40.9959C52.8873 42.5626 53.6394 43.7045 54.8051 44.4216C55.9709 45.1386 57.4258 45.313 59.1699 44.9448C61.6773 44.4082 63.988 42.9361 66.1018 40.5286C68.2539 38.0794 70.0686 35.3533 71.4975 32.4228C72.4769 30.6026 73.3542 28.7906 74.1293 26.9868C74.4933 26.9598 74.8554 26.912 75.2138 26.8437C76.2061 26.6475 77.1555 26.2765 78.0179 25.7481C74.4685 31.696 72.9778 35.9796 73.5457 38.5988C73.6946 39.395 74.1093 40.1172 74.7219 40.6471C75.3182 41.1599 76.0636 41.3209 76.958 41.1301C78.5516 40.7887 80.3166 39.4344 82.253 37.0671C83.2145 35.8909 84.1433 34.6305 85.0392 33.2859C84.9834 34.1384 85.033 34.9946 85.1868 35.835ZM121.036 16.4303C122.121 14.4685 123.062 13.4026 123.858 13.2327C124.171 13.1656 124.367 13.3177 124.446 13.6799C124.686 14.789 124.238 16.4333 123.104 18.6127C121.97 20.7922 120.652 22.0436 119.151 22.3671L118.808 22.4409C119.229 20.3323 119.98 18.3036 121.036 16.4303ZM59.8654 29.5651C60.9506 27.6048 61.8913 26.5389 62.6873 26.3675C63.0004 26.3004 63.1971 26.4524 63.2754 26.8147C63.5139 27.9253 63.0704 29.5695 61.9449 31.7475C60.8194 33.9254 59.5016 35.1791 57.9915 35.5086L57.6494 35.5823C58.0656 33.4721 58.8135 31.4412 59.8654 29.5651Z" fill="white"/>
<path d="M173.843 33.1426C173.578 31.8979 173.097 31.0035 172.401 30.4593C172.054 30.1883 171.649 30.0011 171.217 29.9123C170.786 29.8235 170.34 29.8354 169.914 29.9473C168.666 30.2156 167.46 31.0825 166.294 32.5478C165.128 34.0132 163.72 36.2821 162.07 39.3545C163.21 35.9705 164.165 33.5854 164.934 32.199C165.146 31.9471 165.023 31.6489 164.565 31.3046C164.19 31.0029 163.751 30.7906 163.282 30.6837C162.812 30.5768 162.324 30.5781 161.855 30.6874C161.287 30.8082 160.278 32.802 158.828 36.6689C158.214 38.3087 157.627 40.0029 157.068 41.7516C155.93 43.4018 154.733 44.4349 153.475 44.8396C154.297 42.3247 154.505 40.1177 154.096 38.2185C153.865 37.0359 153.26 35.9589 152.37 35.1462C151.486 34.3427 150.407 34.0781 149.134 34.3524C148.122 34.5503 147.191 35.0463 146.462 35.7767H146.42C145.145 36.051 143.818 37.0468 142.439 38.7641C140.997 40.5997 139.909 42.6871 139.228 44.9201C138.975 45.7087 138.781 46.5152 138.647 47.3328C137.943 48.5045 137.258 49.5398 136.592 50.4387C135.514 51.9011 134.721 52.6867 134.211 52.7956C133.841 52.8746 133.617 52.7158 133.54 52.3193C133.303 51.2146 133.771 48.67 134.944 44.6853C135.991 41.0671 137.322 37.5372 138.924 34.1287C143.628 32.2087 147.717 30.4355 151.194 28.8091C154.642 27.2036 157.603 25.6913 160.078 24.2721C162.552 22.8529 164.416 21.6425 165.668 20.6407C166.925 19.636 167.801 18.7758 168.298 18.0603C168.794 17.3447 168.95 16.7872 168.765 16.3877C168.552 15.9405 168.043 15.6759 167.238 15.5939C166.517 15.5082 165.787 15.617 165.122 15.9092C164.835 16.0073 164.596 16.2101 164.451 16.4771C161.539 20.2635 156.214 23.9643 148.479 27.5793C145.993 28.7398 143.358 29.8489 140.597 30.9066C140.612 30.8328 140.612 30.7567 140.597 30.6829C140.505 30.2581 140.105 29.8422 139.396 29.4307C138.687 29.0193 138.032 28.8784 137.437 29.0059C136.899 29.1222 136.21 29.9816 135.369 31.5841L134.642 33.0577C132.907 33.6681 131.181 34.2696 130.394 34.529C127.452 35.486 123.219 36.8068 117.693 38.4913C112.167 40.1759 107.566 41.6338 103.889 42.8651C100.749 43.8857 97.6685 45.0801 94.6611 46.4429C92.5605 47.3913 90.5661 48.5591 88.7109 49.9267C87.1203 51.1371 86.0283 52.2276 85.435 53.1981C84.9252 53.9741 84.5438 54.8273 84.3058 55.7248C84.1478 56.4404 84.1679 57.0113 84.3662 57.4377C84.633 58.0056 85.0691 58.148 85.6743 57.8648C85.9152 57.7577 86.1235 57.5887 86.278 57.3751C87.9417 55.6622 91.6812 53.447 97.4965 50.7294C99.5701 49.759 102.03 48.6886 104.876 47.5184C107.721 46.3482 109.957 45.4329 111.584 44.7725C113.216 44.1121 116.175 42.9628 120.461 41.3245C124.467 39.792 127.009 38.8148 128.088 38.393L128.106 38.3795L133.178 36.3984C131.918 39.6117 130.85 42.8971 129.98 46.2371C128.813 50.6646 128.412 53.7273 128.777 55.4252C128.978 56.3599 129.358 57.056 129.915 57.5137C130.187 57.7397 130.508 57.898 130.853 57.9758C131.198 58.0535 131.556 58.0484 131.899 57.9609C133.862 57.539 136.123 55.3067 138.683 51.2638C138.683 51.2907 138.683 51.3197 138.696 51.3466C139.032 52.9029 139.71 54.0209 140.731 54.7007C141.752 55.3805 142.984 55.5676 144.427 55.262C145.984 54.928 147.435 54.0984 148.781 52.7732C150.175 51.379 151.329 49.7645 152.198 47.9947C152.387 47.9875 152.575 47.962 152.759 47.9187C153.831 47.6682 154.828 47.1653 155.666 46.4518C155.422 47.3283 155.183 48.2138 154.953 49.115C154.434 51.1409 153.698 54.7052 153.079 58.1219C153.079 58.1219 152.444 61.8181 152.336 62.5583C152.301 62.7819 152.274 62.9809 152.247 63.1509C151.983 64.98 151.844 66.3552 151.934 66.7733C152.023 67.2206 152.205 67.6441 152.469 68.0163C152.732 68.3884 153.071 68.7009 153.463 68.9334C154.283 69.4387 155.019 69.6221 155.67 69.4834C156.322 69.3448 156.515 68.9326 156.25 68.2469C156.189 67.5962 156.417 65.7156 156.782 63.3275C156.811 63.133 156.847 62.9004 156.891 62.612L157.763 57.5159L157.777 57.4757C158.383 54.1618 159.047 50.8524 159.53 48.755C160.473 50.9523 161.909 51.8467 163.837 51.4383C165.563 51.07 167.305 49.8074 169.064 47.6503C170.845 45.4502 172.209 42.9434 173.089 40.2534C174.015 37.4955 174.266 35.1253 173.843 33.1426ZM145.342 51.076C144.349 51.2892 143.723 50.7868 143.464 49.5689C143.016 47.5013 143.53 44.8582 145.004 41.6397L145.04 41.8097C145.301 43.0193 145.81 44.1615 146.536 45.1638C147.2 46.1376 148.096 46.9307 149.143 47.4715C147.995 49.5778 146.728 50.7794 145.342 51.076ZM150.373 44.7077C149.428 44.2887 148.602 43.6418 147.969 42.8249C147.326 42.0578 146.873 41.15 146.646 40.1751C146.547 39.7746 146.517 39.3602 146.558 38.9497C146.996 38.289 147.527 37.6961 148.137 37.1899C149.756 36.8724 150.736 37.506 151.077 39.0906C151.392 40.5649 151.157 42.4373 150.373 44.7077ZM168.485 38.6881C167.7 40.8889 166.66 42.9903 165.386 44.9492C164.128 46.8781 163.017 47.9462 162.052 48.1535C161.871 48.1984 161.683 48.2042 161.5 48.1707C161.317 48.1371 161.143 48.0649 160.99 47.9589C160.839 47.8596 160.71 47.7314 160.609 47.5817C160.508 47.4321 160.437 47.2639 160.402 47.0868C160.515 45.5499 161.671 42.8666 163.87 39.0369C166.069 35.2073 167.65 33.1866 168.613 32.9749C168.98 32.8967 169.225 33.1404 169.346 33.7061C169.573 34.7809 169.283 36.4401 168.476 38.6836L168.485 38.6881Z" fill="white"/>
</svg>
