<svg width="193" height="78" viewBox="0 0 193 78" fill="none" xmlns="http://www.w3.org/2000/svg">
<path d="M121.961 12.3866C122.167 12.5234 122.401 12.6139 122.645 12.6518C122.89 12.6896 123.139 12.674 123.377 12.606C124.011 12.488 124.614 12.2418 125.15 11.8826C125.685 11.5233 126.142 11.0584 126.492 10.5166C127.203 9.41781 127.452 8.35979 127.24 7.34249C127.102 6.79193 126.755 6.31714 126.271 6.02016C125.788 5.72317 125.207 5.62769 124.654 5.75422C124.042 5.87603 123.468 6.14109 122.978 6.52768C122.488 6.91427 122.097 7.41139 121.836 7.9783C121.231 9.18842 121.034 10.2855 121.245 11.2695C121.332 11.72 121.588 12.12 121.961 12.3866Z" fill="#141F31"/>
<path d="M93.9207 39.9582C94.1717 41.1318 94.6638 41.9903 95.3968 42.5339C95.7707 42.8031 96.1998 42.9859 96.653 43.0691C97.1062 43.1524 97.5722 43.1339 98.0173 43.0151C99.5732 42.6827 101.249 41.5507 103.044 39.6191C104.991 37.4769 106.682 35.1157 108.083 32.5829C109.093 33.1717 110.292 33.3435 111.427 33.0616C112.57 32.7971 113.632 32.2589 114.521 31.4933C114.289 33.2386 114.272 34.7122 114.521 35.8841C114.745 36.9313 115.169 37.7142 115.795 38.2253C116.099 38.4793 116.46 38.657 116.847 38.7437C117.234 38.8304 117.635 38.8237 118.019 38.724C120.252 38.242 122.828 35.6804 125.749 31.0395C125.749 31.0544 125.749 31.0719 125.749 31.0843C126.124 32.8297 126.963 34.103 128.264 34.9042C129.566 35.7054 131.185 35.8974 133.121 35.4801C135.917 34.8817 138.494 33.2403 140.851 30.5557C141.748 29.5259 142.592 28.4498 143.377 27.3318C143.346 28.0394 143.398 28.7481 143.531 29.4437C143.684 30.3506 144.136 31.1801 144.815 31.7999C145.459 32.3585 146.255 32.5388 147.204 32.341C149.481 31.8656 151.859 29.0273 154.338 23.8261C154.255 24.7588 154.301 25.6983 154.472 26.6187C154.736 27.882 155.267 28.8021 156.063 29.3789C156.859 29.9557 157.827 30.1219 158.965 29.8776C161.148 29.4238 163.509 27.4964 166.049 24.0954C168.594 20.6895 170.628 16.9307 172.088 12.9376C173.571 8.90001 174.078 5.7592 173.611 3.51517C173.334 2.18537 172.68 1.2246 171.649 0.632837C170.689 0.0552747 169.546 -0.136326 168.45 0.0967631C167.754 0.241378 167.445 0.503182 167.525 0.882174C167.604 1.08506 167.743 1.25901 167.924 1.38085C168.143 1.54944 168.298 1.78786 168.363 2.05655C168.695 3.67059 168.478 6.23211 167.712 9.74111C166.989 13.1047 165.923 16.3856 164.533 19.5326C163.182 22.5545 161.953 24.1802 160.848 24.4096C160.309 24.5218 159.983 24.2924 159.85 23.7239C159.626 22.6501 159.875 20.7094 160.598 17.9019C161.238 15.3038 162.149 12.7799 163.316 10.3719C163.383 10.2296 163.401 10.0694 163.369 9.91565C163.264 9.41697 162.832 8.9183 162.079 8.47697C161.326 8.03565 160.663 7.85612 160.085 7.9783C159.506 8.10047 158.738 9.10031 157.831 10.9703C156.84 13.0538 156.042 15.2238 155.447 17.4531C154.48 19.6344 153.36 21.7449 152.096 23.7688C150.954 25.5773 150.146 26.5298 149.672 26.6262C149.356 26.691 149.154 26.504 149.059 26.0602C148.856 25.0512 149.17 23.0964 150.002 20.1958C150.737 17.5451 151.734 14.9742 152.979 12.5212C153.017 12.4525 153.042 12.3767 153.051 12.2984C153.06 12.22 153.053 12.1406 153.031 12.0649C152.933 11.5912 152.489 11.1233 151.7 10.6612C150.91 10.1991 150.215 10.0328 149.615 10.1625C149.013 10.2872 148.156 11.5546 147.042 13.9649C145.969 16.3372 145.098 18.7962 144.439 21.3153C143.204 23.5459 141.683 25.6061 139.916 27.444C138.008 29.3839 136.148 30.5474 134.338 30.9347C132.656 31.2971 131.648 30.6995 131.314 29.142C131.163 28.3619 131.125 27.5642 131.202 26.7733C131.991 26.9102 132.799 26.889 133.58 26.711C135.899 26.2123 137.942 24.8185 139.709 22.5296C141.476 20.2407 142.141 18.0956 141.704 16.0942C141.587 15.4811 141.342 14.8996 140.985 14.3881C140.627 13.8767 140.165 13.4469 139.629 13.1271C138.52 12.4506 137.236 12.2694 135.774 12.5835C133.78 13.0124 131.904 14.3289 130.147 16.533C128.397 18.734 127.095 21.2566 126.315 23.9583C126.069 24.8062 125.878 25.669 125.744 26.5414C124.898 27.9577 124.078 29.2193 123.288 30.2815C122.079 31.9204 121.189 32.8006 120.617 32.9219C120.298 32.9893 120.091 32.8023 119.996 32.356C119.779 31.3403 120.079 29.3747 120.899 26.4591C121.623 23.7913 122.61 21.2021 123.846 18.7297C123.893 18.6628 123.927 18.5869 123.944 18.5068C123.961 18.4267 123.962 18.3439 123.946 18.2634C123.863 17.8811 123.395 17.4415 122.542 16.9445C121.687 16.4458 120.956 16.2638 120.355 16.3909C119.814 16.5073 118.993 17.754 117.894 20.131C116.917 22.2962 116.122 24.5388 115.516 26.8356C114.556 28.3317 113.317 29.2617 111.776 29.5933C110.983 29.7595 110.318 29.6856 109.781 29.3714C111.95 24.7886 112.831 21.5472 112.424 19.6473C112.173 18.4737 111.57 17.9892 110.616 18.1936C109.287 18.4779 108.007 19.7902 106.779 22.1307C105.551 24.4711 105.187 26.7982 105.687 29.1121C105.73 29.3363 105.794 29.5559 105.879 29.7678C104.983 31.6038 103.925 33.3561 102.717 35.0039C101.655 36.4102 100.795 37.1881 100.127 37.3302C99.7128 37.42 99.456 37.223 99.3538 36.7493C99.1144 35.6372 99.3322 33.6716 100.007 30.8525C100.608 28.2502 101.478 25.7175 102.603 23.2951C102.64 23.2343 102.665 23.1664 102.675 23.0956C102.686 23.0248 102.681 22.9527 102.662 22.8837C102.553 22.385 102.084 21.8863 101.256 21.4425C100.428 20.9987 99.6979 20.8291 99.0621 20.9663C98.4903 21.0876 97.7165 22.3168 96.7407 24.6539C95.8449 26.856 95.1335 29.1286 94.6139 31.4484C93.5331 33.4915 92.2634 35.429 90.8215 37.2355C89.4402 38.9276 88.3364 39.8627 87.5103 40.0405C87.0665 40.1353 86.7997 39.9782 86.7124 39.5643C86.508 38.6118 86.9044 36.8241 87.9018 34.201C88.9443 31.4778 90.1363 28.8142 91.4723 26.2223C91.5813 26.0877 91.634 25.9161 91.6194 25.7435C91.5329 25.3313 91.2296 24.8484 90.7093 24.2949C90.189 23.7414 89.7402 23.5053 89.3629 23.5868C88.3938 24.3265 87.0033 24.8908 85.1915 25.2798C84.5535 25.4185 83.9058 25.5077 83.2541 25.5466C83.6032 24.0755 83.6996 22.9751 83.5434 22.2454C83.3539 21.3577 82.7953 20.9987 81.8753 21.2081C80.6685 21.4674 79.613 22.2753 78.7087 23.6317C77.8045 24.9881 77.4994 26.3528 77.7936 27.7258C77.8587 28.1205 78.0094 28.4963 78.2351 28.8267C78.4608 29.157 78.7561 29.434 79.1002 29.6382C78.4795 31.4736 77.7089 33.2549 76.7963 34.964C75.4527 37.5742 73.7349 39.9741 71.6974 42.0876C69.7908 44.0274 67.9315 45.191 66.1197 45.5783C64.4375 45.939 63.4293 45.3422 63.0952 43.788C62.9447 43.0071 62.9069 42.2086 62.983 41.4169C63.7722 41.5533 64.5805 41.533 65.3617 41.357C67.6805 40.8583 69.7234 39.4646 71.4904 37.1756C73.2574 34.8867 73.9264 32.7416 73.4976 30.7403C73.3801 30.1266 73.1337 29.5448 72.7749 29.0334C72.416 28.5219 71.9527 28.0924 71.4156 27.7731C70.3052 27.0983 69.0203 26.9171 67.5609 27.2296C65.5662 27.6585 63.6903 28.975 61.9333 31.1791C60.1808 33.3802 58.8771 35.9038 58.096 38.6068C57.8619 39.4074 57.6778 40.2218 57.545 41.0453C56.6093 42.4903 55.557 43.8563 54.3984 45.1295C52.6331 47.051 51.275 48.1149 50.3242 48.321C49.656 48.4656 49.2371 48.139 49.0775 47.3461C48.6221 45.2201 49.6626 40.8608 52.1992 34.2684C54.902 33.5553 56.4911 33.0641 56.9665 32.7948C57.4321 32.5194 57.804 32.1102 58.0337 31.6204C58.3279 31.0569 58.4343 30.5848 58.3528 30.2042C58.2855 29.8875 58.0761 29.7678 57.727 29.8426L53.583 30.7303C54.8214 27.8396 55.8345 25.8283 56.6225 24.6963C56.6733 24.6401 56.7098 24.5724 56.7289 24.4991C56.748 24.4257 56.7491 24.3488 56.7322 24.275C56.6349 23.8311 56.1836 23.3948 55.3783 22.9709C54.5729 22.547 53.8374 22.4049 53.1691 22.547C52.8533 22.6169 52.1884 23.5743 51.1744 25.4194C50.0373 27.5048 49.0184 29.6525 48.1226 31.8523L44.1332 32.7125C44.006 32.7374 43.8838 32.9618 43.804 33.3807C43.7131 33.7913 43.7131 34.2168 43.804 34.6274C44.0285 35.6746 44.7607 36.0653 46.0007 35.7993L46.6664 35.6572C46.6694 35.6756 46.6684 35.6944 46.6637 35.7124C46.659 35.7304 46.6506 35.7473 46.639 35.7619C45.7913 37.912 44.8291 40.0153 43.7567 42.0626C42.6398 44.1439 41.4164 46.1662 40.0914 48.1215C38.9644 49.7588 38.1948 50.6224 37.7826 50.7121C37.4634 50.7795 37.2565 50.5924 37.1617 50.1461C36.9307 49.0657 37.1085 47.3004 37.6953 44.8502C38.2644 42.451 39.0912 40.1203 40.1612 37.8987C40.263 37.7986 40.334 37.6714 40.3658 37.5322C40.3976 37.3931 40.3889 37.2477 40.3408 37.1133C40.1862 36.3827 39.6277 35.7195 38.6702 35.1311C38.2058 34.8392 37.6879 34.6429 37.1468 34.5534C36.6057 34.4639 36.0522 34.4832 35.5186 34.61C34.5046 34.8294 32.854 36.6952 30.5668 40.2076C28.317 43.6647 26.2698 47.2496 24.4356 50.944C25.3581 46.4294 26.6621 42.5281 28.3477 39.2401C28.4023 39.1767 28.4401 39.1005 28.4575 39.0185C28.475 38.9366 28.4715 38.8516 28.4474 38.7714C28.346 38.2943 27.9122 37.8223 27.1459 37.3552C26.3804 36.8914 25.6823 36.7243 25.0464 36.8565C24.4746 36.9795 23.6643 38.3093 22.6154 40.8459C22.5431 41.0179 22.4808 41.1999 22.411 41.372C21.7876 42.7932 20.1195 46.5308 18.9626 48.5404C17.3998 51.3574 15.4576 53.9464 13.1905 56.2349C13.2553 56.0654 13.3226 55.9083 13.3825 55.7363C14.1654 53.4856 14.9408 50.9773 15.7088 48.2113C16.4767 45.4453 17.1466 42.8431 17.7184 40.4045C18.2902 37.9577 18.9119 35.673 19.5835 33.5503C20.255 31.4276 20.8983 29.9366 21.5133 29.0772C22.7434 28.4489 23.3127 27.9277 23.2213 27.5138C23.1465 27.1648 22.7833 26.7866 22.1317 26.3794C21.8452 26.1838 21.5223 26.0478 21.1823 25.9792C20.8422 25.9107 20.4919 25.9111 20.152 25.9804C19.2942 26.1649 18.3484 27.0983 17.3145 28.7805C11.2639 30.1485 6.75094 31.9487 3.77552 34.1811C0.800101 36.4135 -0.416663 38.7847 0.125229 41.2947C0.23618 41.8789 0.4718 42.4324 0.816026 42.9173C1.16025 43.4022 1.60499 43.8072 2.11992 44.1047C3.18709 44.7413 4.11711 44.9732 4.91 44.8004C5.48348 44.6773 5.67131 44.3881 5.4735 43.9327C5.19582 42.7009 5.31091 41.413 5.80263 40.25C6.35632 38.9796 7.1849 37.8478 8.22868 36.9363C9.29382 35.9619 10.4362 35.0756 11.6446 34.2858C12.9568 33.4506 14.3163 32.6922 15.7163 32.0144C14.935 33.7763 13.9352 36.3678 12.7167 39.7887C11.4983 43.2096 10.4453 46.1343 9.55764 48.5629C8.73241 50.8864 7.70364 53.1325 6.48332 55.275C5.31975 57.3212 4.21186 58.4565 3.15966 58.6809C2.76712 58.7803 2.35155 58.7287 1.99526 58.5363C1.76399 58.3715 1.48339 58.2906 1.19987 58.3069C0.534973 58.4515 0.31057 59.0333 0.526662 60.0523C0.785972 61.2591 1.5132 62.3653 2.70836 63.371C3.2654 63.8566 3.93129 64.2008 4.64962 64.3744C5.36795 64.548 6.11754 64.5459 6.83488 64.3683C8.01175 64.119 9.11382 63.2937 10.1536 61.9597V62.0071L11.0312 61.2591L11.3005 61.0347C14.6931 58.1989 17.3976 55.216 19.4139 52.086C19.1646 53.6967 19.1272 54.9833 19.3167 55.8734C19.571 57.0852 20.0306 57.9761 20.6955 58.5463C21.3637 59.1173 22.0345 59.3292 22.6902 59.1871C23.0011 59.1314 23.2847 58.9737 23.496 58.7389C23.7073 58.5041 23.8343 58.2056 23.8571 57.8905C24.2727 56.2715 25.8019 53.144 28.4449 48.508C31.0879 43.872 33.3253 40.4453 35.157 38.2278C33.9441 40.8148 32.9887 43.5148 32.3046 46.2889C31.4868 49.4372 31.2682 51.9015 31.6489 53.6817C31.8683 54.699 32.308 55.4678 32.9679 55.9881C33.2736 56.2417 33.6343 56.4206 34.0212 56.5106C34.4081 56.6006 34.8106 56.5993 35.1969 56.5067C36.3339 56.2624 37.5673 55.3789 38.8971 53.8563C40.1831 52.4084 41.3316 50.8442 42.328 49.1837C42.869 48.2736 43.46 47.2289 44.0883 46.0745C43.839 48.0118 43.8115 49.5951 44.0609 50.757C44.5845 53.2005 45.9741 54.1804 48.2298 53.6967C50.04 53.3077 52.0845 51.8059 54.3635 49.1912C55.4645 47.9163 56.4982 46.5847 57.4602 45.2018C57.4876 45.3713 57.4926 45.5509 57.5275 45.7129C57.9049 47.4599 58.7435 48.7332 60.0434 49.5328C61.3432 50.3323 62.9656 50.5268 64.9104 50.1162C67.7063 49.5178 70.2828 47.8763 72.6398 45.1918C75.0396 42.4609 77.0631 39.4211 78.6563 36.1534C79.7484 34.1238 80.7267 32.1033 81.591 30.092C81.9968 30.0618 82.4006 30.0086 82.8003 29.9324C83.9067 29.7136 84.9654 29.2999 85.927 28.7107C81.9692 35.343 80.307 40.1195 80.9403 43.04C81.1063 43.9279 81.5687 44.7331 82.2518 45.324C82.9167 45.8958 83.7478 46.0753 84.7452 45.8625C86.5221 45.4819 88.4902 43.9717 90.6494 41.3321C91.7216 40.0206 92.7572 38.6151 93.7562 37.1158C93.694 38.0664 93.7493 39.0211 93.9207 39.9582ZM133.894 18.3208C135.105 16.1333 136.153 14.9448 137.041 14.7553C137.39 14.6805 137.61 14.85 137.697 15.2539C137.964 16.4907 137.466 18.3241 136.201 20.7543C134.936 23.1845 133.466 24.58 131.793 24.9407L131.411 25.023C131.88 22.6717 132.718 20.4096 133.894 18.3208ZM65.6859 32.9668C66.896 30.781 67.9448 29.5925 68.8325 29.4013C69.1815 29.3265 69.401 29.4961 69.4882 29.9C69.7542 31.1384 69.2597 32.9718 68.0047 35.4004C66.7497 37.8289 65.2803 39.2268 63.5964 39.5942L63.2149 39.6765C63.679 37.3235 64.513 35.0588 65.6859 32.9668Z" fill="#141F31"/>
<path d="M192.778 36.9562C192.482 35.5683 191.946 34.5709 191.169 33.9642C190.782 33.662 190.331 33.4532 189.85 33.3542C189.369 33.2552 188.872 33.2685 188.397 33.3932C187.006 33.6924 185.66 34.659 184.36 36.293C183.06 37.927 181.49 40.4569 179.65 43.8828C180.922 40.1095 181.986 37.4499 182.844 35.904C183.08 35.6231 182.943 35.2907 182.433 34.9067C182.014 34.5703 181.525 34.3336 181.001 34.2144C180.477 34.0951 179.934 34.0966 179.411 34.2185C178.777 34.3532 177.652 36.5764 176.035 40.8883C175.35 42.7167 174.696 44.6059 174.072 46.5557C172.803 48.3958 171.469 49.5477 170.066 49.999C170.983 47.1948 171.214 44.7339 170.759 42.6162C170.501 41.2975 169.826 40.0965 168.834 39.1903C167.848 38.2943 166.646 37.9993 165.226 38.3051C164.097 38.5259 163.059 39.079 162.246 39.8934H162.199C160.778 40.1993 159.298 41.3096 157.761 43.2246C156.153 45.2714 154.939 47.5989 154.18 50.0888C153.898 50.9682 153.681 51.8675 153.532 52.7791C152.748 54.0857 151.984 55.2401 151.241 56.2424C150.039 57.8731 149.154 58.7491 148.585 58.8704C148.173 58.9585 147.924 58.7815 147.837 58.3393C147.573 57.1076 148.095 54.2702 149.403 49.827C150.57 45.7925 152.054 41.8565 153.841 38.0558C159.086 35.9148 163.646 33.9376 167.522 32.1241C171.367 30.3338 174.669 28.6475 177.429 27.065C180.188 25.4826 182.266 24.1328 183.662 23.0158C185.063 21.8955 186.041 20.9363 186.594 20.1385C187.148 19.3406 187.321 18.7189 187.115 18.2734C186.878 17.7747 186.31 17.4797 185.412 17.3883C184.609 17.2927 183.794 17.4141 183.054 17.7398C182.733 17.8493 182.466 18.0754 182.306 18.3732C179.058 22.5953 173.121 26.7218 164.495 30.7527C161.723 32.0468 158.786 33.2835 155.706 34.4629C155.723 34.3806 155.723 34.2958 155.706 34.2135C155.604 33.7398 155.158 33.276 154.367 32.8172C153.577 32.3585 152.846 32.2014 152.183 32.3435C151.583 32.4732 150.814 33.4314 149.877 35.2183L149.066 36.8615C147.132 37.5422 145.207 38.2129 144.329 38.5021C141.049 39.5693 136.329 41.042 130.167 42.9204C124.005 44.7987 118.874 46.4244 114.775 47.7974C111.274 48.9354 107.838 50.2673 104.485 51.7868C102.143 52.8444 99.9188 54.1465 97.8502 55.6714C96.0766 57.0212 94.859 58.2371 94.1974 59.3192C93.6289 60.1846 93.2037 61.136 92.9383 62.1368C92.7621 62.9346 92.7845 63.5713 93.0056 64.0467C93.3031 64.68 93.7893 64.8387 94.4642 64.5229C94.7329 64.4035 94.9651 64.2151 95.1374 63.9769C96.9925 62.0669 101.162 59.5968 107.647 56.5666C109.959 55.4844 112.702 54.2909 115.875 52.9861C119.048 51.6812 121.541 50.6606 123.355 49.9242C125.175 49.1879 128.475 47.9063 133.254 46.0795C137.72 44.3707 140.555 43.2811 141.758 42.8107L141.778 42.7957L147.433 40.5866C146.029 44.1697 144.838 47.8331 143.868 51.5574C142.566 56.4943 142.119 59.9093 142.526 61.8026C142.751 62.8449 143.174 63.6211 143.795 64.1314C144.098 64.3834 144.457 64.56 144.841 64.6467C145.226 64.7334 145.625 64.7277 146.007 64.6301C148.196 64.1597 150.718 61.6705 153.572 57.1625C153.572 57.1924 153.572 57.2248 153.587 57.2547C153.961 58.9901 154.717 60.2368 155.856 60.9948C156.995 61.7528 158.368 61.9614 159.977 61.6206C161.713 61.2483 163.331 60.3232 164.832 58.8455C166.386 57.2909 167.674 55.4907 168.642 53.5172C168.853 53.5091 169.062 53.4807 169.268 53.4324C170.463 53.1531 171.574 52.5923 172.509 51.7968C172.237 52.7742 171.971 53.7615 171.714 54.7664C171.135 57.0253 170.315 60.9998 169.624 64.8096C169.624 64.8096 168.916 68.9312 168.796 69.7565C168.757 70.0058 168.727 70.2277 168.697 70.4172C168.403 72.4568 168.248 73.9902 168.348 74.4565C168.447 74.9552 168.65 75.4275 168.944 75.8424C169.238 76.2574 169.616 76.6059 170.053 76.8651C170.967 77.4286 171.788 77.633 172.514 77.4784C173.241 77.3239 173.456 76.8642 173.16 76.0996C173.093 75.374 173.347 73.2771 173.753 70.6142C173.786 70.3973 173.826 70.138 173.875 69.8163L174.848 64.1339L174.863 64.0891C175.539 60.3939 176.279 56.7037 176.818 54.3649C177.87 56.8151 179.471 57.8124 181.62 57.357C183.545 56.9464 185.488 55.5385 187.449 53.1332C189.435 50.6799 190.956 47.8847 191.937 44.8851C192.97 41.81 193.25 39.167 192.778 36.9562ZM160.997 56.953C159.89 57.1907 159.192 56.6306 158.903 55.2725C158.404 52.967 158.977 50.0198 160.621 46.431L160.661 46.6205C160.951 47.9693 161.519 49.243 162.329 50.3606C163.069 51.4464 164.068 52.3307 165.236 52.9337C163.956 55.2825 162.543 56.6223 160.997 56.953ZM166.607 49.8519C165.554 49.3848 164.633 48.6634 163.927 47.7525C163.21 46.8971 162.704 45.8849 162.451 44.7979C162.341 44.3513 162.308 43.8892 162.354 43.4315C162.841 42.6948 163.434 42.0336 164.114 41.4692C165.919 41.1152 167.012 41.8216 167.393 43.5886C167.743 45.2325 167.482 47.3203 166.607 49.8519ZM186.804 43.1398C185.928 45.5938 184.768 47.9369 183.348 50.1212C181.945 52.2722 180.706 53.4632 179.63 53.6942C179.429 53.7443 179.219 53.7508 179.015 53.7134C178.81 53.676 178.616 53.5955 178.446 53.4773C178.278 53.3666 178.133 53.2236 178.021 53.0567C177.908 52.8898 177.83 52.7022 177.79 52.5049C177.916 50.7911 179.205 47.7991 181.657 43.5287C184.109 39.2584 185.872 37.0053 186.946 36.7692C187.355 36.682 187.629 36.9537 187.764 37.5846C188.016 38.783 187.693 40.6331 186.794 43.1348L186.804 43.1398Z" fill="#141F31"/>
</svg>
