<svg width="435" height="237" viewBox="0 0 435 237" fill="none" xmlns="http://www.w3.org/2000/svg">
<path d="M352.864 0H23.8776C18.2332 0 13.6575 4.5757 13.6575 10.2201V220.851C13.6575 226.495 18.2332 231.071 23.8776 231.071H352.864C358.508 231.071 363.084 226.495 363.084 220.851V10.2201C363.084 4.5757 358.508 0 352.864 0Z" fill="#141F31"/>
<path d="M0 216.151H378.578V223.867C378.578 227.178 377.263 230.354 374.921 232.696C372.58 235.037 369.404 236.353 366.093 236.353H12.4858C9.17434 236.353 5.99854 235.037 3.657 232.696C1.31546 230.354 0 227.178 0 223.867V216.151Z" fill="#141F31"/>
<path d="M352.73 9.18213H23.0356V204.318H352.73V9.18213Z" fill="#263238"/>
<path d="M153.926 213.984L158.625 221.454H224.73L229.093 213.984H153.926Z" fill="#263238"/>
<path d="M344.32 15.7896H32.1194C30.8526 15.7896 29.8257 16.8165 29.8257 18.0833V201.407C29.8257 202.673 30.8526 203.7 32.1194 203.7H344.32C345.587 203.7 346.614 202.673 346.614 201.407V18.0833C346.614 16.8165 345.587 15.7896 344.32 15.7896Z" fill="#EBEBEB"/>
<path d="M346.621 204.648H29.6924L30.2746 30.5061H346.621V204.648Z" fill="white"/>
<path d="M56.3684 23.0427C56.3684 23.5436 56.2199 24.0331 55.9417 24.4496C55.6634 24.866 55.2679 25.1905 54.8052 25.3822C54.3425 25.5739 53.8334 25.624 53.3422 25.5263C52.851 25.4286 52.3998 25.1874 52.0456 24.8333C51.6915 24.4791 51.4503 24.0279 51.3526 23.5367C51.2549 23.0455 51.3051 22.5364 51.4967 22.0737C51.6884 21.611 52.0129 21.2155 52.4294 20.9373C52.8458 20.659 53.3354 20.5105 53.8362 20.5105C54.1687 20.5105 54.498 20.576 54.8052 20.7033C55.1125 20.8305 55.3916 21.017 55.6267 21.2522C55.8619 21.4873 56.0484 21.7665 56.1757 22.0737C56.3029 22.3809 56.3684 22.7102 56.3684 23.0427Z" fill="#263238"/>
<path d="M41.0344 23.0427C41.0344 23.5436 40.8859 24.0331 40.6077 24.4496C40.3294 24.866 39.934 25.1905 39.4712 25.3822C39.0085 25.5739 38.4994 25.624 38.0082 25.5263C37.517 25.4286 37.0658 25.1874 36.7116 24.8333C36.3575 24.4791 36.1163 24.0279 36.0186 23.5367C35.9209 23.0455 35.9711 22.5364 36.1627 22.0737C36.3544 21.611 36.6789 21.2155 37.0954 20.9373C37.5118 20.659 38.0014 20.5105 38.5022 20.5105C38.8347 20.5105 39.164 20.576 39.4712 20.7033C39.7785 20.8305 40.0576 21.017 40.2928 21.2522C40.5279 21.4873 40.7144 21.7665 40.8417 22.0737C40.9689 22.3809 41.0344 22.7102 41.0344 23.0427Z" fill="#263238"/>
<path d="M48.7017 23.0427C48.7017 23.5439 48.553 24.0337 48.2744 24.4503C47.9959 24.8669 47.6 25.1914 47.1368 25.3829C46.6737 25.5743 46.1642 25.6241 45.6728 25.5258C45.1814 25.4275 44.7303 25.1856 44.3764 24.8308C44.0225 24.476 43.7819 24.0241 43.685 23.5324C43.5881 23.0408 43.6393 22.5314 43.832 22.0688C44.0247 21.6062 44.3504 21.2113 44.7677 20.9339C45.1851 20.6565 45.6753 20.5091 46.1764 20.5105C46.8468 20.5124 47.4891 20.78 47.9625 21.2547C48.4358 21.7293 48.7017 22.3724 48.7017 23.0427Z" fill="#263238"/>
<path d="M348.76 214.04C348.76 214.166 276.511 214.264 187.427 214.264C98.3434 214.264 26.0942 214.166 26.0942 214.04C26.0942 213.914 98.3434 213.808 187.462 213.808C276.581 213.808 348.76 213.914 348.76 214.04Z" fill="#263238"/>
<path d="M346.67 173.033H29.8257V204.549H346.67V173.033Z" fill="#5B5CEE"/>
<path opacity="0.7" d="M30.3257 204.049V173.533H346.17V204.049H30.3257Z" fill="white" stroke="#141F31"/>
<path d="M233.476 190.83C234.517 184.453 230.191 178.439 223.813 177.398C217.436 176.357 211.422 180.683 210.381 187.061C209.34 193.438 213.666 199.452 220.044 200.493C226.421 201.534 232.435 197.207 233.476 190.83Z" fill="#5B5CEE"/>
<path d="M221.917 191.551C221.359 191.551 220.824 191.33 220.429 190.935C220.035 190.54 219.813 190.005 219.813 189.447V184.853C219.813 184.295 220.035 183.759 220.429 183.365C220.824 182.97 221.359 182.748 221.917 182.748C222.475 182.748 223.011 182.97 223.405 183.365C223.8 183.759 224.022 184.295 224.022 184.853V189.447C224.022 190.005 223.8 190.54 223.405 190.935C223.011 191.33 222.475 191.551 221.917 191.551ZM221.917 183.176C221.475 183.178 221.052 183.355 220.739 183.667C220.426 183.98 220.25 184.403 220.248 184.846V189.44C220.248 189.883 220.424 190.307 220.737 190.621C221.05 190.934 221.475 191.11 221.917 191.11C222.36 191.11 222.785 190.934 223.098 190.621C223.411 190.307 223.587 189.883 223.587 189.44V184.846C223.585 184.403 223.408 183.98 223.096 183.667C222.783 183.355 222.36 183.178 221.917 183.176Z" fill="white"/>
<path d="M221.917 193.046C221.368 193.076 220.82 192.988 220.308 192.785C219.797 192.583 219.336 192.272 218.957 191.874C217.61 190.387 217.828 188.058 217.835 187.96C217.833 187.928 217.838 187.896 217.85 187.866C217.862 187.835 217.88 187.808 217.903 187.786C217.927 187.764 217.955 187.746 217.985 187.736C218.016 187.725 218.048 187.721 218.08 187.724C218.112 187.727 218.144 187.737 218.172 187.754C218.199 187.77 218.224 187.792 218.242 187.818C218.261 187.845 218.274 187.875 218.28 187.906C218.286 187.938 218.285 187.971 218.277 188.002C218.277 188.002 218.073 190.24 219.287 191.58C219.625 191.93 220.036 192.203 220.49 192.38C220.944 192.557 221.431 192.633 221.917 192.604C222.409 192.629 222.9 192.552 223.359 192.375C223.818 192.199 224.235 191.928 224.583 191.58C225.88 190.233 225.803 188.009 225.803 187.988C225.801 187.959 225.805 187.93 225.815 187.902C225.825 187.875 225.84 187.849 225.859 187.828C225.879 187.806 225.903 187.789 225.929 187.777C225.956 187.764 225.985 187.758 226.014 187.757C226.072 187.758 226.128 187.781 226.171 187.821C226.214 187.861 226.24 187.916 226.245 187.974C226.245 188.072 226.322 190.408 224.905 191.888C224.514 192.277 224.047 192.581 223.533 192.78C223.018 192.979 222.468 193.07 221.917 193.046Z" fill="white"/>
<path d="M221.917 196.265C221.858 196.265 221.802 196.243 221.761 196.202C221.719 196.161 221.694 196.106 221.692 196.048V192.814C221.692 192.755 221.716 192.697 221.758 192.655C221.8 192.613 221.857 192.59 221.917 192.59C221.946 192.59 221.975 192.595 222.002 192.607C222.029 192.618 222.053 192.635 222.073 192.656C222.093 192.677 222.109 192.702 222.12 192.729C222.13 192.756 222.135 192.785 222.134 192.814V196.048C222.134 196.105 222.111 196.161 222.071 196.201C222.03 196.242 221.975 196.265 221.917 196.265Z" fill="white"/>
<path d="M171.334 190.825C172.375 184.448 168.049 178.434 161.671 177.393C155.294 176.352 149.28 180.679 148.239 187.056C147.198 193.433 151.524 199.447 157.902 200.488C164.279 201.529 170.293 197.203 171.334 190.825Z" fill="#5B5CEE"/>
<path d="M156.058 190.078C155.829 190.078 155.606 190.01 155.415 189.883C155.225 189.756 155.077 189.575 154.989 189.364C154.901 189.152 154.878 188.92 154.923 188.695C154.968 188.471 155.078 188.264 155.24 188.102C155.402 187.941 155.608 187.83 155.832 187.786C156.057 187.741 156.29 187.764 156.501 187.852C156.713 187.939 156.893 188.087 157.021 188.278C157.148 188.468 157.216 188.692 157.216 188.921C157.217 189.073 157.187 189.224 157.129 189.365C157.072 189.506 156.986 189.634 156.879 189.741C156.771 189.849 156.643 189.934 156.502 189.992C156.361 190.05 156.211 190.079 156.058 190.078Z" fill="white"/>
<path d="M159.65 190.078C159.49 190.091 159.33 190.07 159.18 190.018C159.029 189.965 158.891 189.882 158.774 189.774C158.656 189.666 158.563 189.534 158.499 189.388C158.435 189.242 158.402 189.084 158.402 188.924C158.402 188.765 158.435 188.607 158.499 188.461C158.563 188.315 158.656 188.183 158.774 188.075C158.891 187.966 159.029 187.884 159.18 187.831C159.33 187.779 159.49 187.758 159.65 187.771C159.94 187.793 160.211 187.925 160.409 188.139C160.607 188.352 160.717 188.633 160.717 188.924C160.717 189.216 160.607 189.496 160.409 189.71C160.211 189.924 159.94 190.056 159.65 190.078Z" fill="white"/>
<path d="M163.486 190.078C163.258 190.078 163.034 190.01 162.843 189.883C162.653 189.756 162.505 189.575 162.417 189.364C162.33 189.152 162.307 188.92 162.351 188.695C162.396 188.471 162.506 188.264 162.668 188.102C162.83 187.941 163.036 187.83 163.261 187.786C163.485 187.741 163.718 187.764 163.929 187.852C164.141 187.939 164.322 188.087 164.449 188.278C164.576 188.468 164.644 188.692 164.644 188.921C164.644 189.228 164.522 189.522 164.305 189.739C164.088 189.956 163.793 190.078 163.486 190.078Z" fill="white"/>
<path d="M190.843 200.425C197.196 200.425 202.347 195.274 202.347 188.921C202.347 182.568 197.196 177.417 190.843 177.417C184.49 177.417 179.339 182.568 179.339 188.921C179.339 195.274 184.49 200.425 190.843 200.425Z" fill="#5B5CEE"/>
<path d="M189.819 185.743C189.593 185.564 189.33 185.436 189.049 185.369C188.767 185.301 188.475 185.296 188.192 185.354C187.909 185.411 187.641 185.53 187.409 185.701C187.176 185.873 186.984 186.093 186.845 186.347C186.709 186.589 186.663 186.871 186.714 187.144C186.765 187.418 186.911 187.664 187.126 187.841C188.178 188.879 190.401 190.962 191.334 191.86C191.593 192.109 191.905 192.295 192.246 192.406C192.588 192.516 192.95 192.548 193.305 192.498C193.586 192.459 193.856 192.363 194.097 192.214C194.339 192.066 194.547 191.869 194.708 191.635C195.795 190.141 193.186 188.977 193.186 188.977L192.05 190.176L189.44 187.609L190.605 186.325L189.819 185.743Z" fill="white"/>
<path d="M126.925 60.9068C123.762 60.9068 120.729 59.6505 118.493 57.4142C116.256 55.1779 115 52.1448 115 48.9822C115 45.8196 116.256 42.7866 118.493 40.5503C120.729 38.314 123.762 37.0576 126.925 37.0576C130.087 37.0576 133.12 38.314 135.357 40.5503C137.593 42.7866 138.849 45.8196 138.849 48.9822C138.849 52.1448 137.593 55.1779 135.357 57.4142C133.12 59.6505 130.087 60.9068 126.925 60.9068Z" fill="#EBEBEB"/>
<path d="M126.483 49.0805C126.917 48.9424 127.287 48.6537 127.527 48.2666C127.766 47.8795 127.86 47.4195 127.79 46.9696C127.72 46.5197 127.492 46.1097 127.146 45.8135C126.8 45.5173 126.36 45.3545 125.905 45.3545C125.449 45.3545 125.009 45.5173 124.663 45.8135C124.317 46.1097 124.089 46.5197 124.019 46.9696C123.949 47.4195 124.043 47.8795 124.282 48.2666C124.522 48.6537 124.892 48.9424 125.326 49.0805C124.545 49.201 123.833 49.5967 123.319 50.1961C122.804 50.7956 122.521 51.5592 122.52 52.3492H129.156C129.16 51.5785 128.896 50.8303 128.408 50.2336C127.92 49.6369 127.24 49.2291 126.483 49.0805Z" fill="#263238"/>
<path d="M130.229 49.6414C130.193 49.6424 130.157 49.6359 130.123 49.6225C130.089 49.6091 130.059 49.589 130.033 49.5634C130.008 49.5378 129.987 49.5073 129.974 49.4737C129.961 49.44 129.954 49.404 129.955 49.3678V46.3165C129.955 46.244 129.984 46.1744 130.035 46.1231C130.087 46.0718 130.156 46.043 130.229 46.043C130.301 46.043 130.371 46.0718 130.422 46.1231C130.473 46.1744 130.502 46.244 130.502 46.3165V49.3678C130.503 49.404 130.497 49.44 130.483 49.4737C130.47 49.5073 130.45 49.5378 130.424 49.5634C130.399 49.589 130.368 49.6091 130.335 49.6225C130.301 49.6359 130.265 49.6424 130.229 49.6414Z" fill="#263238"/>
<path d="M131.757 48.1194H128.699C128.627 48.1176 128.558 48.0882 128.507 48.0373C128.456 47.9864 128.427 47.9178 128.425 47.8458C128.425 47.7733 128.454 47.7037 128.505 47.6524C128.557 47.6011 128.626 47.5723 128.699 47.5723H131.757C131.83 47.5723 131.899 47.6011 131.951 47.6524C132.002 47.7037 132.031 47.7733 132.031 47.8458C132.029 47.9178 132 47.9864 131.949 48.0373C131.898 48.0882 131.829 48.1176 131.757 48.1194Z" fill="#263238"/>
<path d="M106.199 204.605L29.8257 204.241V30.4639H106.199V204.605Z" fill="#FAFAFA"/>
<path d="M106.199 203.195C106.094 203.195 106.017 164.525 106.017 116.833C106.017 69.1417 106.094 30.4639 106.199 30.4639C106.305 30.4639 106.382 69.1277 106.382 116.833C106.382 164.539 106.298 203.195 106.199 203.195Z" fill="#263238"/>
<path d="M103.863 171.188C103.863 171.287 87.6107 171.371 67.5704 171.371C47.53 171.371 31.2634 171.287 31.2634 171.188C31.2634 171.09 47.516 170.999 67.5704 170.999C87.6248 170.999 103.863 171.083 103.863 171.188Z" fill="#E0E0E0"/>
<path d="M87.0288 75.6159V77.3064H86.8534V75.7632H86.4536V75.6089L87.0288 75.6159Z" fill="#E0E0E0"/>
<path d="M87.9195 75.6159V77.3064H87.7302V75.7632H87.3303V75.6089L87.9195 75.6159Z" fill="#E0E0E0"/>
<path d="M88.3264 76.1563C88.3264 76.1391 88.3299 76.1221 88.3366 76.1063C88.3434 76.0905 88.3534 76.0762 88.3658 76.0644C88.3783 76.0526 88.3931 76.0434 88.4092 76.0375C88.4254 76.0316 88.4425 76.029 88.4597 76.03C88.4765 76.029 88.4934 76.0315 88.5092 76.0375C88.525 76.0435 88.5393 76.0528 88.5512 76.0647C88.5632 76.0767 88.5724 76.091 88.5784 76.1068C88.5844 76.1226 88.587 76.1394 88.5859 76.1563C88.5869 76.1734 88.5843 76.1906 88.5784 76.2067C88.5725 76.2229 88.5634 76.2376 88.5515 76.2501C88.5397 76.2626 88.5255 76.2725 88.5097 76.2793C88.4939 76.2861 88.4769 76.2896 88.4597 76.2895C88.4243 76.2895 88.3904 76.2755 88.3655 76.2505C88.3405 76.2255 88.3264 76.1916 88.3264 76.1563ZM88.3264 77.1944C88.3264 77.1591 88.3405 77.1252 88.3655 77.1002C88.3904 77.0752 88.4243 77.0611 88.4597 77.0611C88.495 77.0611 88.5289 77.0752 88.5539 77.1002C88.5789 77.1252 88.593 77.1591 88.593 77.1944C88.593 77.2298 88.5789 77.2637 88.5539 77.2887C88.5289 77.3136 88.495 77.3277 88.4597 77.3277C88.4243 77.3277 88.3904 77.3136 88.3655 77.2887C88.3405 77.2637 88.3264 77.2298 88.3264 77.1944Z" fill="#E0E0E0"/>
<path d="M90.0027 77.1594V77.3067H88.8103V77.1875L89.5117 76.486C89.7011 76.2967 89.7432 76.1774 89.7432 76.0652C89.7432 75.9529 89.6029 75.7425 89.3434 75.7425C89.2559 75.7376 89.1685 75.7521 89.0873 75.7848C89.006 75.8175 88.933 75.8677 88.8734 75.9319L88.7542 75.8267C88.8304 75.7439 88.924 75.6789 89.0283 75.6365C89.1326 75.594 89.245 75.5752 89.3574 75.5812C89.7011 75.5812 89.9185 75.7565 89.9185 76.0441C89.9143 76.1482 89.8869 76.2501 89.8384 76.3423C89.7899 76.4345 89.7214 76.5148 89.638 76.5772L89.0628 77.1454L90.0027 77.1594Z" fill="#E0E0E0"/>
<path d="M91.3774 76.8157C91.3774 77.1033 91.174 77.3277 90.7602 77.3277C90.5366 77.3351 90.3185 77.2574 90.1499 77.1103L90.2341 76.97C90.3029 77.0385 90.3852 77.0919 90.4758 77.1269C90.5663 77.1619 90.6632 77.1778 90.7602 77.1734C91.0478 77.1734 91.2021 77.0261 91.2021 76.8227C91.2021 76.6193 91.0618 76.465 90.6339 76.465H90.2691L90.3533 75.6162H91.2863V75.7705H90.5357L90.4796 76.3106H90.697C91.181 76.3106 91.3774 76.5141 91.3774 76.8157Z" fill="#E0E0E0"/>
<path d="M88.7754 154.964V156.668H88.6V155.118H88.2002V154.964H88.7754Z" fill="#E0E0E0"/>
<path d="M89.6521 154.964V156.668H89.4767V155.118H89.0769V154.964H89.6521Z" fill="#E0E0E0"/>
<path d="M90.0659 155.511C90.0649 155.494 90.0675 155.477 90.0734 155.46C90.0793 155.444 90.0884 155.43 90.1003 155.417C90.1121 155.405 90.1263 155.395 90.1421 155.388C90.1579 155.381 90.1749 155.378 90.1921 155.378C90.2275 155.378 90.2614 155.392 90.2864 155.417C90.3114 155.442 90.3254 155.476 90.3254 155.511C90.3237 155.546 90.3091 155.579 90.2845 155.603C90.2598 155.628 90.2269 155.643 90.1921 155.644C90.158 155.642 90.1259 155.628 90.1024 155.603C90.0789 155.578 90.0658 155.545 90.0659 155.511ZM90.0659 156.542C90.0659 156.509 90.0792 156.477 90.1028 156.453C90.1265 156.429 90.1586 156.416 90.1921 156.416C90.2263 156.416 90.2592 156.429 90.284 156.452C90.3088 156.476 90.3236 156.508 90.3254 156.542C90.3254 156.578 90.3116 156.613 90.2868 156.639C90.262 156.665 90.2281 156.681 90.1921 156.682C90.1614 156.681 90.132 156.669 90.1089 156.649C90.0859 156.628 90.0707 156.601 90.0659 156.57V156.542Z" fill="#E0E0E0"/>
<path d="M92.0227 156.219H91.686V156.668H91.5107V156.219H90.5356V156.093L91.4335 154.964H91.6299L90.7601 156.065H91.4616V155.672H91.6369V156.065H91.9736L92.0227 156.219Z" fill="#E0E0E0"/>
<path d="M93.3418 156.163C93.3418 156.458 93.1384 156.682 92.7245 156.682C92.5009 156.69 92.2828 156.612 92.1143 156.465L92.1984 156.325C92.3425 156.455 92.5306 156.525 92.7245 156.521C93.0121 156.521 93.1664 156.381 93.1664 156.17C93.1664 155.96 93.0261 155.82 92.5983 155.82H92.2335L92.3247 154.964H93.2506V155.118H92.472L92.4159 155.658H92.6403C93.1314 155.658 93.3418 155.869 93.3418 156.163Z" fill="#E0E0E0"/>
<path d="M77.9663 72.0106H43.904L43.8058 57.196C43.7919 55.2288 44.1674 53.2782 44.9106 51.4568C45.6538 49.6353 46.7501 47.9789 48.1363 46.583C49.5224 45.187 51.1711 44.0791 52.9873 43.3231C54.8035 42.5671 56.7513 42.1779 58.7186 42.178H77.9663C81.9233 42.178 85.7182 43.7499 88.5162 46.5479C91.3142 49.3459 92.8861 53.1408 92.8861 57.0978C92.8842 61.0535 91.3115 64.8466 88.5137 67.6431C85.7159 70.4396 81.9221 72.0106 77.9663 72.0106Z" fill="#EBEBEB"/>
<path d="M93.9031 196.847H39.8916C38.1397 196.845 36.4601 196.149 35.2213 194.91C33.9825 193.671 33.2858 191.992 33.2839 190.24V189.952C33.2858 188.2 33.9825 186.521 35.2213 185.282C36.4601 184.043 38.1397 183.346 39.8916 183.344H93.9031C95.6549 183.346 97.3345 184.043 98.5733 185.282C99.8121 186.521 100.509 188.2 100.511 189.952V190.24C100.509 191.992 99.8121 193.671 98.5733 194.91C97.3345 196.149 95.6549 196.845 93.9031 196.847ZM39.8916 183.758C38.2494 183.76 36.6751 184.413 35.514 185.575C34.3528 186.736 33.6996 188.31 33.6978 189.952V190.24C33.6996 191.882 34.3528 193.456 35.514 194.617C36.6751 195.778 38.2494 196.432 39.8916 196.433H93.9031C95.5452 196.432 97.1195 195.778 98.2807 194.617C99.4418 193.456 100.095 191.882 100.097 190.24V189.952C100.095 188.31 99.4418 186.736 98.2807 185.575C97.1195 184.413 95.5452 183.76 93.9031 183.758H39.8916Z" fill="#E0E0E0"/>
<path d="M97.5853 189.889C97.5867 190.554 97.3909 191.204 97.0225 191.758C96.6542 192.311 96.1299 192.743 95.5161 192.998C94.9022 193.254 94.2265 193.321 93.5742 193.192C92.922 193.063 92.3227 192.744 91.8521 192.274C91.3815 191.805 91.0608 191.206 90.9306 190.554C90.8003 189.902 90.8665 189.226 91.1206 188.612C91.3747 187.998 91.8053 187.472 92.358 187.103C92.9107 186.733 93.5606 186.536 94.2254 186.536C94.6663 186.535 95.1031 186.621 95.5107 186.789C95.9183 186.957 96.2887 187.204 96.6008 187.516C96.9129 187.827 97.1605 188.197 97.3295 188.604C97.4984 189.012 97.5853 189.448 97.5853 189.889Z" fill="#5B5CEE"/>
<path d="M94.1412 191.965C94.12 191.963 94.0999 191.955 94.0836 191.941C94.0674 191.927 94.0556 191.909 94.0501 191.888L93.6152 190.296L92.1281 189.77C92.1071 189.763 92.0889 189.75 92.0762 189.733C92.0634 189.715 92.057 189.693 92.0579 189.671C92.0586 189.651 92.0657 189.631 92.0783 189.614C92.0909 189.598 92.1083 189.586 92.1281 189.58L95.6353 188.325C95.6524 188.315 95.6718 188.31 95.6915 188.31C95.7112 188.31 95.7305 188.315 95.7476 188.325C95.7601 188.341 95.7669 188.36 95.7669 188.381C95.7669 188.401 95.7601 188.421 95.7476 188.437L94.2254 191.874C94.224 191.896 94.2149 191.918 94.1996 191.935C94.1842 191.951 94.1636 191.962 94.1412 191.965ZM92.4648 189.671L93.7344 190.12C93.7637 190.135 93.7863 190.16 93.7975 190.19L94.1623 191.551L95.467 188.598L92.4648 189.671Z" fill="white"/>
<path d="M93.6995 190.324C93.6702 190.323 93.6425 190.31 93.6224 190.289C93.6031 190.269 93.5923 190.243 93.5923 190.215C93.5923 190.188 93.6031 190.161 93.6224 190.141L95.5864 188.346C95.6074 188.331 95.6329 188.325 95.6582 188.328C95.6835 188.331 95.7069 188.343 95.724 188.362C95.7412 188.38 95.7509 188.405 95.7514 188.43C95.7519 188.456 95.7431 188.481 95.7267 188.5L93.7627 190.296C93.7457 190.312 93.7233 190.322 93.6995 190.324Z" fill="white"/>
<path d="M48.7576 188.977H48.1123V188.837H49.6064V189.005H48.954V190.681H48.7576V188.977Z" fill="#263238"/>
<path d="M50.9533 189.272L50.2518 190.822C50.2264 190.925 50.1669 191.017 50.0828 191.082C49.9987 191.147 49.8951 191.181 49.7889 191.18C49.6644 191.183 49.5436 191.138 49.4521 191.053L49.5433 190.913C49.5752 190.948 49.6143 190.976 49.6579 190.994C49.7015 191.012 49.7486 191.02 49.7959 191.018C49.9151 191.018 49.9993 190.962 50.0835 190.787L50.1396 190.654L49.5223 189.251H49.7187L50.2378 190.429L50.7639 189.251L50.9533 189.272Z" fill="#263238"/>
<path d="M52.6575 189.959C52.6575 190.145 52.5836 190.324 52.4521 190.455C52.3205 190.587 52.1421 190.661 51.9561 190.661C51.8523 190.664 51.7493 190.641 51.6571 190.593C51.5649 190.545 51.4867 190.474 51.43 190.387V191.159H51.2546V189.265H51.43V189.538C51.4851 189.447 51.5636 189.372 51.6573 189.322C51.7511 189.271 51.8566 189.247 51.9631 189.251C52.0552 189.252 52.1463 189.271 52.231 189.307C52.3158 189.343 52.3926 189.395 52.4571 189.461C52.5215 189.527 52.5724 189.605 52.6068 189.69C52.6412 189.776 52.6585 189.867 52.6575 189.959ZM52.4681 189.959C52.4626 189.858 52.4274 189.76 52.3668 189.678C52.3062 189.596 52.223 189.534 52.1274 189.499C52.0318 189.465 51.9281 189.459 51.8291 189.482C51.7302 189.506 51.6404 189.558 51.5708 189.633C51.5013 189.707 51.4552 189.8 51.4381 189.9C51.4211 190 51.4338 190.104 51.4749 190.197C51.5159 190.29 51.5834 190.369 51.669 190.424C51.7545 190.479 51.8544 190.508 51.9561 190.506C52.0234 190.502 52.0891 190.484 52.1496 190.454C52.21 190.424 52.2639 190.383 52.3083 190.332C52.3526 190.281 52.3864 190.222 52.4078 190.158C52.4293 190.094 52.4378 190.026 52.4331 189.959H52.4681Z" fill="#263238"/>
<path d="M54.2145 190.022H53.0501C53.0592 190.159 53.1217 190.286 53.2241 190.377C53.3266 190.468 53.4607 190.514 53.5973 190.506C53.6775 190.508 53.7572 190.493 53.831 190.462C53.9048 190.43 53.971 190.383 54.0251 190.324L54.1304 190.443C54.0392 190.567 53.9101 190.657 53.7628 190.7C53.6155 190.743 53.4582 190.737 53.3149 190.682C53.1716 190.627 53.0502 190.526 52.9695 190.396C52.8887 190.265 52.853 190.112 52.8678 189.959C52.8678 189.773 52.9417 189.595 53.0732 189.463C53.2048 189.332 53.3832 189.258 53.5692 189.258C53.6629 189.252 53.7569 189.265 53.8448 189.299C53.9327 189.332 54.0126 189.383 54.079 189.449C54.1454 189.516 54.1968 189.596 54.2299 189.684C54.263 189.772 54.2769 189.866 54.2707 189.959L54.2145 190.022ZM53.0501 189.882H54.0602C54.0458 189.761 53.9875 189.65 53.8963 189.569C53.8052 189.488 53.6876 189.443 53.5657 189.443C53.4438 189.443 53.3262 189.488 53.2351 189.569C53.1439 189.65 53.0856 189.761 53.0712 189.882H53.0501Z" fill="#263238"/>
<path d="M56.34 189.798V190.654H56.1646V190.436C56.1138 190.515 56.0425 190.578 55.9584 190.619C55.8744 190.659 55.7807 190.676 55.6877 190.668C55.372 190.668 55.1826 190.506 55.1826 190.268C55.1826 190.029 55.3159 189.875 55.7157 189.875H56.1646V189.791C56.1695 189.739 56.1624 189.687 56.1441 189.638C56.1257 189.589 56.0965 189.545 56.0587 189.509C56.0208 189.474 55.9753 189.447 55.9256 189.431C55.876 189.416 55.8234 189.411 55.7718 189.419C55.6022 189.417 55.4378 189.477 55.3089 189.587L55.2247 189.447C55.3841 189.321 55.5825 189.254 55.7859 189.258C55.8595 189.249 55.9342 189.257 56.0044 189.281C56.0746 189.305 56.1386 189.344 56.1917 189.396C56.2448 189.448 56.2857 189.511 56.3113 189.58C56.337 189.65 56.3468 189.724 56.34 189.798ZM56.1646 190.24V190.015H55.7297C55.4562 190.015 55.372 190.121 55.372 190.261C55.372 190.401 55.4983 190.52 55.7227 190.52C55.8165 190.526 55.9095 190.502 55.9888 190.451C56.0681 190.401 56.1296 190.327 56.1646 190.24Z" fill="#263238"/>
<path d="M59.8263 189.854V190.653H59.672V189.868C59.672 189.58 59.5247 189.426 59.2792 189.426C59.2134 189.422 59.1477 189.433 59.0867 189.458C59.0256 189.482 58.9707 189.52 58.9259 189.568C58.881 189.617 58.8473 189.674 58.8272 189.737C58.807 189.799 58.8009 189.866 58.8092 189.931V190.632H58.6268V189.847C58.6268 189.559 58.4795 189.405 58.227 189.405C58.1613 189.401 58.0955 189.412 58.0345 189.437C57.9734 189.461 57.9185 189.499 57.8737 189.547C57.8289 189.596 57.7952 189.653 57.775 189.716C57.7548 189.778 57.7487 189.845 57.757 189.91V190.611H57.5676V189.208H57.743V189.538C57.7967 189.452 57.8726 189.382 57.9626 189.335C58.0527 189.288 58.1537 189.266 58.255 189.272C58.3574 189.263 58.4599 189.287 58.5479 189.34C58.636 189.393 58.7053 189.472 58.7461 189.566C58.8019 189.472 58.8824 189.395 58.9788 189.343C59.0752 189.291 59.1838 189.266 59.2932 189.272C59.3679 189.27 59.442 189.285 59.5106 189.314C59.5792 189.344 59.6408 189.387 59.6912 189.442C59.7416 189.497 59.7798 189.563 59.8031 189.634C59.8264 189.704 59.8343 189.78 59.8263 189.854Z" fill="#263238"/>
<path d="M61.5518 190.022H60.3734C60.3824 190.159 60.4449 190.286 60.5474 190.377C60.6498 190.468 60.7839 190.514 60.9205 190.506C61.0007 190.508 61.0804 190.493 61.1542 190.462C61.228 190.43 61.2942 190.383 61.3484 190.324L61.4536 190.443C61.3625 190.567 61.2334 190.657 61.0861 190.7C60.9388 190.743 60.7814 190.737 60.6381 190.682C60.4948 190.627 60.3735 190.526 60.2927 190.396C60.212 190.265 60.1762 190.112 60.191 189.959C60.191 189.773 60.2649 189.595 60.3964 189.463C60.528 189.332 60.7064 189.258 60.8924 189.258C60.9862 189.252 61.0801 189.265 61.168 189.299C61.256 189.332 61.3358 189.383 61.4022 189.449C61.4686 189.516 61.5201 189.596 61.5531 189.684C61.5862 189.772 61.6001 189.866 61.5939 189.959L61.5518 190.022ZM60.3874 189.882H61.3694C61.3676 189.819 61.3535 189.758 61.3278 189.701C61.3021 189.643 61.2655 189.592 61.2199 189.549C61.1743 189.506 61.1206 189.472 61.0621 189.45C61.0035 189.428 60.9411 189.417 60.8784 189.419C60.8148 189.416 60.7513 189.426 60.6915 189.448C60.6317 189.47 60.5768 189.503 60.5299 189.546C60.483 189.589 60.445 189.641 60.4181 189.698C60.3913 189.756 60.3761 189.818 60.3734 189.882H60.3874Z" fill="#263238"/>
<path d="M61.7766 190.499L61.8608 190.352C62.0073 190.452 62.181 190.506 62.3588 190.506C62.6184 190.506 62.7306 190.415 62.7306 190.282C62.7306 189.917 61.8257 190.204 61.8257 189.65C61.8257 189.426 62.0221 189.257 62.3799 189.257C62.5497 189.255 62.717 189.298 62.8639 189.384L62.7867 189.538C62.6666 189.457 62.5245 189.416 62.3799 189.419C62.1273 189.419 62.0151 189.517 62.0151 189.65C62.0151 190.022 62.913 189.741 62.913 190.275C62.913 190.513 62.7025 190.667 62.3448 190.667C62.1421 190.675 61.9424 190.616 61.7766 190.499Z" fill="#263238"/>
<path d="M63.0322 190.499L63.1164 190.352C63.2608 190.452 63.4319 190.505 63.6074 190.506C63.874 190.506 63.9792 190.415 63.9792 190.282C63.9792 189.917 63.0813 190.204 63.0813 189.65C63.0813 189.426 63.2777 189.258 63.6285 189.258C63.8006 189.254 63.9705 189.298 64.1195 189.384L64.0423 189.538C63.9203 189.456 63.7755 189.414 63.6285 189.419C63.383 189.419 63.2707 189.517 63.2707 189.65C63.2707 190.022 64.1686 189.742 64.1686 190.275C64.1686 190.513 63.9581 190.667 63.6004 190.667C63.3977 190.675 63.1981 190.616 63.0322 190.499Z" fill="#263238"/>
<path d="M65.5645 189.798V190.654H65.3822V190.436C65.3314 190.515 65.2601 190.578 65.176 190.618C65.0919 190.659 64.9982 190.676 64.9052 190.668C64.5895 190.668 64.4001 190.506 64.4001 190.268C64.4001 190.029 64.5334 189.875 64.9332 189.875H65.3752V189.791C65.38 189.739 65.3729 189.687 65.3546 189.638C65.3362 189.589 65.307 189.545 65.2692 189.509C65.2313 189.474 65.1859 189.447 65.1362 189.431C65.0865 189.416 65.0339 189.411 64.9823 189.419C64.8128 189.417 64.6483 189.477 64.5194 189.587L64.4352 189.447C64.5965 189.319 64.7976 189.252 65.0034 189.258C65.0776 189.248 65.153 189.255 65.2241 189.278C65.2952 189.302 65.3601 189.341 65.4141 189.393C65.468 189.445 65.5095 189.508 65.5355 189.578C65.5616 189.648 65.5715 189.723 65.5645 189.798ZM65.3752 190.24V190.015H64.9403C64.6737 190.015 64.5825 190.12 64.5825 190.261C64.5825 190.401 64.7158 190.52 64.9332 190.52C65.0272 190.527 65.1207 190.503 65.2002 190.453C65.2797 190.402 65.341 190.327 65.3752 190.24Z" fill="#263238"/>
<path d="M67.3883 189.272V190.485C67.4041 190.581 67.3968 190.679 67.3672 190.771C67.3375 190.864 67.2862 190.947 67.2177 191.016C67.1491 191.085 67.0652 191.136 66.9729 191.165C66.8806 191.195 66.7825 191.202 66.6868 191.187C66.4536 191.195 66.2251 191.12 66.0415 190.976L66.1397 190.829C66.293 190.956 66.4875 191.024 66.6868 191.018C67.0376 191.018 67.1989 190.864 67.1989 190.52V190.338C67.1388 190.427 67.0569 190.498 66.9611 190.546C66.8653 190.594 66.7588 190.617 66.6518 190.611C66.5472 190.642 66.437 190.648 66.3299 190.628C66.2227 190.609 66.1216 190.565 66.0345 190.499C65.9474 190.434 65.8767 190.349 65.828 190.252C65.7793 190.154 65.7539 190.047 65.7539 189.938C65.7539 189.829 65.7793 189.722 65.828 189.624C65.8767 189.527 65.9474 189.442 66.0345 189.377C66.1216 189.312 66.2227 189.267 66.3299 189.248C66.437 189.228 66.5472 189.234 66.6518 189.265C66.7605 189.26 66.8686 189.283 66.9657 189.332C67.0628 189.381 67.1456 189.455 67.2059 189.545V189.279L67.3883 189.272ZM67.2059 189.931C67.2101 189.826 67.1829 189.722 67.1277 189.633C67.0725 189.544 66.9918 189.473 66.8962 189.43C66.8005 189.387 66.6941 189.374 66.5907 189.392C66.4873 189.409 66.3916 189.458 66.3159 189.53C66.2402 189.603 66.188 189.697 66.1659 189.799C66.1439 189.902 66.153 190.009 66.1921 190.106C66.2312 190.203 66.2986 190.287 66.3855 190.346C66.4724 190.405 66.5749 190.436 66.6798 190.436C66.7458 190.436 66.8112 190.423 66.872 190.397C66.9329 190.372 66.9881 190.335 67.0345 190.288C67.0808 190.241 67.1174 190.185 67.142 190.124C67.1666 190.063 67.1788 189.997 67.1778 189.931H67.2059Z" fill="#263238"/>
<path d="M69.0925 190.022H67.9352C67.9387 190.09 67.9558 190.157 67.9853 190.218C68.0149 190.279 68.0563 190.334 68.1072 190.379C68.1582 190.424 68.2176 190.458 68.282 190.48C68.3464 190.502 68.4144 190.511 68.4823 190.506C68.5615 190.508 68.6401 190.493 68.7128 190.461C68.7854 190.43 68.8504 190.383 68.9032 190.324L69.0084 190.443C68.9406 190.516 68.858 190.574 68.766 190.613C68.6741 190.651 68.575 190.67 68.4753 190.667C68.2892 190.667 68.1108 190.594 67.9793 190.462C67.8477 190.33 67.7738 190.152 67.7738 189.966C67.7456 189.862 67.7416 189.753 67.7624 189.647C67.7831 189.541 67.828 189.442 67.8935 189.356C67.9589 189.27 68.0433 189.201 68.1399 189.153C68.2366 189.105 68.3429 189.081 68.4507 189.081C68.5585 189.081 68.6649 189.105 68.7615 189.153C68.8582 189.201 68.9425 189.27 69.008 189.356C69.0734 189.442 69.1183 189.541 69.1391 189.647C69.1598 189.753 69.1559 189.862 69.1276 189.966C69.1276 189.966 69.0925 190.001 69.0925 190.022ZM67.9352 189.882H68.9172C68.9172 189.752 68.8654 189.627 68.7734 189.535C68.6813 189.443 68.5564 189.391 68.4262 189.391C68.2959 189.391 68.1711 189.443 68.079 189.535C67.9869 189.627 67.9352 189.752 67.9352 189.882Z" fill="#263238"/>
<path d="M69.3591 190.527C69.3591 190.49 69.3739 190.454 69.4002 190.428C69.4265 190.402 69.4622 190.387 69.4994 190.387C69.5366 190.387 69.5723 190.402 69.5986 190.428C69.6249 190.454 69.6397 190.49 69.6397 190.527C69.6397 190.564 69.6249 190.6 69.5986 190.626C69.5723 190.653 69.5366 190.668 69.4994 190.668C69.4622 190.668 69.4265 190.653 69.4002 190.626C69.3739 190.6 69.3591 190.564 69.3591 190.527Z" fill="#263238"/>
<path d="M69.9207 190.527C69.9207 190.49 69.9354 190.454 69.9617 190.428C69.9881 190.402 70.0237 190.387 70.0609 190.387C70.0981 190.387 70.1338 190.402 70.1601 190.428C70.1864 190.454 70.2012 190.49 70.2012 190.527C70.2012 190.564 70.1864 190.6 70.1601 190.626C70.1338 190.653 70.0981 190.668 70.0609 190.668C70.0237 190.668 69.9881 190.653 69.9617 190.626C69.9354 190.6 69.9207 190.564 69.9207 190.527Z" fill="#263238"/>
<path d="M70.4743 190.527C70.4733 190.508 70.4763 190.489 70.4829 190.471C70.4895 190.454 70.4997 190.437 70.5128 190.423C70.526 190.41 70.5417 190.399 70.5592 190.391C70.5767 190.384 70.5956 190.38 70.6146 190.38C70.6361 190.375 70.6585 190.375 70.6799 190.38C70.7014 190.385 70.7215 190.395 70.7387 190.409C70.7559 190.423 70.7698 190.44 70.7793 190.46C70.7889 190.48 70.7938 190.502 70.7938 190.524C70.7938 190.546 70.7889 190.568 70.7793 190.587C70.7698 190.607 70.7559 190.625 70.7387 190.639C70.7215 190.652 70.7014 190.662 70.6799 190.667C70.6585 190.672 70.6361 190.672 70.6146 190.668C70.5774 190.668 70.5417 190.653 70.5154 190.626C70.4891 190.6 70.4743 190.564 70.4743 190.527Z" fill="#263238"/>
<path d="M39.8421 191.25C39.7175 191.399 39.5388 191.492 39.3455 191.509C39.1521 191.526 38.9598 191.466 38.811 191.341C38.6622 191.216 38.569 191.038 38.5519 190.844C38.5348 190.651 38.5952 190.459 38.7198 190.31L40.2349 188.5C40.2744 188.446 40.3248 188.402 40.3828 188.369C40.4408 188.336 40.5051 188.316 40.5714 188.31C40.6378 188.304 40.7046 188.313 40.7675 188.334C40.8304 188.356 40.888 188.391 40.9364 188.437C41.0313 188.519 41.0903 188.634 41.1008 188.759C41.1113 188.883 41.0724 189.007 40.9925 189.103L39.7089 190.64C39.6603 190.676 39.6012 190.696 39.5405 190.696C39.4798 190.696 39.4207 190.676 39.3722 190.64C39.3259 190.598 39.2947 190.543 39.2833 190.482C39.2718 190.421 39.2809 190.358 39.309 190.303L40.2911 189.117L40.1578 189.005L39.2108 190.141L39.1688 190.191C39.1136 190.281 39.0925 190.387 39.1092 190.492C39.1259 190.596 39.1794 190.691 39.2599 190.759C39.3389 190.827 39.4397 190.864 39.544 190.864C39.6483 190.864 39.7491 190.827 39.8281 190.759L41.0837 189.258C41.1889 189.126 41.2382 188.958 41.2212 188.79C41.2041 188.622 41.122 188.468 40.9925 188.36C40.863 188.251 40.6962 188.197 40.5273 188.208C40.3585 188.22 40.2008 188.297 40.0876 188.423L38.5094 190.317C38.3568 190.503 38.2844 190.742 38.3081 190.981C38.3318 191.221 38.4496 191.441 38.6356 191.593C38.8217 191.746 39.0607 191.818 39.3001 191.795C39.5395 191.771 39.7597 191.653 39.9123 191.467L41.1819 189.938L41.0486 189.826L39.8421 191.25Z" fill="#E0E0E0"/>
<path d="M82.1959 50.3639C82.1959 50.4271 75.7566 50.4762 67.8162 50.4762C59.8758 50.4762 53.4365 50.4271 53.4365 50.3639C53.4365 50.3008 59.8688 50.2517 67.8162 50.2517C75.7636 50.2517 82.1959 50.3008 82.1959 50.3639Z" fill="#263238"/>
<path d="M82.1959 53.9203C82.1959 53.9835 75.7566 54.0326 67.8162 54.0326C59.8758 54.0326 53.4365 53.9835 53.4365 53.9203C53.4365 53.8572 59.8688 53.8081 67.8162 53.8081C75.7636 53.8081 82.1959 53.8572 82.1959 53.9203Z" fill="#263238"/>
<path d="M82.1959 57.4765C82.1959 57.5396 75.7566 57.5887 67.8162 57.5887C59.8758 57.5887 53.4365 57.5396 53.4365 57.4765C53.4365 57.4134 59.8688 57.3643 67.8162 57.3643C75.7636 57.3643 82.1959 57.4134 82.1959 57.4765Z" fill="#263238"/>
<path d="M82.1959 61.0331C82.1959 61.0963 75.7566 61.1454 67.8162 61.1454C59.8758 61.1454 53.4365 61.0963 53.4365 61.0331C53.4365 60.97 59.8688 60.9209 67.8162 60.9209C75.7636 60.9209 82.1959 60.97 82.1959 61.0331Z" fill="#263238"/>
<path d="M67.8653 64.5894C67.6782 64.6253 67.4875 64.6394 67.2971 64.6315L65.7539 64.6735C64.4422 64.6735 62.6395 64.6735 60.6474 64.6735C58.6553 64.6735 56.8526 64.6735 55.5479 64.6735L53.9977 64.6315C53.8096 64.6397 53.6212 64.6256 53.4365 64.5894C53.6218 64.5576 53.8097 64.5435 53.9977 64.5473L55.5479 64.5122C56.8526 64.5122 58.6553 64.5122 60.6474 64.5122C62.6395 64.5122 64.4422 64.5122 65.7539 64.5122L67.2971 64.5473C67.4874 64.5438 67.6776 64.5579 67.8653 64.5894Z" fill="#263238"/>
<path d="M51.4372 82.9671H72.4807C73.4888 82.9625 74.4879 83.1576 75.4201 83.5413C76.3524 83.9249 77.1994 84.4895 77.9123 85.2023C78.6252 85.9152 79.1897 86.7622 79.5734 87.6945C79.957 88.6268 80.1522 89.6258 80.1475 90.6339V91.5669C80.1475 93.5909 79.3435 95.5321 77.9122 96.9633C76.481 98.3946 74.5398 99.1986 72.5158 99.1986H43.8055V90.6339C43.8009 89.6288 43.9949 88.6326 44.3763 87.7026C44.7578 86.7726 45.3192 85.9272 46.0284 85.2148C46.7375 84.5024 47.5804 83.9371 48.5086 83.5514C49.4368 83.1657 50.4321 82.9671 51.4372 82.9671Z" fill="#EBEBEB"/>
<path d="M74.62 89.1188C74.62 89.182 68.9594 89.2381 61.994 89.2381C55.0286 89.2381 49.3679 89.182 49.3679 89.1188C49.3679 89.0557 55.0286 89.0066 61.994 89.0066C68.9594 89.0066 74.62 89.0627 74.62 89.1188Z" fill="#263238"/>
<path d="M64.7718 93.068C64.5723 93.0994 64.3705 93.1135 64.1686 93.1101L62.5132 93.1452C61.1103 93.1452 59.1813 93.1802 57.0489 93.1802C54.9165 93.1802 52.9875 93.1802 51.5916 93.1452L49.9362 93.1101C49.7319 93.1136 49.5278 93.0995 49.3259 93.068C49.5272 93.0313 49.7316 93.0149 49.9362 93.0189H51.5916C52.9945 93.0189 54.9165 93.0189 57.0489 93.0189C59.1813 93.0189 61.1173 93.0189 62.5132 93.0189H64.1686C64.3708 93.0151 64.5729 93.0315 64.7718 93.068Z" fill="#263238"/>
<path d="M45.3274 133.773V135.477H45.152V133.927H44.7522V133.773H45.3274Z" fill="#E0E0E0"/>
<path d="M46.204 133.773V135.477H46.0286V133.927H45.6428V133.773H46.204Z" fill="#E0E0E0"/>
<path d="M46.6112 134.32C46.6102 134.302 46.6129 134.285 46.6192 134.268C46.6256 134.251 46.6354 134.236 46.6479 134.224C46.6605 134.211 46.6756 134.201 46.6923 134.195C46.7089 134.189 46.7267 134.186 46.7445 134.187C46.7798 134.187 46.8137 134.201 46.8387 134.226C46.8637 134.251 46.8777 134.285 46.8777 134.32C46.8777 134.356 46.8637 134.389 46.8387 134.414C46.8137 134.439 46.7798 134.454 46.7445 134.454C46.7267 134.455 46.7089 134.452 46.6923 134.445C46.6756 134.439 46.6605 134.429 46.6479 134.417C46.6354 134.404 46.6256 134.389 46.6192 134.372C46.6129 134.356 46.6102 134.338 46.6112 134.32ZM46.6112 135.358C46.6102 135.341 46.6129 135.323 46.6192 135.306C46.6256 135.29 46.6354 135.274 46.6479 135.262C46.6605 135.249 46.6756 135.24 46.6923 135.233C46.7089 135.227 46.7267 135.224 46.7445 135.225C46.7616 135.225 46.7787 135.229 46.7944 135.235C46.8102 135.242 46.8245 135.252 46.8363 135.265C46.8481 135.277 46.8573 135.292 46.8632 135.308C46.8691 135.324 46.8717 135.341 46.8707 135.358C46.8753 135.378 46.8754 135.398 46.871 135.418C46.8666 135.437 46.8578 135.456 46.8454 135.472C46.8329 135.487 46.817 135.5 46.7989 135.509C46.7808 135.517 46.761 135.522 46.7409 135.522C46.7209 135.522 46.701 135.517 46.6829 135.509C46.6649 135.5 46.649 135.487 46.6365 135.472C46.624 135.456 46.6153 135.437 46.6109 135.418C46.6065 135.398 46.6066 135.378 46.6112 135.358Z" fill="#E0E0E0"/>
<path d="M48.2524 134.986C48.2524 135.274 48.0419 135.492 47.6351 135.492C47.4094 135.499 47.1892 135.421 47.0178 135.274L47.109 135.134C47.2515 135.266 47.4407 135.337 47.6351 135.33C47.9157 135.33 48.07 135.197 48.07 134.986C48.07 134.776 47.9297 134.65 47.614 134.65H47.4878V134.524L47.9648 133.927H47.088V133.773H48.1892V133.899L47.7052 134.502C48.07 134.524 48.2524 134.713 48.2524 134.986Z" fill="#E0E0E0"/>
<path d="M48.4983 134.629C48.4983 134.082 48.7789 133.759 49.1997 133.759C49.6206 133.759 49.9012 134.082 49.9012 134.629C49.9012 135.176 49.6136 135.492 49.1997 135.492C48.7859 135.492 48.4983 135.169 48.4983 134.629ZM49.6767 134.629C49.6767 134.173 49.4733 133.927 49.1787 133.927C48.8841 133.927 48.6737 134.18 48.6737 134.629C48.6737 135.078 48.8771 135.33 49.1787 135.33C49.4803 135.33 49.6767 135.078 49.6767 134.629Z" fill="#E0E0E0"/>
<path d="M94.3167 129.417H49.9992C47.9751 129.417 46.0339 128.613 44.6027 127.182C43.1715 125.75 42.3674 123.809 42.3674 121.785V120.852C42.3674 118.828 43.1715 116.887 44.6027 115.456C46.0339 114.025 47.9751 113.221 49.9992 113.221H86.6849C88.709 113.221 90.6501 114.025 92.0814 115.456C93.5126 116.887 94.3167 118.828 94.3167 120.852V129.417Z" fill="#EBEBEB"/>
<path d="M85.8993 119.204C85.8993 119.267 77.9169 119.316 68.0685 119.316C58.2202 119.316 50.2307 119.267 50.2307 119.204C50.2307 119.141 58.2202 119.092 68.0685 119.092C77.9169 119.092 85.8993 119.141 85.8993 119.204Z" fill="#263238"/>
<path d="M85.8993 123.048C85.8993 123.111 77.9169 123.16 68.0685 123.16C58.2202 123.16 50.2307 123.111 50.2307 123.048C50.2307 122.985 58.2202 122.936 68.0685 122.936C77.9169 122.936 85.8993 122.985 85.8993 123.048Z" fill="#263238"/>
<path d="M50.1117 143.467H71.1552C73.1792 143.467 75.1204 144.271 76.5516 145.703C77.9829 147.134 78.7869 149.075 78.7869 151.099V152.032C78.7869 154.056 77.9829 155.997 76.5516 157.428C75.1204 158.86 73.1792 159.664 71.1552 159.664H42.48V151.106C42.4791 150.103 42.6758 149.11 43.0589 148.183C43.442 147.257 44.004 146.414 44.7128 145.705C45.4216 144.996 46.2632 144.433 47.1896 144.049C48.1159 143.665 49.1089 143.467 50.1117 143.467Z" fill="#EBEBEB"/>
<path d="M74.031 149.359C74.031 149.422 68.0406 149.472 60.6474 149.472C53.2541 149.472 47.2708 149.422 47.2708 149.359C47.2708 149.296 53.2611 149.247 60.6474 149.247C68.0336 149.247 74.031 149.296 74.031 149.359Z" fill="#263238"/>
<path d="M64.477 153.203C64.2459 153.247 64.0105 153.263 63.7755 153.252L61.9307 153.287C60.3735 153.287 58.2201 153.322 55.8492 153.322C53.4783 153.322 51.3178 153.322 49.7606 153.287L47.9158 153.252C47.6809 153.263 47.4455 153.247 47.2144 153.203C47.4466 153.17 47.6812 153.156 47.9158 153.161L49.7606 153.126C51.3178 153.126 53.4713 153.126 55.8492 153.126C58.2271 153.126 60.3735 153.126 61.9307 153.126L63.7755 153.161C64.0101 153.156 64.2447 153.17 64.477 153.203Z" fill="#263238"/>
<path d="M201.428 105.513C201.428 105.513 205.146 114.974 204.128 121.735C203.11 128.496 199.392 132.224 191.27 136.274C183.149 140.324 170.313 146.078 168.952 150.139C167.591 154.2 168.952 173.186 168.952 173.186H268.35C268.35 173.186 265.982 153.525 260.914 146.753C255.847 139.982 235.564 134.592 229.843 130.864C224.121 127.135 226.467 105.845 226.467 105.845C226.467 105.845 211.231 110.57 201.428 105.513Z" fill="white" stroke="#141F31" stroke-linecap="round" stroke-linejoin="round"/>
<path d="M189.749 137.067C187.906 137.967 185.881 138.953 183.856 139.96C187.381 150.675 184.124 164.293 181.113 173.175H251.507C250.396 170.821 249.642 168.315 249.267 165.739C248.121 157.693 248.882 145.543 249.418 139.275C247.039 138.203 244.542 137.185 242.121 136.221C238.596 144.568 229.778 160.778 214.981 158.775C200.313 156.814 192.695 143.785 189.749 137.067Z" fill="#141F31" stroke="#141F31" stroke-linecap="round" stroke-linejoin="round"/>
<path d="M184.521 110.924C184.521 110.924 186.535 115.992 194.035 116.999C201.535 118.006 197.828 107.12 219.985 106.36C235.586 105.824 220.071 118.681 223.457 119.367C226.843 120.053 235.243 119.024 240.021 107.87C244.8 96.7165 245.764 68.3124 235.961 59.1837C226.157 50.055 197.389 50.3871 193.028 58.5087C188.667 66.6303 191.667 80.8162 187.671 88.5949C183.674 96.3736 181.81 106.863 184.521 110.924Z" fill="#141F31" stroke="#141F31" stroke-linecap="round" stroke-linejoin="round"/>
<path d="M194.034 84.8557C194.034 84.8557 191.334 77.7521 190.316 82.8307C189.299 87.9094 190.317 92.9666 192.684 95.0023C195.052 97.0381 196.402 96.6845 196.402 96.6845L194.034 84.8557Z" fill="white" stroke="#141F31" stroke-linecap="round" stroke-linejoin="round"/>
<path d="M204.674 48.673C204.674 48.673 198.963 50.098 195.149 60.5767C191.335 71.0555 194.313 98.5917 196.692 101.452C199.071 104.313 206.989 116.196 214.607 116.667C219.46 116.967 231.632 105.813 233.539 100.102C235.446 94.3916 236.11 68.6769 234.675 62.4839C233.239 56.291 221.346 41.9979 204.674 48.673Z" fill="white" stroke="#141F31" stroke-linecap="round" stroke-linejoin="round"/>
<path d="M208.156 82.5204C208.156 82.8303 208.064 83.1331 207.892 83.3906C207.719 83.6481 207.474 83.8486 207.188 83.9666C206.902 84.0847 206.586 84.1151 206.283 84.0538C205.979 83.9926 205.7 83.8425 205.482 83.6227C205.264 83.4028 205.115 83.1231 205.056 82.819C204.997 82.5148 205.03 82.2 205.15 81.9143C205.27 81.6287 205.472 81.3851 205.731 81.2145C205.989 81.0439 206.293 80.954 206.603 80.9561C206.808 80.9561 207.01 80.9966 207.2 81.0754C207.389 81.1541 207.561 81.2695 207.705 81.4149C207.849 81.5603 207.964 81.7328 208.041 81.9226C208.118 82.1123 208.158 82.3155 208.156 82.5204Z" fill="#141F31"/>
<path d="M223.703 82.5204C223.703 82.8298 223.612 83.1322 223.44 83.3895C223.268 83.6467 223.023 83.8472 222.738 83.9656C222.452 84.084 222.137 84.115 221.834 84.0547C221.53 83.9943 221.252 83.8453 221.033 83.6265C220.814 83.4078 220.665 83.129 220.605 82.8256C220.544 82.5221 220.575 82.2076 220.694 81.9218C220.812 81.6359 221.013 81.3916 221.27 81.2197C221.527 81.0478 221.83 80.9561 222.139 80.9561C222.345 80.9547 222.549 80.9942 222.739 81.0723C222.93 81.1504 223.103 81.2656 223.248 81.4111C223.394 81.5566 223.509 81.7297 223.587 81.9201C223.665 82.1105 223.705 82.3146 223.703 82.5204Z" fill="#141F31"/>
<path d="M208.542 98.5808C208.542 98.5808 213.61 101.431 220.875 98.5808" stroke="#141F31" stroke-linecap="round" stroke-linejoin="round"/>
<path d="M217.714 88.1562C217.714 88.1562 219.932 90.9955 217.714 92.5812C216.744 93.2439 215.61 93.624 214.436 93.6788C213.263 93.7337 212.098 93.4613 211.071 92.8919C209.174 91.9491 211.392 87.8347 211.392 87.8347" stroke="#141F31" stroke-linecap="round" stroke-linejoin="round"/>
<path d="M209.324 75.3518C208.367 74.316 207.125 73.5857 205.755 73.2522C204.385 72.9186 202.947 72.9968 201.62 73.4767C196.81 75.0839 196.574 79.0804 196.574 79.0804C196.574 79.0804 199.499 75.3518 202.113 75.3089C204.728 75.266 208.446 78.2018 209.324 75.3518Z" fill="#141F31"/>
<path d="M218.036 75.7056C218.933 74.6204 220.13 73.8247 221.478 73.4186C222.826 73.0125 224.264 73.0142 225.611 73.4234C230.508 74.7627 230.968 78.7806 230.968 78.7806C230.968 78.7806 227.829 75.2234 225.225 75.3199C222.622 75.4163 219.064 78.5128 218.036 75.7056Z" fill="#141F31"/>
<path d="M209.539 57.1701C209.539 57.1701 201.085 54.8558 197.699 60.213C194.313 65.5703 196.017 76.1026 190.938 85.5635C185.86 95.0243 188.913 109.564 189.588 111.6C190.263 113.635 185.195 116.335 182.495 106.189C179.795 96.0422 187.563 86.2385 188.238 75.7597C188.913 65.281 186.535 53.7844 197.024 47.6985C207.514 41.6127 209.539 45.3306 209.539 45.3306V57.1701Z" fill="#141F31" stroke="#141F31" stroke-linecap="round" stroke-linejoin="round"/>
<path d="M251.122 73.0698C249.097 66.984 249.429 55.8195 241.318 46.6908C236.228 40.9693 226.5 37.6478 218.517 37.4549C217.232 37.189 215.914 37.1132 214.607 37.2299C201.749 38.3014 193.649 45.0086 196.017 50.0873C198.385 55.1659 209.539 57.191 209.539 57.191L211.232 57.866C211.174 57.2929 211.153 56.7167 211.167 56.1409C212.989 55.2945 216.096 54.7374 219.342 58.1981C224.994 64.5242 228.121 72.7083 228.128 81.1914C227.796 94.0487 234.214 98.7738 234.214 104.185C234.214 109.595 224.753 116.356 222.718 118.049C220.467 119.924 231.289 120.846 231.964 120.803C242.861 120.128 250.104 113.013 254.647 103.52C259.993 92.3558 254.614 83.5378 251.122 73.0698Z" fill="#141F31" stroke="#141F31" stroke-linecap="round" stroke-linejoin="round"/>
<path d="M238.842 113.485C238.339 114.31 237.689 115.037 236.924 115.628" stroke="white" stroke-linecap="round" stroke-linejoin="round"/>
<path d="M209.539 55.8084C209.539 55.8084 201.428 51.4154 208.189 48.0404C214.949 44.6653 227.475 55.1334 230.496 64.9371C233.518 74.7408 231.171 85.9053 235.575 93.6733C237.653 97.3698 240.353 103.498 240.15 108.674" stroke="white" stroke-linecap="round" stroke-linejoin="round"/>
<path d="M203.506 49.7984C203.249 48.8662 203.763 47.5269 206.153 45.6733C212.238 40.9375 223.403 43.3054 229.146 49.3912C234.889 55.477 236.925 62.9129 237.6 71.6987C238.275 80.4846 239.625 85.9275 244.393 91.2848C249.161 96.642 251.828 102.439 247.093 109.199" stroke="white" stroke-linecap="round" stroke-linejoin="round"/>
<path d="M203.11 55.8087C203.11 55.8087 193.649 51.7586 199.06 46.6799" stroke="white" stroke-linecap="round" stroke-linejoin="round"/>
<path d="M191.26 110.195C191.992 111.271 192.914 112.204 193.981 112.949" stroke="white" stroke-linecap="round" stroke-linejoin="round"/>
<path d="M189.256 89.6238C189.256 89.6238 186.877 99.7275 189.706 107.196" stroke="white" stroke-linecap="round" stroke-linejoin="round"/>
<path d="M238.35 52.7126C241.014 57.1739 242.708 62.1462 243.322 67.3057C244.672 79.4774 240.954 83.5382 246.707 89.9561C249.219 92.6178 250.661 96.1122 250.757 99.7706" stroke="white" stroke-linecap="round" stroke-linejoin="round"/>
<path d="M234.214 47.0229C234.214 47.0229 234.707 47.5265 235.457 48.4801" stroke="white" stroke-linecap="round" stroke-linejoin="round"/>
<path d="M292.663 53.0352C292.666 52.231 292.986 51.4605 293.555 50.8918C294.124 50.3231 294.894 50.0025 295.698 50H431.132C431.936 50.0025 432.707 50.3231 433.275 50.8918C433.844 51.4605 434.165 52.231 434.167 53.0352V62.8029H292.663V53.0352Z" fill="#141F31"/>
<path d="M317.201 58.9603C316.694 58.9603 316.199 58.81 315.778 58.5286C315.356 58.2471 315.028 57.847 314.834 57.379C314.64 56.9109 314.59 56.3959 314.688 55.899C314.787 55.4021 315.031 54.9457 315.389 54.5874C315.748 54.2292 316.204 53.9852 316.701 53.8864C317.198 53.7875 317.713 53.8383 318.181 54.0321C318.649 54.226 319.049 54.5543 319.331 54.9756C319.612 55.3968 319.762 55.8921 319.762 56.3987C319.762 57.0781 319.492 57.7296 319.012 58.21C318.532 58.6904 317.88 58.9603 317.201 58.9603ZM317.201 54.3736C316.8 54.3736 316.409 54.4924 316.076 54.7149C315.743 54.9374 315.483 55.2537 315.33 55.6238C315.177 55.9938 315.136 56.401 315.215 56.7938C315.293 57.1866 315.486 57.5474 315.769 57.8307C316.052 58.1139 316.413 58.3067 316.806 58.3849C317.198 58.463 317.606 58.4229 317.976 58.2696C318.346 58.1164 318.662 57.8568 318.885 57.5238C319.107 57.1908 319.226 56.7992 319.226 56.3987C319.225 55.862 319.011 55.3477 318.631 54.9682C318.252 54.5887 317.737 54.3749 317.201 54.3736Z" fill="#F0F0F0"/>
<path d="M309.066 58.9603C308.56 58.9593 308.065 58.8083 307.644 58.5262C307.224 58.2442 306.896 57.8438 306.703 57.3756C306.51 56.9075 306.46 56.3926 306.559 55.896C306.658 55.3994 306.903 54.9435 307.261 54.5857C307.62 54.228 308.076 53.9845 308.573 53.886C309.07 53.7876 309.584 53.8386 310.052 54.0326C310.52 54.2266 310.92 54.5549 311.201 54.9761C311.482 55.3972 311.632 55.8923 311.632 56.3987C311.632 56.7355 311.566 57.069 311.437 57.3801C311.308 57.6912 311.119 57.9738 310.88 58.2117C310.642 58.4496 310.359 58.6382 310.048 58.7667C309.736 58.8951 309.403 58.9609 309.066 58.9603ZM309.066 54.3736C308.666 54.3746 308.275 54.4942 307.942 54.7173C307.61 54.9404 307.351 55.257 307.199 55.6271C307.046 55.9972 307.007 56.4042 307.085 56.7967C307.164 57.1892 307.357 57.5496 307.641 57.8324C307.924 58.1151 308.285 58.3075 308.678 58.3852C309.07 58.463 309.477 58.4226 309.847 58.2692C310.217 58.1158 310.533 57.8562 310.755 57.5233C310.977 57.1904 311.096 56.799 311.096 56.3987C311.095 55.8612 310.88 55.3461 310.5 54.9665C310.119 54.5868 309.604 54.3736 309.066 54.3736Z" fill="#F0F0F0"/>
<path d="M300.937 58.9603C300.43 58.9593 299.935 58.8083 299.515 58.5262C299.094 58.2442 298.767 57.8438 298.573 57.3756C298.38 56.9075 298.33 56.3926 298.43 55.896C298.529 55.3994 298.773 54.9435 299.132 54.5857C299.49 54.228 299.947 53.9845 300.443 53.886C300.94 53.7876 301.455 53.8386 301.923 54.0326C302.391 54.2266 302.79 54.5549 303.072 54.9761C303.353 55.3972 303.503 55.8923 303.503 56.3987C303.503 56.7355 303.437 57.069 303.308 57.3801C303.179 57.6912 302.989 57.9738 302.751 58.2117C302.513 58.4496 302.23 58.6382 301.918 58.7667C301.607 58.8951 301.273 58.9609 300.937 58.9603ZM300.937 54.3736C300.536 54.3736 300.145 54.4924 299.812 54.7149C299.479 54.9374 299.219 55.2537 299.066 55.6237C298.912 55.9938 298.872 56.401 298.95 56.7938C299.029 57.1866 299.221 57.5474 299.505 57.8307C299.788 58.1139 300.149 58.3067 300.542 58.3849C300.934 58.463 301.342 58.4229 301.712 58.2696C302.082 58.1164 302.398 57.8568 302.62 57.5238C302.843 57.1908 302.962 56.7992 302.962 56.3987C302.96 55.862 302.747 55.3477 302.367 54.9682C301.988 54.5887 301.473 54.3749 300.937 54.3736Z" fill="#F0F0F0"/>
<path d="M431.132 156H295.698C294.894 155.997 294.123 155.677 293.554 155.108C292.986 154.539 292.665 153.769 292.663 152.965V62.8027H434.167V152.965C434.164 153.769 433.844 154.539 433.275 155.108C432.706 155.677 431.936 155.997 431.132 156Z" fill="#5B5CEE"/>
<path d="M433.307 65.3982H293.523V145.304H433.307V65.3982Z" fill="white"/>
<path d="M355.459 72.2468H302.213C301.196 72.2468 300.371 73.0713 300.371 74.0882V81.1978C300.371 82.2148 301.196 83.0392 302.213 83.0392H355.459C356.476 83.0392 357.301 82.2148 357.301 81.1978V74.0882C357.301 73.0713 356.476 72.2468 355.459 72.2468Z" fill="#5B5CEE"/>
<path d="M424.617 72.7301C424.977 72.7301 425.322 72.8732 425.577 73.1279C425.832 73.3826 425.975 73.7281 425.975 74.0882V81.1978C425.975 81.558 425.832 81.9034 425.577 82.1581C425.322 82.4128 424.977 82.5559 424.617 82.5559H371.37C371.01 82.5559 370.664 82.4128 370.41 82.1581C370.155 81.9034 370.012 81.558 370.012 81.1978V74.0882C370.012 73.7281 370.155 73.3826 370.41 73.1279C370.664 72.8732 371.01 72.7301 371.37 72.7301H424.617ZM424.617 72.2468H371.37C370.882 72.2481 370.414 72.4425 370.069 72.7876C369.724 73.1326 369.53 73.6003 369.529 74.0882V81.1978C369.529 81.6861 369.723 82.1545 370.068 82.4999C370.413 82.8452 370.882 83.0392 371.37 83.0392H424.617C425.105 83.0392 425.573 82.8452 425.919 82.4999C426.264 82.1545 426.458 81.6861 426.458 81.1978V74.0882C426.457 73.6003 426.262 73.1326 425.917 72.7876C425.572 72.4425 425.104 72.2481 424.617 72.2468Z" fill="#5B5CEE"/>
<path d="M309.835 87.8722C311.611 87.8722 313.347 88.3989 314.824 89.3856C316.3 90.3723 317.451 91.7748 318.131 93.4157C318.811 95.0566 318.988 96.8621 318.642 98.6041C318.296 100.346 317.44 101.946 316.184 103.202C314.929 104.458 313.328 105.313 311.587 105.66C309.845 106.006 308.039 105.828 306.398 105.149C304.757 104.469 303.355 103.318 302.368 101.841C301.381 100.364 300.855 98.6282 300.855 96.8522C300.857 94.4713 301.804 92.1887 303.488 90.5052C305.171 88.8217 307.454 87.8748 309.835 87.8722ZM309.835 87.3889C307.963 87.3889 306.133 87.9439 304.577 88.9838C303.021 90.0236 301.808 91.5016 301.092 93.2307C300.375 94.9599 300.188 96.8627 300.553 98.6984C300.918 100.534 301.82 102.22 303.143 103.544C304.467 104.867 306.153 105.768 307.988 106.134C309.824 106.499 311.727 106.311 313.456 105.595C315.185 104.879 316.663 103.666 317.703 102.11C318.743 100.553 319.298 98.7238 319.298 96.8522C319.298 94.3424 318.301 91.9353 316.526 90.1606C314.751 88.3859 312.344 87.3889 309.835 87.3889Z" fill="#5B5CEE"/>
<path opacity="0.4" d="M316.684 100.574C316.013 101.81 315.021 102.842 313.813 103.562C312.605 104.281 311.224 104.661 309.818 104.661C308.412 104.661 307.032 104.281 305.823 103.562C304.615 102.842 303.623 101.81 302.953 100.574C304.985 99.2158 307.374 98.4907 309.818 98.4907C312.262 98.4907 314.652 99.2158 316.684 100.574Z" fill="#5B5CEE"/>
<path opacity="0.4" d="M309.834 97.6599C311.756 97.6599 313.314 96.1019 313.314 94.18C313.314 92.2582 311.756 90.7002 309.834 90.7002C307.912 90.7002 306.354 92.2582 306.354 94.18C306.354 96.1019 307.912 97.6599 309.834 97.6599Z" fill="#5B5CEE"/>
<path opacity="0.4" d="M421.591 101.719H329.481C328.19 101.719 326.952 101.207 326.04 100.294C325.127 99.3811 324.614 98.1432 324.614 96.8524C324.614 96.2134 324.74 95.5808 324.985 94.9906C325.229 94.4004 325.588 93.8642 326.04 93.4126C326.492 92.9611 327.029 92.603 327.619 92.359C328.21 92.1149 328.842 91.9896 329.481 91.9902H421.591C422.23 91.9896 422.863 92.1149 423.453 92.359C424.043 92.603 424.58 92.9611 425.032 93.4126C425.484 93.8642 425.843 94.4004 426.087 94.9906C426.332 95.5808 426.458 96.2134 426.458 96.8524C426.458 98.1432 425.945 99.3811 425.032 100.294C424.12 101.207 422.882 101.719 421.591 101.719Z" fill="#5B5CEE"/>
<path d="M309.835 113.676C311.611 113.676 313.347 114.203 314.824 115.19C316.3 116.176 317.451 117.579 318.131 119.22C318.811 120.861 318.988 122.666 318.642 124.408C318.296 126.15 317.44 127.75 316.184 129.006C314.929 130.262 313.328 131.117 311.587 131.464C309.845 131.81 308.039 131.632 306.398 130.953C304.757 130.273 303.355 129.122 302.368 127.645C301.381 126.168 300.855 124.432 300.855 122.656C300.856 120.275 301.802 117.992 303.486 116.308C305.17 114.624 307.453 113.677 309.835 113.676ZM309.835 113.193C307.963 113.193 306.133 113.748 304.577 114.788C303.021 115.828 301.808 117.306 301.092 119.035C300.375 120.764 300.188 122.667 300.553 124.502C300.918 126.338 301.82 128.024 303.143 129.348C304.467 130.671 306.153 131.572 307.988 131.938C309.824 132.303 311.727 132.115 313.456 131.399C315.185 130.683 316.663 129.47 317.703 127.914C318.743 126.357 319.298 124.528 319.298 122.656C319.298 120.146 318.301 117.739 316.526 115.965C314.751 114.19 312.344 113.193 309.835 113.193Z" fill="#5B5CEE"/>
<path opacity="0.4" d="M316.684 126.349C316.013 127.585 315.021 128.617 313.813 129.336C312.605 130.056 311.224 130.435 309.818 130.435C308.412 130.435 307.032 130.056 305.823 129.336C304.615 128.617 303.623 127.585 302.953 126.349C304.986 124.993 307.375 124.27 309.818 124.27C312.262 124.27 314.65 124.993 316.684 126.349Z" fill="#5B5CEE"/>
<path opacity="0.4" d="M309.834 123.439C311.756 123.439 313.314 121.881 313.314 119.959C313.314 118.037 311.756 116.479 309.834 116.479C307.912 116.479 306.354 118.037 306.354 119.959C306.354 121.881 307.912 123.439 309.834 123.439Z" fill="#5B5CEE"/>
<path opacity="0.4" d="M329.481 117.765H421.591C422.882 117.765 424.12 118.278 425.032 119.191C425.945 120.103 426.458 121.341 426.458 122.632C426.458 123.923 425.945 125.161 425.032 126.074C424.12 126.986 422.882 127.499 421.591 127.499H329.481C328.19 127.499 326.952 126.986 326.04 126.074C325.127 125.161 324.614 123.923 324.614 122.632C324.614 121.343 325.127 120.106 326.038 119.194C326.95 118.282 328.187 117.77 329.476 117.77L329.481 117.765Z" fill="#5B5CEE"/>
</svg>
